<?xml version="1.0" encoding="UTF-8" standalone="no"?>
<svg width="60px" height="60px" viewBox="0 0 60 60" version="1.1" xmlns="http://www.w3.org/2000/svg" xmlns:xlink="http://www.w3.org/1999/xlink" xmlns:sketch="http://www.bohemiancoding.com/sketch/ns">
    <!-- Generator: Sketch 3.3.3 (12081) - http://www.bohemiancoding.com/sketch -->
    <title>logo</title>
    <desc>Created with Sketch.</desc>
    <defs></defs>
    <g id="Page-1" stroke="none" stroke-width="1" fill="none" fill-rule="evenodd" sketch:type="MSPage">
        <g id="homepage" sketch:type="MSArtboardGroup" transform="translate(-980.000000, -40.000000)" fill="#0077EE">
            <g id="logo-+-Shape-+-facebook-ico-+-twiiter-ico-Copy" sketch:type="MSLayerGroup" transform="translate(980.000000, 40.000000)">
                <g id="logo" sketch:type="MSShapeGroup">
                    <path d="M8.78724138,12.5048276 C9.01034483,12.7531034 9.19655172,12.9517241 9.63103448,13.1868966 C10.2148276,13.497931 10.8106897,13.6093103 11.3193103,13.6093103 C12.187931,13.6093103 12.9327586,13.1996552 12.9327586,12.5917241 C12.9327586,11.8965517 12.0517241,11.7848276 11.4065517,11.697931 C10.922069,11.6358621 10.4382759,11.5734483 9.96655172,11.4741379 C9.43310345,11.3624138 7.60793103,10.977931 7.60793103,9.09137931 C7.60793103,6.83241379 9.61862069,6.16172414 11.1334483,6.16172414 C13.1562069,6.16172414 14.2486207,7.14275862 15.0058621,7.82517241 L13.392069,8.97965517 C13.1193103,8.7062069 12.8710345,8.47103448 12.5234483,8.27241379 C12.2134483,8.09862069 11.6541379,7.88724138 11.0958621,7.88724138 C10.2272414,7.88724138 9.79241379,8.38413793 9.79241379,8.80586207 C9.79241379,9.47586207 10.5375862,9.57551724 10.9096552,9.62482759 C11.8403448,9.73655172 13.0944828,9.97275862 13.5910345,10.1465517 C14.5965517,10.5186207 15.1048276,11.3006897 15.1048276,12.2937931 C15.1048276,12.9268966 14.8696552,13.6217241 14.4103448,14.1555172 C13.6155172,15.0741379 12.3496552,15.3348276 11.1206897,15.3348276 C8.65068966,15.3348276 7.67034483,14.1931034 7.12413793,13.56 L8.78724138,12.5048276" id="Fill-1"></path>
                    <path d="M34.1748276,6.64344828 L34.1748276,11.5341379 C34.1627586,12.3775862 34.1506897,13.222069 33.6665517,14.0162069 C32.7231034,15.5306897 30.7744828,15.6048276 30.402069,15.6048276 C29.7437931,15.6048276 28.962069,15.4437931 28.3658621,15.1334483 C26.6782759,14.2644828 26.6782759,12.7255172 26.6903448,11.5341379 L26.6903448,6.64344828 L28.9003448,6.64344828 L28.9003448,12.1044828 C28.9003448,12.5513793 28.912069,12.9237931 29.0610345,13.1968966 C29.3344828,13.6562069 29.9303448,13.7924138 30.4762069,13.7924138 C31.9658621,13.7924138 31.9658621,12.7751724 31.977931,12.0924138 L31.977931,6.64344828 L34.1748276,6.64344828" id="Fill-2"></path>
                    <path d="M45.3572414,6.36689655 L48.15,6.36689655 C49.2175862,6.37931034 50.8310345,6.40413793 51.947931,7.39724138 C52.8541379,8.2162069 53.2017241,9.44517241 53.2017241,10.6737931 C53.2017241,11.4310345 53.09,11.9896552 52.9782759,12.362069 C52.1713793,15.067931 49.7262069,15.117931 48.8075862,15.13 L45.3572414,15.13 L45.3572414,6.36689655 L45.3572414,6.36689655 Z M47.5665517,8.2162069 L47.5665517,13.3675862 L48.2368966,13.3675862 C49.4037931,13.3424138 51.0168966,13.2806897 51.0168966,10.7606897 C51.0168966,10.152069 50.9548276,9.54482759 50.557931,8.99862069 C49.962069,8.2037931 49.117931,8.2162069 48.447931,8.2162069 L47.5665517,8.2162069 L47.5665517,8.2162069 Z" id="Fill-3"></path>
                    <path d="M11.0834483,34.9693103 C8.30310345,34.9693103 6.72689655,32.8344828 6.72689655,30.3024138 C6.72689655,27.9317241 8.22862069,25.6848276 11.0462069,25.6848276 C11.5675862,25.6848276 12.1137931,25.7596552 12.6475862,25.9455172 C15.3286207,26.8765517 15.5024138,29.7934483 15.5024138,30.3893103 C15.5024138,31.9034483 14.8072414,33.2686207 13.8393103,34.0510345 C12.9824138,34.7586207 11.9893103,34.9693103 11.0834483,34.9693103 M12.597931,28.1548276 C12.2255172,27.757931 11.6544828,27.5096552 11.0586207,27.5096552 C9.73068966,27.5096552 8.88655172,28.6765517 8.88655172,30.2651724 C8.88655172,32.3503448 10.0531034,33.12 11.0834483,33.12 C12.1262069,33.12 13.2431034,32.3755172 13.3055172,30.537931 C13.3424138,29.6196552 13.0941379,28.6886207 12.597931,28.1548276" id="Fill-4"></path>
                    <path d="M26.3110345,25.9455172 L28.3965517,25.9455172 L28.3965517,29.5203448 L31.6734483,25.9455172 L34.3044828,25.9455172 L31.2013793,29.197931 L34.5527586,34.7086207 L32.0827586,34.7086207 L29.7372414,30.7368966 L28.3965517,32.1393103 L28.3965517,34.7086207 L26.3110345,34.7086207 L26.3110345,25.9455172" id="Fill-5"></path>
                    <path d="M45.4131034,25.9455172 L49.36,25.9455172 C50.2786207,25.957931 51.4206897,25.9703448 52.2272414,26.8393103 C52.6368966,27.2986207 52.9227586,27.9937931 52.9227586,28.787931 C52.9227586,30.5506897 51.7182759,30.9848276 51.1227586,31.2086207 L53.1458621,34.7086207 L50.7255172,34.7086207 L48.987931,31.5806897 L47.61,31.5806897 L47.61,34.7086207 L45.4131034,34.7086207 L45.4131034,25.9455172 L45.4131034,25.9455172 Z M47.61,27.5841379 L47.61,29.9548276 L49.422069,29.9548276 C49.7327586,29.9424138 50.737931,29.917931 50.737931,28.7506897 C50.737931,27.6341379 49.9306897,27.5965517 49.472069,27.5841379 L47.61,27.5841379 L47.61,27.5841379 Z" id="Fill-6"></path>
                    <path d="M7.68241379,44.5703448 L14.1617241,44.5703448 L14.1617241,46.2706897 L9.86724138,46.2706897 L9.86724138,47.8596552 L13.8762069,47.8596552 L13.8762069,49.5227586 L9.86724138,49.5227586 L9.86724138,51.6082759 L14.5465517,51.6082759 L14.5465517,53.3334483 L7.68241379,53.3334483 L7.68241379,44.5703448" id="Fill-7"></path>
                    <path d="M31.3813793,44.5703448 C31.642069,45.5137931 31.9027586,46.4572414 32.1882759,47.4003448 C32.6724138,49.0882759 32.7593103,49.3613793 33.032069,51.062069 C33.2927586,49.3241379 33.3548276,49.0265517 33.752069,47.2389655 C33.9386207,46.3451724 34.1365517,45.4517241 34.3231034,44.5703448 L36.4951724,44.5703448 L34.2734483,53.3334483 L32.0144828,53.3334483 C31.7410345,52.3651724 31.4803448,51.3972414 31.1955172,50.4413793 C30.7234483,48.827931 30.6982759,48.7658621 30.4375862,47.5368966 C30.2148276,48.6165517 30.19,48.7034483 29.6934483,50.3793103 L28.8489655,53.3334483 L26.59,53.3334483 L24.3682759,44.5703448 L26.5531034,44.5703448 C27.4965517,48.7282759 27.5955172,49.1875862 27.8562069,51.0865517 C28.1789655,49.3489655 28.2658621,49.0141379 28.7251724,47.2765517 L29.4451724,44.5703448 L31.3813793,44.5703448" id="Fill-8"></path>
                    <path d="M49.122069,44.6227586 L50.4948276,47.4041379 L53.5644828,47.8503448 L51.3434483,50.0148276 L51.8675862,53.0717241 L49.122069,51.6289655 L46.3768966,53.0717241 L46.9013793,50.0148276 L44.68,47.8503448 L47.7496552,47.4041379 L49.122069,44.6227586" id="Fill-9"></path>
                    <path d="M0,60 L60,60 L60,0 L0,0 L0,60 Z M40,20.6896552 L58.2758621,20.6896552 L58.2758621,39.3103448 L40,39.3103448 L40,20.6896552 Z M40,1.72413793 L58.2758621,1.72413793 L58.2758621,20.3448276 L40,20.3448276 L40,1.72413793 Z M20.6896552,1.72413793 L39.6551724,1.72413793 L39.6551724,20.3448276 L20.6896552,20.3448276 L20.6896552,1.72413793 Z M20.6896552,20.6896552 L39.6551724,20.6896552 L39.6551724,39.3103448 L20.6896552,39.3103448 L20.6896552,20.6896552 Z M1.72413793,20.6896552 L20.3448276,20.6896552 L20.3448276,39.3103448 L1.72413793,39.3103448 L1.72413793,20.6896552 Z M1.72413793,1.72413793 L20.3448276,1.72413793 L20.3448276,20.3448276 L1.72413793,20.3448276 L1.72413793,1.72413793 Z M1.72413793,39.6551724 L20.3448276,39.6551724 L20.3448276,58.2758621 L1.72413793,58.2758621 L1.72413793,39.6551724 Z M20.6896552,39.6551724 L39.6551724,39.6551724 L39.6551724,58.2758621 L20.6896552,58.2758621 L20.6896552,39.6551724 Z M40,39.6551724 L58.2758621,39.6551724 L58.2758621,58.2758621 L40,58.2758621 L40,39.6551724 Z" id="Fill-10"></path>
                </g>
            </g>
        </g>
    </g>
</svg>