<svg xmlns="http://www.w3.org/2000/svg" xmlns:xlink="http://www.w3.org/1999/xlink" width="102" height="116" viewBox="0 0 102 116">
  <defs>
    <path id="canoe-icon-a" d="M56.6419807,1.84560834 L97.6485266,25.5207486 L97.6485266,25.5207486 C100.7149,27.2911199 102.603863,30.5629009 102.603863,34.1036435 L102.603863,81.453924 L102.603863,81.453924 C102.603863,84.9946666 100.7149,88.2664476 97.6485266,90.0368189 L56.6419807,113.711959 L56.6419807,113.711959 C53.5756077,115.48233 49.7976804,115.48233 46.7313074,113.711959 L5.72476159,90.0368189 L5.72476159,90.0368189 C2.6583886,88.2664476 0.769424932,84.9946666 0.769424932,81.453924 L0.769424932,34.1036435 L0.769424932,34.1036435 C0.769424932,30.5629009 2.6583886,27.2911199 5.72476159,25.5207486 L46.7313074,1.84560834 L46.7313074,1.84560834 C49.7976804,0.0752370681 53.5756077,0.0752370681 56.6419807,1.84560834 Z"/>
  </defs>
  <g fill="none" fill-rule="evenodd" transform="translate(-.72)">
    <mask id="canoe-icon-b" fill="#fff">
      <use xlink:href="#canoe-icon-a"/>
    </mask>
    <path fill="#FFF" d="M72.8731799,92.3251473 C69.8560592,92.8583914 54.3454463,85.4074512 40.9784953,78.3656646 C41.3662778,78.0430295 42.0887598,77.6180198 43.4299704,77.1344119 C50.2728676,80.5186334 57.7503495,84.1544826 63.3943954,86.6814461 C63.3940507,86.7262566 63.3930166,86.7721011 63.3930166,86.8169115 C63.3930166,90.0915198 64.5994512,87.8509983 64.5994512,87.8509983 C64.5994512,87.8509983 64.5767013,87.5983365 64.545334,87.1926297 C65.3767398,87.5583518 66.1574754,87.8937406 66.883749,88.196728 C67.0305893,88.6144991 67.1936304,88.7671993 67.3570161,88.7127374 C67.4069969,88.696192 67.4500839,88.6014007 67.4880004,88.4466324 C69.6302836,89.3228486 71.2051978,89.8633313 71.9356078,89.915725 C76.237409,90.2225041 80.3668624,84.6694579 80.5702328,84.4143831 C80.4564833,84.7004805 78.1125531,91.4013631 72.8731799,92.3251473 L72.8731799,92.3251473 Z M37.3971079,94.8758948 C35.3909795,93.5694985 33.3296997,92.3079126 31.3304652,91.2221214 C28.5763473,89.7295894 26.004918,88.5300487 23.7609496,87.5821358 C24.8570817,85.6173708 32.681672,80.9364044 34.6636717,79.7713333 C38.644906,82.2876112 43.0845854,84.9831309 47.5414996,87.5338784 C44.842533,89.1436069 38.4449825,93.0834777 37.3971079,94.8758948 L37.3971079,94.8758948 Z M20.6242196,66.686688 C19.9089762,65.9852324 19.0868772,63.2190502 19.0868772,63.2121563 C19.0868772,63.2121563 19.7176702,65.4974882 26.2910154,68.6273243 C28.581173,69.7189753 34.2848513,72.5961495 40.9292038,75.8952312 C40.3625242,76.2282071 39.6938147,76.8031594 39.1043852,77.3739753 C29.6907482,72.3672716 21.7331054,67.773858 20.6242196,66.686688 L20.6242196,66.686688 Z M36.6118913,47.1827764 C36.7680384,47.5212675 36.9255643,47.8597586 37.0855031,48.1999731 C33.7757358,51.5983271 26.1255615,59.2447098 20.3550123,63.7467792 C20.1768047,63.5382383 20.0144531,63.3341785 19.8669233,63.1345998 C21.9912824,61.1863802 32.3590369,51.6479633 36.6118913,47.1827764 L36.6118913,47.1827764 Z M47.7228095,78.398066 C46.617026,77.865856 45.5140001,77.3326119 44.4223491,76.8031594 C44.4650913,76.7897163 44.5057654,76.7766178 44.5498865,76.7631747 C47.6007873,75.8307731 47.6824802,77.3364035 47.7228095,78.398066 L47.7228095,78.398066 Z M38.7658942,74.0459392 C39.1598812,74.0686891 39.6714095,74.0252575 40.2984108,73.8908262 C42.4992923,73.4192826 42.4517243,75.1417266 41.8164503,75.5360584 C40.7785718,75.0303899 39.7589622,74.53196 38.7658942,74.0459392 L38.7658942,74.0459392 Z M60.8274472,84.5522614 C57.2143478,82.9180595 53.0821369,80.9705293 48.931657,78.9792228 C49.0133499,78.5445616 49.3980302,76.3705664 49.0881488,75.4419565 C48.7434532,74.4078696 46.330584,74.7525652 46.330584,74.7525652 C46.330584,74.7525652 47.3646708,73.0290872 46.6752796,71.9950004 C45.9858884,70.9609135 44.6071059,69.9268267 44.6071059,69.9268267 C45.1241493,69.2374355 45.2964972,67.1692619 43.5730191,67.1692619 C41.8495411,67.1692619 42.1942367,69.5821311 42.1942367,69.5821311 C42.1942367,69.5821311 42.2518008,70.2139582 42.0218889,71.0184777 C41.7923216,71.8226526 39.8964958,71.7650884 38.5177133,72.6843916 C38.0103214,73.022538 37.7931632,73.3444837 37.8383183,73.5916304 C32.2249503,70.8399254 27.592586,68.5421845 25.6016242,67.5932375 C23.6678818,66.6725555 22.2518723,65.6439838 21.2119256,64.6498817 C22.8723244,63.1280505 32.8702205,53.9436361 37.5363649,49.1520224 C42.9570481,60.4887163 50.4658972,72.7681526 60.8274472,84.5522614 L60.8274472,84.5522614 Z M66.9540669,32.8761852 L70.5609618,74.4106272 C68.6034354,73.6533309 66.2891491,73.1552458 66.6676249,73.0290872 C67.1846683,72.8567394 67.1908728,69.4666581 65.8058858,69.5821311 C63.7377122,69.7544789 64.6035876,72.9849662 64.6035876,72.9849662 C64.0899911,72.7481603 63.4102514,72.6540584 62.6908716,72.649922 C63.6298225,62.2359783 65.1223544,46.9976749 66.9540669,32.8761852 L66.9540669,32.8761852 Z M67.5335002,75.2254876 C67.9971158,74.8942351 69.7547187,75.3092486 69.7698853,77.1654345 C69.7740217,77.6383569 67.8740595,78.3718691 67.5335002,78.3277481 C67.1925963,78.283627 67.0698846,75.5567401 67.5335002,75.2254876 L67.5335002,75.2254876 Z M64.5994512,81.129434 C65.1164946,80.0953472 66.3229293,81.129434 66.3229293,81.129434 C66.3229293,83.9804114 66.4456409,85.8907144 66.6307424,87.0830165 C65.9572072,86.8048472 65.2347252,86.4980681 64.473982,86.1688838 C64.36299,84.4047317 64.2654412,81.7974541 64.5994512,81.129434 L64.5994512,81.129434 Z M62.5419631,74.3120442 C63.2803011,74.4385475 63.799068,74.5360964 63.799068,74.5360964 C63.799068,74.5360964 64.2547556,76.9930867 64.0824078,78.3718691 C63.9293629,79.5969173 63.5050427,82.7264087 63.4119748,85.7059576 C62.8408142,85.4546745 62.25104,85.1927058 61.6440311,84.9203963 C61.7498526,83.5805645 62.0611128,79.7182502 62.5419631,74.3120442 L62.5419631,74.3120442 Z M71.8163432,88.8675057 C71.0649067,88.775472 69.5892648,88.2732505 67.6145037,87.4832081 C67.8037416,85.1017062 67.7017117,80.0953472 67.7017117,80.0953472 C67.7017117,80.0953472 69.4475949,79.1236502 70.8746348,78.0247606 L71.8163432,88.8675057 Z M81.9524622,81.99462 C81.9524622,81.99462 81.9524622,81.9980669 81.9490153,82.0015139 C81.7711523,82.2245319 77.5427713,87.5449086 73.6084156,88.6796466 L74.978236,88.0005962 L68.5855112,21.2909658 C70.0053124,12.0813885 71.564026,4.27368831 73.1861635,-0.0246659286 C73.1861635,-0.0246659286 70.8070744,1.61539578 66.8834043,3.53017988 L65.4966939,-10.9384183 L63.4354141,-7.6403707 L64.5015577,4.63423991 C54.6698048,8.9598251 38.144408,13.3708948 23.7237225,3.4188432 C23.7237225,3.4188432 25.3503411,22.3788251 36.1713703,46.2245226 C33.1397724,49.3581504 25.5544009,57.7090909 19.4153721,62.4734736 C18.5463945,61.0853844 18.4009329,60.0823201 18.4009329,60.0823201 C18.4009329,60.0823201 18.4009329,60.0857671 18.397486,60.096108 L18.397486,60.1098958 C18.397486,60.1167897 18.397486,60.1236836 18.394039,60.1340245 L18.394039,60.1443654 C18.3044182,60.7958401 17.608133,66.5212341 19.965851,69.4718285 C20.8172491,70.5369379 25.9704485,74.2010523 32.8298911,78.6028152 C31.3649348,79.4680012 23.0095132,84.4557466 21.4342543,86.6445637 C17.687413,85.2002891 15.2917785,84.6039657 15.2193925,84.5901779 C15.2952255,84.7073744 17.9080182,88.5886469 30.0378567,96.3063816 C42.3607247,104.148207 50.8057671,104.66525 50.8057671,104.66525 C50.8057671,104.66525 45.3078721,100.166972 38.8310416,95.8238078 C40.058158,93.9452167 46.6211624,89.9329598 49.1339934,88.4404278 C58.9681591,93.9865802 68.5989544,98.6365239 73.1868529,98.8984926 C84.1412793,99.5258386 81.9524622,81.99462 81.9524622,81.99462 L81.9524622,81.99462 Z" mask="url(#canoe-icon-b)"/>
    <path stroke="#FFF" stroke-width="1.487" d="M56.2703305,2.48932546 C53.4339355,0.851732029 49.9393527,0.851732029 47.1029577,2.48932546 L6.09641184,26.1644657 C3.26001682,27.8020592 1.51272543,30.8284566 1.51272543,34.1036435 L1.51272543,81.453924 C1.51272543,84.7291109 3.26001682,87.7555083 6.09641184,89.3931018 L47.1029577,113.068242 C49.9393527,114.705835 53.4339355,114.705835 56.2703305,113.068242 L97.2768763,89.3931018 C100.113271,87.7555083 101.860563,84.7291109 101.860563,81.453924 L101.860563,34.1036435 C101.860563,30.8284566 100.113271,27.8020592 97.2768763,26.1644657 L56.2703305,2.48932546 Z"/>
  </g>
</svg>
