<?xml version="1.0" encoding="UTF-8"?>
<svg width="22px" height="22px" viewBox="0 0 22 22" version="1.1" xmlns="http://www.w3.org/2000/svg" xmlns:xlink="http://www.w3.org/1999/xlink">
    <!-- Generator: Sketch 45.2 (43514) - http://www.bohemiancoding.com/sketch -->
    <title>Page 1</title>
    <desc>Created with Sketch.</desc>
    <defs></defs>
    <g id="Symbols" stroke="none" stroke-width="1" fill="none" fill-rule="evenodd">
        <g id="Component-/-Forum-/-Messages" transform="translate(-37.000000, -3.000000)" fill="#4A4A4A">
            <path d="M54.6103286,9.61032864 L54.6103286,7.38967136 L41.3896714,7.38967136 L41.3896714,9.61032864 L54.6103286,9.61032864 Z M54.6103286,12.915493 L54.6103286,10.6948357 L41.3896714,10.6948357 L41.3896714,12.915493 L54.6103286,12.915493 Z M54.6103286,16.2206573 L54.6103286,14 L41.3896714,14 L41.3896714,16.2206573 L54.6103286,16.2206573 Z M56.8309859,3 C57.4162776,3 57.9240996,3.21517942 58.3544617,3.64553825 C58.7848206,4.07590039 59,4.58372237 59,5.16901408 L59,18.3896714 C59,18.9749631 58.7848206,19.4913917 58.3544617,19.9389671 C57.9240996,20.3865426 57.4162776,20.6103286 56.8309859,20.6103286 L41.3896714,20.6103286 L37,25 L37,5.16901408 C37,4.58372237 37.2151778,4.07590039 37.6455399,3.64553825 C38.075902,3.21517942 38.5837217,3 39.1690141,3 L56.8309859,3 Z" id="Page-1"></path>
        </g>
    </g>
</svg>