<svg xmlns="http://www.w3.org/2000/svg" xmlns:xlink="http://www.w3.org/1999/xlink" width="103" height="115" viewBox="0 0 103 115">
  <defs>
    <path id="conch-icon-a" d="M56.3946903,1.36459432 L97.4934774,25.0577718 L97.4934774,25.0577718 C100.56296,26.8273082 102.454333,30.1008317 102.454333,33.6438508 L102.454333,81.0047229 L102.454333,81.0047229 C102.454333,84.547742 100.56296,87.8212655 97.4934774,89.590802 L56.3946903,113.283979 L56.3946903,113.283979 C53.3311237,115.050105 49.5586219,115.050105 46.4950554,113.283979 L5.39626821,89.590802 L5.39626821,89.590802 C2.32678534,87.8212655 0.435412331,84.547742 0.435412331,81.0047229 L0.435412331,33.6438508 L0.435412331,33.6438508 C0.435412331,30.1008317 2.32678534,26.8273082 5.39626821,25.0577718 L46.4950554,1.36459432 L46.4950554,1.36459432 C49.5586219,-0.401531417 53.3311237,-0.401531417 56.3946903,1.36459432 Z"/>
  </defs>
  <g fill="none" fill-rule="evenodd" transform="translate(0 .015)">
    <mask id="conch-icon-b" fill="#fff">
      <use xlink:href="#conch-icon-a"/>
    </mask>
    <path fill="#FFF" d="M78.0371501,79.8009249 C77.9831387,79.8362205 77.9290093,79.8714011 77.8749979,79.9065817 C77.5457406,79.4158928 77.2095254,78.9295727 76.8895844,78.4332503 C76.6207067,78.0162568 76.3495882,77.5983434 76.116325,77.16215 C75.5285676,76.0630437 74.962745,74.9529003 74.3846578,73.8487353 C74.3139005,73.7135314 74.2063494,73.595343 74.1449084,73.4571499 C74.0783966,73.3074599 74.0459661,73.1433988 74.0671933,72.9581833 C75.6769221,75.0906335 76.9338078,77.4042753 78.0371501,79.8009249 M97.2631858,87.545074 C96.7516234,89.1494282 96.1670588,92.4312108 94.5593694,93.1605322 C93.5979564,93.5966811 89.3513411,93.9718983 88.3680056,93.1783633 C88.1759641,93.0233537 86.828276,91.7177512 88.660233,90.3341517 C91.3640495,88.2921171 85.4959336,90.4168526 85.4737918,90.0728124 C85.4608575,89.873827 87.9370084,86.8715428 87.5382374,86.7521954 C87.1394664,86.6328479 84.0261369,87.8896612 83.9491888,87.6518414 C83.8312455,87.2872353 85.145721,84.8022695 86.4218321,84.0859658 C87.6977239,83.369662 84.9464451,83.8869804 84.1090041,84.0063278 C83.2716727,84.1257847 82.1551577,83.648176 82.5938277,83.2900241 C83.0917982,82.8834112 87.8564431,81.4368015 88.2217822,80.8534099 C89.5944621,78.6617261 79.440928,79.4948613 79.15451,78.8249401 C78.8682016,78.1550189 82.5792492,77.3346826 82.9603726,76.9152708 C84.5155576,75.2040399 77.6180688,76.0168281 77.4773261,76.0167187 C77.502537,75.8722109 85.1091104,72.7533141 85.0796246,71.8102392 C85.0500291,70.8672736 77.7603461,74.8081476 76.3778011,72.6528915 C74.9952561,70.4975261 80.6895263,69.1512295 83.2527097,67.8721 C86.0295282,66.4865314 74.6298073,68.6014215 73.606792,66.9241024 C72.5837767,65.246674 74.7387624,64.2799702 75.0490759,63.9302416 C75.5674344,63.3461937 71.6443958,62.9390338 71.3136943,62.7603955 C71.0433894,62.6143561 70.9336671,62.248328 71.0996207,61.9045066 C71.2793855,61.5323524 72.8359955,60.5279081 73.1002717,60.2172327 C73.8706298,59.3113513 69.6749844,60.2172327 68.9663383,59.74575 C68.6200718,59.5153688 67.1547692,57.5716784 66.4955584,56.8041788 C65.8364573,56.0367887 38.5605424,31.8123104 38.6436289,32.0577877 C38.8415894,32.6421638 39.081422,33.2355101 39.4254963,33.74353 C40.5880486,35.4605587 42.0568588,36.9207332 43.4878526,38.4108813 C44.033395,38.9788484 44.5259945,39.5995429 45.0913768,40.1459597 C45.9949143,41.0191327 46.9370354,41.8525961 47.8667703,42.6984208 C48.3476413,43.1357731 48.8354178,43.5656866 49.3226462,43.9960377 C50.4330229,44.9765249 51.5653221,45.9331646 52.6518032,46.9392497 C54.7127412,48.8476063 56.7767483,50.7544314 58.7859491,52.7163904 C61.0740047,54.9505186 63.3238053,57.2245752 65.5446683,59.5251048 C66.1381114,60.1397827 66.5449938,60.9301453 67.0751904,61.6106776 C67.4815247,62.1321529 67.9821259,62.5813195 68.3791431,63.1089208 C69.1920309,64.1891742 69.9790501,65.2896653 70.7460101,66.4030648 C71.2120833,67.0795495 71.647465,67.7805383 72.0477706,68.4977172 C72.489729,69.2893926 72.8762234,70.1118073 73.2848595,70.9218606 C73.3194971,70.9904499 73.3385697,71.0666966 73.3648768,71.1394428 C73.3064532,71.151476 73.24792,71.1635092 73.1894965,71.1755424 C73.1145214,71.0312534 73.0537959,70.877119 72.9621597,70.7443162 C72.4313054,69.9750663 71.9007799,69.2053789 71.3555664,68.4461932 C70.6278476,67.4328881 69.8921272,66.4251621 69.1495011,65.4225775 C68.7099542,64.8291218 68.2528693,64.2484651 67.7995111,63.6652923 C67.170115,62.8557859 66.5474052,62.0407005 65.9009095,61.2448683 C65.5417087,60.8028121 65.1434858,60.391933 64.7567722,59.9724117 C64.0553605,59.2114757 63.3223804,58.4777786 62.6503449,57.6920104 C60.2337137,54.8658486 57.5324183,52.3183102 54.8528262,49.7520656 C53.3324981,48.2958292 51.7328103,46.9215281 50.1583335,45.522176 C49.3885235,44.8379243 48.6087387,44.1630804 47.8087852,43.514272 C45.5766322,41.7036031 44.1311695,40.5293813 42.1361087,38.4781578 C41.5580114,37.8837176 40.1068488,36.4810837 39.5431107,36.002928 C38.9460503,35.4963301 38.5598848,35.1091892 38.1621003,34.5402375 C38.0364841,34.3606146 37.0233339,32.6767319 36.8092603,32.5712773 C36.7554405,33.2426206 37.0784691,34.8549604 37.4493985,35.3111282 C38.2568056,36.304305 39.0506208,37.3109371 39.9031884,38.2646231 C40.854517,39.3284677 41.8244798,40.3818105 42.8577988,41.3649232 C44.9304653,43.3369463 47.0450039,45.2654312 49.1542811,47.1986199 C54.2127977,51.8349036 59.0171223,56.7274945 63.7850556,61.6559662 C64.6286349,62.5279359 65.4075428,63.4725423 66.1321923,64.4461378 C67.0796845,65.71936 67.9522016,67.0488102 68.8397357,68.3656801 C69.3147971,69.070607 69.7592766,69.7963186 70.2073733,70.5190765 C70.8600073,71.5720911 71.5081472,72.62795 72.1491623,73.6880752 C72.5336837,74.3240846 72.9075726,74.9667671 73.2746655,75.6130594 C73.79697,76.5323961 76.7929044,82.5654065 77.1831256,83.4074025 C77.6311127,84.3739969 84.4466112,97.0514137 85.0338064,97.9478873 C85.7163647,98.9895251 89.0644847,103.538732 89.1774954,103.662127 C89.2143252,103.639264 87.4873771,98.4157601 87.0167002,97.6698109 C86.0160459,96.0837254 85.5177465,95.1852827 85.1686301,94.5733397 C84.6790997,93.7150441 84.215438,92.840996 83.768547,91.959728 C83.1884766,90.8153704 82.6400843,89.6552602 82.0706463,88.5055424 C81.8681916,88.0968511 81.6330724,87.7042405 81.4327004,87.2945646 C81.092353,86.5984985 80.7711877,85.8930247 80.4351152,85.1947707 C80.2592964,84.8295083 80.0534438,84.4780294 79.888367,84.1081725 C79.4988035,83.2360935 79.1264492,82.3562476 78.744997,81.4804492 C78.5891277,81.1225161 78.4214203,80.7697245 78.270922,80.4096035 C78.1983584,80.2357784 78.1530884,80.0504671 78.0954321,79.8704066 C78.1397156,79.8475435 78.1839992,79.8247898 78.2282827,79.8019268 C78.4395064,80.1491394 78.6506204,80.496352 78.8620633,80.8433458 C79.1003613,81.234753 79.3440304,81.6228785 79.5762997,82.0177864 C80.1993383,83.0768176 80.8264325,84.133661 81.4350023,85.2008967 C81.918175,86.048253 82.3669294,86.9149718 82.8483484,87.7633126 C83.2862512,88.5347503 83.7565993,89.2879194 84.1957077,90.0587007 C84.6519158,90.8593463 85.0754593,91.6785886 85.5369287,92.4760618 C85.8848395,93.0773937 86.2836105,93.6491897 86.6354672,94.2483338 C87.0769872,95.0001902 87.489679,95.7686743 87.9224299,96.5256721 C88.1817736,96.9792145 88.4609571,97.42138 88.7216161,97.8741566 C89.1392405,98.5995399 89.6030119,99.304795 89.9490592,100.063215 C90.4499892,101.160971 90.8895361,102.289029 91.2977338,103.424854 C91.4177597,103.758721 91.8683776,105.012909 88.9354705,105.207519 C86.0025635,105.402128 85.0134185,103.029728 81.5938311,98.4660808 C81.4620766,98.290396 81.3086188,98.1107731 81.1392672,97.9285248 C79.7387457,96.3264679 75.1928878,91.5166873 68.8227457,88.6760857 C61.0953791,85.2304328 36.4338368,78.3390175 32.6523083,69.3145529 C28.8708893,60.2900883 28.3776322,56.8444354 29.1997274,51.593802 C30.0217131,46.3431686 28.0487941,41.7488917 29.1997274,40.4362881 C30.3505512,39.1236844 33.8032416,39.1236844 34.4609178,37.8109714 C35.1184844,36.4983677 35.1897327,31.3056031 35.1897327,31.3056031 C35.2286452,30.5950972 35.1793195,29.2431122 36.8174813,28.7710824 C38.4556431,28.2991621 41.6423035,31.5965879 44.7924629,32.0342683 C47.6142227,32.4264413 50.5743137,31.238436 51.8901045,30.0047045 C53.206005,28.7710824 54.8286018,27.1437558 56.3560548,24.9508687 C57.8836174,22.7578722 62.7984317,26.9225637 63.932375,27.6568078 C64.6128507,28.0975512 74.876984,36.9368139 80.2809997,44.9676641 C85.7438775,53.0858097 93.2910408,65.7965913 92.8815277,67.8098556 C92.4719051,69.8231198 90.4491123,72.2668445 89.9706529,74.4555747 C89.4920838,76.6443049 90.623835,78.889263 91.2067553,79.6686864 C92.9516799,82.0024714 94.2042242,81.5513357 95.1476607,82.3118341 C97.0475777,83.8433326 97.7746387,85.9406105 97.2631858,87.545074 M13.5544314,67.1346773 C14.1544647,66.581314 14.810964,66.0858684 15.4696604,65.6021168 C15.8929355,65.2913464 16.3632289,65.0445613 16.8158355,64.7747195 C18.1413577,63.9844998 19.3898709,63.0931171 20.4116413,61.9214122 C21.2480847,60.9620725 21.8266961,59.8717835 21.9333662,58.5737625 C22.0188342,57.5310212 22.1368195,56.4885006 22.1614272,55.4439942 C22.1836181,54.5039605 22.0692581,53.5612791 22.0691482,52.619701 C22.0691482,51.7482861 21.8337269,50.8255726 22.2451375,50.0125168 C22.6565481,49.199461 23.8961629,48.9538895 24.5465103,48.7363391 C25.2768328,48.4922018 26.6209206,47.8939383 27.2436942,48.2560074 C27.8663578,48.6181868 25.2035589,50.652812 25.0299864,51.9316373 C24.8563041,53.210573 25.6088176,58.4424821 24.4510454,61.0583816 C23.2932733,63.674281 22.6662154,64.5770267 21.3250937,65.3601858 C19.983972,66.1432347 20.4649214,65.0988386 18.6070372,66.4285213 C17.8380454,67.8626767 17.9575687,68.7509704 16.4099177,68.9658731 C14.8622667,69.1806655 12.8849691,67.7521364 13.5544314,67.1346773 M11.9123885,56.7538961 C11.464529,57.1096618 9.73305019,58.9604622 9.43368639,59.0479491 C9.12256802,59.1390992 8.84002726,58.7478863 8.98690532,58.4373724 C9.16257666,58.0660918 9.32185632,57.6579633 9.59652477,57.368136 C10.285838,56.6406587 11.0241105,55.9576791 11.7666967,55.2831034 C12.185655,54.9024492 12.7010223,54.6199484 13.0861189,54.2116044 C13.7937649,53.4612857 14.1604209,52.5422423 14.0752273,51.495955 C14.0158075,50.767508 13.9389175,50.0346437 13.78902,49.3206342 C13.5456251,48.161325 13.9259767,47.2911967 15.0111705,46.8046317 C15.4039238,46.6285804 15.8312936,46.5296728 16.242811,46.3954257 C17.0662772,46.1267159 17.892655,45.8343028 18.4565503,45.1413032 C18.9295365,44.5599247 19.108443,43.8595985 18.9975835,43.1003372 C18.8843515,42.3243759 18.7409243,41.5499229 18.6831221,40.769544 C18.625212,39.9873336 19.3191624,39.5024924 20.0595917,39.7873635 C20.8064915,40.0747127 21.5373231,40.4049435 22.267939,40.7324806 C22.42765,40.8041294 22.5569501,40.9438714 22.7088967,41.0588326 C22.2926343,41.3532928 21.9718104,41.3026539 21.4756386,40.8336508 C21.201725,40.5746379 20.9156255,40.4200274 20.5350582,40.4818716 C20.3363091,40.9384843 20.6627408,41.4449817 21.250253,41.5889256 C21.3977781,41.6250194 21.5471365,41.655726 21.6973576,41.6777055 C22.5565188,41.8031177 22.9247923,41.6184471 23.3053597,40.7278477 C23.5128438,40.2423601 23.786973,39.8589045 24.3725442,39.5473133 C23.9717029,39.357471 23.664359,39.1891773 23.3405155,39.0634418 C22.8040116,38.8551755 22.6909952,38.7097232 22.8140407,38.1594823 C22.9807613,37.4135811 23.2159603,36.6813631 23.3528092,35.9307212 C23.4901974,35.1767393 23.5365686,34.4063806 23.6361049,33.6449644 C23.672447,33.366881 23.7473958,33.0938616 23.8175996,32.7567353 C24.4031707,33.0891209 24.5293435,33.5977732 24.7400628,34.0368238 C24.8413246,34.2478914 24.8902839,34.4997933 24.8975092,34.7352106 C24.9036561,34.9364736 24.7960318,35.1385985 24.7759736,35.3439557 C24.7549448,35.5601948 24.7201124,35.8018612 24.7910712,35.9957977 C25.2991053,37.3825512 26.3437513,38.5375507 26.3437513,39.0223919 C26.3437513,39.5072331 24.7923652,39.5853464 24.7800715,40.6385292 C24.7678856,41.691712 24.4026315,44.7327437 24.4026315,45.5946835 C24.4026315,46.4566234 23.1498544,46.9851003 22.7620618,47.5552736 C22.3116142,48.2172434 19.5199604,52.1439183 17.8813318,53.403428 C16.2427032,54.6630454 11.9123885,56.7538961 11.9123885,56.7538961 M11.0035251,47.3650288 C10.874972,47.296817 10.6694886,47.2715411 10.538696,47.3236381 C10.1379195,47.4830198 10.0111581,47.2847861 9.98383498,46.954875 C9.95863947,46.6502397 9.90332134,46.3254058 9.98069954,46.0409692 C10.0808097,45.6725371 10.3813641,45.6161355 10.6576188,45.8911902 C10.9804572,46.2128232 11.2739568,46.565582 11.5567064,46.9229765 C11.7352025,47.1486936 11.9023887,47.2334617 12.0920828,46.970769 C12.5738209,46.303993 12.5748287,45.8212124 12.5154793,45.0339068 C12.4562419,44.2464909 11.861404,45.3791601 11.5988108,44.6472629 C11.3364417,43.9153657 12.0206396,43.3620553 12.0712546,42.6893191 C12.0938745,42.3892093 12.2155968,42.0697838 12.4827811,42.0968257 C12.7195069,42.120777 12.9399956,42.414154 13.1360726,42.6181272 C13.1769453,42.660732 13.1019187,42.9141532 13.0414495,42.9304887 C12.8043878,42.9943959 12.6887124,43.1555435 12.8023721,43.3287221 C12.9077453,43.4892074 13.1294658,43.6363374 13.3191599,43.6647038 C13.4976561,43.6913042 13.7413246,43.6015693 13.8851069,43.4807086 C14.159122,43.2502454 14.4100693,42.979716 14.6128651,42.6868909 C14.6908032,42.5743083 14.6762458,42.2780616 14.5866618,42.2049932 C14.4738979,42.1129404 14.2408675,42.1541103 14.0602437,42.1583046 C14.0030219,42.1597395 13.9499434,42.2527857 13.89037,42.2586355 C13.7497231,42.2726532 13.5605888,42.3120571 13.4776116,42.2418585 C13.4005694,42.1766268 13.3797411,41.9553248 13.4322597,41.8506892 C13.5724587,41.5714402 13.7425564,41.299476 13.9428886,41.0585272 C14.2399716,40.7014637 14.5052523,40.3428551 14.445455,39.8509133 C14.4180199,39.6247547 14.3209332,39.3989273 14.3343708,39.1775148 C14.3655012,38.6594142 14.832234,38.4363461 15.2699639,38.7290608 C15.5433071,38.911842 16.8715021,38.7683544 16.7727357,38.1961699 C16.6740813,37.6239854 16.5058873,37.2228823 16.5467601,36.756658 C16.5871848,36.2966146 16.3367975,35.5026865 16.7666888,35.2755346 C17.1966921,35.048493 17.3625345,35.92156 17.6249037,36.2292858 C17.7620792,36.390323 18.82253,37.7161486 18.1927544,38.600805 C17.746514,39.2275148 17.6571539,39.7409797 18.1089933,40.3479323 C18.1213111,40.3644886 18.1091053,40.3985945 18.1079855,40.4376673 C17.8438246,40.4964972 17.5767523,40.555879 17.2879558,40.6201173 C17.1497725,41.0160328 17.2714948,41.3806017 17.4017275,41.7707776 C17.7269175,42.7447274 18.1316133,43.7270658 17.9291534,44.7764018 C17.8117984,45.38501 17.4502149,45.9109473 16.8213351,46.1426246 C15.9701749,46.456421 15.0830692,46.6816966 14.249042,47.0322479 C13.7320302,47.2494661 13.2641777,47.6018937 12.8136821,47.9441669 C12.4931953,48.1877647 12.3030532,48.219332 11.9626339,47.9694428 C11.6587202,47.7462644 11.3370016,47.5418497 11.0035251,47.3650288 M8.49675502,44.1355353 C8.74900851,43.1684038 8.71300319,42.7027837 8.82112728,41.556518 C8.92925136,40.4103597 9.89696191,40.2158588 10.6925389,39.3100864 C11.4882241,38.4044215 11.8607115,38.194554 12.2150341,37.4219233 C12.5694649,36.6492927 12.9739571,35.7971424 13.7906183,35.3172303 C14.1000694,35.135517 14.3353474,35.2776854 14.3890851,35.6399298 C14.4144943,35.811327 14.4253067,35.9919657 14.4004381,36.1622883 C14.4294154,37.2154945 13.4877627,36.517333 13.5359861,37.3525048 C13.5841013,38.1875691 13.2943287,39.3777856 13.2943287,39.3777856 C13.2943287,39.3777856 12.7857131,40.3744683 12.3015334,40.8251516 C11.81757,41.2758349 11.3439865,41.0908979 11.1324958,41.3719033 C10.9210051,41.6530162 11.4161053,43.2042951 10.2267404,44.4579124 C9.03737544,45.7116372 8.24450154,45.1026668 8.49675502,44.1355353 M8.32932957,41.192906 C7.25670796,41.1186716 8.80533524,38.4875262 8.91743427,37.5201426 C9.02953329,36.552759 8.85276974,35.809414 10.4074172,35.1065807 C10.5320754,34.6194387 11.4431914,33.5877261 11.8237053,34.849042 C12.204323,36.110358 11.452014,37.5525297 11.2009329,37.7797959 C11.063923,38.0217531 11.4777553,38.4105095 11.087796,38.9024372 C10.6979405,39.3943649 9.85159282,39.8944172 9.85159282,39.8944172 C9.61026852,39.9348176 8.9889493,41.2385373 8.32932957,41.192906 M7.00125384,37.2222308 C6.9014189,37.2124303 6.2512483,37.1855616 6.01439198,36.5248551 C5.77753566,35.8641486 6.43907536,35.2352661 6.88282568,34.4968165 C7.326576,33.758477 8.26452703,33.6251244 8.26452703,33.6251244 C8.38461318,33.4276833 8.96514802,32.6065352 9.44880863,32.7808516 C9.93235081,32.955168 10.4356705,34.1389338 8.97509599,34.3225001 C8.97509599,34.3225001 7.61459328,35.3636634 7.52150875,35.8807764 C7.42842422,36.3979994 7.40675186,37.2620934 7.00125384,37.2222308 M5.59294665,35.2383062 C5.39839646,34.7525603 5.42876723,34.4687122 5.69453166,34.2937204 C5.7560788,34.2532587 5.85202468,34.2273797 5.9063215,34.2614743 C5.94788999,34.2876614 5.96577411,34.4194187 5.96456572,34.5035257 C5.95973217,34.8486825 5.84412988,35.0751243 5.59294665,35.2383062 M100.183231,80.4561842 C100.048858,79.6398792 99.8225337,78.8122351 99.0949068,78.2731924 C98.9160342,78.1406124 98.689382,78.0332182 98.4712579,77.9992009 C97.7481138,77.8862462 97.1628416,78.2057031 96.6408746,78.665045 C96.1967543,79.0558073 95.7137107,79.3453901 95.1311719,79.5188563 C94.2099121,79.7931749 93.4251028,79.5919061 92.8056086,78.9169035 C92.4768372,78.5587411 92.269756,78.0758488 92.0608161,77.6247931 C91.5411452,76.5028779 91.6090424,75.3147818 91.8647778,74.1631015 C92.0752484,73.2157428 92.5690069,72.3637851 93.1226812,71.5511871 C93.5516038,70.9217589 93.9527553,70.2628927 94.2759506,69.5748065 C94.7410633,68.5844902 94.7750666,67.5152363 94.5491797,66.4609196 C94.3636376,65.5943519 94.1223344,64.734544 93.8337984,63.896324 C93.4912507,62.9013194 93.1045315,61.91809 92.6757182,60.9568845 C92.306274,60.1289133 91.8780074,59.3236203 91.4272177,58.5359901 C90.8049901,57.4489644 90.1447139,56.3831995 89.4862963,55.3173256 C88.9933032,54.5193375 88.480739,53.7333428 87.9710175,52.9457125 C87.4757283,52.1804334 86.9749723,51.4187522 86.4732323,50.6576162 C85.9557481,49.8726027 85.4418718,49.0849724 84.91247,48.3080271 C84.2478203,47.3324298 83.5740958,46.3629381 82.8946858,45.3974805 C82.2536526,44.4864287 81.6141501,43.5736324 80.9486257,42.6804615 C80.1323279,41.5848224 79.3066272,40.4953981 78.4535927,39.4282159 C77.6886825,38.4710445 76.9209295,37.5109294 76.0847327,36.6167772 C73.9743415,34.3601904 71.8825373,32.086486 69.4526681,30.1473935 C68.2599286,29.1955647 67.1278703,28.1727575 65.8327929,27.3503468 C64.8936021,26.7539545 64.0014255,26.0835312 63.058408,25.4937898 C62.0661895,24.8734111 61.0547281,24.2789814 60.0205249,23.7316525 C59.2649082,23.3317317 58.4902671,22.9800021 57.6093521,22.8563624 C56.3480593,22.6792983 55.4501973,23.4367273 54.875968,24.3048214 C54.3829748,25.0500391 53.97909,25.8532606 53.5032625,26.6105806 C52.8601518,27.63426 51.9052168,28.2572554 50.8176579,28.7706761 C49.8436985,29.2303451 48.887998,29.7030977 47.8481094,30.005873 C46.8992971,30.2820452 45.941738,30.3033059 44.9888803,30.1515367 C43.5437948,29.921266 42.191863,29.3723017 40.8468193,28.8152692 C39.6973766,28.3393548 38.5251922,27.9410694 37.2645554,27.9058529 C36.5254484,27.8852463 35.8270141,28.0514074 35.2465526,28.5280851 C34.3184047,29.2903114 34.2087413,30.4023049 34.0439729,31.4788637 C33.9167066,32.3104329 33.8573375,33.1537773 33.6962865,33.9780415 C33.6311226,34.3114541 33.4529059,34.7245675 33.1908291,34.8969434 C32.6418562,35.2582677 31.9653983,35.3223771 31.3082928,35.3899755 C30.4690345,35.476327 29.633931,35.6063994 28.7939074,35.6816298 C28.3650941,35.7201173 27.8542793,35.8241316 27.5115129,35.6466313 C26.7338104,35.2440938 26.1436182,34.5789039 25.7286904,33.7969432 C25.3240403,33.0343898 24.8752186,32.1654234 23.6339342,32.200422 C23.2233799,32.2119791 23.013784,32.3593872 22.9456681,32.7458973 C22.818839,33.4648389 22.6945247,34.18607 22.5152147,34.8926912 C22.4708246,35.0671387 22.2412203,35.2727686 22.0590676,35.3201965 C21.4577231,35.4768721 20.8873205,35.3433108 20.4336881,34.9062109 C20.0828309,34.5680009 19.7534034,34.2028606 19.4513098,33.8208207 C19.193825,33.4952581 18.9976774,33.1222677 18.7580143,32.7817681 C18.5723628,32.5178073 18.3682337,32.4831358 18.1047355,32.7274713 C17.701616,33.101334 17.2611038,33.4348557 16.8465041,33.7968342 C16.1759503,34.3821054 15.6611994,34.2377501 15.0502334,33.704377 C14.7390649,33.4325661 14.3931278,33.1616274 14.0142808,33.0146554 C13.4058295,32.7782791 12.6753599,32.9879432 12.5151836,33.7331608 C12.5004233,33.8016315 12.447833,33.8620339 12.3896666,33.9686649 C12.2779259,33.8233284 12.2053272,33.6958727 12.1022239,33.6015621 C11.8629982,33.3828486 11.6310979,33.0414767 11.3567754,32.9979739 C10.6283832,32.8825115 9.92809022,32.7330318 9.24627489,32.4384337 C8.86371045,32.2730357 8.43839588,32.1992226 8.0232495,32.4885873 C7.7524258,32.6774267 7.42726242,32.8150221 7.10636313,32.9003923 C6.4517723,33.0744037 5.78176519,33.189648 5.12148892,33.343925 C4.4459057,33.5016909 4.34848789,33.7093924 4.60083391,34.3547389 C4.72263351,34.6660186 4.8407157,34.980133 4.93518146,35.3003531 C5.20447446,36.2136945 5.1526495,37.1444807 5.06277583,38.0761391 C5.02439912,38.4737703 5.20600516,38.6465823 5.62486894,38.6810356 C6.00798006,38.7125452 6.39743263,38.7501604 6.7658928,38.8510129 C7.15195598,38.9566626 7.17819646,39.1722142 6.95307495,39.4906899 C6.80711224,39.697192 6.69449681,39.9376024 6.61577535,40.178667 C6.46051913,40.6537092 6.49430376,41.1390002 6.67077104,41.601395 C6.77256226,41.8681905 6.9291305,42.0490707 7.29988673,41.97275 C7.77429287,41.8749504 8.02084412,42.0919194 8.09202144,42.5836431 C8.17927106,43.1867952 7.86536923,43.6592207 7.51440271,44.0887975 C7.17316704,44.5063811 6.82635526,44.9045574 6.72161198,45.4561384 C6.63928245,45.8893132 6.8607959,46.2240343 7.29966805,46.2443138 C7.68540322,46.2620856 8.07332509,46.234065 8.46026295,46.2289406 C8.89672973,46.223162 9.12086722,46.5672596 9.00420639,46.9783014 C8.85179289,47.5155996 8.45665488,47.8617687 8.02729491,48.1063223 C7.47613533,48.4202186 7.25833929,48.8856662 7.15184664,49.4430258 C7.05672487,49.9404191 7.28097171,50.3988888 7.67348567,50.5067191 C7.92823707,50.5767162 8.20299684,50.6032104 8.46835377,50.6002666 C9.61517241,50.5876191 10.4455745,51.1771425 10.776642,52.2668939 C10.9104685,52.7077008 11.0378442,53.1505793 11.1662039,53.5930216 C11.3120573,54.0955393 11.2826461,54.5684009 10.8927561,54.9602535 C10.687971,55.1659924 10.473783,55.3659528 10.2439601,55.5427989 C8.99513155,56.5036773 8.07682383,57.6744377 7.72377993,59.2500253 C7.56393163,59.9631882 7.88887633,60.6471313 8.55352602,60.7054621 C9.15847859,60.7585596 9.76649255,60.7333737 10.3393005,60.466142 C10.6749601,60.3095755 11.0215532,60.1739426 11.370333,60.0485585 C11.8500966,59.8760735 12.8305068,60.2303109 13.0895223,60.6378637 C13.5878729,61.4221141 13.9410261,62.238092 13.9526157,63.1985342 C13.9613625,63.929142 13.8579312,64.6373986 13.5036847,65.2481827 C13.0805568,65.9777001 12.7000697,66.7038377 12.5888757,67.5448924 C12.4906925,68.2876024 12.4348221,69.0298763 12.8874705,69.6981191 C13.2416078,70.2209163 13.8131037,70.4245837 14.363826,70.6053548 C15.1475419,70.8624468 15.9593569,71.0344956 16.8072527,71.2553896 C16.3614924,71.6997945 15.9391299,72.1131259 15.5260609,72.5353978 C15.2026469,72.8660847 14.8470883,73.1773644 14.5827154,73.5513361 C14.0139528,74.3555389 13.8117917,75.2761853 13.8311441,76.2576702 C13.8439363,76.9073779 14.3519084,77.6585923 14.9881309,77.767731 C15.9435033,77.9316025 16.9069665,78.0746494 17.8729445,78.1441013 C18.8065592,78.2112636 19.7489207,78.1496618 20.6853781,78.190657 C21.3857804,78.2211853 22.0864014,78.3019763 22.7805717,78.4031558 C23.33851,78.4844919 23.8934963,78.606278 24.4382051,78.7525958 C25.1342341,78.9395817 25.8263269,79.1477193 26.5060649,79.3864943 C27.1334312,79.6069522 27.7723871,79.8256657 28.3516458,80.1438142 C29.0340079,80.5187672 29.6449739,81.0206307 30.3098422,81.4303642 C31.3172583,82.0512881 32.3399813,82.6480074 33.3646723,83.2404745 C34.3102045,83.7872582 35.2640463,84.3204132 36.219856,84.8494251 C37.1072218,85.3407128 38.0023505,85.8181536 38.893543,86.3024633 C39.9010684,86.8497922 40.9026897,87.4080241 41.9173219,87.9417242 C42.482695,88.2391571 43.0619538,88.5133667 43.6479914,88.76806 C44.5200502,89.146938 45.4012933,89.5051004 46.2831923,89.8610823 C47.0380437,90.1657111 47.7871003,90.492364 48.560648,90.7418238 C49.6871302,91.1048926 50.8318715,91.4118111 51.9712553,91.7343208 C52.7739956,91.9616476 53.5759705,92.194753 54.3869109,92.38948 C55.1563038,92.5741762 55.9349903,92.7216933 56.7129114,92.8682292 C57.3409338,92.9864173 57.9707055,93.106677 58.6052879,93.1744935 C59.2241261,93.2407835 59.8507271,93.2321702 60.4728453,93.2729473 C62.2363154,93.3886277 63.990164,93.5664551 65.7349377,93.8734826 C67.1314783,94.1192355 68.4905169,94.4936433 69.8166455,94.9576735 C70.902455,95.3377509 71.9544799,95.8449568 72.965832,96.397192 C74.0876129,97.0097207 75.1791078,97.691047 76.2223859,98.4288506 C77.1461604,99.0821563 78.0444597,99.794338 78.8509174,100.58513 C81.0318299,102.723747 84.2167691,106.940578 85.3981377,108.193329 C86.5796156,109.446079 89.6987349,109.429071 91.22943,108.629447 C92.7601251,107.829933 93.4161373,105.067884 93.1974666,103.614083 C92.9787959,102.160391 91.3620538,99.6169468 91.0107593,98.8895009 C90.5600789,97.9565342 89.4728481,95.9805897 89.6987349,95.9093934 C89.8814343,95.8517167 96.1130034,99.3256196 98.5913081,96.1274527 C101.069613,92.9291768 100.340127,81.4092124 100.183231,80.4561842" mask="url(#conch-icon-b)" transform="rotate(6 52.439 66.01)"/>
    <path stroke="#FFF" stroke-width="1.487" d="M56.023454,2.00855025 C53.1896549,0.37488394 49.7000907,0.37488394 46.8662917,2.00855025 L5.76750452,25.7017277 C2.92823287,27.3385489 1.17871283,30.3665581 1.17871283,33.6438508 L1.17871283,81.0047229 C1.17871283,84.2820156 2.92823287,87.3100248 5.76750452,88.946846 L46.8662917,112.640023 C49.7000907,114.27369 53.1896549,114.27369 56.023454,112.640023 L97.1222411,88.946846 C99.9615128,87.3100248 101.711033,84.2820156 101.711033,81.0047229 L101.711033,33.6438508 C101.711033,30.3665581 99.9615128,27.3385489 97.1222411,25.7017277 L56.023454,2.00855025 Z" mask="url(#conch-icon-b)"/>
  </g>
</svg>
