<svg xmlns="http://www.w3.org/2000/svg" xmlns:xlink="http://www.w3.org/1999/xlink" width="12" height="14" viewBox="0 0 12 14">
  <defs>
    <path id="-small-a" d="M12,3.5 L12,13 C12,13 12,13 12,13 L12,13 C12,13.5522847 11.5522847,14 11,14 C11,14 11,14 11,14 L1,14 C1,14 1,14 1,14 L1,14 C0.44771525,14 6.76353751e-17,13.5522847 0,13 C0,13 0,13 0,13 L0,1 C0,1 0,1 0,1 L0,1 C-6.76353751e-17,0.44771525 0.44771525,1.01453063e-16 1,0 C1,0 1,0 1,0 L8.5,0 L12,3.5 Z M9,4 L11,4 L8,1 L8,3 L8,3 C8,3.55228475 8.44771525,4 9,4 Z M11,12.0000007 L11,5.00000075 L8.00000003,5.00000075 C7.99999967,5.00000075 7.9999993,5.00000075 7.99999894,5.00000075 L7.99999894,5.00000075 C7.44771462,5.00000015 7.00000003,4.55228507 7.00000003,4.00000075 C7.00000003,4.00000075 7.00000003,4.00000075 7.00000003,4.00000075 L7.00000003,1.00000075 L2.00000003,1.00000075 L2.00000003,1.00000075 C1.44771528,1.00000075 1.00000003,1.447716 1.00000003,2.00000075 L1.00000003,12.0000007 L1.00000003,12.0000007 C1.00000003,12.5522855 1.44771528,13.0000007 2.00000003,13.0000007 L10,13.0000007 L10,13.0000007 C10.5522848,13.0000007 11,12.5522855 11,12.0000007 Z M3.00000044,5.99999925 C3.0781251,6.01562442 5.0781251,6.01562442 9.00000044,5.99999925 C8.98437469,6.07812508 8.98437469,6.41145842 9.00000044,6.99999925 C8.92187519,6.98437458 6.92187519,6.98437458 3.00000044,6.99999925 C3.01562444,6.92187508 3.01562444,6.58854175 3.00000044,5.99999925 Z M9.00000044,8.00000075 C8.98437469,8.07812542 8.98437469,8.41145875 9.00000044,9.00000075 C8.92187519,8.98437492 6.92187519,8.98437492 3.00000044,9.00000075 C3.01562444,8.92187542 3.01562444,8.58854208 3.00000044,8.00000075 C3.0781251,8.01562475 5.0781251,8.01562475 9.00000044,8.00000075 Z M9.00000044,10.0000005 C8.98437469,10.0781252 8.98437469,10.4114585 9.00000044,11.0000005 C8.92187519,10.9843758 6.92187519,10.9843758 3.00000044,11.0000005 C3.01562444,10.9218752 3.01562444,10.5885418 3.00000044,10.0000005 C3.0781251,10.0156245 5.0781251,10.0156245 9.00000044,10.0000005 Z"/>
  </defs>
  <g fill="none" fill-rule="evenodd">
    <mask id="-small-b" fill="#fff">
      <use xlink:href="#-small-a"/>
    </mask>
    <use fill="#9B9B9B" xlink:href="#-small-a"/>
    <g fill="#AD2529" mask="url(#-small-b)">
      <rect width="12" height="14"/>
    </g>
  </g>
</svg>
