<svg xmlns="http://www.w3.org/2000/svg" xmlns:xlink="http://www.w3.org/1999/xlink" width="191" height="32" viewBox="0 0 191 32">
  <defs>
    <path id="google-sign-in-button-a" d="M8.64,2.205 C8.64,1.566 8.583,0.953 8.476,0.364 L0,0.364 L0,3.845 L4.844,3.845 C4.635,4.97 4.001,5.923 3.048,6.561 L3.048,8.82 L5.956,8.82 C7.658,7.253 8.64,4.945 8.64,2.205 Z"/>
    <path id="google-sign-in-button-c" d="M9,8 C11.43,8 13.467,7.194 14.956,5.82 L12.048,3.561 C11.242,4.101 10.211,4.42 9,4.42 C6.656,4.42 4.672,2.837 3.964,0.71 L0.957,0.71 L0.957,3.042 C2.438,5.983 5.482,8 9,8 Z"/>
    <path id="google-sign-in-button-e" d="M3.964,6.71 C3.784,6.17 3.682,5.593 3.682,5 C3.682,4.407 3.784,3.83 3.964,3.29 L3.964,0.958 L0.957,0.958 C0.348,2.173 0,3.548 0,5 C0,6.452 0.348,7.827 0.957,9.042 L3.964,6.71 Z"/>
    <path id="google-sign-in-button-g" d="M9,3.58 C10.321,3.58 11.508,4.034 12.44,4.925 L15.022,2.344 C13.463,0.892 11.426,0 9,0 C5.482,0 2.438,2.017 0.957,4.958 L3.964,7.29 C4.672,5.163 6.656,3.58 9,3.58 Z"/>
  </defs>
  <g fill="none" fill-rule="evenodd">
    <rect width="191" height="32" fill="#FFF" rx="4"/>
    <path fill="#4A4A4A" d="M34.954,19.028 C34.954,19.028 35.962,20.144 37.762,20.144 C39.442,20.144 40.45,19.064 40.45,17.756 C40.45,15.008 36.346,15.476 36.346,13.724 C36.346,13.052 36.982,12.488 37.882,12.488 C38.962,12.488 39.742,13.22 39.742,13.22 L40.282,12.236 C40.282,12.236 39.454,11.384 37.882,11.384 C36.286,11.384 35.146,12.428 35.146,13.748 C35.146,16.352 39.25,15.956 39.25,17.792 C39.25,18.596 38.578,19.04 37.786,19.04 C36.526,19.04 35.626,18.128 35.626,18.128 L34.954,19.028 Z M42.904,20 L44.092,20 L44.092,11.528 L42.904,11.528 L42.904,20 Z M46.582,15.752 C46.582,18.344 48.466,20.144 50.746,20.144 C52.426,20.144 53.35,19.112 53.35,19.112 L53.374,19.112 C53.374,19.112 53.362,19.292 53.362,19.472 L53.362,20 L54.406,20 L54.406,15.74 L51.946,15.74 L51.946,16.772 L53.326,16.772 L53.326,17.996 C53.326,17.996 52.39,19.052 50.926,19.052 C49.15,19.052 47.806,17.696 47.806,15.728 C47.806,13.916 49.006,12.464 50.998,12.464 C52.438,12.464 53.386,13.292 53.386,13.292 L53.986,12.404 C53.986,12.404 52.93,11.384 50.902,11.384 C48.43,11.384 46.582,13.304 46.582,15.752 Z M57.016,20 L58.204,20 L58.204,14.504 C58.204,14.024 58.12,13.268 58.12,13.268 L58.144,13.268 C58.144,13.268 58.54,14.036 58.852,14.504 L62.632,20 L63.796,20 L63.796,11.528 L62.608,11.528 L62.608,17.036 C62.608,17.504 62.692,18.26 62.692,18.26 L62.668,18.26 C62.668,18.26 62.272,17.492 61.96,17.036 L58.192,11.528 L57.016,11.528 L57.016,20 Z M70.684,20 L71.872,20 L71.872,11.528 L70.684,11.528 L70.684,20 Z M74.926,20 L76.114,20 L76.114,14.504 C76.114,14.024 76.03,13.268 76.03,13.268 L76.054,13.268 C76.054,13.268 76.45,14.036 76.762,14.504 L80.542,20 L81.706,20 L81.706,11.528 L80.518,11.528 L80.518,17.036 C80.518,17.504 80.602,18.26 80.602,18.26 L80.578,18.26 C80.578,18.26 80.182,17.492 79.87,17.036 L76.102,11.528 L74.926,11.528 L74.926,20 Z M92.578,11.528 L90.922,17.744 C90.802,18.212 90.742,18.644 90.742,18.644 L90.718,18.644 C90.718,18.644 90.67,18.2 90.562,17.744 L89.062,11.528 L87.838,11.528 L89.998,20 L91.378,20 L92.842,14.504 C92.986,13.964 93.094,13.304 93.094,13.304 L93.118,13.304 C93.118,13.304 93.226,13.964 93.37,14.504 L94.834,20 L96.214,20 L98.434,11.528 L97.21,11.528 L95.65,17.744 C95.53,18.2 95.494,18.644 95.494,18.644 L95.47,18.644 C95.47,18.644 95.41,18.212 95.29,17.744 L93.634,11.528 L92.578,11.528 Z M100.72,20 L101.908,20 L101.908,11.528 L100.72,11.528 L100.72,20 Z M106.774,20 L107.962,20 L107.962,12.56 L110.866,12.56 L110.866,11.528 L103.87,11.528 L103.87,12.56 L106.774,12.56 L106.774,20 Z M112.828,20 L114.016,20 L114.016,16.28 L118.408,16.28 L118.408,20 L119.596,20 L119.596,11.528 L118.408,11.528 L118.408,15.248 L114.016,15.248 L114.016,11.528 L112.828,11.528 L112.828,20 Z M125.92,15.752 C125.92,18.344 127.804,20.144 130.084,20.144 C131.764,20.144 132.688,19.112 132.688,19.112 L132.712,19.112 C132.712,19.112 132.7,19.292 132.7,19.472 L132.7,20 L133.744,20 L133.744,15.74 L131.284,15.74 L131.284,16.772 L132.664,16.772 L132.664,17.996 C132.664,17.996 131.728,19.052 130.264,19.052 C128.488,19.052 127.144,17.696 127.144,15.728 C127.144,13.916 128.344,12.464 130.336,12.464 C131.776,12.464 132.724,13.292 132.724,13.292 L133.324,12.404 C133.324,12.404 132.268,11.384 130.24,11.384 C127.768,11.384 125.92,13.304 125.92,15.752 Z M135.778,15.704 C135.778,13.268 137.686,11.384 140.134,11.384 C142.582,11.384 144.478,13.268 144.478,15.704 C144.478,18.2 142.582,20.144 140.134,20.144 C137.686,20.144 135.778,18.2 135.778,15.704 Z M137.002,15.704 C137.002,17.612 138.406,19.052 140.134,19.052 C141.862,19.052 143.254,17.612 143.254,15.704 C143.254,13.856 141.862,12.464 140.134,12.464 C138.406,12.464 137.002,13.856 137.002,15.704 Z M146.38,15.704 C146.38,13.268 148.288,11.384 150.736,11.384 C153.184,11.384 155.08,13.268 155.08,15.704 C155.08,18.2 153.184,20.144 150.736,20.144 C148.288,20.144 146.38,18.2 146.38,15.704 Z M147.604,15.704 C147.604,17.612 149.008,19.052 150.736,19.052 C152.464,19.052 153.856,17.612 153.856,15.704 C153.856,13.856 152.464,12.464 150.736,12.464 C149.008,12.464 147.604,13.856 147.604,15.704 Z M156.994,15.752 C156.994,18.344 158.878,20.144 161.158,20.144 C162.838,20.144 163.762,19.112 163.762,19.112 L163.786,19.112 C163.786,19.112 163.774,19.292 163.774,19.472 L163.774,20 L164.818,20 L164.818,15.74 L162.358,15.74 L162.358,16.772 L163.738,16.772 L163.738,17.996 C163.738,17.996 162.802,19.052 161.338,19.052 C159.562,19.052 158.218,17.696 158.218,15.728 C158.218,13.916 159.418,12.464 161.41,12.464 C162.85,12.464 163.798,13.292 163.798,13.292 L164.398,12.404 C164.398,12.404 163.342,11.384 161.314,11.384 C158.842,11.384 156.994,13.304 156.994,15.752 Z M167.428,20 L172.408,20 L172.408,18.968 L168.616,18.968 L168.616,11.528 L167.428,11.528 L167.428,20 Z M174.526,20 L179.65,20 L179.65,18.968 L175.714,18.968 L175.714,16.244 L178.75,16.244 L178.75,15.212 L175.714,15.212 L175.714,12.56 L179.446,12.56 L179.446,11.528 L174.526,11.528 L174.526,20 Z"/>
    <g transform="translate(8 7)">
      <g transform="translate(9 7)">
        <mask id="google-sign-in-button-b" fill="#fff">
          <use xlink:href="#google-sign-in-button-a"/>
        </mask>
        <polygon fill="#318AF5" points="-.02 8.92 8.74 8.92 8.74 .28 -.02 .28" mask="url(#google-sign-in-button-b)"/>
      </g>
      <g transform="translate(0 10)">
        <mask id="google-sign-in-button-d" fill="#fff">
          <use xlink:href="#google-sign-in-button-c"/>
        </mask>
        <polygon fill="#3DA751" points=".94 8.08 14.98 8.08 14.98 .64 .94 .64" mask="url(#google-sign-in-button-d)"/>
      </g>
      <g transform="translate(0 4)">
        <mask id="google-sign-in-button-f" fill="#fff">
          <use xlink:href="#google-sign-in-button-e"/>
        </mask>
        <polygon fill="#FDB900" points="-.02 9.16 4.06 9.16 4.06 .88 -.02 .88" mask="url(#google-sign-in-button-f)"/>
      </g>
      <mask id="google-sign-in-button-h" fill="#fff">
        <use xlink:href="#google-sign-in-button-g"/>
      </mask>
      <polygon fill="#EA3E36" points=".94 7.4 15.1 7.4 15.1 -.04 .94 -.04" mask="url(#google-sign-in-button-h)"/>
    </g>
  </g>
</svg>
