<svg xmlns="http://www.w3.org/2000/svg" width="240" height="240" viewBox="0 0 240 240">
  <g fill="#FFF" fill-rule="evenodd">
    <path d="M47.5818,204.3584 C18.0218,205.9474 13.2538,184.0154 27.8748,181.4724 C39.1018,179.5144 52.7688,191.8094 58.5038,197.6194 C60.4998,198.2054 65.8778,199.2214 66.6528,193.5504 C67.6068,186.5584 44.4038,188.4654 48.8528,146.5094 C48.8528,146.5094 51.7138,164.9454 64.1108,160.8124 C76.5068,156.6804 82.2278,149.6874 95.5778,156.9984 C108.9278,164.3084 113.2248,163.6734 115.7678,156.8454 C115.7678,156.8454 84.6178,148.4164 102.0998,122.6704 C119.5818,96.9234 135.6268,100.9044 137.8518,108.2144 C140.0768,115.5254 132.6138,126.6504 120.5358,114.0874 C120.5358,114.0874 105.4308,134.7484 127.8458,141.1054 C150.2488,147.4624 151.6848,106.6254 148.3408,100.4204 C145.0098,94.2284 139.1238,93.1094 139.1238,93.1094 C139.1238,93.1094 154.0628,94.5464 155.0158,99.4664 C155.9698,104.4004 152.6388,106.3064 164.2338,118.3854 C175.8288,130.4514 179.1728,143.6354 179.0198,161.7284 C175.8678,159.0064 172.5488,156.7954 168.6838,155.4094 C155.3338,150.6404 142.3018,147.4624 116.8738,160.8124 C91.4458,174.1624 77.1418,202.7694 47.5818,204.3584 Z M62.2031,144.9199 C49.9661,130.9349 68.2421,117.5849 68.2421,117.5849 C68.2421,117.5849 66.0171,123.9409 70.6261,125.8499 C75.2351,127.7559 74.5991,124.4189 78.7321,123.1479 C82.8631,121.8759 82.8631,127.7559 82.8631,127.7559 C108.4501,111.7049 86.3601,106.7779 86.3601,106.7779 C94.9421,100.8979 115.7611,99.7849 115.7611,99.7849 C109.2451,101.0569 91.2871,123.9409 89.8561,133.1599 C88.4261,142.3769 74.4411,158.9059 62.2031,144.9199 Z M76.4213,203.4175 C95.4033,197.6325 106.8843,178.2175 125.4343,168.4785 C132.7453,164.6385 138.8223,162.4395 144.1113,161.3595 C140.0423,166.8385 126.9093,183.5075 109.9743,194.6695 C95.4163,204.2555 82.6133,204.2305 76.4213,203.4175 Z M147.6587,160.7745 C154.3077,159.9735 159.7117,160.9905 164.8987,162.6055 C140.9587,210.9445 120.9457,200.7095 120.9457,200.7095 C139.0637,187.7285 145.7517,167.8805 147.6587,160.7745 Z M149.8328,202.6547 C161.7328,197.6187 168.0268,173.1957 169.9338,164.3467 C174.8918,166.3947 178.7698,170.0937 182.9018,174.4047 C176.9138,193.3987 150.6968,202.3747 149.8328,202.6547 Z M196.3032,187.2195 C186.3852,201.7645 169.7302,201.3965 169.7302,201.3965 C177.3582,198.1665 183.6392,183.2655 185.8262,177.4555 C188.8772,180.6465 192.2212,184.0155 196.3032,187.2195 Z M190.0724,203.2987 C194.5224,201.3927 199.6104,189.3477 199.6104,189.3477 C206.9214,197.1877 223.5534,196.5187 223.5534,196.5187 C215.2894,203.2987 190.0724,203.2987 190.0724,203.2987 Z M120,229.04 C140.87,229.04 160.38,223.17 176.95,213 C182.9,212.68 190.11,212.17 197.81,211.34 C176.86,229.221 149.69,240 120,240 C91.15,240 64.68,229.82 43.99,212.86 C48.11,213.23 52.6,213.32 57.45,213.061 C59.15,212.971 60.83,212.83 62.48,212.641 C79.17,223.04 98.89,229.04 120,229.04 Z M239.95,116.6699 C239.98,117.7799 240,118.8909 240,119.9999 C240,124.5799 239.74,129.0999 239.24,133.5509 C236.92,154.2399 229.33,173.3399 217.85,189.4709 C214.19,188.4709 210.52,187.2499 206.99,185.7599 C217.62,171.7209 224.93,155.0299 227.75,136.8399 C227.84,136.2899 227.92,135.7499 227.99,135.1999 C228.69,130.2309 229.05,125.1599 229.05,119.9999 C229.05,119.1899 229.04,118.3909 229.02,117.5899 C228.85,109.4999 227.79,101.6409 225.95,94.0799 C222.87,81.4599 217.6,69.7099 210.56,59.2399 C204.08,49.5799 196.09,41.0299 186.93,33.8999 C183.27,31.0509 179.43,28.4299 175.42,26.0699 C174.18,25.3299 172.93,24.6199 171.66,23.9399 C156.55,15.7899 139.29,11.1099 120.94,10.9599 C120.63,10.9499 120.31,10.9499 120,10.9499 C116.37,10.9499 112.79,11.1309 109.25,11.4709 C106.29,11.7599 103.36,12.1699 100.47,12.6899 C87.75,14.9899 75.79,19.4999 65.02,25.8109 C48.31,35.5799 34.44,49.6699 24.94,66.5509 C20.17,74.9999 16.51,84.1599 14.13,93.8299 C13.83,95.0609 13.55,96.2899 13.29,97.5299 C12.01,103.5999 11.24,109.8599 11.03,116.2499 C10.98,117.4899 10.96,118.7399 10.96,119.9999 C10.96,121.1599 10.98,122.3199 11.01,123.4709 C11.29,132.3109 12.61,140.8699 14.87,149.0609 C14.88,149.0699 14.87,149.0699 14.87,149.0699 C15.37,150.8499 15.9,152.6099 16.48,154.3499 C18.42,160.2099 20.85,165.8499 23.72,171.2209 C23.03,171.2799 22.34,171.3699 21.65,171.4899 C18.26,172.0799 15.45,173.2399 13.23,174.8109 C11.13,170.7309 9.26,166.5199 7.63,162.1899 C7.47,161.7699 7.31,161.3499 7.17,160.9199 L7.17,160.9099 C3.44,150.6599 1.08,139.7699 0.29,128.4299 C0.1,125.6499 0,122.8399 0,119.9999 C0,119.6499 0,119.3009 0.01,118.9499 C0.06,113.1309 0.52,107.4199 1.38,101.8299 C3.09,90.5099 6.39,79.7099 11.04,69.6699 C29.46,29.8399 69.08,1.8299 115.42,0.0899 C116.94,0.0299 118.47,-0.0001 120,-0.0001 C150,-0.0001 177.44,11.0099 198.48,29.2099 C206.48,36.1409 213.56,44.0999 219.51,52.9099 C225.78,62.1899 230.79,72.3999 234.28,83.2899 C237.67,93.8499 239.64,105.0609 239.95,116.6699 Z"/>
    <path d="M12.1045,104.168 C16.2945,108.258 23.6445,119.807 14.1155,146.126 C12.0565,137.754 10.9565,129.005 10.9565,119.997 C10.9565,114.62 11.3525,109.337 12.1045,104.168 Z M210.7029,108.3691 C197.2529,86.7371 207.2759,70.6121 213.3999,63.6861 C223.3309,80.1241 229.0479,99.3921 229.0479,119.9971 C229.0479,131.0561 227.3969,141.7281 224.3359,151.7871 C223.1079,137.7581 219.2239,122.0731 210.7029,108.3691 Z M127.2026,21.9297 C119.4206,48.2407 148.4086,55.3397 128.5296,70.9247 C108.6506,86.5097 102.5006,39.9157 102.5006,39.9157 C74.8196,73.4457 127.3516,82.8787 86.3376,94.3317 C45.3246,105.7847 69.9126,41.1907 69.9126,41.1907 C28.9306,65.1927 45.2966,94.4317 54.3886,109.9457 C63.4796,125.4587 23.1206,157.8257 27.8896,133.3147 C31.6656,113.9027 18.0636,105.7817 12.2376,103.2427 C20.2986,50.9727 65.4766,10.9507 120.0026,10.9507 C123.8006,10.9507 127.5536,11.1467 131.2516,11.5257 C129.7646,14.4957 128.3846,17.9337 127.2026,21.9297 Z M212.5552,62.3223 C189.3262,75.3703 197.3522,92.9293 196.8102,103.6233 C196.2342,114.9773 173.3412,132.3613 167.8382,103.0953 C162.3352,73.8303 182.8702,79.7563 152.6152,48.1593 C139.3852,34.3423 137.4702,22.0973 139.5032,12.6933 C170.2902,18.2513 196.5772,36.7363 212.5552,62.3223 Z" opacity=".4"/>
  </g>
</svg>
