<svg xmlns="http://www.w3.org/2000/svg" width="284" height="483" viewBox="0 0 284 483">
  <path fill="#06133D" fill-rule="evenodd" d="M76.5714286,854.323077 C76.5714286,854.323077 67.7917503,855.869231 61.5943303,862.053846 C55.3969103,868.238462 53.8475553,877 53.8475553,877 L43.0020704,871.846154 L32.1565854,877 C32.1565854,877 30.6072305,868.238462 24.4098105,862.053846 C18.2123905,855.869231 9.43271222,854.323077 9.43271222,854.323077 L14.5972289,843.5 L9.43271222,832.676923 C9.43271222,832.676923 18.2123905,831.130769 24.4098105,824.946154 C30.6072305,818.761538 32.1565854,810 32.1565854,810 L43.0020704,815.153846 L53.8475553,810 C53.8475553,810 55.3969103,818.761538 61.5943303,824.946154 C67.7917503,831.130769 76.5714286,832.676923 76.5714286,832.676923 L71.4069119,843.5 L76.5714286,854.323077 Z M284,970.653277 C284,970.653277 278.883721,957.378436 258.418605,950.230444 C237.953488,943.082452 234.372093,945.124736 234.372093,945.124736 L231.302326,920.617336 C231.302326,920.617336 207.767442,913.469345 182.697674,950.741015 L174.511628,951.762156 L174.511628,939.508457 C174.511628,939.508457 204.186047,915.001057 212.372093,912.958774 C220.55814,910.91649 252.790698,905.810782 235.906977,860.369979 C235.906977,860.369979 203.162791,857.306554 194.976744,869.049683 C186.790698,880.792812 192.930233,906.831924 182.186047,906.321353 C182.186047,906.321353 190.372093,879.77167 177.581395,869.049683 C164.790698,858.327696 139.209302,863.433404 139.209302,863.433404 C139.209302,863.433404 113.627907,897.641649 148.418605,905.300211 C148.418605,905.300211 161.209302,911.427061 161.72093,914.490486 C161.72093,914.490486 128.976744,921.127907 108,887.940803 C108,887.940803 97.7674419,873.64482 110.55814,858.838266 C123.348837,844.031712 182.186047,860.88055 182.186047,842.5 C182.186047,824.11945 123.348837,840.968288 110.55814,826.161734 C97.7674419,811.35518 108,797.059197 108,797.059197 C128.976744,763.872093 161.72093,770.509514 161.72093,770.509514 C161.209302,773.572939 148.418605,779.699789 148.418605,779.699789 C113.627907,787.358351 139.209302,821.566596 139.209302,821.566596 C139.209302,821.566596 164.790698,826.672304 177.581395,815.950317 C190.372093,805.22833 182.186047,778.678647 182.186047,778.678647 C192.930233,778.168076 186.790698,804.207188 194.976744,815.950317 C203.162791,827.693446 235.906977,824.630021 235.906977,824.630021 C252.790698,779.189218 220.55814,774.08351 212.372093,772.041226 C204.186047,769.998943 174.511628,745.491543 174.511628,745.491543 L174.511628,733.237844 L182.697674,734.258985 C207.767442,771.530655 231.302326,764.382664 231.302326,764.382664 L234.372093,739.875264 C234.372093,739.875264 237.953488,741.917548 258.418605,734.769556 C278.883721,727.621564 284,714.346723 284,714.346723 C262.511628,704.645877 250.744186,676.564482 263.023256,660.226216 C275.302326,643.887949 275.55814,609.424419 275.55814,609.424419 C275.55814,609.424419 241.023256,609.679704 224.651163,621.933404 C208.27907,634.187104 180.139535,622.443975 170.418605,601 C170.418605,601 157.116279,606.105708 149.953488,626.528541 C142.790698,646.951374 144.837209,650.52537 144.837209,650.52537 L120.27907,653.588795 C120.27907,653.588795 113.116279,677.075053 150.465116,702.093023 L151.488372,710.262156 L139.209302,710.262156 C139.209302,710.262156 114.651163,680.649049 112.604651,672.479915 C110.55814,664.310782 105.44186,632.14482 59.9069767,648.993658 C59.9069767,648.993658 56.8372093,681.67019 68.6046512,689.839323 C80.372093,698.008457 106.465116,691.881607 105.953488,702.603594 C105.953488,702.603594 79.3488372,694.434461 68.6046512,707.198732 C57.8604651,719.963002 62.9767442,745.491543 62.9767442,745.491543 C62.9767442,745.491543 97.255814,771.020085 104.930233,736.301268 C104.930233,736.301268 111.069767,723.536998 114.139535,723.026427 C114.139535,723.026427 120.790698,755.70296 87.5348837,776.636364 C87.5348837,776.636364 73.2093023,786.84778 58.372093,774.08351 C43.5348837,761.319239 60.4186047,702.603594 42,702.603594 C23.5813953,702.603594 40.4651163,761.319239 25.627907,774.08351 C10.7906977,786.84778 -3.53488372,776.636364 -3.53488372,776.636364 C-36.7906977,755.70296 -30.1395349,723.026427 -30.1395349,723.026427 C-27.0697674,723.536998 -20.9302326,736.301268 -20.9302326,736.301268 C-13.255814,771.020085 21.0232558,745.491543 21.0232558,745.491543 C21.0232558,745.491543 26.1395349,719.963002 15.3953488,707.198732 C4.65116279,694.434461 -21.9534884,702.603594 -21.9534884,702.603594 C-22.4651163,691.881607 3.62790698,698.008457 15.3953488,689.839323 C27.1627907,681.67019 24.0930233,648.993658 24.0930233,648.993658 C-21.4418605,632.14482 -26.5581395,664.310782 -28.6046512,672.479915 C-30.6511628,680.649049 -55.2093023,710.262156 -55.2093023,710.262156 L-67.4883721,710.262156 L-66.4651163,702.093023 C-29.1162791,677.075053 -36.2790698,653.588795 -36.2790698,653.588795 L-60.8372093,650.52537 C-60.8372093,650.52537 -58.7906977,646.951374 -65.9534884,626.528541 C-73.1162791,606.105708 -86.4186047,601 -86.4186047,601 C-96.1395349,622.443975 -124.27907,634.187104 -140.651163,621.933404 C-157.023256,609.679704 -191.55814,609.424419 -191.55814,609.424419 C-191.55814,609.424419 -191.302326,643.887949 -179.023256,660.226216 C-166.744186,676.564482 -178.511628,704.645877 -200,714.346723 C-200,714.346723 -194.883721,727.621564 -174.418605,734.769556 C-153.953488,741.917548 -150.372093,739.875264 -150.372093,739.875264 L-147.302326,764.382664 C-147.302326,764.382664 -123.767442,771.530655 -98.6976744,734.258985 L-90.5116279,733.237844 L-90.5116279,745.491543 C-90.5116279,745.491543 -120.186047,769.998943 -128.372093,772.041226 C-136.55814,774.08351 -168.790698,779.189218 -151.906977,824.630021 C-151.906977,824.630021 -119.162791,827.693446 -110.976744,815.950317 C-102.790698,804.207188 -108.930233,778.168076 -98.1860465,778.678647 C-98.1860465,778.678647 -106.372093,805.22833 -93.5813953,815.950317 C-80.7906977,826.672304 -55.2093023,821.566596 -55.2093023,821.566596 C-55.2093023,821.566596 -29.627907,787.358351 -64.4186047,779.699789 C-64.4186047,779.699789 -77.2093023,773.572939 -77.7209302,770.509514 C-77.7209302,770.509514 -44.9767442,763.872093 -24,797.059197 C-24,797.059197 -13.7674419,811.35518 -26.5581395,826.161734 C-39.3488372,840.968288 -98.1860465,824.11945 -98.1860465,842.5 C-98.1860465,860.88055 -39.3488372,844.031712 -26.5581395,858.838266 C-13.7674419,873.64482 -24,887.940803 -24,887.940803 C-44.9767442,921.127907 -77.7209302,914.490486 -77.7209302,914.490486 C-77.2093023,911.427061 -64.4186047,905.300211 -64.4186047,905.300211 C-29.627907,897.641649 -55.2093023,863.433404 -55.2093023,863.433404 C-55.2093023,863.433404 -80.7906977,858.327696 -93.5813953,869.049683 C-106.372093,879.77167 -98.1860465,906.321353 -98.1860465,906.321353 C-108.930233,906.831924 -102.790698,880.792812 -110.976744,869.049683 C-119.162791,857.306554 -151.906977,860.369979 -151.906977,860.369979 C-168.790698,905.810782 -136.55814,910.91649 -128.372093,912.958774 C-120.186047,915.001057 -90.5116279,939.508457 -90.5116279,939.508457 L-90.5116279,951.762156 L-98.6976744,950.741015 C-123.767442,913.469345 -147.302326,920.617336 -147.302326,920.617336 L-150.372093,945.124736 C-150.372093,945.124736 -153.953488,943.082452 -174.418605,950.230444 C-194.883721,957.378436 -200,970.653277 -200,970.653277 C-178.511628,980.354123 -166.744186,1008.43552 -179.023256,1024.77378 C-191.302326,1041.11205 -191.55814,1075.57558 -191.55814,1075.57558 C-191.55814,1075.57558 -157.023256,1075.3203 -140.651163,1063.0666 C-124.27907,1050.8129 -96.1395349,1062.55603 -86.4186047,1084 C-86.4186047,1084 -73.1162791,1078.89429 -65.9534884,1058.47146 C-58.7906977,1038.04863 -60.8372093,1034.47463 -60.8372093,1034.47463 L-36.2790698,1031.41121 C-36.2790698,1031.41121 -29.1162791,1007.92495 -66.4651163,982.906977 L-67.4883721,974.737844 L-55.2093023,974.737844 C-55.2093023,974.737844 -30.6511628,1004.35095 -28.6046512,1012.52008 C-26.5581395,1020.68922 -21.4418605,1052.85518 24.0930233,1036.00634 C24.0930233,1036.00634 27.1627907,1003.32981 15.3953488,995.160677 C3.62790698,986.991543 -22.4651163,993.118393 -21.9534884,982.396406 C-21.9534884,982.396406 4.65116279,990.565539 15.3953488,977.801268 C26.1395349,965.036998 21.0232558,939.508457 21.0232558,939.508457 C21.0232558,939.508457 -13.255814,913.979915 -20.9302326,948.698732 C-20.9302326,948.698732 -27.0697674,961.463002 -30.1395349,961.973573 C-30.1395349,961.973573 -36.7906977,929.29704 -3.53488372,908.363636 C-3.53488372,908.363636 10.7906977,898.15222 25.627907,910.91649 C40.4651163,923.680761 23.5813953,982.396406 42,982.396406 C60.4186047,982.396406 43.5348837,923.680761 58.372093,910.91649 C73.2093023,898.15222 87.5348837,908.363636 87.5348837,908.363636 C120.790698,929.29704 114.139535,961.973573 114.139535,961.973573 C111.069767,961.463002 104.930233,948.698732 104.930233,948.698732 C97.255814,913.979915 62.9767442,939.508457 62.9767442,939.508457 C62.9767442,939.508457 57.8604651,965.036998 68.6046512,977.801268 C79.3488372,990.565539 105.953488,982.396406 105.953488,982.396406 C106.465116,993.118393 80.372093,986.991543 68.6046512,995.160677 C56.8372093,1003.32981 59.9069767,1036.00634 59.9069767,1036.00634 C105.44186,1052.85518 110.55814,1020.68922 112.604651,1012.52008 C114.651163,1004.35095 139.209302,974.737844 139.209302,974.737844 L151.488372,974.737844 L150.465116,982.906977 C113.116279,1007.92495 120.27907,1031.41121 120.27907,1031.41121 L144.837209,1034.47463 C144.837209,1034.47463 142.790698,1038.04863 149.953488,1058.47146 C157.116279,1078.89429 170.418605,1084 170.418605,1084 C180.139535,1062.55603 208.27907,1050.8129 224.651163,1063.0666 C241.023256,1075.3203 275.55814,1075.57558 275.55814,1075.57558 C275.55814,1075.57558 275.302326,1041.11205 263.023256,1024.77378 C250.744186,1008.43552 262.511628,980.354123 284,970.653277 L284,970.653277 Z" opacity=".02" transform="translate(0 -601)"/>
</svg>
