<svg xmlns="http://www.w3.org/2000/svg" xmlns:xlink="http://www.w3.org/1999/xlink" width="103" height="116" viewBox="0 0 103 116">
  <defs>
    <path id="kukui-icon-a" d="M56.5635265,1.96272114 L97.5700724,25.6378614 L97.5700724,25.6378614 C100.636445,27.4082327 102.525409,30.6800137 102.525409,34.2207563 L102.525409,81.5710368 L102.525409,81.5710368 C102.525409,85.1117794 100.636445,88.3835604 97.5700724,90.1539317 L56.5635265,113.829072 L56.5635265,113.829072 C53.4971535,115.599443 49.7192262,115.599443 46.6528532,113.829072 L5.64630739,90.1539317 L5.64630739,90.1539317 C2.57993439,88.3835604 0.690970726,85.1117794 0.690970726,81.5710368 L0.690970726,34.2207563 L0.690970726,34.2207563 C0.690970726,30.6800137 2.57993439,27.4082327 5.64630739,25.6378614 L46.6528532,1.96272114 L46.6528532,1.96272114 C49.7192262,0.192349869 53.4971535,0.192349869 56.5635265,1.96272114 Z"/>
  </defs>
  <g fill="none" fill-rule="evenodd" transform="translate(-.45)">
    <g>
      <mask id="kukui-icon-b" fill="#fff">
        <use xlink:href="#kukui-icon-a"/>
      </mask>
      <path fill="#FFF" d="M98.2106802,86.129606 C97.5834141,86.5704347 96.9456935,86.9920969 96.3062306,87.4050471 C95.0273047,88.2326899 93.7239851,89.0063181 92.401499,89.7154773 C91.0755282,90.4211517 89.7303908,91.0675843 88.3591174,91.6094725 C87.6760943,91.8899998 86.9826168,92.1287094 86.2873968,92.3552222 C85.5869497,92.5625685 84.8882449,92.7699148 84.1808281,92.9180193 C84.0048451,92.9546098 83.8288621,92.9964276 83.6528791,93.0312757 L83.1214453,93.127108 C82.767737,93.1985466 82.4122862,93.2333948 82.0585778,93.2874093 C81.6665364,93.3327119 81.2676997,93.3797569 80.8667721,93.423317 C77.843698,91.3533388 74.8728959,89.2746486 72.4249899,86.5599803 C71.9543661,86.0390009 71.5344463,85.4587798 71.159829,84.8489377 C74.4338097,85.7445343 77.3680212,85.9257445 79.213229,85.9257445 C82.2763785,85.9257445 92.817934,87.4207288 93.3110349,87.490425 C92.6785416,87.3318661 75.0784998,82.9200944 71.3724025,81.7439704 C71.2417221,81.7021527 71.0517999,81.6254868 70.8113479,81.5174577 C69.7484803,81.0417809 67.6926156,79.9823981 65.3628447,78.8446071 C65.1293623,78.7313507 64.8941375,78.6163519 64.6554279,78.5013531 C65.5963271,78.2086289 66.5407111,77.9228743 67.4887541,77.6528014 C68.9086406,77.2503057 70.4541546,76.9053093 71.8951243,77.0394746 C72.168682,77.0656107 72.4439822,77.0917467 72.7175399,77.1231101 C75.5001621,77.4280311 78.2620496,77.9612073 81.0270735,78.4299145 C81.4104028,78.4943835 81.7937321,78.5675645 82.175319,78.642488 C83.3636398,78.8777128 84.5467334,79.1530129 85.7333118,79.4004345 C84.8655936,78.956121 83.978709,78.5762766 83.0761428,78.2504467 C81.4994397,77.6806799 79.8718584,77.2746994 78.1991488,76.9872024 C76.8505266,76.7554624 75.5088741,76.5794794 74.1585095,76.4801623 C72.8290539,76.3825876 71.494371,76.3616787 70.1405216,76.4348597 C67.9921351,76.5516009 65.8698848,76.7084175 63.7633161,77.0865195 C63.2737,77.1753822 62.7842582,77.2746994 62.2944679,77.3896982 C60.9092553,76.7572048 59.5379818,76.1717564 58.3078433,75.7257005 C58.2590559,74.9625268 58.1808219,74.2655644 58.0813305,73.671404 C57.9558773,72.9117151 57.7345918,71.9272557 57.4296707,70.812116 C58.8375347,70.0228061 60.4945627,69.8659896 62.0313647,69.5471293 C62.1620451,69.5209932 62.2911574,69.4931147 62.4218378,69.4687211 C62.5368366,69.4443274 62.6516611,69.4216761 62.7685766,69.3990248 C64.4759601,69.0644829 66.1922299,68.7752435 67.8684243,68.3344148 C68.9800793,68.0416906 70.0744844,67.682755 71.1371777,67.1966238 C72.2261814,66.7000381 73.2019287,66.0483783 73.8920957,65.1492969 C72.4213309,65.5117173 70.928089,65.8950466 69.4261352,66.2435278 C68.9086406,66.3637538 68.3911461,66.4822374 67.8736515,66.600721 C66.986767,66.8028401 66.0998824,67.0049591 65.2147402,67.2053358 C64.5423458,67.3586675 63.8696028,67.5102568 63.1987766,67.6635886 C62.4200954,67.8430564 61.6410657,68.0242666 60.8639527,68.2072192 C60.0798701,68.3901718 59.2574545,68.5591852 58.5622346,68.9338024 C58.0778457,69.1934209 57.5986841,69.4634938 57.1214391,69.7353091 C56.7137162,68.3762326 56.203017,66.8829907 55.601887,65.3932337 C56.5497558,64.9105873 57.6021689,64.5499093 58.6876878,64.2920332 C60.1478239,63.9505216 61.6813153,63.7937051 63.2283975,63.7902203 C63.6152116,63.7902203 64.0002833,63.8006747 64.3923246,63.8163564 L64.930728,63.8372653 L65.6660233,63.8651438 C66.5180598,63.8895374 67.3720129,63.8982495 68.2292766,63.8843102 C69.0865403,63.870371 69.9471145,63.8355229 70.8132645,63.758857 C71.679066,63.6821911 72.5502689,63.5898436 73.4232143,63.4173455 C74.2944172,63.2431049 75.177817,63.0305313 76.0455351,62.6681109 C76.0943225,62.6472021 76.1415417,62.6262932 76.1901548,62.6053843 C76.0037174,63.3703005 75.8712945,64.1578679 75.834704,64.9663443 C75.7981135,65.8305776 75.8538704,66.7244318 76.1065193,67.6043468 C76.2319725,68.043433 76.4046449,68.4738073 76.6257563,68.8867575 C76.852269,69.3049349 77.139766,69.6882642 77.4603687,70.0245485 C78.1034907,70.7023444 78.8579524,71.1884756 79.6052703,71.5857442 C79.8648888,71.7216518 80.1262497,71.8488475 80.3858681,71.9690735 C80.878969,72.1973286 81.3720698,72.4011901 81.8582011,72.598082 C83.3479581,73.1957272 84.7960716,73.7463275 86.1185577,74.4781379 C86.7404223,74.8213919 87.3328403,75.1977516 87.8816982,75.624641 C87.9165463,75.6507771 87.9513944,75.6769132 87.9862425,75.7047917 C88.5542669,76.15259 89.0839582,76.6857662 89.5962256,77.2520481 C90.6172754,78.3898391 91.5564322,79.6565682 92.5358385,80.9163276 C93.0270227,81.548821 93.5270932,82.1813143 94.058527,82.8033532 C94.5934456,83.4236497 95.1545003,84.0352342 95.7957057,84.6015161 C96.4351686,85.1643132 97.1547823,85.6992318 98.0346972,86.0529402 C98.0958557,86.0790762 98.1601504,86.0999851 98.2228771,86.120894 C98.2176498,86.1243788 98.2143393,86.1278636 98.2106802,86.129606 L98.2106802,86.129606 Z M79.7760261,93.534831 C78.2481104,93.6846779 76.7235052,93.8101311 75.177817,93.8920242 L72.825569,94.0401287 C72.0240623,94.0941433 71.2016468,94.1568699 70.3112774,94.3084592 C69.8669639,94.385125 69.4054006,94.4826998 68.9365191,94.6238346 C68.4660695,94.7684543 67.9921351,94.9636038 67.5443368,95.2023134 C67.0947961,95.441023 66.6750505,95.7180655 66.2986909,96.0229866 C66.115564,96.1763183 65.930869,96.32965 65.7653404,96.4882089 L65.6364024,96.6066925 L65.5457973,96.6955552 L65.4342833,96.8070692 C65.2896636,96.9586585 65.1521878,97.1189599 65.0265603,97.2810036 C64.9498945,97.4221385 64.8836831,97.5754702 64.8331533,97.7305443 L64.7965628,97.8490279 L64.7808811,97.9065273 L64.7756539,97.9326634 L64.7564874,98.0162989 L64.7233817,98.1818274 L64.698988,98.3316743 C64.6676247,98.5303086 64.6502007,98.708034 64.634519,98.884017 C64.6066405,99.2307558 64.5944437,99.5548433 64.5892165,99.8737035 C64.5841635,100.201276 64.5874741,100.523621 64.5927013,100.842481 C64.5909589,100.838996 64.5874741,100.837254 64.5841635,100.833769 C64.4080063,100.656044 64.2078038,100.466122 63.9480111,100.267487 C63.6918775,100.070595 63.3695324,99.8737035 63.0349904,99.7395383 C62.7004485,99.6018882 62.3782777,99.5199952 62.0993185,99.467723 C61.9651532,99.4433293 61.8153063,99.420678 61.7091938,99.4049964 C61.6480354,99.3945419 61.5626575,99.3788603 61.4807644,99.3631786 C61.311751,99.3283305 61.1289727,99.2847704 60.9441034,99.2394678 C60.2002703,99.0547728 59.4351799,98.8178056 58.6859454,98.5599295 C57.1806809,98.0459198 55.7064313,97.4308505 54.3179081,96.7042673 C52.9342636,95.9759416 51.6204896,95.1465564 50.5142361,94.1742939 C49.9636358,93.6899051 49.4651335,93.1706681 49.0521833,92.6235527 C48.8450112,92.349995 48.660142,92.0694676 48.4980982,91.7837131 L48.2262829,91.285385 L47.9631796,90.7748601 C47.715758,90.2730472 47.4909876,89.7660071 47.2940958,89.2519973 C49.8885381,89.20321 52.3577015,90.147594 55.0408323,88.5376109 C55.2446938,88.4156425 55.4382751,88.2692804 55.619311,88.1002671 C56.0793062,89.0010909 56.5255363,89.9088844 56.9907587,90.8079658 C57.5934569,91.9736353 58.2104428,93.1323352 58.8253378,94.2910351 C59.0901835,94.7876208 59.3637413,95.2789793 59.6339884,95.7738225 C59.7366161,95.7320048 59.8378499,95.6884446 59.9389094,95.6466269 C59.6791167,94.5855017 59.5451257,93.4721044 59.1285165,92.4771906 C58.4681446,90.8950861 57.6598426,89.3722233 56.8407376,87.8632999 C56.7048299,87.610651 56.5671798,87.3597446 56.426045,87.1105805 C57.3460353,85.6626412 57.8879235,83.5264516 58.1529434,81.3013993 C58.2032989,80.8971612 58.2433743,80.4911806 58.2747376,80.0852 C59.9613865,80.0294431 61.9546988,80.4092875 64.0525555,81.7439704 C64.0786916,81.7613945 64.1050019,81.7770761 64.1309637,81.7927578 C66.0110197,82.9793362 67.9416054,83.8296303 69.8007524,84.4394723 C69.8131235,84.4708356 69.8253204,84.5039413 69.837343,84.5353046 C70.5972062,86.4711176 71.9318891,88.018374 73.5016225,89.2746486 C75.0107202,90.4838783 76.7285582,91.4439439 78.4066693,92.423176 C79.1226239,92.8413534 79.9136761,93.1288504 80.6907892,93.4407411 C80.3858681,93.4738468 80.0792047,93.5052101 79.7760261,93.534831 L79.7760261,93.534831 Z M45.4959329,54.7854668 C45.3722221,54.4230463 45.2434583,54.0641107 45.1038916,53.7104023 C44.6996534,52.6928373 44.2276357,51.7101204 43.6942852,50.7657364 C43.8458746,50.4782394 43.9992063,50.1890001 44.156197,49.8997607 C44.8773788,48.5650778 45.5325234,47.097972 46.1197142,45.5019283 C46.7051626,43.9058845 47.0344773,41.980526 47.1059159,39.7275952 C50.8259525,40.7887204 53.176458,42.4771117 54.1574325,44.7910267 C55.1401494,47.1031993 55.4781762,49.1261325 55.1732551,50.8598263 C56.5741495,49.4780985 57.6492139,48.0231896 58.3949636,46.4950996 C59.1391451,44.9670097 59.6914878,43.3221785 60.0519916,41.5588638 C60.4109272,39.795549 60.6409248,37.9085235 60.7402419,35.8960447 C60.8397333,33.8835659 60.9268536,31.7038161 61.0016028,29.3533106 C65.2408763,30.9110215 68.2848593,33.021075 70.1319838,35.6782439 C71.9770174,38.3354129 73.160111,41.0657629 73.6793479,43.8658091 C74.1985849,46.6675978 74.3292653,49.3212819 74.0713892,51.828604 C73.8135132,54.335926 73.7351049,56.2351484 73.8379069,57.5262712 C74.9338801,56.7491582 75.8416736,55.7577292 76.5595448,54.550242 C77.2758479,53.3444971 77.8403874,52.1666307 78.2531633,51.0166428 C78.6643711,49.8683974 78.9450727,48.8839381 79.0964878,48.0667497 C79.2480771,47.2478189 79.3231748,46.840096 79.3231748,46.840096 C80.4503371,47.3837266 81.4280011,48.1347035 82.2556439,49.089542 C83.0832867,50.0461228 83.7645674,51.0950511 84.3010541,52.236327 C84.8359727,53.3776028 85.228014,54.5641812 85.4754357,55.7960622 C85.7211149,57.0262007 85.8275759,58.2214911 85.7908111,59.380191 C85.7019484,62.1506164 85.0398342,64.7433163 83.8009836,67.1600333 C83.170407,68.3901718 82.433195,69.5366749 81.58656,70.5978001 C81.18389,70.4235595 80.7935911,70.2423493 80.4207162,70.0454574 C79.7690564,69.700461 79.1768127,69.3049349 78.7253553,68.8275157 C78.4988426,68.5870637 78.3056098,68.33093 78.1538462,68.0504027 C78.0024311,67.7629057 77.8750613,67.4527575 77.782888,67.12867 C77.5947082,66.480495 77.5440041,65.767851 77.5753675,65.0482373 C77.6086474,64.3286237 77.7339264,63.5968133 77.9186214,62.8754572 C78.0109689,62.5147792 78.1189981,62.1558436 78.2409665,61.8038776 C78.3002083,61.6261522 78.3664197,61.4519116 78.4343735,61.2794134 L78.5373497,61.0232798 C78.5720236,60.9413867 78.6122732,60.8490392 78.6417198,60.788055 L80.4677612,56.8554449 L77.2443103,59.7913988 C76.7250734,60.1799553 76.070103,60.436089 75.3555424,60.6085872 C74.996781,60.6922227 74.6272167,60.7566917 74.250857,60.8107063 C73.872755,60.8629784 73.4861151,60.8960842 73.0973844,60.9204778 C71.5361887,61.0215374 69.9209784,60.9518411 68.3057682,60.8420696 C67.4955495,60.7863126 66.6835883,60.7166163 65.8716272,60.6347233 C66.1523288,59.2582226 66.2533883,57.8399043 66.1730634,56.3797681 C66.0720039,54.5467571 65.3543069,52.837457 64.0229346,51.2501252 C63.4237212,52.5935202 62.8590074,53.8393404 62.3329751,54.984101 C61.8048519,56.1288617 61.255994,57.1795324 60.6844849,58.1395981 C60.1391119,59.0508763 59.5501787,59.8750343 58.9142005,60.6085872 C58.5831434,60.659117 58.2503439,60.7201012 57.919461,60.788055 C57.6683803,60.8403272 57.4192163,60.8960842 57.1700523,60.9605532 C57.3303536,60.3838168 57.4470948,59.7460963 57.5237607,59.0491339 C57.6877211,57.5541497 57.1493176,56.2003003 55.906808,54.984101 C55.3318141,56.2734814 54.7324264,57.3311217 54.1086451,58.1570221 C53.6625892,58.7494401 53.2182757,59.2965556 52.7757047,59.7983685 C51.8138966,58.3277779 50.7562562,57.1290027 49.6341469,56.4390099 C48.0938601,55.4911411 46.7347835,55.0416004 45.4959329,54.7854668 L45.4959329,54.7854668 Z M44.5672306,86.1731662 C43.5723168,87.0025514 42.4137912,88.074131 40.8142626,88.7519269 C40.8106035,88.7536693 40.8088611,88.7554117 40.8053763,88.7554117 C40.7149454,88.7937446 40.6224237,88.8320775 40.5283338,88.8669256 C40.5213641,88.8704105 40.5143945,88.8721529 40.5093415,88.8756377 C40.4168198,88.9104858 40.3229041,88.9435915 40.2268976,88.9749548 C40.2181855,88.9784396 40.2112159,88.980182 40.2025039,88.9836668 C40.1066715,89.0150301 40.0108392,89.044651 39.9132645,89.0742719 C39.9045525,89.0760143 39.8958404,89.0794992 39.8855602,89.0812416 C39.7878113,89.1108625 39.6884941,89.1369986 39.5874346,89.1613922 C39.5787226,89.164877 39.5700105,89.1666195 39.5595561,89.1683619 C39.4584966,89.1927555 39.3539522,89.2171492 39.2494079,89.2380581 C39.2406958,89.2398005 39.232158,89.2415429 39.2232718,89.2432853 C39.1171592,89.2641942 39.0106983,89.2833606 38.9009267,89.3007847 C38.8922147,89.3025271 38.8854193,89.3042695 38.8782754,89.3042695 C38.7669357,89.3216936 38.653505,89.3373752 38.5385063,89.3513145 C38.533279,89.3513145 38.5280518,89.3513145 38.524567,89.3530569 C37.6639928,89.4506316 36.7056695,89.4297227 35.6217188,89.2380581 C35.4788415,89.2136644 35.3324795,89.1840435 35.1861174,89.1526802 C35.1392466,89.1439682 35.0920274,89.1317713 35.0449825,89.1213169 C34.9353852,89.0969232 34.8236969,89.0707871 34.7104406,89.0429086 C34.6633956,89.0307118 34.6165249,89.0202574 34.5675633,89.0063181 C34.410921,88.9662428 34.2539302,88.924425 34.0920607,88.8756377 C34.0901441,88.8756377 34.0884017,88.8756377 34.0866593,88.8738953 C33.8306998,88.7989718 33.5778767,88.7240484 33.3269703,88.6508673 C33.2764405,88.6351857 33.2241683,88.619504 33.1736386,88.6038224 C32.9227321,88.5288989 32.6753105,88.4539754 32.4313737,88.3807944 C32.3949574,88.3685976 32.3581926,88.3581431 32.3217763,88.3459463 C32.0759229,88.2710228 31.8354709,88.1978418 31.5985037,88.1229183 C31.5880492,88.1194335 31.5775948,88.1159487 31.5688828,88.1124639 C31.3249459,88.035798 31.088153,87.9591322 30.852754,87.8824663 C30.8161634,87.8702695 30.7814896,87.859815 30.7464672,87.8476182 C30.5112424,87.7692099 30.2795024,87.6925441 30.0529897,87.6141358 C30.0390504,87.6089086 30.0270278,87.6036814 30.0130886,87.5984542 C29.7864016,87.5200459 29.565116,87.4416376 29.3473153,87.361487 L29.3054975,87.3458053 C29.0859544,87.2656546 28.8716385,87.1820192 28.662724,87.1001261 C28.6381561,87.0896717 28.6137624,87.0809596 28.589543,87.0705052 C28.1642217,86.9014918 27.7564987,86.7255088 27.3698589,86.5442986 C27.3559196,86.537329 27.3419804,86.5303594 27.3262987,86.5233897 C27.1363765,86.4327846 26.949939,86.3404371 26.7685546,86.2463472 C26.7528729,86.2393776 26.7389337,86.2306656 26.723252,86.2236959 C26.3590892,86.0320313 26.0158352,85.8316546 25.6934902,85.6208235 C25.6795509,85.6121115 25.6656117,85.6033994 25.6534148,85.5946874 C25.4931135,85.4901431 25.3397818,85.3821139 25.1899349,85.2705999 C25.1847076,85.2653727 25.1779123,85.2601455 25.1707684,85.2549183 C24.8712488,85.0301479 24.5940321,84.7931807 24.3413832,84.5422743 C24.3291864,84.5318198 24.3187319,84.519623 24.3067093,84.5074261 C24.1810819,84.3819729 24.0625983,84.2530349 23.9493419,84.120612 C23.5276797,83.6240264 23.1896529,83.0751685 22.9424055,82.4566144 C22.7401122,81.9513167 22.5083722,81.5470786 22.25764,81.2038246 C22.2173904,81.1463252 22.1755727,81.0923106 22.133755,81.0400385 C22.128702,81.0330688 22.1233005,81.0260992 22.1180733,81.0191296 C22.0762556,80.9668574 22.0326954,80.9145852 21.9908777,80.8657979 C21.9873929,80.8605707 21.9823399,80.8570858 21.9786808,80.8518586 C21.3531571,80.1270178 20.65271,79.6914163 20.0446103,79.0658926 C20.0411255,79.0624078 20.0393831,79.058923 20.0360725,79.0554382 C19.9871109,79.0049084 19.9383236,78.9526362 19.8914528,78.900364 C19.8877938,78.8951368 19.8825666,78.891652 19.8790818,78.8864248 C19.7292349,78.7174114 19.5865318,78.5327164 19.4539347,78.3253701 C19.4452227,78.3096885 19.4347683,78.2940068 19.4243138,78.2783251 C19.3929505,78.226053 19.3615872,78.1720384 19.3302239,78.1180238 L19.2936334,78.05007 C19.2640125,77.9977978 19.2380506,77.9455256 19.2101721,77.891511 C19.1978011,77.865375 19.1856042,77.8409813 19.1734074,77.8148452 C19.1472713,77.7573458 19.1213094,77.6998464 19.0949991,77.6388622 C19.0845447,77.6144685 19.0740902,77.5900748 19.0638101,77.5656811 C19.0322725,77.4890153 19.0026516,77.410607 18.9747731,77.3287139 C18.9712883,77.3182595 18.9660611,77.3078051 18.9627505,77.2973506 C18.931213,77.2050031 18.8998497,77.1074284 18.8702288,77.0063689 C18.8632591,76.9819752 18.8562895,76.9540967 18.8493199,76.929703 C18.828411,76.8530371 18.8092446,76.7763713 18.7885099,76.6962206 C18.7796237,76.6578877 18.7709116,76.6178123 18.7621996,76.5794794 C18.7465179,76.5080408 18.7310105,76.4348597 18.7170713,76.3581939 C18.708185,76.3146337 18.699473,76.2710736 18.6925034,76.225771 C18.6785641,76.1491052 18.6663673,76.0706969 18.6541704,75.9905462 C18.6472008,75.9435013 18.6384888,75.8981987 18.6332616,75.8511538 C18.6210647,75.7622911 18.6106103,75.671686 18.6003301,75.5793384 C18.5949286,75.5357783 18.5897014,75.4939606 18.5846484,75.4504004 C18.5707092,75.3127504 18.5583381,75.1716155 18.5496261,75.023511 C18.5496261,75.023511 18.5618229,74.9904053 18.5863908,74.9294211 C18.6454584,74.7795742 18.7761388,74.4537443 18.9643187,74.02337 C18.9643187,74.02337 18.9643187,74.0216276 18.9660611,74.0198852 C18.9817427,73.9815523 18.9991668,73.9432193 19.0165909,73.903144 C19.0202499,73.894432 19.0235605,73.8857199 19.0270453,73.8787503 C19.0427269,73.8421598 19.0584086,73.8055693 19.0758327,73.7689787 C19.0777493,73.7620091 19.0810599,73.7567819 19.0845447,73.7498123 C19.2221947,73.4379216 19.3826703,73.0876981 19.5637063,72.7148232 C19.7431741,72.3436907 19.9435508,71.949907 20.1561243,71.5561233 C20.1596091,71.5508961 20.1630939,71.5439264 20.166753,71.5386992 C20.2345326,71.4115036 20.3042288,71.2860504 20.3756674,71.1588547 C20.3808947,71.1518851 20.3845537,71.1431731 20.3896067,71.1344611 C20.4610453,71.0090078 20.5342264,70.885297 20.6074074,70.7615862 C20.6108922,70.7546166 20.614377,70.747647 20.6196043,70.7406773 C20.6962701,70.6117393 20.7746784,70.4845437 20.8530866,70.3608329 C20.8530866,70.3590905 20.8530866,70.3590905 20.854829,70.3590905 C21.0693192,70.0193213 21.2939153,69.6952338 21.5221705,69.4025096 C21.7505999,69.108043 21.9823399,68.8449397 22.2173904,68.6253966 C22.2191328,68.6253966 22.2191328,68.6236542 22.2208753,68.6219118 C22.2644354,68.5818365 22.3079955,68.5417611 22.3532981,68.5051706 C22.3532981,68.5034282 22.3532981,68.5034282 22.3550405,68.5034282 C22.623371,68.2734306 22.8934439,68.1061597 23.1584639,68.0225242 C23.1617744,68.0207818 23.1652592,68.0207818 23.168744,68.0190394 C23.2088194,68.0068425 23.2488947,67.9981305 23.2891443,67.9894185 C23.2941973,67.9876761 23.2994245,67.9859337 23.3048259,67.9859337 C23.3429846,67.978964 23.3795752,67.9719944 23.4179081,67.9685096 C23.4248777,67.9685096 23.4301049,67.9667672 23.4370746,67.9667672 C23.4736651,67.9632824 23.511998,67.9632824 23.5485885,67.9632824 L23.5661868,67.9632824 C23.6043455,67.9650248 23.6426784,67.9685096 23.6811856,67.9737368 C23.6862386,67.9737368 23.6897234,67.9737368 23.6932082,67.9754792 C23.8657064,68.0016153 24.0347198,68.0713115 24.1985059,68.1915375 C24.2316116,68.2141888 24.2631492,68.2385825 24.2927701,68.2647186 C25.0557696,68.9181208 25.7823529,70.4845437 26.5422161,72.3192971 C26.5437842,72.3192971 26.5437842,72.3210395 26.5437842,72.3210395 C27.1919592,73.8874623 27.8647021,75.6455499 28.6034822,77.1997759 C28.7601245,77.5273482 28.9186834,77.8462085 29.0807272,78.1528719 C29.3560273,78.6686241 29.6382971,79.1495281 29.9345061,79.5729327 C30.2291469,79.9980797 30.5358103,80.3674698 30.8562388,80.6636788 C30.9032837,80.7089813 30.9520711,80.7507991 31.0010327,80.7926168 L31.0043433,80.7961016 C31.0513882,80.836177 31.1003498,80.8745099 31.1472205,80.9111004 C31.1507054,80.9128428 31.1524478,80.9145852 31.1559326,80.9163276 C31.2031518,80.9529182 31.2500225,80.9860239 31.2970674,81.0191296 C31.3005523,81.020872 31.3059537,81.0243568 31.3092643,81.0260992 C31.3545668,81.0574625 31.4016118,81.0870834 31.448831,81.1149619 C31.453884,81.1184467 31.4591112,81.1219315 31.4645127,81.1254163 C31.509641,81.1515524 31.5566859,81.1776885 31.6019885,81.2003398 C31.6091323,81.2038246 31.6159277,81.2073094 31.6230716,81.2107942 C31.6683741,81.2334455 31.7135025,81.2560968 31.7605474,81.2752633 C31.7657746,81.2787481 31.7727443,81.2804905 31.7797139,81.2839753 C31.8269331,81.3031417 31.8738038,81.3205658 31.9191063,81.3379899 C31.9243336,81.3397323 31.9313032,81.3397323 31.9365304,81.3432171 C31.9853178,81.3588987 32.0341051,81.372838 32.0828925,81.3867772 C32.1874369,81.4129133 32.2937236,81.4338222 32.4017528,81.4425342 C34.9508926,81.6742742 37.0208707,83.6519049 38.8347153,84.5475015 C38.8451697,84.5527287 38.8557984,84.5579559 38.8660786,84.5631831 C38.9357748,84.5962888 39.005471,84.6293946 39.0751673,84.6590155 C39.0856217,84.6642427 39.0960761,84.6694699 39.1047882,84.6729547 C39.2598623,84.7409085 39.413194,84.7984079 39.5647833,84.8454529 C39.5806392,84.8506801 39.597889,84.8559073 39.6135707,84.8611345 C39.6710701,84.8768162 39.7270013,84.8924978 39.7845007,84.9064371 C39.8052353,84.9116643 39.8280608,84.9168915 39.8487955,84.9203763 C39.9028101,84.9325732 39.9568246,84.9430276 40.0090968,84.9517396 C40.0301799,84.9552245 40.0491722,84.9587093 40.0683386,84.9604517 C40.2129583,84.9796181 40.3540932,84.9865878 40.4934856,84.9796181 C40.5143945,84.9796181 40.5353034,84.9778757 40.5562123,84.9761333 C40.6049996,84.9709061 40.653787,84.9656789 40.7043168,84.9587093 C40.7271423,84.9552245 40.7513617,84.9499972 40.7757554,84.9465124 C40.8228004,84.9378004 40.8715877,84.9256036 40.9186327,84.9134067 C40.941284,84.9064371 40.9621928,84.9012099 40.9831017,84.8959827 C41.0527979,84.8750738 41.120926,84.8506801 41.1869632,84.8210592 C41.2862803,84.7792415 41.3855975,84.7409085 41.4849146,84.7060604 C41.5093083,84.6973484 41.533702,84.6886364 41.5580956,84.6799243 C41.6556704,84.6450762 41.7549875,84.6137129 41.8525622,84.584092 C41.8543046,84.584092 41.856047,84.584092 41.8577894,84.5823496 C41.9605914,84.5527287 42.06531,84.5265926 42.1696801,84.5021989 C42.1888466,84.4987141 42.2081873,84.4934869 42.2271795,84.4900021 C42.3299814,84.4673508 42.4327834,84.4464419 42.5338429,84.4290179 C42.8615895,84.3732609 43.1837603,84.3453824 43.4834541,84.3453824 C44.9820974,84.3453824 45.9437312,85.0266631 44.5672306,86.1731662 L44.5672306,86.1731662 Z M40.4551527,97.1241871 C40.5788635,97.801983 40.6224237,98.5041725 40.5997724,99.2115893 C40.5753787,99.9190061 40.486516,100.629908 40.3647219,101.342552 C40.1190426,102.76784 39.6797821,104.19487 39.0037286,105.515614 C38.3363872,106.8381 37.5261684,108.096117 36.6148902,109.277468 C36.1583798,109.869886 35.6792182,110.43791 35.1704357,110.998965 C34.6529412,111.573959 34.1406738,112.155923 33.6336337,112.743113 C32.6230383,113.92098 31.6281246,115.11627 30.6961117,116.37603 C29.7656669,117.635789 28.8838353,118.946078 28.1467976,120.383563 C27.8244525,121.016056 27.538698,121.679913 27.31567,122.385587 C27.2670569,122.312406 27.2198377,122.237483 27.1693079,122.164302 C26.5977988,121.343629 25.9409118,120.566516 25.1761699,119.859099 C24.4110794,119.153425 23.5276797,118.520931 22.4961754,118.074875 C21.9823399,117.850105 21.4367926,117.677607 20.8637153,117.566093 C20.2780927,117.454579 19.6769627,117.435412 19.0984839,117.480715 C17.9329886,117.57132 16.8804013,117.928513 15.9325325,118.332751 C14.9830955,118.743959 14.1221728,119.221378 13.2893027,119.688343 C11.6340172,120.632727 10.0867607,121.557945 8.49437602,122.237483 C7.70140711,122.582479 6.90164281,122.863007 6.09142408,123.063383 C5.3127429,123.265502 4.464017,123.373532 3.58601868,123.45194 C1.82793115,123.603529 -0.0279053468,123.605272 -1.92015813,123.666256 C-2.86628451,123.699361 -3.82635015,123.739437 -4.80035503,123.830042 C-5.28822868,123.87186 -5.77784473,123.929359 -6.27094559,124.004282 C-6.76561462,124.075721 -7.26237453,124.168069 -7.76244502,124.291779 C-8.26425791,124.413748 -8.7660708,124.561852 -9.26422464,124.763971 C-9.76272696,124.962606 -10.2593126,125.203058 -10.7313304,125.520176 C-10.9458206,125.664795 -11.1529926,125.826839 -11.3518011,126.002822 C-11.3690509,125.717067 -11.3866492,125.42957 -11.4005885,125.142074 C-11.4528607,124.035646 -11.4650575,122.925733 -11.442232,121.819306 C-11.3936189,119.602965 -11.1965528,117.391852 -10.8238521,115.215587 C-10.4492349,113.039322 -9.89863462,110.896163 -9.12674882,108.843609 C-8.74150288,107.81559 -8.30084843,106.811964 -7.7988613,105.843186 C-7.54969726,105.35357 -7.28502581,104.886605 -7.00101365,104.407444 C-6.71525909,103.92654 -6.42776212,103.447378 -6.13503793,102.969959 C-4.96570935,101.060282 -3.73208599,99.1993925 -2.44287989,97.3576695 C-1.80150029,96.4359368 -1.14478751,95.5176889 -0.505324556,94.561108 C0.127168776,93.6010424 0.764889326,92.5869622 1.19526358,91.405611 C1.4095795,90.8166778 1.56116881,90.1928965 1.62912264,89.5673728 C1.70056128,88.9401067 1.69899311,88.3180678 1.65543297,87.7151954 L1.61344099,87.2656546 C1.59950174,87.1140653 1.57685046,86.9433096 1.54722956,86.7847506 C1.48798776,86.4606631 1.40260988,86.138318 1.28761109,85.8229426 C1.05761351,85.1939341 0.705647526,84.6032585 0.26481884,84.1049304 C-0.1740932,83.6066023 -0.690019579,83.1936521 -1.23347597,82.862595 C-1.60478266,82.6378246 -1.98968012,82.4479024 -2.38015328,82.2858587 L-0.498354933,81.8903325 L0.965266001,81.5836691 L1.69725071,81.4303374 L1.74586383,81.4198829 L1.81904488,81.4024589 C1.86608984,81.390262 1.91679385,81.3780652 1.95669494,81.3641259 L2.08389057,81.3223082 L2.19714695,81.2787481 C2.34699386,81.2195063 2.4776743,81.1567797 2.60661233,81.094053 C3.10842523,80.8379194 3.54054188,80.5661041 3.97265854,80.2925463 C4.40303279,80.0189886 4.82138444,79.7419461 5.2376452,79.466646 C6.18568824,78.8376374 7.13164039,78.2208258 8.08665305,77.633635 C8.619655,77.2712146 10.5136502,76.2344831 10.5136502,76.2344831 C12.1480269,75.3632801 13.8383348,74.6140456 15.5770817,74.1592777 C15.9849789,74.0529909 16.39427,73.9641282 16.8054778,73.8961744 C16.6819412,75.7814575 16.8960829,77.8462085 17.8317549,79.9527772 C17.7167561,79.9823981 17.6034997,80.012019 17.4885009,80.0451247 C17.4224637,80.0625488 17.3560781,80.0834576 17.2881242,80.1026241 C16.7863113,80.4005755 13.4043015,81.2926873 13.4043015,81.2926873 C13.2039249,81.3484443 13.0035482,81.4059437 12.8031715,81.4582159 C11.2350062,81.8781357 9.63896244,82.1900263 8.05877455,82.5611588 C6.78159105,82.8608526 5.50597571,83.1744857 4.23227701,83.4881187 C3.68516157,83.622284 3.14153094,83.7686461 2.5961579,83.9080385 C2.61201379,84.0178101 2.62926361,84.1275817 2.64494526,84.2356108 C3.73743375,84.2425805 4.8508311,84.3854577 5.91718349,84.2251564 C7.610802,83.9725075 9.28699645,83.5595574 10.9492517,83.1361527 C12.247344,82.806838 16.5373215,82.8591102 17.4362287,83.1727432 C17.8526637,83.3173629 18.2743259,83.446301 18.7013896,83.5630422 C17.0354754,85.1155258 15.2913271,88.147312 14.3905033,91.1547046 C13.8015701,93.1131688 12.7003696,94.0436135 11.2785664,94.8276961 C10.8516769,94.7440607 10.4249617,94.6604252 9.99789805,94.5785321 C7.95597261,94.1899756 5.93634996,94.496639 4.03555939,95.1552684 C2.20934379,95.7877618 0.480877168,96.7286609 -1.24236224,97.6277424 C-2.13970127,98.0947071 -2.9323217,98.7620486 -3.77233557,99.3387849 C-0.285781416,97.8263766 3.17115184,96.3366196 6.90687003,95.6884446 C7.85648123,95.5246585 8.85139499,95.49678 9.82905892,95.5595066 C7.65610456,96.6119197 5.01113244,97.9047849 2.36633456,101.60914 C-2.86088306,108.928987 -8.54827007,114.678926 -8.61273909,117.815257 C-8.75038915,124.55314 -6.66629748,110.523288 6.01475822,102.069135 C7.77458816,100.896496 11.6725243,98.5930352 14.8504984,95.8748821 C14.8592104,95.9079878 14.8696649,95.9393511 14.8766345,95.9724568 C15.320948,97.6887266 15.7948824,99.4137084 16.0179103,101.164826 C16.2670744,103.125033 16.4099517,105.127057 16.3036649,107.095976 C16.16253,109.732236 15.737383,112.354557 15.418697,115.112785 C15.5910209,114.870591 15.723618,114.732941 15.8035944,114.567412 C17.2654729,111.554793 17.9380416,108.35922 17.814505,105.024255 C17.7028168,102.046484 17.0581266,99.1471203 16.2113174,96.2948019 C16.0841218,95.86617 15.9516989,95.4375382 15.8210185,95.0071639 C17.8544061,93.1079415 19.4190866,91.0519026 19.6177209,89.0620751 C19.8877938,86.3665732 20.9698278,85.5546121 21.7051231,85.0510568 C22.7871572,86.00938 24.0871662,86.9502792 25.6447028,87.8632999 C25.9095485,88.4504906 26.2301512,89.0150301 26.547269,89.581312 C26.8643869,90.147594 27.181679,90.7121335 27.4393808,91.3045515 C28.2147515,93.080063 27.8802095,95.0106488 27.8018013,96.8349477 C27.667636,99.9782479 27.2808219,103.105866 27.8540734,106.240455 C28.0683894,107.418321 28.4604307,108.523006 29.1643627,109.411633 C29.1730747,107.897483 29.1661051,106.355453 29.195726,104.815167 C29.251483,101.887925 29.3403457,98.9589405 29.3875649,96.0316986 C29.4015041,95.2267071 29.4396628,94.3886099 29.2462557,93.6219513 C28.8698961,92.126967 28.4220978,90.6494068 27.9936402,89.1683619 C32.3756167,91.4631104 35.4441677,92.238481 37.7335147,92.2541627 C38.0732839,92.6827945 38.4235075,93.1009719 38.7807007,93.5156645 C39.2232718,94.0105078 39.5856922,94.5715625 39.8644771,95.1814045 C40.1450045,95.7895042 40.3296995,96.4481336 40.4551527,97.1241871 L40.4551527,97.1241871 Z M4.14515672,72.8245948 C3.27569619,72.4761136 2.36964514,72.1799046 1.40801133,71.9934672 C2.12396591,71.3958219 2.79130736,70.7162837 3.37327092,69.923489 C3.96917373,69.1063006 4.47116086,68.1601742 4.76214264,67.0868522 C4.90310328,66.544964 4.99022357,65.9926213 4.99388262,65.3967185 C4.9989356,64.8077853 4.91704252,64.2205946 4.77608189,63.6752215 C4.63825758,63.1246213 4.43091128,62.6175812 4.20439852,62.1471316 C3.97614335,61.6749396 3.7252369,61.2375957 3.4569064,60.8298727 C3.1885759,60.4204073 2.91327577,60.0353357 2.63623323,59.6624608 C2.35396348,59.2948132 2.07169373,58.9393624 1.79290879,58.5908812 C0.667488837,57.2091533 -0.409492233,55.9145458 -1.23887743,54.5101666 C-1.44796613,54.159943 -1.63614597,53.8044922 -1.81038656,53.4438142 C-1.98636955,53.0813938 -2.13429981,52.7207158 -2.28257855,52.3269321 C-2.57530273,51.5480766 -2.83300456,50.7256611 -3.08408525,49.8927911 C-3.58241333,48.2235662 -4.04066607,46.5038116 -4.57906949,44.7857994 C-5.12270012,43.0695297 -5.7219135,41.3358358 -6.62639639,39.6700958 C-7.08116432,38.8407106 -7.62827977,38.0287495 -8.34092377,37.3091358 C-8.41584722,37.2359548 -8.49251308,37.1627737 -8.57092135,37.0913351 C-8.37734005,37.0686838 -8.18236484,37.047775 -7.98895778,37.0268661 C-6.95553686,36.9170945 -5.91897961,36.8317166 -4.88224811,36.7742172 C-2.81052753,36.640052 -0.737064537,36.6208855 1.32245921,36.7010362 C3.38215719,36.7794445 5.42948409,36.9955028 7.42784939,37.37012 C9.42464652,37.7464797 11.3796259,38.2918528 13.20044,39.0863898 C14.3314357,39.5812331 15.4568557,40.1004701 16.5754802,40.6406159 C17.3353434,41.0065211 18.0896309,41.3828808 18.8406079,41.7662101 C19.7693102,42.2384021 20.6912171,42.7349877 21.6301997,43.2246038 C22.5710988,43.7159622 23.5189676,44.2212599 24.5731232,44.6655734 C25.0993298,44.886859 25.6621269,45.0837508 26.2580297,45.2266281 C26.8539325,45.367763 27.482941,45.4461713 28.1032375,45.4444289 C28.723534,45.4444289 29.3281488,45.3695054 29.9014003,45.2545066 C30.4607126,45.1447351 31.0618427,44.9844337 31.6263822,44.7283001 C32.1910959,44.4756512 32.7310675,44.1358821 33.1945474,43.710735 C33.6564592,43.285588 34.0518111,42.7872599 34.3255431,42.2384021 C34.4072619,42.0798431 34.4787006,41.9177994 34.5433438,41.7522708 C34.5518816,41.8481031 34.5605936,41.9439355 34.5729647,42.0380254 C34.6459715,42.5868832 34.7574855,43.1461955 35.0118768,43.7211895 C35.1392466,44.0086864 35.3028586,44.303153 35.5434848,44.5889076 C35.5990676,44.6603462 35.6705062,44.7300425 35.73846,44.7997387 L35.7909064,44.8502685 L35.8186107,44.8816318 L35.8726253,44.9391312 C35.9458063,45.0175394 36.0243888,45.1046597 36.1008804,45.1935224 C36.7246617,45.913136 37.3451325,46.6954763 37.9689138,47.4534228 C38.5907784,48.2165966 39.2128173,48.9797704 39.8052353,49.763853 C40.3959109,50.5479357 40.9763063,51.3389879 41.5112249,52.1561763 C41.8022067,52.5935202 42.0808174,53.0360913 42.3456631,53.485632 C42.5251309,53.7870682 42.6976291,54.0919892 42.8633319,54.4003951 C42.568691,54.3620621 42.2777093,54.3219868 41.9936971,54.271457 C41.1312062,54.1198677 40.3087906,53.8846429 39.4985719,53.3985117 C38.0819959,52.5482176 36.6148902,51.9923901 35.1686933,51.6473938 C34.7191526,50.7099794 34.2277941,49.7882467 33.7486325,48.8682564 C33.2816677,47.9726598 32.6143263,47.1781227 32.0375899,46.3382831 C32.7713171,48.0319016 33.4994685,49.7185505 34.128477,51.4330779 C28.5702023,50.4643002 23.6182848,52.3844315 23.6182848,52.3844315 C22.7732179,53.2277559 22.0814828,54.0919892 21.5117161,54.9579649 C21.4752998,55.0102371 21.4420198,55.0607669 21.4089141,55.1130391 C19.7414317,54.3585773 18.0704645,53.5117681 16.4273757,52.6179138 C16.3367706,51.5097437 16.0858642,50.42074 15.7199589,49.3683269 C15.0874656,47.5422855 14.1465664,45.8138189 13.247485,44.0905795 C12.7805202,43.1932405 12.1131788,42.4004458 11.5364424,41.5606062 C13.0018058,44.9408736 14.4427754,48.2915201 15.1205713,51.893073 C4.67833292,46.0019987 -4.07377179,38.7117726 -1.29271777,42.5363535 C-0.158585787,44.0958067 6.13498423,49.9015031 11.6671229,53.2573768 C11.1951051,53.2364679 10.7209965,53.189423 10.2435773,53.1110147 C6.66816043,52.5238239 3.2774386,51.3041398 -0.163813005,50.2499843 C-1.05069759,49.9799114 -1.96546068,49.7969587 -2.86802692,49.5739308 C-2.87848136,49.6227182 -2.88876155,49.6732479 -2.89939023,49.7220353 C-0.608126503,50.7152066 1.65874354,51.7676198 3.98137057,52.6841253 C5.79695749,53.4019965 7.67875583,53.9491119 9.53093328,54.576378 C11.1966733,55.1409176 12.8711253,55.0990998 14.5577742,54.7976636 C15.4376892,55.1897049 16.265332,55.4702323 17.0041121,55.6061399 C18.4363697,55.8657584 19.5429717,56.353632 20.4002354,56.9390804 C18.6925034,60.5929055 18.7885099,64.0899141 18.5496261,66.2383006 C18.4659906,66.9823079 18.0183665,68.1741135 17.5930453,69.6673553 C15.737383,69.8921257 13.8468726,70.0158365 11.9859832,69.914777 C9.34989731,69.7736421 6.72740223,69.348495 3.96917373,69.0296348 C4.21154238,69.202133 4.35076061,69.3362982 4.51472101,69.4147065 C7.52890893,70.876585 10.7227389,71.5491537 14.0577037,71.4254428 C15.1223137,71.3853675 16.1764693,71.2773383 17.2219128,71.117037 C17.1574438,71.4010492 17.0964596,71.6920309 17.042445,71.9917248 C16.3838156,72.0805875 15.7392996,72.2164951 15.1083745,72.3872509 C13.0732444,72.9378511 11.1933627,73.8160237 9.40913911,74.800483 C9.19290654,74.9189666 8.98033302,75.0391926 8.7677595,75.1629034 C7.29716895,74.2917005 5.77430621,73.4814818 4.14515672,72.8245948 L4.14515672,72.8245948 Z M100.454899,84.5579559 C99.871193,84.7217421 99.278775,84.6764395 98.6793874,84.4342451 C98.0819164,84.1972779 97.4980362,83.7808429 96.9493526,83.2964541 C95.8514627,82.3154796 94.8792002,81.0888258 93.9121649,79.8482328 C92.9435615,78.604155 91.9902912,77.3147747 90.8908331,76.0863786 C90.4256108,75.5706264 89.9325099,75.0635863 89.3819097,74.5966215 C92.6001333,72.2792217 95.5064663,69.4007672 98.102651,65.961258 C102.333213,59.946473 104.448493,53.4926016 104.448493,46.5979016 C104.448493,40.2886499 102.577149,34.2756072 98.8344615,28.5535463 L98.8344615,30.7542049 C98.510374,34.8610556 97.3710148,38.8964676 95.4176036,42.8569561 C96.2313071,39.1891918 96.6372877,35.742713 96.6372877,32.5140349 C96.6372877,30.0206521 96.3933509,27.4540882 95.9056515,24.8126009 C94.1160264,14.398241 89.0717614,5.41265392 80.7726822,-2.14241795 C72.4718606,-9.69748982 62.5471168,-14.3549407 50.9933977,-16.1147706 C49.2020302,-16.5555993 47.7384093,-16.7751425 46.5988758,-16.7751425 L46.8428127,-16.5555993 C54.8160619,-7.75296486 57.8269393,1.92784217 55.8738765,12.4903066 C55.3858287,15.278156 53.4744094,23.5580687 52.4986621,25.3178986 C52.4986621,25.3178986 52.3923754,25.2238087 52.2041955,25.0652498 C51.9114713,23.6347345 51.7442004,22.1519471 51.7060417,20.6151452 C51.6518529,18.424941 51.7807909,16.1075412 52.0926816,13.6646881 C52.4063146,11.2200927 52.7704774,8.57337817 53.1870867,5.72454457 C47.7349245,6.86407801 43.6106498,8.87481439 40.8106035,11.7584961 C38.0105573,14.6421778 35.9963361,17.7279786 34.7679399,21.0176409 C33.539718,24.3055608 32.8112182,27.4837091 32.5831372,30.5538283 C32.3547078,33.6239474 32.0393324,35.9291504 31.6387532,37.4694372 C30.4816215,36.3386158 29.6017065,34.9847664 28.9955235,33.4044043 C28.388992,31.8222997 27.9621026,30.3029218 27.7129386,28.8445281 C27.4620321,27.3861344 27.3348365,26.1490262 27.3296093,25.1366884 C27.3226397,24.1226082 27.3191548,23.6173105 27.3191548,23.6173105 C25.8433371,24.0773056 24.5034269,24.8108585 23.2976821,25.8197115 C22.0936796,26.8268221 21.0464937,27.9733252 20.1545561,29.2574783 C19.2622701,30.5416314 18.5339444,31.9041928 17.9711473,33.3451625 C17.4085245,34.7878745 17.0232785,36.2114201 16.819417,37.6157993 C16.8072202,37.6959499 16.7967658,37.7743582 16.7863113,37.8545089 C15.9464717,37.4554979 15.09792,37.0669414 14.2406564,36.6905818 C12.1830493,35.8036972 10.036231,35.2252184 7.87913251,34.854086 C5.72046587,34.4812111 3.54751151,34.3278794 1.38518582,34.2947737 C0.305068416,34.2773496 -0.775397467,34.3069705 -1.85046189,34.3644699 C-2.92552631,34.4202269 -3.99884833,34.5073472 -5.06676889,34.622346 C-6.13503793,34.7443144 -7.19790552,34.8924189 -8.25728829,35.0684019 C-8.78697967,35.1555222 -9.31318625,35.2565817 -9.84113523,35.3628685 C-10.372569,35.4708976 -10.8865788,35.5824116 -11.4319518,35.7200617 L-14.4428291,36.4867203 L-11.4755119,37.4119378 C-10.8045114,37.6210265 -10.2157525,38.0479159 -9.71219719,38.6124554 C-9.20864189,39.1804797 -8.7939493,39.8739573 -8.43501369,40.610995 C-7.71888487,42.0937824 -7.2240416,43.7455831 -6.78321292,45.4200352 C-6.34238423,47.0997144 -5.97125178,48.819469 -5.54087753,50.5618749 C-5.3248192,51.4348203 -5.09482163,52.3129928 -4.80906706,53.2033622 C-4.66793219,53.6441909 -4.50222939,54.1128981 -4.3159662,54.5572116 C-4.12952877,55.0032675 -3.92566729,55.438869 -3.70612415,55.864016 C-2.83666362,57.5680889 -1.74069032,59.0804972 -0.721382884,60.5057852 C-0.46507498,60.861236 -0.214342775,61.2114596 0.0243668294,61.5581984 C0.26481884,61.9014523 0.49324825,62.2412215 0.700420308,62.5792482 C1.11877196,63.2500745 1.44965483,63.9069615 1.62215302,64.518546 C1.71101572,64.8252094 1.75806067,65.1214184 1.7650303,65.415885 C1.77217416,65.5587623 1.75806067,65.7155788 1.75283346,65.8741377 L1.72495496,66.1128473 C1.71293236,66.192998 1.69533406,66.2731487 1.68139482,66.3532993 C1.5594264,67.0014743 1.29127014,67.674043 0.930417884,68.3413845 C0.566429297,69.0087259 0.108002311,69.6656129 -0.400780204,70.3050759 C-0.656913867,70.6221937 -0.918274748,70.9445388 -1.2005445,71.2512023 C-1.33819456,71.4080188 -1.47758703,71.5630929 -1.62220672,71.7146822 L-2.04212654,72.1589957 L-6.00435749,74.5391221 L-1.35195957,73.7289034 C-0.996683013,73.6679192 -0.625376321,73.65398 -0.240478863,73.6888281 C0.142850429,73.7236762 0.53489175,73.8020845 0.930417884,73.9048864 C1.71972774,74.1104903 2.5072952,74.4345778 3.28615062,74.8022254 C4.06518029,75.1681307 4.83166463,75.5915353 5.58612638,76.041076 C5.87902481,76.2153166 6.17000659,76.3965268 6.45907172,76.577737 C5.72203404,77.0516714 4.99562503,77.5343178 4.27583716,78.0152219 C3.8613188,78.290522 3.44819437,78.5640797 3.03872899,78.827183 C2.62926361,79.0885439 2.21457101,79.3464199 1.82793115,79.5433118 C1.73192459,79.5903568 1.63783467,79.6356593 1.55594159,79.6670226 L1.49513163,79.6914163 L1.44442762,79.7088404 C1.42526115,79.71581 1.41480672,79.71581 1.40260988,79.7192948 L1.38518582,79.724522 L1.34162567,79.7349765 L0.609989444,79.8883082 L-0.853805731,80.1984564 L-6.70985763,81.428595 L-14.0821511,82.9793362 L-6.54276091,83.1396375 C-6.44344377,83.1413799 -6.30056649,83.150092 -6.17685567,83.1605464 C-6.04791764,83.1692584 -5.9172372,83.1831977 -5.78655676,83.1971369 C-5.52693828,83.2267578 -5.26731981,83.2650908 -5.0092695,83.3138781 C-4.4936916,83.407968 -3.98665149,83.5369061 -3.50226266,83.7059194 C-2.53348499,84.0422038 -1.64834281,84.5492439 -1.03675835,85.2479486 C-0.730094914,85.5946874 -0.496612527,85.9902135 -0.338053592,86.4205878 C-0.259645328,86.6349037 -0.200403528,86.8596741 -0.158585787,87.0914141 C-0.135934511,87.2081552 -0.121995264,87.3179268 -0.109798423,87.4486073 L-0.0730336589,87.8406486 C0.00520036481,88.8860921 -0.0854047406,89.8757786 -0.435454081,90.8166778 C-0.777139872,91.7610618 -1.33993697,92.6793097 -1.95152143,93.5993 C-2.5648483,94.5175479 -3.22173531,95.4357958 -3.86816789,96.3644981 C-5.16800267,98.2201604 -6.42950453,100.121125 -7.61782533,102.060423 C-7.91577674,102.544812 -8.20850092,103.032685 -8.4977403,103.520559 C-8.79046449,104.01366 -9.08144627,104.52767 -9.34629196,105.043422 C-9.88121056,106.078411 -10.3499177,107.143021 -10.7576407,108.22854 C-11.5765715,110.399577 -12.1567926,112.647281 -12.548834,114.917636 C-12.9408753,117.187991 -13.1482216,119.484482 -13.2022362,121.77923 C-13.2266298,122.927476 -13.2161754,124.075721 -13.1621608,125.223967 C-13.1360247,125.797218 -13.0994342,126.372212 -13.0506468,126.945464 C-13.0260789,127.232961 -13.0001171,127.520458 -12.9687538,127.807955 C-12.9372162,128.100679 -12.9060272,128.377721 -12.8607246,128.687869 L-12.4233807,131.68655 L-11.1669319,128.884761 L-11.1651895,128.884761 C-10.7977161,128.22439 -10.2697671,127.759167 -9.59197119,127.440307 C-8.92288733,127.107507 -8.11597917,126.933267 -7.27613954,126.818268 C-6.43473174,126.706754 -5.54958956,126.670163 -4.65225054,126.657967 C-3.7514267,126.650997 -2.83666362,126.666679 -1.90796128,126.692815 C-0.0505566231,126.73289 1.85040818,126.807814 3.83500847,126.677133 C4.82469501,126.607437 5.84400245,126.483726 6.88596116,126.227592 C7.89481416,125.971459 8.86707664,125.621235 9.79403656,125.215255 C10.7175117,124.805789 11.5974266,124.338824 12.4390087,123.856178 C13.2805907,123.370047 14.0873246,122.866491 14.8748921,122.389072 C15.6607171,121.906426 16.4308605,121.4534 17.1870647,121.08401 C17.9432688,120.712878 18.6874504,120.442805 19.3912081,120.341745 C19.7449165,120.292958 20.0899129,120.285988 20.4314244,120.322579 C20.7833904,120.364397 21.1458108,120.44629 21.5012616,120.570001 C22.2191328,120.810453 22.9160952,121.2356 23.5851791,121.733928 C24.2525205,122.237483 24.8693322,122.85081 25.4547806,123.504212 C25.7475047,123.831784 26.0245473,124.176781 26.2928778,124.528747 C26.4287854,124.70473 26.5578977,124.884197 26.6849191,125.065408 L26.8713565,125.335481 L27.0438547,125.595099 L29.5145862,129.311651 L28.7514125,125.075862 C28.7270188,124.898137 28.7148219,124.713442 28.7148219,124.527004 C28.7148219,124.075721 28.7845182,123.603529 28.9084032,123.131337 C29.0807272,122.462253 29.3473153,121.789685 29.662865,121.132798 C30.2916993,119.813796 31.1245693,118.555779 32.0029161,117.33261 C32.8863158,116.109441 33.8374952,114.922863 34.8236969,113.762421 C35.3202826,113.185684 35.8238379,112.612433 36.3343628,112.044409 C36.8570846,111.46593 37.3710943,110.856088 37.8521726,110.230564 C38.8155488,108.977774 39.6780397,107.637864 40.3943428,106.214319 C41.0998429,104.789031 41.7586466,103.320182 42.1749073,101.73982 C42.3805112,100.95051 42.5077068,100.135064 42.559979,99.3056792 C42.6122512,98.4780364 42.5862893,97.6364544 42.4606619,96.7966148 C42.2167251,95.1204203 41.495369,93.4511955 40.3279571,92.1391639 C40.2739425,92.0781797 40.2216703,92.0154531 40.1676558,91.9544688 C41.6016558,91.5676547 42.6558113,90.8794044 43.6263314,90.3148649 C43.9033739,91.0571298 44.2204918,91.7767435 44.568973,92.4737058 L44.8860909,93.0783206 C44.9993472,93.2786973 45.1004068,93.4668771 45.2241176,93.6777083 C45.4819937,94.1167945 45.7679225,94.5314871 46.0728435,94.9200436 C46.6826856,95.7006415 47.3655344,96.3836646 48.0799208,96.9935066 C49.5174057,98.2097059 51.0733741,99.1575747 52.6746451,99.9451422 C54.2776585,100.73271 55.9207473,101.372173 57.6006008,101.896637 C58.4439252,102.156255 59.2905602,102.386253 60.1791872,102.577917 C60.4041318,102.624962 60.6304703,102.670265 60.8726647,102.71034 C60.9963756,102.731249 61.118344,102.750416 61.2647061,102.76784 C61.3657656,102.780037 61.423265,102.787006 61.4947036,102.799203 C61.6288689,102.820112 61.7142468,102.844506 61.7684356,102.863672 C61.8240184,102.882838 61.8640937,102.902005 61.9442444,102.95602 C62.1012351,103.060564 62.3728762,103.327152 62.6481763,103.611164 L63.5193793,104.517215 C64.1170245,105.135769 64.7338362,105.743869 65.3576175,106.334545 L68.4191988,109.38724 L68.0670586,105.038195 C68.021756,104.482367 67.9835974,103.898661 67.9522341,103.328894 C67.9206965,102.755643 67.8964771,102.184134 67.8823636,101.617852 C67.8684243,101.053312 67.8631971,100.490515 67.8823636,99.9521118 C67.8910756,99.6837813 67.9050149,99.4224204 67.9294085,99.1837108 C67.9328933,99.1488627 67.9382948,99.1140146 67.9416054,99.0791665 L67.9729687,99.0565152 C68.1001643,98.9554556 68.2273599,98.8700778 68.3545556,98.7829575 C68.6089468,98.6191713 68.8563685,98.4797788 69.1107597,98.3717497 C69.365151,98.2602357 69.6282543,98.1783426 69.9141831,98.1086464 C70.1997634,98.0406926 70.511654,97.9901628 70.8428854,97.9518299 C71.5065678,97.8786488 72.2540599,97.8525127 73.0172337,97.8228918 L75.3694816,97.7514532 C76.9585558,97.681757 78.5669706,97.587667 80.1610978,97.4256233 C80.9645211,97.3437302 81.7486038,97.2566099 82.5586482,97.1450959 C82.9785681,97.0753997 83.4038893,97.0266123 83.8201501,96.9360072 L84.4456738,96.810554 C84.6514519,96.7652515 84.8568816,96.7112369 85.0624855,96.6624495 C85.8868177,96.4638153 86.691635,96.2146512 87.4861721,95.9410935 C88.2719971,95.6518541 89.0543373,95.3539027 89.8087991,95.0036791 C91.328177,94.3223984 92.7656619,93.4999829 94.1351929,92.5956742 C95.4994967,91.6843959 96.7871346,90.6755429 97.9911371,89.5847969 C98.5940095,89.0376814 99.1709201,88.4661723 99.7283157,87.8754967 C100.010585,87.5827725 100.275605,87.2743667 100.543762,86.9677032 C100.676185,86.8143715 100.806865,86.657555 100.934061,86.4972537 C101.064741,86.3334675 101.186709,86.1818782 101.321049,85.9989256 L103.352694,83.2511515 L100.456641,84.5579559 L100.454899,84.5579559 Z" mask="url(#kukui-icon-b)"/>
    </g>
    <path stroke="#FFF" stroke-width="1.487" d="M56.1918763,2.60643826 C53.3554813,0.968844829 49.8608985,0.968844829 47.0245035,2.60643826 L6.01795764,26.2815785 C3.18156261,27.919172 1.43427123,30.9455694 1.43427123,34.2207563 L1.43427123,81.5710368 C1.43427123,84.8462237 3.18156261,87.8726211 6.01795764,89.5102146 L47.0245035,113.185355 C49.8608985,114.822948 53.3554813,114.822948 56.1918763,113.185355 L97.1984221,89.5102146 C100.034817,87.8726211 101.782109,84.8462237 101.782109,81.5710368 L101.782109,34.2207563 C101.782109,30.9455694 100.034817,27.919172 97.1984221,26.2815785 L56.1918763,2.60643826 Z"/>
  </g>
</svg>
