<svg xmlns="http://www.w3.org/2000/svg" xmlns:xlink="http://www.w3.org/1999/xlink" width="12" height="12" viewBox="0 0 12 12">
  <defs>
    <path id="-small-a" d="M7,0 L12,0 L12,5 L11,5 L11,2 L4,9 L3,8 L10,1 L7,1 L7,0 Z M11,10 L11,6 L12,6 L12,11 C12,11 12,11 12,11 L12,11 C12,11.5522847 11.5522847,12 11,12 C11,12 11,12 11,12 L1,12 C1,12 1,12 1,12 L1,12 C0.44771525,12 6.76353751e-17,11.5522847 0,11 C0,11 0,11 0,11 L0,1 C0,1 0,1 0,1 L0,1 C-6.76353751e-17,0.44771525 0.44771525,1.01453063e-16 1,0 C1,0 1,0 1,0 L6,0 L6,1 L2,1 L2,1 C1.44771525,1 1,1.44771525 1,2 L1,10 L1,10 C1,10.5522847 1.44771525,11 2,11 L10,11 L10,11 C10.5522847,11 11,10.5522847 11,10 Z"/>
  </defs>
  <g fill="none" fill-rule="evenodd">
    <mask id="-small-b" fill="#fff">
      <use xlink:href="#-small-a"/>
    </mask>
    <use fill="#9B9B9B" xlink:href="#-small-a"/>
    <g fill="#AD2529" mask="url(#-small-b)">
      <rect width="12" height="12"/>
    </g>
  </g>
</svg>
