<?xml version="1.0" encoding="UTF-8"?>
<svg width="12px" height="14px" viewBox="0 0 12 14" version="1.1" xmlns="http://www.w3.org/2000/svg" xmlns:xlink="http://www.w3.org/1999/xlink">
    <!-- Generator: Sketch 45.2 (43514) - http://www.bohemiancoding.com/sketch -->
    <title>Icon</title>
    <desc>Created with Sketch.</desc>
    <defs>
        <path d="M3.33333243,6.36363697 L8.66666757,6.36363697 L8.66666757,4.45454566 C8.66666757,3.75189008 8.40625357,3.15198973 7.88541622,2.65482903 C7.3645812,2.15766833 6.73611419,1.90909131 6.00000117,1.90909131 C5.26388581,1.90909131 4.6354188,2.15766833 4.11458378,2.65482903 C3.59374643,3.15198973 3.33333243,3.75189008 3.33333243,4.45454566 L3.33333243,6.36363697 Z M12,7.31818151 L12,13.0454546 C12,13.3106074 11.9027793,13.535984 11.7083333,13.7215909 C11.5138873,13.9071979 11.2777796,14 11.000001,14 L0.999999961,14 C0.72222082,14 0.48611198,13.9071979 0.291666675,13.7215909 C0.0972212527,13.535984 0,13.3106074 0,13.0454546 L0,7.31818151 C0,7.05302914 0.0972212527,6.8276514 0.291666675,6.64204607 C0.48611198,6.45643852 0.72222082,6.36363697 0.999999961,6.36363697 L1.33333344,6.36363697 L1.33333344,4.45454566 C1.33333344,3.23484206 1.79166218,2.18750487 2.70833274,1.31249847 C3.62500377,0.437494293 4.72221646,0 6.00000117,0 C7.27778354,0 8.37499623,0.437494293 9.29166726,1.31249847 C10.2083383,2.18750487 10.666668,3.23484206 10.666668,4.45454566 L10.666668,6.36363697 L11.000001,6.36363697 C11.2777796,6.36363697 11.5138873,6.45643852 11.7083333,6.64204607 C11.9027793,6.8276514 12,7.05302914 12,7.31818151 Z" id="path-1"></path>
    </defs>
    <g id="Symbols" stroke="none" stroke-width="1" fill="none" fill-rule="evenodd">
        <g id="Component-/-Forum-/-Post-/-Label-/-Locked" transform="translate(0.000000, -1.000000)">
            <g id="Icon-/-Locked" transform="translate(0.000000, 1.000000)">
                <g id="Color-/-Dark-Red">
                    <mask id="mask-2" fill="white">
                        <use xlink:href="#path-1"></use>
                    </mask>
                    <use id="Mask" fill="#AD2529" xlink:href="#path-1"></use>
                    <g mask="url(#mask-2)" id="Color" fill="#AD2529">
                        <g transform="translate(-7.000000, -6.000000)">
                            <rect x="0" y="0" width="25" height="25"></rect>
                        </g>
                    </g>
                </g>
            </g>
        </g>
    </g>
</svg>