<?xml version="1.0" encoding="UTF-8"?>
<svg width="24px" height="5px" viewBox="0 0 24 5" version="1.1" xmlns="http://www.w3.org/2000/svg" xmlns:xlink="http://www.w3.org/1999/xlink">
    <!-- Generator: Sketch 45.2 (43514) - http://www.bohemiancoding.com/sketch -->
    <title>Icon / More</title>
    <desc>Created with Sketch.</desc>
    <defs>
        <path d="M2.4,4.8 C1.0745166,4.8 0,3.7254834 0,2.4 C0,1.0745166 1.0745166,0 2.4,0 C3.7254834,0 4.8,1.0745166 4.8,2.4 C4.8,3.7254834 3.7254834,4.8 2.4,4.8 Z M12,4.8 C10.6745166,4.8 9.6,3.7254834 9.6,2.4 C9.6,1.0745166 10.6745166,0 12,0 C13.3254834,0 14.4,1.0745166 14.4,2.4 C14.4,3.7254834 13.3254834,4.8 12,4.8 Z M21.6,4.8 C20.2745166,4.8 19.2,3.7254834 19.2,2.4 C19.2,1.0745166 20.2745166,0 21.6,0 C22.9254834,0 24,1.0745166 24,2.4 C24,3.7254834 22.9254834,4.8 21.6,4.8 Z" id="path-1"></path>
    </defs>
    <g id="FORUM" stroke="none" stroke-width="1" fill="none" fill-rule="evenodd">
        <g id="Moderator-:-Thread-&gt;-Locked-:-Desktop" transform="translate(-1134.000000, -186.000000)">
            <g id="Icon-/-More" transform="translate(1134.000000, 186.000000)">
                <g id="Color-/-Dark-Grey">
                    <mask id="mask-2" fill="white">
                        <use xlink:href="#path-1"></use>
                    </mask>
                    <use id="Mask" fill="#4A4A4A" xlink:href="#path-1"></use>
                    <g mask="url(#mask-2)" id="Color" fill="#4A4A4A">
                        <g transform="translate(-6.000000, -7.200000)">
                            <rect x="0" y="0" width="35" height="17"></rect>
                        </g>
                    </g>
                </g>
            </g>
        </g>
    </g>
</svg>