<svg xmlns="http://www.w3.org/2000/svg" xmlns:xlink="http://www.w3.org/1999/xlink" width="103" height="116" viewBox="0 0 103 116">
  <defs>
    <path id="palm-tree-icon-a" d="M56.6419807,1.84560834 L97.6485266,25.5207486 L97.6485266,25.5207486 C100.7149,27.2911199 102.603863,30.5629009 102.603863,34.1036435 L102.603863,81.453924 L102.603863,81.453924 C102.603863,84.9946666 100.7149,88.2664476 97.6485266,90.0368189 L56.6419807,113.711959 L56.6419807,113.711959 C53.5756077,115.48233 49.7976804,115.48233 46.7313074,113.711959 L5.72476159,90.0368189 L5.72476159,90.0368189 C2.6583886,88.2664476 0.769424932,84.9946666 0.769424932,81.453924 L0.769424932,34.1036435 L0.769424932,34.1036435 C0.769424932,30.5629009 2.6583886,27.2911199 5.72476159,25.5207486 L46.7313074,1.84560834 L46.7313074,1.84560834 C49.7976804,0.0752370681 53.5756077,0.0752370681 56.6419807,1.84560834 Z"/>
  </defs>
  <g fill="none" fill-rule="evenodd" transform="translate(-.585)">
    <mask id="palm-tree-icon-b" fill="#fff">
      <use xlink:href="#palm-tree-icon-a"/>
    </mask>
    <path fill="#FFF" d="M55.617665,48.3111906 C59.824547,43.0023526 80.0021005,35.494068 87.7703694,35.2489684 C81.5381905,37.1596539 58.6580911,46.6604893 55.617665,48.3111906 L55.617665,48.3111906 Z M74.7160856,50.7671484 L55.5948419,50.7671484 C57.9828267,48.6317055 61.0212682,48.1945946 68.7557986,48.8897051 L74.7160856,50.7671484 Z M60.424396,83.2879984 C59.5744858,82.1309694 56.638748,71.8308314 55.0351812,68.1280409 C54.2324056,66.2754053 53.0748804,64.5765771 51.9312476,62.5487995 C55.4440114,64.3304852 60.5980496,78.7372823 60.424396,83.2879984 L60.424396,83.2879984 Z M49.6742472,36.2338323 C49.3085824,39.1626239 48.8511292,42.0790117 48.4318799,45.0256649 C46.2760947,40.71856 53.4603914,12.1138463 60.6298034,3.10966012 C59.451936,5.68320617 58.2011341,8.22698302 57.1165434,10.8397252 C55.9818413,13.5740248 54.697301,16.3053475 54.0567674,19.1676547 C53.5065336,21.6325432 50.2249771,31.8240237 49.6742472,36.2338323 L49.6742472,36.2338323 Z M45.9441683,53.2613099 C43.7744909,52.9075528 41.6038211,52.5542918 39.1900364,52.1608424 C40.605065,50.5304834 41.5204674,49.4761581 42.8064962,47.9951411 C41.8722399,50.20203 41.7313325,51.7430815 43.5045836,52.2868653 C44.5822281,52.1603462 45.3026424,52.0760002 46.0225605,51.9916542 L45.9441683,53.2613099 Z M28.3858068,57.0097465 C26.0608335,57.5694072 18.108988,60.3185914 16.0067874,60.6217409 C18.7108217,59.4622312 26.1853679,56.3994782 27.6321503,56.2030016 C31.5090905,55.6765831 35.3795807,55.0955879 39.2525517,54.5364234 C39.2833132,54.7552269 39.3145708,54.9740304 39.3458284,55.19333 C35.6866995,55.7738291 31.977459,56.145944 28.3858068,57.0097465 L28.3858068,57.0097465 Z M88.5944796,41.7976929 L90.4347114,43.6384209 L97.5158082,40.2154608 C98.1156573,39.969865 98.7184833,39.6756462 99.3302401,39.3387583 C102.564166,37.5565764 106.056091,36.2249015 109.489471,34.8282306 C111.32871,34.0795356 113.280576,33.6062055 115.558415,32.8897605 C110.531392,29.7907883 105.914688,27.0966771 100.273427,30.9577404 C100.242666,30.7334792 100.212896,30.5097141 100.181639,30.285453 C101.285083,29.3596313 102.388528,28.4338096 103.703333,27.3303652 C101.915198,26.7414315 100.3285,26.114294 98.6887141,25.7024869 C97.7435425,25.4648296 96.7834863,25.1919454 95.8442685,25.0569918 L90.4619998,23.835959 C82.9348614,23.1061178 77.9906959,25.748133 76.0978719,33.0946717 L76.0978719,26.8972235 C72.0820089,31.4107281 65.6335073,32.3266267 63.7382025,38.4169058 C63.8875446,37.5074572 63.8379292,36.822766 63.6449257,36.5424395 L63.6905718,36.3548936 L60.9731413,36.2799745 C57.9629806,41.6766316 54.9766352,46.3876051 50.2185271,49.7505307 C50.6338072,47.414642 51.1230142,45.107034 52.2621817,43.1839447 C53.4385606,41.1973477 55.2460463,39.5848502 57.0078859,37.5421879 L51.4276522,37.5421879 C54.9329737,35.3685413 58.8734215,35.166607 61.3760176,32.0343926 C58.86846,32.6129071 56.35991,33.1914216 53.85136,33.7699361 C54.4750244,32.829726 55.2361232,32.2001077 56.110345,31.8661967 C59.8434008,30.4392604 61.5114674,28.1341332 61.5893635,23.8032129 C61.6662672,19.4916426 63.2355994,15.2068646 64.1668787,10.8312906 C63.286207,10.9717019 63.2752916,9.94268038 64.3067939,9.29569676 C64.8441277,8.95831267 65.3333346,8.32323672 65.5427112,7.71842611 C67.0143013,3.46143266 68.3315877,-0.849145329 69.8612277,-5.08381189 C70.5310343,-6.93843212 71.5843673,-8.65462563 72.7121233,-10.9384183 C63.4469606,-8.2309109 56.363383,-3.27632621 50.1808195,3.08683708 C49.7977893,3.48127878 49.8156508,4.46167727 49.9367122,5.11511088 C50.4120268,7.6762531 49.0932519,8.17587926 47.9094307,5.62962163 C44.3758284,8.82484749 41.7834285,12.1962077 40.6596418,16.6427316 C40.0811273,18.9314858 40.1615041,20.7895791 42.0543281,22.4353189 C43.0119036,23.2678637 43.7313255,24.3727967 44.5584127,25.3546836 C44.4785321,25.4519296 44.3986514,25.5496718 44.3182746,25.6474139 C42.8724846,24.5757233 41.4261983,23.5035365 39.555205,22.1167886 C39.7611086,24.0721279 39.911443,25.4554027 40.0523504,26.8391736 C40.5604112,31.8458544 44.1386672,35.8284752 44.5807396,40.9497673 C44.8000393,43.4970173 46.3252139,45.9321366 47.1503164,48.1271178 C44.2463324,43.70044 41.1240411,39.1581585 38.2274994,34.476458 C33.2952416,26.503278 25.7988647,22.4452419 17.0571435,20.1445801 C12.514862,18.9493473 6.05197194,22.2934191 4.59774726,26.7255546 C2.87907298,31.9664196 3.26309546,37.3099883 3.99938664,42.6500839 C4.06835192,43.1482216 4.40623217,43.6091478 4.61560877,44.0790048 C7.25812009,43.013268 8.30798001,41.3273398 8.59872572,38.5910556 C8.9256906,35.5213564 10.0415389,32.5235995 10.9440413,29.533781 C11.2357794,28.5672748 11.9373398,27.7243107 12.6294734,26.5132011 C11.3493984,31.7679584 11.2223832,36.3548936 11.2223832,36.3548936 L11.7185363,41.564501 L14.6428626,42.381169 C14.6428626,42.381169 15.8450415,34.5806502 16.4458829,30.680887 C16.6398787,30.7126408 16.8343707,30.7443946 17.0288628,30.7761483 C16.7822747,33.3055368 16.5351904,35.8349252 16.251887,38.7379169 C19.4803551,36.3960743 18.1298264,32.3732651 20.568915,29.4390158 C19.8142662,32.4660458 19.1906017,34.9676496 18.5604873,37.4955496 C20.7410801,38.4585827 22.3084277,38.4580865 23.7532255,36.310736 C24.9697929,34.5037465 26.772317,33.0902063 28.3153531,31.5025165 C28.4537798,31.6459047 28.5922065,31.7892929 28.7306332,31.9326812 C27.7765308,32.9463219 26.7609055,33.9103474 25.8851953,34.9879919 C25.0099813,36.0661325 24.2746824,37.2583884 23.0541458,39.0078242 C26.8239169,37.3779613 28.0176612,39.3744813 29.245144,41.6959816 C29.4907397,41.2846707 29.7308778,40.8822905 29.82862,40.71856 C32.7331001,43.6022017 35.4822844,46.3315398 38.2314686,49.0608779 C38.4319145,48.9026051 38.6333526,48.7448284 38.8342946,48.5865556 C38.6452603,49.3610505 38.456226,50.1350494 38.2448648,51.0013326 C37.0669973,50.652537 36.0389681,50.3474029 34.576805,49.9137651 C35.4892305,50.9110328 36.061295,51.5361857 36.9360129,52.4922727 C28.6631564,48.2060062 27.5354004,47.9594181 22.9573959,49.3848659 L21.648048,50.4143835 C21.1767025,50.4823565 21.492752,50.9184751 22.8264115,51.6001894 L22.6765733,52.2615615 C18.5505643,48.7244861 14.462759,50.5056757 10.4875805,52.1196617 C6.93661289,53.5614825 3.6624987,55.5386526 0.888010654,58.4153482 C3.25168394,58.5319441 5.34594611,58.6356401 7.43971212,58.7393361 C1.87684375,60.8822213 -4.42479656,60.7537176 -8.85742821,65.1605493 C-8.76861681,65.3942374 -8.67930925,65.6274294 -8.5900017,65.8606213 L0.986248964,63.1724639 C-4.85148821,66.3528052 -7.65971466,70.3468375 -7.57139942,76.0019903 C-6.63168548,74.6311194 -5.85173283,73.2562792 -4.83809208,72.082381 C-3.87357049,70.9665327 -2.66643003,70.060061 -1.5659625,69.061801 C-6.68378155,74.5398272 -9.36648127,81.3306745 -12.5651802,88.261933 C-11.0405018,88.0267565 -9.72768072,87.6734955 -8.64507469,87.046358 L-4.43968115,85.4715681 L-4.43968115,85.4705758 C-2.57712248,82.0704387 -0.714563805,78.6698055 1.14799487,75.2696684 C1.28642158,75.3311914 1.42435214,75.3932105 1.563275,75.4552296 C0.568984221,78.0967487 -0.425802711,80.7387638 -1.39975121,83.325706 C3.81283308,81.8317891 6.5039674,78.4490174 7.19709326,73.2041831 C7.43226982,71.4289474 8.61063339,69.7787422 9.35833609,68.0709833 C9.51958584,68.1429255 9.68033944,68.2143716 9.84208535,68.2858176 C8.95347517,71.3962013 8.064865,74.506585 7.13358567,77.7687915 C10.2519078,77.6328455 11.2715024,76.094771 11.438706,73.5837402 C11.5473635,71.9568543 11.9715744,70.3508067 12.2548778,68.7353323 C12.4473852,68.770063 12.6403887,68.8047937 12.8338884,68.8395244 C12.540662,70.9040174 12.2474355,72.9685104 11.9472629,75.0816264 C16.8408207,74.9575881 19.9447544,72.3498075 22.7271809,69.0801587 C21.2302871,72.4728535 21.8658592,73.9196359 22.6314234,72.1096694 C22.8651115,71.5564587 23.4475952,71.1178594 23.942756,70.7164716 C24.7108009,70.0937994 25.702611,69.6790155 26.3049408,68.9372666 C27.1657664,67.8769875 27.7606539,66.6008817 28.8159716,64.8380498 C28.6567064,66.2109054 28.5758335,66.9075043 28.4676721,67.8392798 C32.1858433,65.3208068 35.9456914,63.5118326 38.1143765,59.4880311 C39.2788478,57.3272844 41.9585706,56.69072 45.1066619,56.8638775 C42.167451,62.0605849 33.3011954,84.7298192 30.82043,93.6605747 C28.3396646,102.59133 22.3858276,146.748955 21.3935214,153.695098 L42.2319509,154.191251 C42.2319509,154.191251 36.2781139,108.049014 38.7588793,95.149034 C41.5447789,80.6628524 44.4130399,64.6202386 47.8816461,57.7738222 C48.35448,59.7539692 49.4574283,61.6507624 49.0466135,63.1248332 C47.2679047,69.5038734 48.9806252,75.5440411 50.124258,82.1076502 C50.6888802,81.1957208 51.0411489,80.6271294 51.3934176,80.0580418 C51.6022981,80.1870416 51.8106824,80.3160414 52.0190666,80.4455374 C50.1326926,83.4447827 49.6052819,86.4787589 50.6571264,85.2959299 L50.6571264,95.8897905 C50.8744415,96.0267288 51.0922527,96.1641632 51.3095677,96.3015976 C53.1418611,94.3125199 54.9741544,92.322946 56.8064477,90.3338683 C57.0207859,90.4450066 57.2356202,90.5556487 57.4499583,90.666787 C54.2745786,93.0875179 54.0046713,96.3398014 54.4968551,99.7915384 C54.9245391,99.3321006 55.410273,98.8101476 55.896503,98.2876984 C53.8816253,102.191927 53.1264803,106.095163 54.8908007,110.501003 L55.7526186,111.489836 C54.9458737,113.601959 57.6057504,110.554091 59.3566746,106.77787 C59.5481897,106.856262 59.7397048,106.934654 59.9312199,107.013047 C59.0148251,109.257147 58.2552148,111.582616 57.1423434,113.724509 C55.7094533,116.482624 55.9009684,119.048232 57.6995233,122.324331 C60.1832656,115.337503 62.4913698,108.844348 64.6808933,102.686095 L64.6808933,114.134332 C68.0591997,108.294114 68.873883,102.1309 67.5154159,95.5618333 C68.5672604,98.2628907 69.6186088,100.964444 70.6307611,103.564783 C73.7768678,98.9222782 70.105335,95.1455609 69.3348093,90.8945213 C71.2663332,94.0718856 71.3864023,91.3281591 69.515409,87.9305028 C68.8019408,86.6350471 68.108815,85.328676 67.4067584,84.0277626 C67.5957927,83.909182 67.784827,83.7901053 67.9743575,83.6715247 C69.7064279,85.7553677 71.4380022,87.8392106 73.3824261,90.1785724 C74.3355362,82.19795 71.3834253,76.6494701 64.9026738,72.8112299 C67.8681807,74.2550353 64.7131433,71.8655621 60.4105037,68.6212171 C62.4333199,69.3217852 64.4566321,70.0228495 66.9617091,70.8906213 C63.7228217,66.627674 60.4075268,63.3902751 55.3666115,62.5597149 L58.6248488,62.5597149 C56.664548,61.4800858 55.1686464,60.3612606 53.4866875,59.8035845 C51.3889522,59.1074817 50.6422418,57.6517686 50.3385962,55.4126297 C51.8235823,55.6254794 53.6385103,55.7609292 54.4080437,56.7279315 C55.6920879,58.3424137 57.4598814,58.9382935 58.9091445,57.4329651 C59.1939364,57.1367617 59.4593783,56.8157506 59.6910818,56.4763819 C59.8751546,56.2069708 59.9927428,55.8919136 60.1401003,55.5971986 C60.3336,55.7381061 60.5266036,55.8790136 60.7201033,56.0199211 C59.7818778,58.0263641 57.5923542,59.9340727 60.278527,62.4599881 C61.6583287,60.8971059 63.0321766,59.3401775 64.4065207,57.7837453 L64.7042125,57.938545 C64.0989058,59.0032896 63.4931028,60.0680341 62.667008,61.5207703 C64.5915858,61.8120122 66.1921756,62.0541349 67.8255116,62.3017153 C67.8175731,62.2828614 67.907873,62.9928565 68.1872072,63.0772025 C71.4186522,64.0556164 71.2648447,60.4565219 73.3933415,59.0032896 C72.9805421,61.0444633 72.662508,62.6187571 72.2854316,64.4862773 C73.1953764,64.7864499 74.1440211,65.0995225 74.9716044,65.3724067 C75.0291582,65.6983793 75.1373196,66.3061668 75.2449848,66.9139543 C75.4503922,66.9283428 75.6553034,66.942235 75.8602146,66.9566235 C77.1487242,64.9318228 78.4372337,62.907022 79.7262394,60.8822213 C79.3809169,65.6006371 80.8579646,69.1858393 85.5411536,71.1788862 L90.9472376,68.4430981 C90.9090338,69.2776276 90.8524723,70.0516264 90.7175187,70.8117329 C90.4510845,72.3145806 89.87257,73.7623553 89.4359553,75.2175723 C94.4560322,77.4428189 95.34365,78.3453214 95.83633,71.4066205 C95.8651069,70.9958057 95.8452608,70.5790371 95.8169801,70.1672301 C95.7554571,69.2612546 95.6884764,68.355279 95.5966881,67.4517843 C95.5163113,66.6584355 95.4002115,65.8680636 95.2994924,65.0766995 C95.6219919,65.0469303 95.9439953,65.0176572 96.2664948,64.9878881 C96.6768134,69.0796625 97.087132,73.1709409 97.5103505,77.3867536 C99.3649708,78.1994524 101.65174,79.2016816 104.414817,80.4122951 C102.796862,74.5710849 101.297983,69.1610316 99.800097,63.7509784 C100.009474,63.6830054 100.21885,63.6155286 100.427731,63.5475557 C101.947448,67.8824451 103.789664,72.1389424 104.862347,76.5814971 C105.483034,79.151074 106.906994,79.7811884 109.18136,80.3527567 C109.056329,79.6993231 109.024575,79.2235123 108.873248,78.7898745 C106.781467,72.7993222 104.786932,66.7705661 102.483293,60.8623752 C101.96134,59.523258 100.54135,58.0243795 99.2131479,57.5971917 C93.3357185,55.7058562 87.3536008,54.1290817 81.3823984,52.5403995 C78.4928029,51.7713622 72.6699503,48.5012172 70.1167465,45.7480638 C72.2323433,47.2940768 73.7892716,47.5997071 75.637938,46.2531476 C76.5394482,45.5967371 78.0011152,45.6438716 79.2246287,45.5069334 C82.2094856,45.1730224 85.2027772,44.9170074 88.6723757,44.5835925 C86.2342794,42.5860802 84.2402402,40.9527442 82.2471932,39.3194083 C82.3960392,39.1328547 82.5443889,38.945805 82.6932349,38.7587553 C84.6699087,39.7570153 86.7487902,40.5979948 88.5944796,41.7976929 L88.5944796,41.7976929 Z" mask="url(#palm-tree-icon-b)"/>
    <path stroke="#FFF" stroke-width="1.487" d="M56.2703305,2.48932546 C53.4339355,0.851732029 49.9393527,0.851732029 47.1029577,2.48932546 L6.09641184,26.1644657 C3.26001682,27.8020592 1.51272543,30.8284566 1.51272543,34.1036435 L1.51272543,81.453924 C1.51272543,84.7291109 3.26001682,87.7555083 6.09641184,89.3931018 L47.1029577,113.068242 C49.9393527,114.705835 53.4339355,114.705835 56.2703305,113.068242 L97.2768763,89.3931018 C100.113271,87.7555083 101.860563,84.7291109 101.860563,81.453924 L101.860563,34.1036435 C101.860563,30.8284566 100.113271,27.8020592 97.2768763,26.1644657 L56.2703305,2.48932546 Z"/>
  </g>
</svg>
