<svg xmlns="http://www.w3.org/2000/svg" xmlns:xlink="http://www.w3.org/1999/xlink" width="103" height="116" viewBox="0 0 103 116">
  <defs>
    <path id="pounder-icon-a" d="M56.6419807,1.84560834 L97.6485266,25.5207486 L97.6485266,25.5207486 C100.7149,27.2911199 102.603863,30.5629009 102.603863,34.1036435 L102.603863,81.453924 L102.603863,81.453924 C102.603863,84.9946666 100.7149,88.2664476 97.6485266,90.0368189 L56.6419807,113.711959 L56.6419807,113.711959 C53.5756077,115.48233 49.7976804,115.48233 46.7313074,113.711959 L5.72476159,90.0368189 L5.72476159,90.0368189 C2.6583886,88.2664476 0.769424932,84.9946666 0.769424932,81.453924 L0.769424932,34.1036435 L0.769424932,34.1036435 C0.769424932,30.5629009 2.6583886,27.2911199 5.72476159,25.5207486 L46.7313074,1.84560834 L46.7313074,1.84560834 C49.7976804,0.0752370681 53.5756077,0.0752370681 56.6419807,1.84560834 Z"/>
  </defs>
  <g fill="none" fill-rule="evenodd" transform="translate(.012)">
    <mask id="pounder-icon-b" fill="#fff">
      <use xlink:href="#pounder-icon-a"/>
    </mask>
    <path fill="#FFF" d="M70.2214939,93.4237919 C65.0385625,97.3287655 57.3722008,99.5656533 50.9828735,99.1395135 C49.2215263,99.0222442 44.6263262,93.6767979 46.9075363,93.539676 C49.1882846,93.4025541 54.3804499,95.2922511 58.9114751,93.3088311 C63.7462923,91.1924443 68.5344788,90.8207839 69.992034,88.345664 C71.0927029,86.4767431 72.8646689,86.3396212 73.4547087,84.9984119 C73.9464085,84.3368102 71.2524476,82.0218967 72.9930187,80.7277798 C74.7331282,79.4336628 76.5863517,77.7618835 78.5988582,78.8408529 C80.610903,79.9198223 76.4940137,88.6979335 70.2214939,93.4237919 M41.1364118,60.3746398 C40.2670496,61.6452105 35.5573504,68.454214 33.2105804,71.6477234 C30.8638103,74.8412328 29.0161271,81.0805109 28.670783,83.4591375 C27.9782481,88.2302415 24.0538835,82.2282721 24.6693162,78.842238 C25.2847489,75.4566655 37.0564577,62.764347 38.3662721,58.8358272 C40.4438769,52.6030128 40.6747219,47.6015255 42.3672772,46.5239411 C43.8816203,45.5608559 43.1369144,57.4507573 41.1364118,60.3746398 M79.4442125,75.770153 C73.4422431,68.3831137 66.9785837,56.8408649 63.746754,51.7622754 C60.5149243,46.6836858 59.1298545,32.3712972 62.8233741,27.2927077 C66.5168937,22.2141182 63.746754,14.365389 51.2811252,14.365389 C40.9572761,14.365389 32.351837,18.9822885 36.0453567,27.2927077 L39.058807,33.0582919 C40.1613226,33.8403947 40.7148889,32.630767 42.0597917,33.0582919 C43.2504901,33.4368776 42.7523267,34.9050517 45.9841564,35.3667417 C49.215986,35.8284316 55.4871207,34.3925759 56.3597147,34.218057 C58.6681645,33.7563671 57.7447846,37.9115767 54.0512649,38.8349566 C52.4695152,39.2301632 50.2935704,39.3714403 48.0696099,39.185841 C46.9924872,39.0958114 45.904284,38.929603 44.866405,38.677982 C43.4277791,38.3289444 42.0865698,37.8169303 41.006677,37.118855 C41.4535928,41.5778566 39.6433065,45.7796969 38.8154964,51.3005854 C37.4304266,60.5343845 29.1200074,68.3831137 23.5797279,77.1552229 C18.0394484,85.927332 29.1200074,99.3163408 50.8194353,100.701411 C72.5188632,102.08648 85.4461819,83.1571923 79.4442125,75.770153" mask="url(#pounder-icon-b)"/>
    <path stroke="#FFF" stroke-width="1.487" d="M56.2703305,2.48932546 C53.4339355,0.851732029 49.9393527,0.851732029 47.1029577,2.48932546 L6.09641184,26.1644657 C3.26001682,27.8020592 1.51272543,30.8284566 1.51272543,34.1036435 L1.51272543,81.453924 C1.51272543,84.7291109 3.26001682,87.7555083 6.09641184,89.3931018 L47.1029577,113.068242 C49.9393527,114.705835 53.4339355,114.705835 56.2703305,113.068242 L97.2768763,89.3931018 C100.113271,87.7555083 101.860563,84.7291109 101.860563,81.453924 L101.860563,34.1036435 C101.860563,30.8284566 100.113271,27.8020592 97.2768763,26.1644657 L56.2703305,2.48932546 Z"/>
  </g>
</svg>
