<?xml version="1.0" encoding="UTF-8"?>
<svg width="16px" height="16px" viewBox="0 0 16 16" version="1.1" xmlns="http://www.w3.org/2000/svg" xmlns:xlink="http://www.w3.org/1999/xlink">
    <!-- Generator: Sketch 45.2 (43514) - http://www.bohemiancoding.com/sketch -->
    <title>Icon / Tag</title>
    <desc>Created with Sketch.</desc>
    <defs></defs>
    <g id="Symbols" stroke="none" stroke-width="1" fill="none" fill-rule="evenodd">
        <g id="Component-/-Forum-/-Tags" transform="translate(0.000000, -1.000000)" fill="#B1B1B1">
            <g id="Icon-/-Tag" transform="translate(0.000000, 1.000000)">
                <path d="M4.73135304,3.37953923 C4.73135304,3.00637979 4.59934119,2.6877894 4.33531276,2.42376334 C4.0712867,2.15973491 3.75269632,2.02772307 3.37953687,2.02772307 C3.00637979,2.02772307 2.6877894,2.15973491 2.42376334,2.42376334 C2.15973468,2.6877894 2.02772283,3.00637979 2.02772283,3.37953923 C2.02772283,3.75269632 2.15973468,4.0712867 2.42376334,4.33531276 C2.6877894,4.59934119 3.00637979,4.73135304 3.37953687,4.73135304 C3.75269632,4.73135304 4.0712867,4.59934119 4.33531276,4.33531276 C4.59934119,4.0712867 4.73135304,3.75269632 4.73135304,3.37953923 Z M16,9.46270607 C16,9.83586552 15.8697482,10.1526935 15.6092399,10.4132018 L10.4237622,15.6092409 C10.1491734,15.8697483 9.82882527,16 9.46270607,16 C9.08954662,16 8.77271866,15.8697483 8.51221037,15.6092409 L0.961056085,8.04752526 C0.693508007,7.78701696 0.466447536,7.43146524 0.279868048,6.98085828 C0.0932883953,6.53025131 0,6.11837283 0,5.74521575 L0,1.35181617 C0,0.985696972 0.133772028,0.668869013 0.401320225,0.401320461 C0.668868303,0.13377191 0.985696735,0 1.35181522,0 L5.74521339,0 C6.11837283,0 6.53025131,0.0932880878 6.98085828,0.279868995 C7.43146524,0.466447536 7.79053709,0.693507534 8.05808564,0.961056085 L15.6092399,8.50164999 C15.8697482,8.77623879 16,9.09658688 16,9.46270607 Z"></path>
            </g>
        </g>
    </g>
</svg>