<?xml version="1.0" encoding="UTF-8"?>
<svg width="442px" height="841px" viewBox="0 0 442 841" version="1.1" xmlns="http://www.w3.org/2000/svg" xmlns:xlink="http://www.w3.org/1999/xlink">
    <!-- Generator: Sketch 45.2 (43514) - http://www.bohemiancoding.com/sketch -->
    <title>tapa-repeating-pattern</title>
    <desc>Created with Sketch.</desc>
    <defs></defs>
    <g id="Page-1" stroke="none" stroke-width="1" fill="none" fill-rule="evenodd" opacity="0.06">
        <g id="tapa-repeating-pattern" transform="translate(220.896086, 420.495178) rotate(-90.000000) translate(-220.896086, -420.495178) translate(-199.603914, 199.995178)" fill="#210D62">
            <g id="Group">
                <polygon id="Shape" points="0 257.508 24.317 257.508 0 233.178"></polygon>
                <polygon id="Shape" points="52.688 285.892 28.37 261.563 4.053 285.892"></polygon>
                <polygon id="Shape" points="79.031 312.248 54.714 287.919 10.132 312.248"></polygon>
                <polygon id="Shape" points="168.195 233.179 143.877 257.508 192.512 257.508"></polygon>
                <polygon id="Shape" points="164.142 285.892 139.825 261.563 115.507 285.892"></polygon>
                <polygon id="Shape" points="220.882 285.892 196.565 261.563 172.248 285.892"></polygon>
                <polygon id="Shape" points="247.226 312.248 222.909 287.919 178.327 312.248"></polygon>
                <polygon id="Shape" points="89.163 312.248 158.063 312.248 113.481 287.919"></polygon>
                <path d="M53.7007212,120.504466 C55.2104207,122.779205 56.9774784,124.861342 58.9431274,126.74074 C51.986351,133.388575 47.6274736,142.734877 47.6274736,153.096904 C47.6274736,172.878219 63.4499351,188.996027 83.0922404,189.53937 L83.0922404,197.646932 C72.1859279,197.401616 61.818649,193.23937 53.8020433,185.798822 C44.7215553,177.393233 39.515625,165.47011 39.515625,153.090822 C39.515625,140.241178 44.9809399,128.650548 53.7007212,120.504466 M49.6539159,100.384575 C49.6539159,88.9683014 55.2550024,78.8596986 63.8248269,72.5828767 C65.6141755,74.7400274 67.7520721,76.5849589 70.1270625,78.0832055 C62.7123101,82.750274 57.7596851,90.9896164 57.7596851,100.384575 C57.7596851,104.83674 58.8782813,109.029397 60.8358245,112.709123 C58.4750192,114.075589 56.2459327,115.636685 54.1688293,117.378219 C51.3095192,112.358384 49.6539159,106.56611 49.6539159,100.384575 M59.7861274,55.7818356 C59.7861274,46.6342192 64.8623654,38.656411 72.3419639,34.502274 C74.0259375,35.8079178 75.9267404,36.8418904 77.9856058,37.5352603 C70.3641563,40.0999178 64.8522332,47.3032603 64.8522332,55.7818356 C64.8522332,60.1184384 66.3112716,64.112411 68.7369231,67.3339452 C67.1846683,68.0597534 65.6891538,68.8747671 64.2645649,69.8033151 C61.4538894,65.8356986 59.7861274,61.004411 59.7861274,55.7818356 M66.8786755,19.2886849 C66.8786755,9.78627397 74.6055,2.05580822 84.1034351,2.05580822 C93.5993438,2.05580822 101.328195,9.78627397 101.328195,19.2886849 C101.328195,24.3754247 99.1011346,28.9390959 95.5852572,32.0977808 C92.3976635,30.5447945 88.8594952,29.6203014 85.1186827,29.4763562 L85.1186827,29.322274 C89.110774,28.8194795 92.2112308,25.4479178 92.2112308,21.3160822 C92.2112308,16.8375616 88.5818726,13.2064932 84.1054615,13.2064932 C79.627024,13.2064932 75.9996923,16.8375616 75.9996923,21.3160822 C75.9996923,25.4479178 79.0981226,28.8194795 83.0922404,29.322274 L83.0922404,29.4763562 C79.347375,29.6203014 75.8092067,30.5427671 72.621613,32.0977808 C69.1057356,28.9390959 66.8786755,24.3754247 66.8786755,19.2886849 M85.1186827,36.4708767 L85.1186827,31.5037534 C88.2009014,31.6335068 91.1432957,32.3187671 93.8303582,33.4966849 C91.3195962,35.222 88.3366731,36.2823288 85.1186827,36.4708767 M108.420743,55.7818356 C108.420743,61.004411 106.752981,65.8356986 103.942305,69.8033151 C102.517716,68.8747671 101.022202,68.0597534 99.4699471,67.3339452 C101.895599,64.112411 103.354637,60.1184384 103.354637,55.7818356 C103.354637,47.3032603 97.8427139,40.0999178 90.219238,37.5352603 C92.2801298,36.8418904 94.1809327,35.8079178 95.8649062,34.502274 C103.344505,38.656411 108.420743,46.6342192 108.420743,55.7818356 M118.552954,100.384575 C118.552954,106.568137 116.895325,112.362438 114.029935,117.386329 C111.956885,115.642767 109.727798,114.081671 107.369019,112.715205 C109.326562,109.033452 110.447185,104.838767 110.447185,100.384575 C110.447185,90.9896164 105.49456,82.750274 98.0777813,78.0832055 C100.454798,76.5849589 102.592695,74.7400274 104.382043,72.5828767 C112.951868,78.8596986 118.552954,88.9683014 118.552954,100.384575 M110.447185,153.096904 C110.447185,144.922438 106.708399,137.605562 100.851981,132.768192 C103.336399,131.47674 105.650596,129.913616 107.760123,128.107205 C114.390642,134.394164 118.552954,143.259973 118.552954,153.096904 C118.552954,171.759096 103.642392,186.96863 85.1186827,187.511973 L85.1186827,179.402384 C99.1700337,178.863096 110.447185,167.288685 110.447185,153.096904 M103.354637,153.096904 C103.354637,145.52863 98.9592837,138.984192 92.5942284,135.837671 C94.7422572,135.322712 96.8173341,134.635425 98.7991947,133.759589 C104.633322,138.205671 108.420743,145.210329 108.420743,153.096904 C108.420743,166.169562 98.0554904,176.837726 85.1186827,177.374986 L85.1186827,172.306493 C95.259,171.773288 103.354637,163.375808 103.354637,153.096904 M96.8051755,132.391096 C94.3085986,133.386548 91.6681442,134.086 88.9243413,134.473233 C87.6963173,134.152904 86.4237115,133.956247 85.1186827,133.887315 L85.1186827,128.818822 C89.3924495,128.997233 93.3764351,130.276521 96.8051755,132.391096 M99.0261563,122.079753 C101.630135,123.340795 104.065918,124.893781 106.258529,126.74074 C104.065918,128.585671 101.630135,130.140685 99.0261563,131.401726 C95.0401442,128.650548 90.2658462,126.99011 85.1186827,126.791425 L85.1186827,126.690055 C90.2658462,126.49137 95.0401442,124.830932 99.0261563,122.079753 M88.9243413,119.008247 C91.6681442,119.395479 94.3085986,120.092904 96.8051755,121.090384 C93.3764351,123.204959 89.3924495,124.484247 85.1186827,124.662658 L85.1186827,119.594164 C86.4237115,119.525233 87.6963173,119.326548 88.9243413,119.008247 M97.8832428,110.679699 C95.6501034,113.662 92.4888534,115.896192 88.8189663,116.944356 C87.603101,116.786219 86.3689976,116.688904 85.1186827,116.654438 L85.1186827,108.514438 C89.5626707,108.613781 93.8485962,109.363918 97.8832428,110.679699 M101.328195,100.384575 C101.328195,103.49663 100.487221,106.41 99.0383149,108.932082 C95.8608534,107.853507 92.5354615,107.101342 89.0925361,106.732356 C90.9771274,105.248301 92.2112308,102.971534 92.2112308,100.384575 C92.2112308,96.2527397 89.110774,92.8811781 85.1186827,92.3763562 L85.1186827,83.2023836 C94.1424303,83.7315342 101.328195,91.2247945 101.328195,100.384575 M93.7938822,78.0832055 C91.1169519,79.2509863 88.1907692,79.9321918 85.1186827,80.0599178 L85.1186827,76.1064932 C88.1907692,76.2342192 91.1169519,76.9154247 93.7938822,78.0832055 M96.1040264,68.1185479 C93.2264784,70.920411 89.376238,72.7126301 85.1186827,72.9640274 L85.1186827,65.9695068 C88.972976,66.0830411 92.6631274,66.8331781 96.1040264,68.1185479 M88.7156178,74.4602466 C92.3794255,73.554 95.6257861,71.6036438 98.1284423,68.9335616 C99.7232524,69.6492329 101.25119,70.4804658 102.706175,71.4191507 C100.845901,73.6310411 98.5965505,75.498274 96.0695769,76.9356986 C93.7898293,75.7658904 91.3195962,74.9224932 88.7156178,74.4602466 M105.593856,111.738 C104.100368,110.957452 102.560272,110.255973 100.97762,109.639644 C102.489346,106.890493 103.354637,103.735863 103.354637,100.384575 C103.354637,91.3586027 97.1071154,83.7842466 88.7156178,81.7061644 C91.3195962,81.2439178 93.7898293,80.4025479 96.0695769,79.2327397 C103.433668,83.4172877 108.420743,91.3221096 108.420743,100.384575 C108.420743,104.483973 107.393337,108.344137 105.593856,111.738 M98.7991947,119.72189 C96.8173341,118.846055 94.7422572,118.158767 92.5942284,117.643808 C95.5204111,116.196247 98.0271202,114.041123 99.8813149,111.385233 C101.488284,111.997507 103.050671,112.698986 104.562397,113.485616 C103.018248,115.89011 101.064757,117.994548 98.7991947,119.72189 M106.33756,114.460795 C108.692286,115.821178 110.907188,117.388356 112.966053,119.142055 C111.478644,121.422877 109.727798,123.507041 107.760123,125.372247 C105.650596,123.567863 103.336399,122.00474 100.851981,120.713288 C102.997983,118.941342 104.840019,116.818658 106.33756,114.460795 M85.1186827,47.7736164 L85.1186827,38.5996438 C94.1424303,39.1287945 101.328195,46.6220548 101.328195,55.7818356 C101.328195,59.8325753 99.913738,63.5548767 97.5650913,66.4986575 C93.6945865,64.9537808 89.5039038,64.0637534 85.1186827,63.9421096 L85.1186827,63.7880274 C89.110774,63.2852329 92.2112308,59.9136712 92.2112308,55.7818356 C92.2112308,51.65 89.110774,48.2784384 85.1186827,47.7736164 M85.1186827,145.088685 L85.1186827,136.827041 C86.3689976,136.792575 87.603101,136.69526 88.8189663,136.537123 C96.0290481,138.594932 101.328195,145.23263 101.328195,153.096904 C101.328195,162.256685 94.1424303,169.749945 85.1186827,170.279096 L85.1186827,161.103096 C89.110774,160.600301 92.2112308,157.22874 92.2112308,153.096904 C92.2112308,148.965068 89.110774,145.593507 85.1186827,145.088685 M128.679087,153.090822 C128.679087,165.490384 123.473156,177.411479 114.392668,185.798822 C106.380115,193.237342 96.0168894,197.397562 85.1186827,197.644904 L85.1186827,189.53937 C104.756935,188.994 120.579397,172.878219 120.579397,153.096904 C120.579397,142.734877 116.220519,133.388575 109.263743,126.74074 C111.229392,124.86337 112.994423,122.78326 114.502096,120.510548 C123.217825,128.65663 128.679087,140.245233 128.679087,153.090822 M74.376512,33.4966849 C77.0635745,32.3187671 80.0039423,31.6335068 83.0922404,31.5037534 L83.0922404,36.4708767 C79.8722236,36.2823288 76.8852476,35.222 74.376512,33.4966849 M67.3548894,132.768192 C61.4984712,137.605562 57.7596851,144.922438 57.7596851,153.096904 C57.7596851,167.288685 69.0368365,178.863096 83.0922404,179.402384 L83.0922404,187.511973 C64.5644784,186.96863 49.6539159,171.759096 49.6539159,153.096904 C49.6539159,143.259973 53.8162284,134.394164 60.4467476,128.107205 C62.556274,129.913616 64.8704712,131.47674 67.3548894,132.768192 M67.3548894,120.713288 C64.8704712,122.00474 62.556274,123.567863 60.4467476,125.372247 C58.4770457,123.505014 56.7241731,121.418822 55.2367644,119.135973 C57.2936034,117.382274 59.5125577,115.815096 61.8652572,114.454712 C63.366851,116.81663 65.2068606,118.939315 67.3548894,120.713288 M79.4912524,81.7061644 C71.0997548,83.7842466 64.8522332,91.3586027 64.8522332,100.384575 C64.8522332,103.735863 65.717524,106.888466 67.2272236,109.635589 C65.6445721,110.251918 64.1024495,110.953397 62.6089615,111.731918 C60.8135337,108.340082 59.7861274,104.481945 59.7861274,100.384575 C59.7861274,91.3221096 64.7732019,83.4172877 72.1372933,79.2327397 C74.4170409,80.4025479 76.8852476,81.2439178 79.4912524,81.7061644 M83.0922404,76.1064932 L83.0922404,80.0599178 C80.0181274,79.9321918 77.0919447,79.2509863 74.412988,78.0832055 C77.0919447,76.9154247 80.0181274,76.2342192 83.0922404,76.1064932 M79.4912524,74.4602466 C76.8852476,74.9224932 74.4170409,75.7658904 72.1372933,76.9356986 C69.6103197,75.498274 67.3609688,73.6310411 65.5006947,71.4191507 C66.9556803,70.4804658 68.4836178,69.6492329 70.0784279,68.9335616 C72.5790577,71.6036438 75.8274447,73.554 79.4912524,74.4602466 M83.0922404,65.9695068 L83.0922404,72.9640274 C78.8286058,72.7126301 74.9803918,70.920411 72.1028438,68.1185479 C75.5437428,66.8331781 79.2338942,66.0830411 83.0922404,65.9695068 M79.1143341,106.730329 C75.6714087,107.099315 72.3439904,107.851479 69.1665288,108.930055 C67.719649,106.407973 66.8786755,103.494603 66.8786755,100.384575 C66.8786755,91.2247945 74.0664663,83.7315342 83.0922404,83.2023836 L83.0922404,92.3763562 C79.0981226,92.8811781 75.9996923,96.2527397 75.9996923,100.384575 C75.9996923,102.969507 77.2297428,105.246274 79.1143341,106.730329 M79.3879038,116.944356 C75.7159904,115.896192 72.5527139,113.659973 70.321601,110.677671 C74.3562476,109.36189 78.6441995,108.613781 83.0922404,108.512411 L83.0922404,116.654438 C81.839899,116.688904 80.6037692,116.786219 79.3879038,116.944356 M71.3996683,121.090384 C73.8982716,120.092904 76.538726,119.395479 79.2825288,119.008247 C80.5085264,119.326548 81.7811322,119.525233 83.0922404,119.594164 L83.0922404,124.662658 C78.8164471,124.484247 74.8304351,123.204959 71.3996683,121.090384 M63.6424471,113.479534 C65.1541731,112.694932 66.7145337,111.991425 68.3215024,111.381178 C70.1777236,114.039096 72.6864591,116.196247 75.6126418,117.643808 C73.464613,118.158767 71.3895361,118.846055 69.4076755,119.72189 C67.142113,117.994548 65.1865962,115.886055 63.6424471,113.479534 M69.1807139,131.401726 C66.5767356,130.140685 64.1409519,128.585671 61.9483413,126.74074 C64.1409519,124.893781 66.5767356,123.340795 69.1807139,122.079753 C73.1646995,124.832959 77.9430505,126.49137 83.0922404,126.690055 L83.0922404,126.791425 C77.9430505,126.99011 73.1646995,128.648521 69.1807139,131.401726 M79.2825288,134.473233 C76.538726,134.086 73.8982716,133.386548 71.3996683,132.391096 C74.8304351,130.276521 78.8164471,128.997233 83.0922404,128.818822 L83.0922404,133.887315 C81.7811322,133.956247 80.5085264,134.152904 79.2825288,134.473233 M83.0922404,172.306493 L83.0922404,177.374986 C70.1534063,176.837726 59.7861274,166.169562 59.7861274,153.096904 C59.7861274,145.210329 63.5735481,138.205671 69.4076755,133.759589 C71.3895361,134.635425 73.464613,135.322712 75.6126418,135.837671 C69.2475865,138.984192 64.8522332,145.52863 64.8522332,153.096904 C64.8522332,163.375808 72.9478702,171.773288 83.0922404,172.306493 M83.0922404,161.103096 L83.0922404,170.279096 C74.0664663,169.749945 66.8786755,162.256685 66.8786755,153.096904 C66.8786755,145.23263 72.1778221,138.594932 79.3879038,136.537123 C80.6037692,136.69526 81.839899,136.792575 83.0922404,136.827041 L83.0922404,145.088685 C79.0981226,145.593507 75.9996923,148.965068 75.9996923,153.096904 C75.9996923,157.22874 79.0981226,160.600301 83.0922404,161.103096 M83.0922404,63.7880274 L83.0922404,63.9421096 C78.7029663,64.0637534 74.5122837,64.9537808 70.6397524,66.4986575 C68.2931322,63.5548767 66.8786755,59.8325753 66.8786755,55.7818356 C66.8786755,46.6220548 74.0664663,39.1287945 83.0922404,38.5996438 L83.0922404,47.7736164 C79.0981226,48.2784384 75.9996923,51.65 75.9996923,55.7818356 C75.9996923,59.9136712 79.0981226,63.2852329 83.0922404,63.7880274 M84.0973558,226.077123 C79.6209447,226.077123 75.9915865,222.448082 75.9915865,217.967534 C75.9915865,213.831644 79.0920433,210.466164 83.0841346,209.959315 L83.0841346,199.674329 C83.4245769,199.680411 83.7569135,199.720959 84.0973558,199.720959 C84.4377981,199.720959 84.7721611,199.680411 85.1105769,199.674329 L85.1105769,209.959315 C89.1046947,210.466164 92.203125,213.831644 92.203125,217.967534 C92.203125,222.448082 88.5778197,226.077123 84.0973558,226.077123 M37.4891827,153.090822 C37.4891827,166.015479 42.9200481,178.463699 52.389613,187.250438 C43.8400529,195.542493 38.5024038,207.141233 38.5024038,219.994932 C38.5024038,245.195479 58.9289423,265.61137 84.0973558,265.61137 C109.28806,265.61137 129.692308,245.195479 129.692308,219.994932 C129.692308,207.139205 124.374923,195.542493 115.807125,187.248411 C125.274663,178.481945 130.705529,166.035753 130.705529,153.090822 C130.705529,139.511315 124.869375,127.26989 115.578137,118.738603 C118.737361,113.339644 120.579397,107.079041 120.579397,100.384575 C120.579397,88.3073699 114.660159,77.6128493 105.597909,70.9670411 C108.639599,66.6689589 110.447185,61.438274 110.447185,55.7818356 C110.447185,46.1354795 105.225043,37.707589 97.4759279,33.1135068 C101.093127,29.6101644 103.354637,24.7119726 103.354637,19.2886849 C103.354637,8.66917808 94.7179399,0.0284109589 84.1034351,0.0284109589 C73.4889303,0.0284109589 64.8522332,8.66917808 64.8522332,19.2886849 C64.8522332,24.7119726 67.1137428,29.6101644 70.7309423,33.1135068 C62.9818269,37.707589 57.7596851,46.1354795 57.7596851,55.7818356 C57.7596851,61.438274 59.5672716,66.6689589 62.6089615,70.9670411 C53.5467115,77.6128493 47.6274736,88.3073699 47.6274736,100.384575 C47.6274736,107.077014 49.4695096,113.333562 52.6246803,118.732521 C43.3293894,127.261781 37.4891827,139.50726 37.4891827,153.090822" id="Shape"></path>
                <polygon id="Shape" points="816.662 257.508 840.979 257.508 840.979 233.179"></polygon>
                <polygon id="Shape" points="812.609 261.563 788.292 285.892 836.927 285.892"></polygon>
                <polygon id="Shape" points="761.948 312.248 830.847 312.248 786.265 287.919"></polygon>
                <polygon id="Shape" points="583.619 312.248 559.302 287.919 514.72 312.248"></polygon>
                <polygon id="Shape" points="504.588 233.179 480.271 257.508 528.905 257.508"></polygon>
                <polygon id="Shape" points="500.535 285.892 476.218 261.563 451.901 285.892"></polygon>
                <polygon id="Shape" points="557.276 285.892 532.958 261.563 508.641 285.892"></polygon>
                <polygon id="Shape" points="425.557 312.248 494.456 312.248 449.874 287.919"></polygon>
                <polygon id="Shape" points="672.783 233.179 648.466 257.508 697.1 257.508"></polygon>
                <polygon id="Shape" points="668.73 285.892 644.413 261.563 620.095 285.892"></polygon>
                <polygon id="Shape" points="725.47 285.892 701.153 261.563 676.836 285.892"></polygon>
                <polygon id="Shape" points="751.814 312.248 727.497 287.919 682.915 312.248"></polygon>
                <polygon id="Shape" points="593.752 312.248 662.651 312.248 618.069 287.919"></polygon>
                <path d="M558.288909,120.504466 C559.798608,122.779205 561.563639,124.861342 563.531315,126.74074 C556.574538,133.388575 552.215661,142.734877 552.215661,153.096904 C552.215661,172.878219 568.038123,188.996027 587.678401,189.53937 L587.678401,197.646932 C576.774115,197.401616 566.406837,193.23937 558.390231,185.798822 C549.309743,177.393233 544.103812,165.47011 544.103812,153.090822 C544.103812,140.241178 549.569127,128.650548 558.288909,120.504466 M554.242103,100.384575 C554.242103,88.9683014 559.84319,78.8596986 568.413014,72.5828767 C570.200337,74.7400274 572.338233,76.5849589 574.71525,78.0832055 C567.300498,82.750274 562.347873,90.9896164 562.347873,100.384575 C562.347873,104.83674 563.466469,109.029397 565.424012,112.709123 C563.063207,114.075589 560.83412,115.636685 558.757017,117.378219 C555.897707,112.358384 554.242103,106.56611 554.242103,100.384575 M564.374315,55.7818356 C564.374315,46.6342192 569.450553,38.656411 576.930151,34.502274 C578.614125,35.8079178 580.514928,36.8418904 582.573793,37.5352603 C574.952344,40.0999178 569.440421,47.3032603 569.440421,55.7818356 C569.440421,60.1184384 570.897433,64.112411 573.325111,67.3339452 C571.772856,68.0597534 570.275315,68.8747671 568.852752,69.8033151 C566.042077,65.8356986 564.374315,61.004411 564.374315,55.7818356 M571.466863,19.2886849 C571.466863,9.78627397 579.193687,2.05580822 588.691623,2.05580822 C598.187531,2.05580822 605.916382,9.78627397 605.916382,19.2886849 C605.916382,24.3754247 603.687296,28.9390959 600.173445,32.0977808 C596.985851,30.5447945 593.447683,29.6203014 589.704844,29.4763562 L589.704844,29.322274 C593.698962,28.8194795 596.797392,25.4479178 596.797392,21.3160822 C596.797392,16.8375616 593.168034,13.2064932 588.691623,13.2064932 C584.215212,13.2064932 580.585853,16.8375616 580.585853,21.3160822 C580.585853,25.4479178 583.684284,28.8194795 587.678401,29.322274 L587.678401,29.4763562 C583.935562,29.6203014 580.395368,30.5427671 577.2098,32.0977808 C573.693923,28.9390959 571.466863,24.3754247 571.466863,19.2886849 M589.704844,36.4708767 L589.704844,31.5037534 C592.789089,31.6335068 595.731483,32.3187671 598.416519,33.4966849 C595.907784,35.222 592.922834,36.2823288 589.704844,36.4708767 M613.00893,55.7818356 C613.00893,61.004411 611.341168,65.8356986 608.530493,69.8033151 C607.105904,68.8747671 605.610389,68.0597534 604.058135,67.3339452 C606.483786,64.112411 607.942825,60.1184384 607.942825,55.7818356 C607.942825,47.3032603 602.430901,40.0999178 594.807425,37.5352603 C596.868317,36.8418904 598.76912,35.8079178 600.453094,34.502274 C607.930666,38.656411 613.00893,46.6342192 613.00893,55.7818356 M623.141142,100.384575 C623.141142,106.568137 621.483512,112.362438 618.618123,117.386329 C616.545072,115.642767 614.313959,114.081671 611.957207,112.715205 C613.91475,109.033452 615.035373,104.838767 615.035373,100.384575 C615.035373,90.9896164 610.082748,82.750274 602.665969,78.0832055 C605.042986,76.5849589 607.180882,74.7400274 608.970231,72.5828767 C617.540055,78.8596986 623.141142,88.9683014 623.141142,100.384575 M615.035373,153.096904 C615.035373,144.922438 611.29456,137.605562 605.440168,132.768192 C607.92256,131.47674 610.238784,129.913616 612.34831,128.107205 C618.976803,134.394164 623.141142,143.259973 623.141142,153.096904 C623.141142,171.759096 608.230579,186.96863 589.704844,187.511973 L589.704844,179.402384 C603.758221,178.863096 615.035373,167.288685 615.035373,153.096904 M607.942825,153.096904 C607.942825,145.52863 603.545445,138.984192 597.182416,135.837671 C599.330445,135.322712 601.405522,134.635425 603.387382,133.759589 C609.22151,138.205671 613.00893,145.210329 613.00893,153.096904 C613.00893,166.169562 602.643678,176.837726 589.704844,177.374986 L589.704844,172.306493 C599.847187,171.773288 607.942825,163.375808 607.942825,153.096904 M601.393363,132.391096 C598.896786,133.386548 596.254305,134.086 593.512529,134.473233 C592.284505,134.152904 591.011899,133.956247 589.704844,133.887315 L589.704844,128.818822 C593.978611,128.997233 597.964623,130.276521 601.393363,132.391096 M603.614344,122.079753 C606.218322,123.340795 608.654106,124.893781 610.84469,126.74074 C608.654106,128.585671 606.218322,130.140685 603.614344,131.401726 C599.628332,128.650548 594.854034,126.99011 589.704844,126.791425 L589.704844,126.690055 C594.854034,126.49137 599.628332,124.830932 603.614344,122.079753 M593.512529,119.008247 C596.254305,119.395479 598.896786,120.092904 601.393363,121.090384 C597.964623,123.204959 593.978611,124.484247 589.704844,124.662658 L589.704844,119.594164 C591.011899,119.525233 592.284505,119.326548 593.512529,119.008247 M602.47143,110.679699 C600.238291,113.662 597.077041,115.896192 593.407154,116.944356 C592.189262,116.786219 590.957185,116.688904 589.704844,116.654438 L589.704844,108.514438 C594.148832,108.613781 598.436784,109.363918 602.47143,110.679699 M605.916382,100.384575 C605.916382,103.49663 605.075409,106.41 603.626502,108.932082 C600.449041,107.853507 597.121623,107.101342 593.680724,106.732356 C595.565315,105.248301 596.797392,102.971534 596.797392,100.384575 C596.797392,96.2527397 593.698962,92.8811781 589.704844,92.3763562 L589.704844,83.2023836 C598.728591,83.7315342 605.916382,91.2247945 605.916382,100.384575 M598.380043,78.0832055 C595.705139,79.2509863 592.77693,79.9321918 589.704844,80.0599178 L589.704844,76.1064932 C592.77693,76.2342192 595.705139,76.9154247 598.380043,78.0832055 M600.692214,68.1185479 C597.814666,70.920411 593.964425,72.7126301 589.704844,72.9640274 L589.704844,65.9695068 C593.561163,66.0830411 597.251315,66.8331781 600.692214,68.1185479 M593.303805,74.4602466 C596.967613,73.554 600.211947,71.6036438 602.71663,68.9335616 C604.309413,69.6492329 605.837351,70.4804658 607.294363,71.4191507 C605.434089,73.6310411 603.184738,75.498274 600.657764,76.9356986 C598.378017,75.7658904 595.907784,74.9224932 593.303805,74.4602466 M610.182043,111.738 C608.688555,110.957452 607.148459,110.255973 605.565808,109.639644 C607.077534,106.890493 607.942825,103.735863 607.942825,100.384575 C607.942825,91.3586027 601.695303,83.7842466 593.303805,81.7061644 C595.907784,81.2439178 598.378017,80.4025479 600.657764,79.2327397 C608.021856,83.4172877 613.00893,91.3221096 613.00893,100.384575 C613.00893,104.483973 611.979498,108.344137 610.182043,111.738 M603.387382,119.72189 C601.405522,118.846055 599.330445,118.158767 597.182416,117.643808 C600.108599,116.196247 602.615308,114.041123 604.469502,111.385233 C606.076471,111.997507 607.638858,112.698986 609.150584,113.485616 C607.606435,115.89011 605.650918,117.994548 603.387382,119.72189 M610.925748,114.460795 C613.278447,115.821178 615.495375,117.388356 617.552214,119.142055 C616.066832,121.422877 614.313959,123.507041 612.34831,125.372247 C610.238784,123.567863 607.92256,122.00474 605.440168,120.713288 C607.586171,118.941342 609.42618,116.818658 610.925748,114.460795 M589.704844,47.7736164 L589.704844,38.5996438 C598.728591,39.1287945 605.916382,46.6220548 605.916382,55.7818356 C605.916382,59.8325753 604.501925,63.5548767 602.153279,66.4986575 C598.282774,64.9537808 594.092091,64.0637534 589.704844,63.9421096 L589.704844,63.7880274 C593.698962,63.2852329 596.797392,59.9136712 596.797392,55.7818356 C596.797392,51.65 593.698962,48.2784384 589.704844,47.7736164 M589.704844,145.088685 L589.704844,136.827041 C590.957185,136.792575 592.189262,136.69526 593.407154,136.537123 C600.617236,138.594932 605.916382,145.23263 605.916382,153.096904 C605.916382,162.256685 598.728591,169.749945 589.704844,170.279096 L589.704844,161.103096 C593.698962,160.600301 596.797392,157.22874 596.797392,153.096904 C596.797392,148.965068 593.698962,145.593507 589.704844,145.088685 M633.267274,153.090822 C633.267274,165.490384 628.061344,177.411479 618.980856,185.798822 C610.968303,193.237342 600.605077,197.397562 589.704844,197.644904 L589.704844,189.53937 C609.345123,188.994 625.167584,172.878219 625.167584,153.096904 C625.167584,142.734877 620.808707,133.388575 613.85193,126.74074 C615.815553,124.86337 617.580584,122.78326 619.088257,120.510548 C627.803986,128.65663 633.267274,140.245233 633.267274,153.090822 M578.9647,33.4966849 C581.651762,32.3187671 584.59213,31.6335068 587.678401,31.5037534 L587.678401,36.4708767 C584.460411,36.2823288 581.471409,35.222 578.9647,33.4966849 M571.943077,132.768192 C566.086659,137.605562 562.347873,144.922438 562.347873,153.096904 C562.347873,167.288685 573.622998,178.863096 587.678401,179.402384 L587.678401,187.511973 C569.152666,186.96863 554.242103,171.759096 554.242103,153.096904 C554.242103,143.259973 558.404416,134.394164 565.034935,128.107205 C567.144462,129.913616 569.458659,131.47674 571.943077,132.768192 M571.943077,120.713288 C569.458659,122.00474 567.144462,123.567863 565.034935,125.372247 C563.063207,123.505014 561.312361,121.418822 559.824952,119.135973 C561.881791,117.382274 564.100745,115.815096 566.453445,114.454712 C567.953012,116.81663 569.795048,118.939315 571.943077,120.713288 M584.077413,81.7061644 C575.687942,83.7842466 569.440421,91.3586027 569.440421,100.384575 C569.440421,103.735863 570.303685,106.888466 571.815411,109.635589 C570.23276,110.251918 568.690637,110.953397 567.197149,111.731918 C565.401721,108.340082 564.374315,104.481945 564.374315,100.384575 C564.374315,91.3221096 569.361389,83.4172877 576.723454,79.2327397 C579.005228,80.4025479 581.471409,81.2439178 584.077413,81.7061644 M587.678401,76.1064932 L587.678401,80.0599178 C584.606315,79.9321918 581.678106,79.2509863 579.001175,78.0832055 C581.678106,76.9154247 584.606315,76.2342192 587.678401,76.1064932 M584.077413,74.4602466 C581.471409,74.9224932 579.005228,75.7658904 576.723454,76.9356986 C574.198507,75.498274 571.949156,73.6310411 570.088882,71.4191507 C571.543868,70.4804658 573.071805,69.6492329 574.666615,68.9335616 C577.167245,71.6036438 580.415632,73.554 584.077413,74.4602466 M587.678401,65.9695068 L587.678401,72.9640274 C583.416793,72.7126301 579.568579,70.920411 576.691031,68.1185479 C580.129904,66.8331781 583.822082,66.0830411 587.678401,65.9695068 M583.700495,106.730329 C580.259596,107.099315 576.932178,107.851479 573.754716,108.930055 C572.30581,106.407973 571.466863,103.494603 571.466863,100.384575 C571.466863,91.2247945 578.654654,83.7315342 587.678401,83.2023836 L587.678401,92.3763562 C583.684284,92.8811781 580.585853,96.2527397 580.585853,100.384575 C580.585853,102.969507 581.81793,105.246274 583.700495,106.730329 M583.974065,116.944356 C580.304178,115.896192 577.140901,113.659973 574.909788,110.677671 C578.944435,109.36189 583.232387,108.613781 587.678401,108.512411 L587.678401,116.654438 C586.428087,116.688904 585.191957,116.786219 583.974065,116.944356 M575.985829,121.090384 C578.486459,120.092904 581.126913,119.395479 583.870716,119.008247 C585.096714,119.326548 586.36932,119.525233 587.678401,119.594164 L587.678401,124.662658 C583.404635,124.484247 579.418623,123.204959 575.985829,121.090384 M568.228608,113.479534 C569.742361,112.694932 571.302721,111.991425 572.90969,111.381178 C574.763885,114.039096 577.27262,116.196247 580.198803,117.643808 C578.0528,118.158767 575.977724,118.846055 573.995863,119.72189 C571.728274,117.994548 569.774784,115.886055 568.228608,113.479534 M573.768901,131.401726 C571.164923,130.140685 568.729139,128.585671 566.536529,126.74074 C568.729139,124.893781 571.164923,123.340795 573.768901,122.079753 C577.750861,124.832959 582.529212,126.49137 587.678401,126.690055 L587.678401,126.791425 C582.529212,126.99011 577.750861,128.648521 573.768901,131.401726 M583.870716,134.473233 C581.126913,134.086 578.486459,133.386548 575.985829,132.391096 C579.418623,130.276521 583.404635,128.997233 587.678401,128.818822 L587.678401,133.887315 C586.36932,133.956247 585.096714,134.152904 583.870716,134.473233 M587.678401,172.306493 L587.678401,177.374986 C574.739567,176.837726 564.374315,166.169562 564.374315,153.096904 C564.374315,145.210329 568.161736,138.205671 573.995863,133.759589 C575.977724,134.635425 578.0528,135.322712 580.198803,135.837671 C573.835774,138.984192 569.440421,145.52863 569.440421,153.096904 C569.440421,163.375808 577.536058,171.773288 587.678401,172.306493 M587.678401,161.103096 L587.678401,170.279096 C578.654654,169.749945 571.466863,162.256685 571.466863,153.096904 C571.466863,145.23263 576.76601,138.594932 583.974065,136.537123 C585.191957,136.69526 586.428087,136.792575 587.678401,136.827041 L587.678401,145.088685 C583.684284,145.593507 580.585853,148.965068 580.585853,153.096904 C580.585853,157.22874 583.684284,160.600301 587.678401,161.103096 M587.678401,63.7880274 L587.678401,63.9421096 C583.291154,64.0637534 579.100471,64.9537808 575.225913,66.4986575 C572.879293,63.5548767 571.466863,59.8325753 571.466863,55.7818356 C571.466863,46.6220548 578.654654,39.1287945 587.678401,38.5996438 L587.678401,47.7736164 C583.684284,48.2784384 580.585853,51.65 580.585853,55.7818356 C580.585853,59.9136712 583.684284,63.2852329 587.678401,63.7880274 M588.685543,226.077123 C584.207106,226.077123 580.579774,222.448082 580.579774,217.967534 C580.579774,213.831644 583.680231,210.466164 587.672322,209.959315 L587.672322,199.674329 C588.010738,199.680411 588.345101,199.720959 588.685543,199.720959 C589.025986,199.720959 589.360349,199.680411 589.698764,199.674329 L589.698764,209.959315 C593.690856,210.466164 596.791312,213.831644 596.791312,217.967534 C596.791312,222.448082 593.163981,226.077123 588.685543,226.077123 M542.07737,153.090822 C542.07737,166.015479 547.508236,178.463699 556.9778,187.250438 C548.42824,195.542493 543.090591,207.141233 543.090591,219.994932 C543.090591,245.195479 563.51713,265.61137 588.685543,265.61137 C613.876248,265.61137 634.280495,245.195479 634.280495,219.994932 C634.280495,207.139205 628.963111,195.542493 620.395312,187.248411 C629.862851,178.481945 635.293716,166.035753 635.293716,153.090822 C635.293716,139.511315 629.457562,127.26989 620.164298,118.738603 C623.325548,113.339644 625.167584,107.079041 625.167584,100.384575 C625.167584,88.3073699 619.248346,77.6128493 610.186096,70.9670411 C613.227786,66.6689589 615.035373,61.438274 615.035373,55.7818356 C615.035373,46.1354795 609.813231,37.707589 602.064115,33.1135068 C605.681315,29.6101644 607.942825,24.7119726 607.942825,19.2886849 C607.942825,8.66917808 599.306127,0.0284109589 588.691623,0.0284109589 C578.077118,0.0284109589 569.440421,8.66917808 569.440421,19.2886849 C569.440421,24.7119726 571.699904,29.6101644 575.317103,33.1135068 C567.570014,37.707589 562.347873,46.1354795 562.347873,55.7818356 C562.347873,61.438274 564.155459,66.6689589 567.197149,70.9670411 C558.134899,77.6128493 552.215661,88.3073699 552.215661,100.384575 C552.215661,107.077014 554.055671,113.333562 557.212868,118.732521 C547.917577,127.261781 542.07737,139.50726 542.07737,153.090822 M726.485444,120.504466 C727.995144,122.779205 729.760175,124.861342 731.72785,126.74074 C724.769047,133.388575 720.412196,142.734877 720.412196,153.096904 C720.412196,172.878219 736.232631,188.996027 755.874937,189.53937 L755.874937,197.646932 C744.970651,197.401616 734.601345,193.23937 726.586766,185.798822 C717.506278,177.393233 712.298321,165.47011 712.298321,153.090822 C712.298321,140.241178 717.763636,128.650548 726.485444,120.504466 M722.438639,100.384575 C722.438639,88.9683014 728.039725,78.8596986 736.607523,72.5828767 C738.396872,74.7400274 740.534769,76.5849589 742.911785,78.0832055 C735.495006,82.750274 730.544408,90.9896164 730.544408,100.384575 C730.544408,104.83674 731.663004,109.029397 733.620547,112.709123 C731.259742,114.075589 729.028629,115.636685 726.953552,117.378219 C724.092216,112.358384 722.438639,106.56611 722.438639,100.384575 M732.57085,55.7818356 C732.57085,46.6342192 737.647088,38.656411 745.12466,34.502274 C746.81066,35.8079178 748.711463,36.8418904 750.768302,37.5352603 C743.146853,40.0999178 737.636956,47.3032603 737.636956,55.7818356 C737.636956,60.1184384 739.093968,64.112411 741.519619,67.3339452 C739.967365,68.0597534 738.47185,68.8747671 737.047261,69.8033151 C734.236586,65.8356986 732.57085,61.004411 732.57085,55.7818356 M739.663398,19.2886849 C739.663398,9.78627397 747.388196,2.05580822 756.888158,2.05580822 C766.38204,2.05580822 774.112918,9.78627397 774.112918,19.2886849 C774.112918,24.3754247 771.883831,28.9390959 768.36998,32.0977808 C765.182386,30.5447945 761.644218,29.6203014 757.901379,29.4763562 L757.901379,29.322274 C761.895497,28.8194795 764.993927,25.4479178 764.993927,21.3160822 C764.993927,16.8375616 761.364569,13.2064932 756.888158,13.2064932 C752.411747,13.2064932 748.782389,16.8375616 748.782389,21.3160822 C748.782389,25.4479178 751.880819,28.8194795 755.874937,29.322274 L755.874937,29.4763562 C752.130071,29.6203014 748.591903,30.5427671 745.406336,32.0977808 C741.890458,28.9390959 739.663398,24.3754247 739.663398,19.2886849 M757.901379,36.4708767 L757.901379,31.5037534 C760.985624,31.6335068 763.925992,32.3187671 766.613055,33.4966849 C764.104319,35.222 761.119369,36.2823288 757.901379,36.4708767 M781.205466,55.7818356 C781.205466,61.004411 779.535677,65.8356986 776.725002,69.8033151 C775.302439,68.8747671 773.804898,68.0597534 772.252644,67.3339452 C774.680321,64.112411 776.13936,60.1184384 776.13936,55.7818356 C776.13936,47.3032603 770.62541,40.0999178 763.003961,37.5352603 C765.064853,36.8418904 766.965656,35.8079178 768.647603,34.502274 C776.127201,38.656411 781.205466,46.6342192 781.205466,55.7818356 M791.337677,100.384575 C791.337677,106.568137 789.680047,112.362438 786.814658,117.386329 C784.741607,115.642767 782.510494,114.081671 780.151716,112.715205 C782.111285,109.033452 783.231908,104.838767 783.231908,100.384575 C783.231908,90.9896164 778.277256,82.750274 770.862504,78.0832055 C773.239521,76.5849589 775.377418,74.7400274 777.16474,72.5828767 C785.736591,78.8596986 791.337677,88.9683014 791.337677,100.384575 M783.231908,153.096904 C783.231908,144.922438 779.491095,137.605562 773.634677,132.768192 C776.119095,131.47674 778.435319,129.913616 780.544845,128.107205 C787.173338,134.394164 791.337677,143.259973 791.337677,153.096904 C791.337677,171.759096 776.425088,186.96863 757.901379,187.511973 L757.901379,179.402384 C771.954756,178.863096 783.231908,167.288685 783.231908,153.096904 M776.13936,153.096904 C776.13936,145.52863 771.74198,138.984192 765.378951,135.837671 C767.52698,135.322712 769.600031,134.635425 771.583918,133.759589 C777.418045,138.205671 781.205466,145.210329 781.205466,153.096904 C781.205466,166.169562 770.840213,176.837726 757.901379,177.374986 L757.901379,172.306493 C768.043723,171.773288 776.13936,163.375808 776.13936,153.096904 M769.589898,132.391096 C767.091295,133.386548 764.450841,134.086 761.709064,134.473233 C760.48104,134.152904 759.208434,133.956247 757.901379,133.887315 L757.901379,128.818822 C762.175146,128.997233 766.161158,130.276521 769.589898,132.391096 M771.808853,122.079753 C774.412831,123.340795 776.848615,124.893781 779.041225,126.74074 C776.848615,128.585671 774.412831,130.140685 771.808853,131.401726 C767.824867,128.650548 763.050569,126.99011 757.901379,126.791425 L757.901379,126.690055 C763.050569,126.49137 767.824867,124.830932 771.808853,122.079753 M761.709064,119.008247 C764.450841,119.395479 767.091295,120.092904 769.589898,121.090384 C766.161158,123.204959 762.175146,124.484247 757.901379,124.662658 L757.901379,119.594164 C759.208434,119.525233 760.48104,119.326548 761.709064,119.008247 M770.665939,110.679699 C768.434826,113.662 765.27155,115.896192 761.603689,116.944356 C760.385797,116.786219 759.151694,116.688904 757.901379,116.654438 L757.901379,108.514438 C762.345367,108.613781 766.633319,109.363918 770.665939,110.679699 M774.112918,100.384575 C774.112918,103.49663 773.269918,106.41 771.821011,108.932082 C768.645576,107.853507 765.318158,107.101342 761.877259,106.732356 C763.76185,105.248301 764.993927,102.971534 764.993927,100.384575 C764.993927,96.2527397 761.895497,92.8811781 757.901379,92.3763562 L757.901379,83.2023836 C766.925127,83.7315342 774.112918,91.2247945 774.112918,100.384575 M766.576579,78.0832055 C763.901675,79.2509863 760.973466,79.9321918 757.901379,80.0599178 L757.901379,76.1064932 C760.973466,76.2342192 763.901675,76.9154247 766.576579,78.0832055 M768.888749,68.1185479 C766.011201,70.920411 762.160961,72.7126301 757.901379,72.9640274 L757.901379,65.9695068 C761.755672,66.0830411 765.44785,66.8331781 768.888749,68.1185479 M761.500341,74.4602466 C765.164148,73.554 768.408482,71.6036438 770.911139,68.9335616 C772.505949,69.6492329 774.033886,70.4804658 775.490898,71.4191507 C773.630624,73.6310411 771.381273,75.498274 768.8543,76.9356986 C766.572526,75.7658904 764.104319,74.9224932 761.500341,74.4602466 M778.378579,111.738 C776.883064,110.957452 775.342968,110.255973 773.760317,109.639644 C775.272043,106.890493 776.13936,103.735863 776.13936,100.384575 C776.13936,91.3586027 769.889812,83.7842466 761.500341,81.7061644 C764.104319,81.2439178 766.572526,80.4025479 768.8543,79.2327397 C776.218391,83.4172877 781.205466,91.3221096 781.205466,100.384575 C781.205466,104.483973 780.176033,108.344137 778.378579,111.738 M771.583918,119.72189 C769.600031,118.846055 767.52698,118.158767 765.378951,117.643808 C768.303107,116.196247 770.811843,114.041123 772.666038,111.385233 C774.273006,111.997507 775.835394,112.698986 777.347119,113.485616 C775.80297,115.89011 773.847454,117.994548 771.583918,119.72189 M779.122283,114.460795 C781.474982,115.821178 783.689884,117.388356 785.748749,119.142055 C784.263367,121.422877 782.510494,123.507041 780.544845,125.372247 C778.435319,123.567863 776.119095,122.00474 773.634677,120.713288 C775.782706,118.941342 777.622716,116.818658 779.122283,114.460795 M757.901379,47.7736164 L757.901379,38.5996438 C766.925127,39.1287945 774.112918,46.6220548 774.112918,55.7818356 C774.112918,59.8325753 772.698461,63.5548767 770.349814,66.4986575 C766.479309,64.9537808 762.2866,64.0637534 757.901379,63.9421096 L757.901379,63.7880274 C761.895497,63.2852329 764.993927,59.9136712 764.993927,55.7818356 C764.993927,51.65 761.895497,48.2784384 757.901379,47.7736164 M757.901379,145.088685 L757.901379,136.827041 C759.151694,136.792575 760.385797,136.69526 761.603689,136.537123 C768.813771,138.594932 774.112918,145.23263 774.112918,153.096904 C774.112918,162.256685 766.925127,169.749945 757.901379,170.279096 L757.901379,161.103096 C761.895497,160.600301 764.993927,157.22874 764.993927,153.096904 C764.993927,148.965068 761.895497,145.593507 757.901379,145.088685 M801.461783,153.090822 C801.461783,165.490384 796.257879,177.411479 787.177391,185.798822 C779.162812,193.237342 768.801612,197.397562 757.901379,197.644904 L757.901379,189.53937 C777.539631,188.994 793.364119,172.878219 793.364119,153.096904 C793.364119,142.734877 789.003216,133.388575 782.048466,126.74074 C784.012088,124.86337 785.777119,122.78326 787.284793,120.510548 C796.000521,128.65663 801.461783,140.245233 801.461783,153.090822 M747.161235,33.4966849 C749.846271,32.3187671 752.786639,31.6335068 755.874937,31.5037534 L755.874937,36.4708767 C752.656946,36.2823288 749.667944,35.222 747.161235,33.4966849 M740.137586,132.768192 C734.283194,137.605562 730.544408,144.922438 730.544408,153.096904 C730.544408,167.288685 741.819533,178.863096 755.874937,179.402384 L755.874937,187.511973 C737.347175,186.96863 722.438639,171.759096 722.438639,153.096904 C722.438639,143.259973 726.600951,134.394164 733.23147,128.107205 C735.340997,129.913616 737.655194,131.47674 740.137586,132.768192 M740.137586,120.713288 C737.655194,122.00474 735.340997,123.567863 733.23147,125.372247 C731.259742,123.505014 729.506869,121.418822 728.021487,119.135973 C730.0763,117.382274 732.297281,115.815096 734.647954,114.454712 C736.149547,116.81663 737.989557,118.939315 740.137586,120.713288 M752.273949,81.7061644 C743.882451,83.7842466 737.636956,91.3586027 737.636956,100.384575 C737.636956,103.735863 738.50022,106.888466 740.011946,109.635589 C738.429295,110.251918 736.887172,110.953397 735.393684,111.731918 C733.598256,108.340082 732.57085,104.481945 732.57085,100.384575 C732.57085,91.3221096 737.557925,83.4172877 744.91999,79.2327397 C747.199737,80.4025479 749.667944,81.2439178 752.273949,81.7061644 M755.874937,76.1064932 L755.874937,80.0599178 C752.80285,79.9321918 749.874641,79.2509863 747.197711,78.0832055 C749.874641,76.9154247 752.80285,76.2342192 755.874937,76.1064932 M752.273949,74.4602466 C749.667944,74.9224932 747.199737,75.7658904 744.91999,76.9356986 C742.395043,75.498274 740.145692,73.6310411 738.285418,71.4191507 C739.740403,70.4804658 741.268341,69.6492329 742.861124,68.9335616 C745.363781,71.6036438 748.612168,73.554 752.273949,74.4602466 M755.874937,65.9695068 L755.874937,72.9640274 C751.611302,72.7126301 747.765115,70.920411 744.887567,68.1185479 C748.326439,66.8331781 752.018617,66.0830411 755.874937,65.9695068 M751.897031,106.730329 C748.454105,107.099315 745.128713,107.851479 741.951252,108.930055 C740.502345,106.407973 739.663398,103.494603 739.663398,100.384575 C739.663398,91.2247945 746.851189,83.7315342 755.874937,83.2023836 L755.874937,92.3763562 C751.880819,92.8811781 748.782389,96.2527397 748.782389,100.384575 C748.782389,102.969507 750.012439,105.246274 751.897031,106.730329 M752.1706,116.944356 C748.500713,115.896192 745.337437,113.659973 743.106324,110.677671 C747.14097,109.36189 751.428922,108.613781 755.874937,108.512411 L755.874937,116.654438 C754.624622,116.688904 753.388492,116.786219 752.1706,116.944356 M744.182365,121.090384 C746.680968,120.092904 749.323449,119.395479 752.067252,119.008247 C753.293249,119.326548 754.563829,119.525233 755.874937,119.594164 L755.874937,124.662658 C751.60117,124.484247 747.615158,123.204959 744.182365,121.090384 M736.425144,113.479534 C737.936869,112.694932 739.49723,111.991425 741.104199,111.381178 C742.96042,114.039096 745.469156,116.196247 748.395338,117.643808 C746.249336,118.158767 744.172232,118.846055 742.192398,119.72189 C739.924809,117.994548 737.969293,115.886055 736.425144,113.479534 M741.96341,131.401726 C739.359432,130.140685 736.923648,128.585671 734.733064,126.74074 C736.923648,124.893781 739.359432,123.340795 741.96341,122.079753 C745.947396,124.832959 750.725747,126.49137 755.874937,126.690055 L755.874937,126.791425 C750.725747,126.99011 745.947396,128.648521 741.96341,131.401726 M752.067252,134.473233 C749.323449,134.086 746.680968,133.386548 744.182365,132.391096 C747.615158,130.276521 751.60117,128.997233 755.874937,128.818822 L755.874937,133.887315 C754.563829,133.956247 753.293249,134.152904 752.067252,134.473233 M755.874937,172.306493 L755.874937,177.374986 C742.936103,176.837726 732.57085,166.169562 732.57085,153.096904 C732.57085,145.210329 736.358271,138.205671 742.192398,133.759589 C744.172232,134.635425 746.249336,135.322712 748.395338,135.837671 C742.032309,138.984192 737.636956,145.52863 737.636956,153.096904 C737.636956,163.375808 745.730567,171.773288 755.874937,172.306493 M755.874937,161.103096 L755.874937,170.279096 C746.851189,169.749945 739.663398,162.256685 739.663398,153.096904 C739.663398,145.23263 744.962545,138.594932 752.1706,136.537123 C753.388492,136.69526 754.624622,136.792575 755.874937,136.827041 L755.874937,145.088685 C751.880819,145.593507 748.782389,148.965068 748.782389,153.096904 C748.782389,157.22874 751.880819,160.600301 755.874937,161.103096 M755.874937,63.7880274 L755.874937,63.9421096 C751.487689,64.0637534 747.29498,64.9537808 743.422449,66.4986575 C741.075829,63.5548767 739.663398,59.8325753 739.663398,55.7818356 C739.663398,46.6220548 746.851189,39.1287945 755.874937,38.5996438 L755.874937,47.7736164 C751.880819,48.2784384 748.782389,51.65 748.782389,55.7818356 C748.782389,59.9136712 751.880819,63.2852329 755.874937,63.7880274 M756.882079,226.077123 C752.403641,226.077123 748.776309,222.448082 748.776309,217.967534 C748.776309,213.831644 751.876766,210.466164 755.868857,209.959315 L755.868857,199.674329 C756.207273,199.680411 756.541636,199.720959 756.880052,199.720959 C757.220494,199.720959 757.556884,199.680411 757.8953,199.674329 L757.8953,209.959315 C761.887391,210.466164 764.987848,213.831644 764.987848,217.967534 C764.987848,222.448082 761.360516,226.077123 756.882079,226.077123 M710.271879,153.090822 C710.271879,166.015479 715.704771,178.463699 725.174336,187.250438 C716.624776,195.542493 711.287127,207.141233 711.287127,219.994932 C711.287127,245.195479 731.713665,265.61137 756.882079,265.61137 C782.072783,265.61137 802.477031,245.195479 802.477031,219.994932 C802.477031,207.139205 797.159646,195.542493 788.589821,187.248411 C798.05736,178.481945 803.488225,166.035753 803.488225,153.090822 C803.488225,139.511315 797.654098,127.26989 788.360833,118.738603 C791.520057,113.339644 793.364119,107.079041 793.364119,100.384575 C793.364119,88.3073699 787.442855,77.6128493 778.382631,70.9670411 C781.422295,66.6689589 783.231908,61.438274 783.231908,55.7818356 C783.231908,46.1354795 778.00774,37.707589 770.260651,33.1135068 C773.87785,29.6101644 776.13936,24.7119726 776.13936,19.2886849 C776.13936,8.66917808 767.502663,0.0284109589 756.888158,0.0284109589 C746.273653,0.0284109589 737.636956,8.66917808 737.636956,19.2886849 C737.636956,24.7119726 739.896439,29.6101644 743.513639,33.1135068 C735.764523,37.707589 730.544408,46.1354795 730.544408,55.7818356 C730.544408,61.438274 732.349968,66.6689589 735.393684,70.9670411 C726.329408,77.6128493 720.412196,88.3073699 720.412196,100.384575 C720.412196,107.077014 722.252206,113.333562 725.407377,118.732521 C716.114112,127.261781 710.271879,139.50726 710.271879,153.090822" id="Shape"></path>
                <polygon id="Shape" points="336.391 233.179 312.074 257.508 360.709 257.508"></polygon>
                <polygon id="Shape" points="332.339 285.892 308.021 261.563 283.704 285.892"></polygon>
                <polygon id="Shape" points="389.079 285.892 364.762 261.563 340.444 285.892"></polygon>
                <polygon id="Shape" points="415.423 312.248 391.105 287.919 346.524 312.248"></polygon>
                <polygon id="Shape" points="257.36 312.248 326.259 312.248 281.678 287.919"></polygon>
                <path d="M221.897459,120.504466 C223.407159,122.779205 225.17219,124.861342 227.139865,126.74074 C220.181063,133.388575 215.824212,142.734877 215.824212,153.096904 C215.824212,172.878219 231.644647,188.996027 251.286952,189.53937 L251.286952,197.646932 C240.382666,197.401616 230.013361,193.23937 221.998781,185.798822 C212.918293,177.393233 207.710337,165.47011 207.710337,153.090822 C207.710337,140.241178 213.175651,128.650548 221.897459,120.504466 L221.897459,120.504466 Z M217.850654,100.384575 C217.850654,88.9683014 223.45174,78.8596986 232.019538,72.5828767 C233.808887,74.7400274 235.946784,76.5849589 238.3238,78.0832055 C230.907022,82.750274 225.956423,90.9896164 225.956423,100.384575 C225.956423,104.83674 227.075019,109.029397 229.032563,112.709123 C226.671757,114.075589 224.440644,115.636685 222.365567,117.378219 C219.504231,112.358384 217.850654,106.56611 217.850654,100.384575 L217.850654,100.384575 Z M227.982865,55.7818356 C227.982865,46.6342192 233.059103,38.656411 240.536675,34.502274 C242.222675,35.8079178 244.123478,36.8418904 246.180317,37.5352603 C238.558868,40.0999178 233.048971,47.3032603 233.048971,55.7818356 C233.048971,60.1184384 234.505983,64.112411 236.931635,67.3339452 C235.37938,68.0597534 233.883865,68.8747671 232.459276,69.8033151 C229.648601,65.8356986 227.982865,61.004411 227.982865,55.7818356 L227.982865,55.7818356 Z M235.075413,19.2886849 C235.075413,9.78627397 242.800212,2.05580822 252.300173,2.05580822 C261.794055,2.05580822 269.524933,9.78627397 269.524933,19.2886849 C269.524933,24.3754247 267.295846,28.9390959 263.781995,32.0977808 C260.594401,30.5447945 257.056233,29.6203014 253.313394,29.4763562 L253.313394,29.322274 C257.307512,28.8194795 260.405942,25.4479178 260.405942,21.3160822 C260.405942,16.8375616 256.776584,13.2064932 252.300173,13.2064932 C247.823762,13.2064932 244.194404,16.8375616 244.194404,21.3160822 C244.194404,25.4479178 247.292834,28.8194795 251.286952,29.322274 L251.286952,29.4763562 C247.542087,29.6203014 244.003918,30.5427671 240.818351,32.0977808 C237.302474,28.9390959 235.075413,24.3754247 235.075413,19.2886849 L235.075413,19.2886849 Z M253.313394,36.4708767 L253.313394,31.5037534 C256.397639,31.6335068 259.338007,32.3187671 262.02507,33.4966849 C259.516334,35.222 256.531385,36.2823288 253.313394,36.4708767 L253.313394,36.4708767 Z M276.617481,55.7818356 C276.617481,61.004411 274.947692,65.8356986 272.137017,69.8033151 C270.714454,68.8747671 269.216913,68.0597534 267.664659,67.3339452 C270.092337,64.112411 271.551375,60.1184384 271.551375,55.7818356 C271.551375,47.3032603 266.037425,40.0999178 258.415976,37.5352603 C260.476868,36.8418904 262.377671,35.8079178 264.059618,34.502274 C271.539216,38.656411 276.617481,46.6342192 276.617481,55.7818356 L276.617481,55.7818356 Z M286.749692,100.384575 C286.749692,106.568137 285.092063,112.362438 282.226673,117.386329 C280.153623,115.642767 277.92251,114.081671 275.563731,112.715205 C277.5233,109.033452 278.643923,104.838767 278.643923,100.384575 C278.643923,90.9896164 273.689272,82.750274 266.274519,78.0832055 C268.651536,76.5849589 270.789433,74.7400274 272.576755,72.5828767 C281.148606,78.8596986 286.749692,88.9683014 286.749692,100.384575 L286.749692,100.384575 Z M278.643923,153.096904 C278.643923,144.922438 274.903111,137.605562 269.046692,132.768192 C271.531111,131.47674 273.847334,129.913616 275.956861,128.107205 C282.585353,134.394164 286.749692,143.259973 286.749692,153.096904 C286.749692,171.759096 271.837103,186.96863 253.313394,187.511973 L253.313394,179.402384 C267.366772,178.863096 278.643923,167.288685 278.643923,153.096904 L278.643923,153.096904 Z M271.551375,153.096904 C271.551375,145.52863 267.153995,138.984192 260.790966,135.837671 C262.938995,135.322712 265.012046,134.635425 266.995933,133.759589 C272.83006,138.205671 276.617481,145.210329 276.617481,153.096904 C276.617481,166.169562 266.252228,176.837726 253.313394,177.374986 L253.313394,172.306493 C263.455738,171.773288 271.551375,163.375808 271.551375,153.096904 L271.551375,153.096904 Z M265.001913,132.391096 C262.50331,133.386548 259.862856,134.086 257.121079,134.473233 C255.893055,134.152904 254.62045,133.956247 253.313394,133.887315 L253.313394,128.818822 C257.587161,128.997233 261.573173,130.276521 265.001913,132.391096 L265.001913,132.391096 Z M267.220868,122.079753 C269.824846,123.340795 272.26063,124.893781 274.45324,126.74074 C272.26063,128.585671 269.824846,130.140685 267.220868,131.401726 C263.236882,128.650548 258.462584,126.99011 253.313394,126.791425 L253.313394,126.690055 C258.462584,126.49137 263.236882,124.830932 267.220868,122.079753 L267.220868,122.079753 Z M257.121079,119.008247 C259.862856,119.395479 262.50331,120.092904 265.001913,121.090384 C261.573173,123.204959 257.587161,124.484247 253.313394,124.662658 L253.313394,119.594164 C254.62045,119.525233 255.893055,119.326548 257.121079,119.008247 L257.121079,119.008247 Z M266.077954,110.679699 C263.846841,113.662 260.683565,115.896192 257.015704,116.944356 C255.797813,116.786219 254.563709,116.688904 253.313394,116.654438 L253.313394,108.514438 C257.757382,108.613781 262.045334,109.363918 266.077954,110.679699 L266.077954,110.679699 Z M269.524933,100.384575 C269.524933,103.49663 268.681933,106.41 267.233026,108.932082 C264.057591,107.853507 260.730173,107.101342 257.289274,106.732356 C259.173865,105.248301 260.405942,102.971534 260.405942,100.384575 C260.405942,96.2527397 257.307512,92.8811781 253.313394,92.3763562 L253.313394,83.2023836 C262.337142,83.7315342 269.524933,91.2247945 269.524933,100.384575 L269.524933,100.384575 Z M261.988594,78.0832055 C259.31369,79.2509863 256.385481,79.9321918 253.313394,80.0599178 L253.313394,76.1064932 C256.385481,76.2342192 259.31369,76.9154247 261.988594,78.0832055 L261.988594,78.0832055 Z M264.300764,68.1185479 C261.423216,70.920411 257.572976,72.7126301 253.313394,72.9640274 L253.313394,65.9695068 C257.167688,66.0830411 260.859865,66.8331781 264.300764,68.1185479 L264.300764,68.1185479 Z M256.912356,74.4602466 C260.576163,73.554 263.820498,71.6036438 266.323154,68.9335616 C267.917964,69.6492329 269.445901,70.4804658 270.902913,71.4191507 C269.042639,73.6310411 266.793288,75.498274 264.266315,76.9356986 C261.984541,75.7658904 259.516334,74.9224932 256.912356,74.4602466 L256.912356,74.4602466 Z M273.790594,111.738 C272.295079,110.957452 270.754983,110.255973 269.172332,109.639644 C270.684058,106.890493 271.551375,103.735863 271.551375,100.384575 C271.551375,91.3586027 265.301827,83.7842466 256.912356,81.7061644 C259.516334,81.2439178 261.984541,80.4025479 264.266315,79.2327397 C271.630406,83.4172877 276.617481,91.3221096 276.617481,100.384575 C276.617481,104.483973 275.588048,108.344137 273.790594,111.738 L273.790594,111.738 Z M266.995933,119.72189 C265.012046,118.846055 262.938995,118.158767 260.790966,117.643808 C263.715123,116.196247 266.223858,114.041123 268.078053,111.385233 C269.685022,111.997507 271.247409,112.698986 272.759135,113.485616 C271.214986,115.89011 269.259469,117.994548 266.995933,119.72189 L266.995933,119.72189 Z M274.534298,114.460795 C276.886998,115.821178 279.101899,117.388356 281.160764,119.142055 C279.675382,121.422877 277.92251,123.507041 275.956861,125.372247 C273.847334,123.567863 271.531111,122.00474 269.046692,120.713288 C271.194721,118.941342 273.034731,116.818658 274.534298,114.460795 L274.534298,114.460795 Z M253.313394,47.7736164 L253.313394,38.5996438 C262.337142,39.1287945 269.524933,46.6220548 269.524933,55.7818356 C269.524933,59.8325753 268.110476,63.5548767 265.761829,66.4986575 C261.891325,64.9537808 257.698615,64.0637534 253.313394,63.9421096 L253.313394,63.7880274 C257.307512,63.2852329 260.405942,59.9136712 260.405942,55.7818356 C260.405942,51.65 257.307512,48.2784384 253.313394,47.7736164 L253.313394,47.7736164 Z M253.313394,145.088685 L253.313394,136.827041 C254.563709,136.792575 255.797813,136.69526 257.015704,136.537123 C264.225786,138.594932 269.524933,145.23263 269.524933,153.096904 C269.524933,162.256685 262.337142,169.749945 253.313394,170.279096 L253.313394,161.103096 C257.307512,160.600301 260.405942,157.22874 260.405942,153.096904 C260.405942,148.965068 257.307512,145.593507 253.313394,145.088685 L253.313394,145.088685 Z M296.873798,153.090822 C296.873798,165.490384 291.669894,177.411479 282.589406,185.798822 C274.574827,193.237342 264.213627,197.397562 253.313394,197.644904 L253.313394,189.53937 C272.951647,188.994 288.776135,172.878219 288.776135,153.096904 C288.776135,142.734877 284.415231,133.388575 277.460481,126.74074 C279.424103,124.86337 281.189135,122.78326 282.696808,120.510548 C291.412536,128.65663 296.873798,140.245233 296.873798,153.090822 L296.873798,153.090822 Z M242.57325,33.4966849 C245.258286,32.3187671 248.198654,31.6335068 251.286952,31.5037534 L251.286952,36.4708767 C248.068962,36.2823288 245.079959,35.222 242.57325,33.4966849 L242.57325,33.4966849 Z M235.549601,132.768192 C229.695209,137.605562 225.956423,144.922438 225.956423,153.096904 C225.956423,167.288685 237.231548,178.863096 251.286952,179.402384 L251.286952,187.511973 C232.75919,186.96863 217.850654,171.759096 217.850654,153.096904 C217.850654,143.259973 222.012966,134.394164 228.643486,128.107205 C230.753012,129.913616 233.067209,131.47674 235.549601,132.768192 L235.549601,132.768192 Z M235.549601,120.713288 C233.067209,122.00474 230.753012,123.567863 228.643486,125.372247 C226.671757,123.505014 224.918885,121.418822 223.433502,119.135973 C225.488315,117.382274 227.709296,115.815096 230.059969,114.454712 C231.561563,116.81663 233.401572,118.939315 235.549601,120.713288 L235.549601,120.713288 Z M247.685964,81.7061644 C239.294466,83.7842466 233.048971,91.3586027 233.048971,100.384575 C233.048971,103.735863 233.912236,106.888466 235.423962,109.635589 C233.84131,110.251918 232.299188,110.953397 230.8057,111.731918 C229.010272,108.340082 227.982865,104.481945 227.982865,100.384575 C227.982865,91.3221096 232.96994,83.4172877 240.332005,79.2327397 C242.611752,80.4025479 245.079959,81.2439178 247.685964,81.7061644 L247.685964,81.7061644 Z M251.286952,76.1064932 L251.286952,80.0599178 C248.214865,79.9321918 245.286656,79.2509863 242.609726,78.0832055 C245.286656,76.9154247 248.214865,76.2342192 251.286952,76.1064932 L251.286952,76.1064932 Z M247.685964,74.4602466 C245.079959,74.9224932 242.611752,75.7658904 240.332005,76.9356986 C237.807058,75.498274 235.557707,73.6310411 233.697433,71.4191507 C235.152418,70.4804658 236.680356,69.6492329 238.273139,68.9335616 C240.775796,71.6036438 244.024183,73.554 247.685964,74.4602466 L247.685964,74.4602466 Z M251.286952,65.9695068 L251.286952,72.9640274 C247.023317,72.7126301 243.17713,70.920411 240.299582,68.1185479 C243.738454,66.8331781 247.430632,66.0830411 251.286952,65.9695068 L251.286952,65.9695068 Z M247.309046,106.730329 C243.86612,107.099315 240.540728,107.851479 237.363267,108.930055 C235.914361,106.407973 235.075413,103.494603 235.075413,100.384575 C235.075413,91.2247945 242.263204,83.7315342 251.286952,83.2023836 L251.286952,92.3763562 C247.292834,92.8811781 244.194404,96.2527397 244.194404,100.384575 C244.194404,102.969507 245.424454,105.246274 247.309046,106.730329 L247.309046,106.730329 Z M247.582615,116.944356 C243.912728,115.896192 240.749452,113.659973 238.518339,110.677671 C242.552986,109.36189 246.840938,108.613781 251.286952,108.512411 L251.286952,116.654438 C250.036637,116.688904 248.800507,116.786219 247.582615,116.944356 L247.582615,116.944356 Z M239.59438,121.090384 C242.092983,120.092904 244.735464,119.395479 247.479267,119.008247 C248.705264,119.326548 249.975844,119.525233 251.286952,119.594164 L251.286952,124.662658 C247.013185,124.484247 243.027173,123.204959 239.59438,121.090384 L239.59438,121.090384 Z M231.837159,113.479534 C233.348885,112.694932 234.909245,111.991425 236.516214,111.381178 C238.372435,114.039096 240.881171,116.196247 243.807353,117.643808 C241.661351,118.158767 239.584248,118.846055 237.604413,119.72189 C235.336825,117.994548 233.381308,115.886055 231.837159,113.479534 L231.837159,113.479534 Z M237.375425,131.401726 C234.771447,130.140685 232.335663,128.585671 230.145079,126.74074 C232.335663,124.893781 234.771447,123.340795 237.375425,122.079753 C241.359411,124.832959 246.137762,126.49137 251.286952,126.690055 L251.286952,126.791425 C246.137762,126.99011 241.359411,128.648521 237.375425,131.401726 L237.375425,131.401726 Z M247.479267,134.473233 C244.735464,134.086 242.092983,133.386548 239.59438,132.391096 C243.027173,130.276521 247.013185,128.997233 251.286952,128.818822 L251.286952,133.887315 C249.975844,133.956247 248.705264,134.152904 247.479267,134.473233 L247.479267,134.473233 Z M251.286952,172.306493 L251.286952,177.374986 C238.348118,176.837726 227.982865,166.169562 227.982865,153.096904 C227.982865,145.210329 231.770286,138.205671 237.604413,133.759589 C239.584248,134.635425 241.661351,135.322712 243.807353,135.837671 C237.444325,138.984192 233.048971,145.52863 233.048971,153.096904 C233.048971,163.375808 241.142582,171.773288 251.286952,172.306493 L251.286952,172.306493 Z M251.286952,161.103096 L251.286952,170.279096 C242.263204,169.749945 235.075413,162.256685 235.075413,153.096904 C235.075413,145.23263 240.37456,138.594932 247.582615,136.537123 C248.800507,136.69526 250.036637,136.792575 251.286952,136.827041 L251.286952,145.088685 C247.292834,145.593507 244.194404,148.965068 244.194404,153.096904 C244.194404,157.22874 247.292834,160.600301 251.286952,161.103096 L251.286952,161.103096 Z M251.286952,63.7880274 L251.286952,63.9421096 C246.899704,64.0637534 242.706995,64.9537808 238.834464,66.4986575 C236.487844,63.5548767 235.075413,59.8325753 235.075413,55.7818356 C235.075413,46.6220548 242.263204,39.1287945 251.286952,38.5996438 L251.286952,47.7736164 C247.292834,48.2784384 244.194404,51.65 244.194404,55.7818356 C244.194404,59.9136712 247.292834,63.2852329 251.286952,63.7880274 L251.286952,63.7880274 Z M252.294094,226.077123 C247.815656,226.077123 244.188325,222.448082 244.188325,217.967534 C244.188325,213.831644 247.288781,210.466164 251.280873,209.959315 L251.280873,199.674329 C251.619288,199.680411 251.953651,199.720959 252.292067,199.720959 C252.63251,199.720959 252.968899,199.680411 253.307315,199.674329 L253.307315,209.959315 C257.299406,210.466164 260.399863,213.831644 260.399863,217.967534 C260.399863,222.448082 256.772531,226.077123 252.294094,226.077123 L252.294094,226.077123 Z M205.683894,153.090822 C205.683894,166.015479 211.116786,178.463699 220.586351,187.250438 C212.036791,195.542493 206.699142,207.141233 206.699142,219.994932 C206.699142,245.195479 227.12568,265.61137 252.294094,265.61137 C277.484798,265.61137 297.889046,245.195479 297.889046,219.994932 C297.889046,207.139205 292.571661,195.542493 284.001837,187.248411 C293.469375,178.481945 298.90024,166.035753 298.90024,153.090822 C298.90024,139.511315 293.066113,127.26989 283.772849,118.738603 C286.932072,113.339644 288.776135,107.079041 288.776135,100.384575 C288.776135,88.3073699 282.85487,77.6128493 273.794647,70.9670411 C276.83431,66.6689589 278.643923,61.438274 278.643923,55.7818356 C278.643923,46.1354795 273.419755,37.707589 265.672666,33.1135068 C269.289865,29.6101644 271.551375,24.7119726 271.551375,19.2886849 C271.551375,8.66917808 262.914678,0.0284109589 252.300173,0.0284109589 C241.685668,0.0284109589 233.048971,8.66917808 233.048971,19.2886849 C233.048971,24.7119726 235.308454,29.6101644 238.925654,33.1135068 C231.176538,37.707589 225.956423,46.1354795 225.956423,55.7818356 C225.956423,61.438274 227.761983,66.6689589 230.8057,70.9670411 C221.741423,77.6128493 215.824212,88.3073699 215.824212,100.384575 C215.824212,107.077014 217.664221,113.333562 220.819392,118.732521 C211.526127,127.261781 205.683894,139.50726 205.683894,153.090822 L205.683894,153.090822 Z M390.094197,120.504466 C391.60187,122.779205 393.366901,124.861342 395.334577,126.74074 C388.3778,133.388575 384.018923,142.734877 384.018923,153.096904 C384.018923,172.878219 399.841385,188.996027 419.481663,189.53937 L419.481663,197.646932 C408.577377,197.401616 398.210099,193.23937 390.193493,185.798822 C381.113005,177.393233 375.907075,165.47011 375.907075,153.090822 C375.907075,140.241178 381.372389,128.650548 390.094197,120.504466 L390.094197,120.504466 Z M386.045365,100.384575 C386.045365,88.9683014 391.646452,78.8596986 400.216276,72.5828767 C402.003599,74.7400274 404.141495,76.5849589 406.518512,78.0832055 C399.10376,82.750274 394.151135,90.9896164 394.151135,100.384575 C394.151135,104.83674 395.271757,109.029397 397.227274,112.709123 C394.866469,114.075589 392.637382,115.636685 390.560279,117.378219 C387.700969,112.358384 386.045365,106.56611 386.045365,100.384575 L386.045365,100.384575 Z M396.177577,55.7818356 C396.177577,46.6342192 401.255841,38.656411 408.733413,34.502274 C410.417387,35.8079178 412.31819,36.8418904 414.377055,37.5352603 C406.755606,40.0999178 401.243683,47.3032603 401.243683,55.7818356 C401.243683,60.1184384 402.700695,64.112411 405.128373,67.3339452 C403.576118,68.0597534 402.078577,68.8747671 400.656014,69.8033151 C397.845339,65.8356986 396.177577,61.004411 396.177577,55.7818356 L396.177577,55.7818356 Z M403.270125,19.2886849 C403.270125,9.78627397 410.99695,2.05580822 420.494885,2.05580822 C429.990793,2.05580822 437.719644,9.78627397 437.719644,19.2886849 C437.719644,24.3754247 435.490558,28.9390959 431.976707,32.0977808 C428.791139,30.5447945 425.252971,29.6203014 421.508106,29.4763562 L421.508106,29.322274 C425.502224,28.8194795 428.600654,25.4479178 428.600654,21.3160822 C428.600654,16.8375616 424.971296,13.2064932 420.494885,13.2064932 C416.018474,13.2064932 412.389115,16.8375616 412.389115,21.3160822 C412.389115,25.4479178 415.487546,28.8194795 419.481663,29.322274 L419.481663,29.4763562 C415.738825,29.6203014 412.19863,30.5427671 409.013063,32.0977808 C405.499212,28.9390959 403.270125,24.3754247 403.270125,19.2886849 L403.270125,19.2886849 Z M421.508106,36.4708767 L421.508106,31.5037534 C424.594377,31.6335068 427.534745,32.3187671 430.219781,33.4966849 C427.713072,35.222 424.726096,36.2823288 421.508106,36.4708767 L421.508106,36.4708767 Z M444.812192,55.7818356 C444.812192,61.004411 443.14443,65.8356986 440.333755,69.8033151 C438.911192,68.8747671 437.413651,68.0597534 435.861397,67.3339452 C438.289075,64.112411 439.746087,60.1184384 439.746087,55.7818356 C439.746087,47.3032603 434.234163,40.0999178 426.612714,37.5352603 C428.671579,36.8418904 430.572382,35.8079178 432.256356,34.502274 C439.733928,38.656411 444.812192,46.6342192 444.812192,55.7818356 L444.812192,55.7818356 Z M454.944404,100.384575 C454.944404,106.568137 453.286774,112.362438 450.423411,117.386329 C448.350361,115.642767 446.117221,114.081671 443.760469,112.715205 C445.718012,109.033452 446.838635,104.838767 446.838635,100.384575 C446.838635,90.9896164 441.88601,82.750274 434.469231,78.0832055 C436.848274,76.5849589 438.986171,74.7400274 440.773493,72.5828767 C449.343317,78.8596986 454.944404,88.9683014 454.944404,100.384575 L454.944404,100.384575 Z M446.838635,153.096904 C446.838635,144.922438 443.097822,137.605562 437.24343,132.768192 C439.725822,131.47674 442.042046,129.913616 444.151572,128.107205 C450.780065,134.394164 454.944404,143.259973 454.944404,153.096904 C454.944404,171.759096 440.033841,186.96863 421.508106,187.511973 L421.508106,179.402384 C435.561483,178.863096 446.838635,167.288685 446.838635,153.096904 L446.838635,153.096904 Z M439.746087,153.096904 C439.746087,145.52863 435.348707,138.984192 428.987704,135.837671 C431.133707,135.322712 433.208784,134.635425 435.190644,133.759589 C441.024772,138.205671 444.812192,145.210329 444.812192,153.096904 C444.812192,166.169562 434.44694,176.837726 421.508106,177.374986 L421.508106,172.306493 C431.652476,171.773288 439.746087,163.375808 439.746087,153.096904 L439.746087,153.096904 Z M433.198651,132.391096 C430.700048,133.386548 428.057567,134.086 425.315791,134.473233 C424.087767,134.152904 422.817187,133.956247 421.508106,133.887315 L421.508106,128.818822 C425.781873,128.997233 429.767885,130.276521 433.198651,132.391096 L433.198651,132.391096 Z M435.417606,122.079753 C438.021584,123.340795 440.457368,124.893781 442.647952,126.74074 C440.457368,128.585671 438.021584,130.140685 435.417606,131.401726 C431.43362,128.650548 426.657296,126.99011 421.508106,126.791425 L421.508106,126.690055 C426.657296,126.49137 431.43362,124.830932 435.417606,122.079753 L435.417606,122.079753 Z M425.315791,119.008247 C428.057567,119.395479 430.700048,120.092904 433.198651,121.090384 C429.767885,123.204959 425.781873,124.484247 421.508106,124.662658 L421.508106,119.594164 C422.817187,119.525233 424.087767,119.326548 425.315791,119.008247 L425.315791,119.008247 Z M434.274692,110.679699 C432.043579,113.662 428.880303,115.896192 425.212442,116.944356 C423.99455,116.786219 422.760447,116.688904 421.508106,116.654438 L421.508106,108.514438 C425.952094,108.613781 430.240046,109.363918 434.274692,110.679699 L434.274692,110.679699 Z M437.719644,100.384575 C437.719644,103.49663 436.878671,106.41 435.429764,108.932082 C432.254329,107.853507 428.924885,107.101342 425.486012,106.732356 C427.370603,105.248301 428.600654,102.971534 428.600654,100.384575 C428.600654,96.2527397 425.502224,92.8811781 421.508106,92.3763562 L421.508106,83.2023836 C430.531853,83.7315342 437.719644,91.2247945 437.719644,100.384575 L437.719644,100.384575 Z M430.183305,78.0832055 C427.508401,79.2509863 424.580192,79.9321918 421.508106,80.0599178 L421.508106,76.1064932 C424.580192,76.2342192 427.508401,76.9154247 430.183305,78.0832055 L430.183305,78.0832055 Z M432.495476,68.1185479 C429.617928,70.920411 425.769714,72.7126301 421.508106,72.9640274 L421.508106,65.9695068 C425.364425,66.0830411 429.056603,66.8331781 432.495476,68.1185479 L432.495476,68.1185479 Z M425.109094,74.4602466 C428.770875,73.554 432.015209,71.6036438 434.519892,68.9335616 C436.112675,69.6492329 437.640613,70.4804658 439.097625,71.4191507 C437.237351,73.6310411 434.988,75.498274 432.463053,76.9356986 C430.181279,75.7658904 427.713072,74.9224932 425.109094,74.4602466 L425.109094,74.4602466 Z M441.985305,111.738 C440.491817,110.957452 438.951721,110.255973 437.36907,109.639644 C438.880796,106.890493 439.746087,103.735863 439.746087,100.384575 C439.746087,91.3586027 433.498565,83.7842466 425.109094,81.7061644 C427.713072,81.2439178 430.181279,80.4025479 432.463053,79.2327397 C439.825118,83.4172877 444.812192,91.3221096 444.812192,100.384575 C444.812192,104.483973 443.78276,108.344137 441.985305,111.738 L441.985305,111.738 Z M435.190644,119.72189 C433.208784,118.846055 431.133707,118.158767 428.987704,117.643808 C431.911861,116.196247 434.41857,114.041123 436.274791,111.385233 C437.88176,111.997507 439.44212,112.698986 440.953846,113.485616 C439.409697,115.89011 437.45418,117.994548 435.190644,119.72189 L435.190644,119.72189 Z M442.731036,114.460795 C445.081709,115.821178 447.298637,117.388356 449.355476,119.142055 C447.87212,121.422877 446.117221,123.507041 444.151572,125.372247 C442.042046,123.567863 439.725822,122.00474 437.24343,120.713288 C439.389433,118.941342 441.229442,116.818658 442.731036,114.460795 L442.731036,114.460795 Z M421.508106,47.7736164 L421.508106,38.5996438 C430.531853,39.1287945 437.719644,46.6220548 437.719644,55.7818356 C437.719644,59.8325753 436.307214,63.5548767 433.958567,66.4986575 C430.088062,64.9537808 425.895353,64.0637534 421.508106,63.9421096 L421.508106,63.7880274 C425.502224,63.2852329 428.600654,59.9136712 428.600654,55.7818356 C428.600654,51.65 425.502224,48.2784384 421.508106,47.7736164 L421.508106,47.7736164 Z M421.508106,145.088685 L421.508106,136.827041 C422.760447,136.792575 423.99455,136.69526 425.212442,136.537123 C432.420498,138.594932 437.719644,145.23263 437.719644,153.096904 C437.719644,162.256685 430.531853,169.749945 421.508106,170.279096 L421.508106,161.103096 C425.502224,160.600301 428.600654,157.22874 428.600654,153.096904 C428.600654,148.965068 425.502224,145.593507 421.508106,145.088685 L421.508106,145.088685 Z M465.070536,153.090822 C465.070536,165.490384 459.864606,177.411479 450.784118,185.798822 C442.771565,193.237342 432.408339,197.397562 421.508106,197.644904 L421.508106,189.53937 C441.148385,188.994 456.970846,172.878219 456.970846,153.096904 C456.970846,142.734877 452.611969,133.388575 445.655192,126.74074 C447.618815,124.86337 449.383846,122.78326 450.891519,120.510548 C459.607248,128.65663 465.070536,140.245233 465.070536,153.090822 L465.070536,153.090822 Z M410.769988,33.4966849 C413.455024,32.3187671 416.395392,31.6335068 419.481663,31.5037534 L419.481663,36.4708767 C416.263673,36.2823288 413.274671,35.222 410.769988,33.4966849 L410.769988,33.4966849 Z M403.746339,132.768192 C397.891947,137.605562 394.151135,144.922438 394.151135,153.096904 C394.151135,167.288685 405.42626,178.863096 419.481663,179.402384 L419.481663,187.511973 C400.955928,186.96863 386.045365,171.759096 386.045365,153.096904 C386.045365,143.259973 390.209704,134.394164 396.838197,128.107205 C398.947724,129.913616 401.263947,131.47674 403.746339,132.768192 L403.746339,132.768192 Z M403.746339,120.713288 C401.263947,122.00474 398.947724,123.567863 396.838197,125.372247 C394.866469,123.505014 393.115623,121.418822 391.63024,119.135973 C393.685053,117.382274 395.904007,115.815096 398.256707,114.454712 C399.756274,116.81663 401.59831,118.939315 403.746339,120.713288 L403.746339,120.713288 Z M415.880675,81.7061644 C407.491204,83.7842466 401.243683,91.3586027 401.243683,100.384575 C401.243683,103.735863 402.106947,106.888466 403.618673,109.635589 C402.036022,110.251918 400.495925,110.953397 399.002437,111.731918 C397.20701,108.340082 396.177577,104.481945 396.177577,100.384575 C396.177577,91.3221096 401.164651,83.4172877 408.526716,79.2327397 C410.80849,80.4025479 413.274671,81.2439178 415.880675,81.7061644 L415.880675,81.7061644 Z M419.481663,76.1064932 L419.481663,80.0599178 C416.409577,79.9321918 413.481368,79.2509863 410.806464,78.0832055 C413.481368,76.9154247 416.409577,76.2342192 419.481663,76.1064932 L419.481663,76.1064932 Z M415.880675,74.4602466 C413.274671,74.9224932 410.80849,75.7658904 408.526716,76.9356986 C406.001769,75.498274 403.752418,73.6310411 401.892144,71.4191507 C403.349156,70.4804658 404.877094,69.6492329 406.469877,68.9335616 C408.972534,71.6036438 412.218894,73.554 415.880675,74.4602466 L415.880675,74.4602466 Z M419.481663,65.9695068 L419.481663,72.9640274 C415.220055,72.7126301 411.371841,70.920411 408.494293,68.1185479 C411.933166,66.8331781 415.62737,66.0830411 419.481663,65.9695068 L419.481663,65.9695068 Z M415.503757,106.730329 C412.062858,107.099315 408.73544,107.851479 405.557978,108.930055 C404.109072,106.407973 403.270125,103.494603 403.270125,100.384575 C403.270125,91.2247945 410.457916,83.7315342 419.481663,83.2023836 L419.481663,92.3763562 C415.487546,92.8811781 412.389115,96.2527397 412.389115,100.384575 C412.389115,102.969507 413.621192,105.246274 415.503757,106.730329 L415.503757,106.730329 Z M415.777327,116.944356 C412.10744,115.896192 408.94619,113.659973 406.71305,110.677671 C410.749724,109.36189 415.037675,108.613781 419.481663,108.512411 L419.481663,116.654438 C418.231349,116.688904 416.995219,116.786219 415.777327,116.944356 L415.777327,116.944356 Z M407.789091,121.090384 C410.289721,120.092904 412.932202,119.395479 415.673978,119.008247 C416.902002,119.326548 418.172582,119.525233 419.481663,119.594164 L419.481663,124.662658 C415.207897,124.484247 411.221885,123.204959 407.789091,121.090384 L407.789091,121.090384 Z M400.03187,113.479534 C401.545623,112.694932 403.105983,111.991425 404.712952,111.381178 C406.567147,114.039096 409.075882,116.196247 412.002065,117.643808 C409.856063,118.158767 407.780986,118.846055 405.799125,119.72189 C403.531536,117.994548 401.578046,115.886055 400.03187,113.479534 L400.03187,113.479534 Z M405.572163,131.401726 C402.968185,130.140685 400.532401,128.585671 398.341817,126.74074 C400.532401,124.893781 402.968185,123.340795 405.572163,122.079753 C409.556149,124.832959 414.332474,126.49137 419.481663,126.690055 L419.481663,126.791425 C414.332474,126.99011 409.556149,128.648521 405.572163,131.401726 L405.572163,131.401726 Z M415.673978,134.473233 C412.932202,134.086 410.289721,133.386548 407.789091,132.391096 C411.221885,130.276521 415.207897,128.997233 419.481663,128.818822 L419.481663,133.887315 C418.172582,133.956247 416.902002,134.152904 415.673978,134.473233 L415.673978,134.473233 Z M419.481663,172.306493 L419.481663,177.374986 C406.542829,176.837726 396.177577,166.169562 396.177577,153.096904 C396.177577,145.210329 399.964998,138.205671 405.799125,133.759589 C407.780986,134.635425 409.856063,135.322712 412.002065,135.837671 C405.641063,138.984192 401.243683,145.52863 401.243683,153.096904 C401.243683,163.375808 409.33932,171.773288 419.481663,172.306493 L419.481663,172.306493 Z M419.481663,161.103096 L419.481663,170.279096 C410.457916,169.749945 403.270125,162.256685 403.270125,153.096904 C403.270125,145.23263 408.569272,138.594932 415.777327,136.537123 C416.995219,136.69526 418.231349,136.792575 419.481663,136.827041 L419.481663,145.088685 C415.487546,145.593507 412.389115,148.965068 412.389115,153.096904 C412.389115,157.22874 415.487546,160.600301 419.481663,161.103096 L419.481663,161.103096 Z M419.481663,63.7880274 L419.481663,63.9421096 C415.096442,64.0637534 410.903733,64.9537808 407.029175,66.4986575 C404.682555,63.5548767 403.270125,59.8325753 403.270125,55.7818356 C403.270125,46.6220548 410.457916,39.1287945 419.481663,38.5996438 L419.481663,47.7736164 C415.487546,48.2784384 412.389115,51.65 412.389115,55.7818356 C412.389115,59.9136712 415.487546,63.2852329 419.481663,63.7880274 L419.481663,63.7880274 Z M420.490832,226.077123 C416.010368,226.077123 412.385063,222.448082 412.385063,217.967534 C412.385063,213.831644 415.483493,210.466164 419.477611,209.959315 L419.477611,199.674329 C419.814,199.680411 420.150389,199.720959 420.488805,199.720959 C420.829248,199.720959 421.163611,199.680411 421.504053,199.674329 L421.504053,209.959315 C425.494118,210.466164 428.596601,213.831644 428.596601,217.967534 C428.596601,222.448082 424.967243,226.077123 420.490832,226.077123 L420.490832,226.077123 Z M373.880632,153.090822 C373.880632,166.015479 379.313524,178.463699 388.781063,187.250438 C380.231502,195.542493 374.89588,207.141233 374.89588,219.994932 C374.89588,245.195479 395.322418,265.61137 420.490832,265.61137 C445.67951,265.61137 466.085784,245.195479 466.085784,219.994932 C466.085784,207.139205 460.766373,195.542493 452.198575,187.248411 C461.666113,178.481945 467.096978,166.035753 467.096978,153.090822 C467.096978,139.511315 461.260825,127.26989 451.96756,118.738603 C455.12881,113.339644 456.970846,107.079041 456.970846,100.384575 C456.970846,88.3073699 451.051608,77.6128493 441.989358,70.9670411 C445.031048,66.6689589 446.838635,61.438274 446.838635,55.7818356 C446.838635,46.1354795 441.616493,37.707589 433.869404,33.1135068 C437.486603,29.6101644 439.746087,24.7119726 439.746087,19.2886849 C439.746087,8.66917808 431.109389,0.0284109589 420.494885,0.0284109589 C409.88038,0.0284109589 401.243683,8.66917808 401.243683,19.2886849 C401.243683,24.7119726 403.503166,29.6101644 407.120365,33.1135068 C399.373276,37.707589 394.151135,46.1354795 394.151135,55.7818356 C394.151135,61.438274 395.958721,66.6689589 399.000411,70.9670411 C389.938161,77.6128493 384.018923,88.3073699 384.018923,100.384575 C384.018923,107.077014 385.858933,113.333562 389.01613,118.732521 C379.720839,127.261781 373.880632,139.50726 373.880632,153.090822 L373.880632,153.090822 Z M140.21238,345.014992 L140.21238,345.035266 L280.306416,345.035266 C242.318729,345.035266 217.511022,350.752526 195.63963,355.800745 C177.904207,359.896088 161.145529,363.768416 140.21238,363.768416 L140.194142,363.768416 C102.844784,363.768416 78.3957577,358.111978 56.8060413,353.144855 C38.7281495,348.968416 21.6492937,345.014992 0.0595774038,345.014992 L140.21238,345.014992 Z M420.520013,345.014992 L420.520013,345.035266 L560.612022,345.035266 C522.624335,345.035266 497.818654,350.752526 475.947263,355.800745 C458.209813,359.896088 441.451135,363.768416 420.520013,363.768416 L420.499748,363.768416 C383.15039,363.768416 358.701363,358.111978 337.111647,353.144855 C319.035782,348.968416 301.956926,345.014992 280.36721,345.014992 L420.520013,345.014992 Z M700.825618,345.014992 L700.825618,345.035266 L840.917628,345.035266 C802.92994,345.035266 778.12426,350.752526 756.252868,355.800745 C738.515419,359.896088 721.758767,363.768416 700.825618,363.768416 L700.80738,363.768416 C663.455996,363.768416 639.008996,358.111978 617.417253,353.144855 C599.341387,348.968416 582.264558,345.014992 560.672815,345.014992 L700.825618,345.014992 Z M0.0393129808,351.097184 L0.0595774038,351.097184 C20.9927264,351.097184 37.7493779,354.969512 55.484801,359.064855 C77.3764572,364.113074 102.184164,369.850608 140.194142,369.850608 L140.21238,369.850608 C161.804123,369.850608 178.880952,365.897184 196.958844,361.741019 C218.548561,356.753622 242.997587,351.097184 280.346945,351.097184 L280.36721,351.097184 C301.298332,351.097184 318.05701,354.969512 335.792433,359.064855 C357.682063,364.113074 382.491796,369.850608 420.499748,369.850608 L420.520012,369.850608 C442.109729,369.850608 459.188585,365.897184 477.26445,361.741019 C498.854166,356.753622 523.303193,351.097184 560.654577,351.097184 L560.672815,351.097184 C581.605964,351.097184 598.362616,354.969512 616.100065,359.064855 C637.991722,364.113074 662.797402,369.850608 700.80738,369.850608 L700.825618,369.850608 C722.419387,369.850608 739.49419,365.897184 757.570056,361.741019 C779.161799,356.753622 803.608799,351.097184 840.960183,351.097184 L840.980448,351.097184 L840.980448,332.728964 L0.0514716346,332.728964 L0.0393129808,351.097184 Z" id="Shape"></path>
                <path d="M756.252868,375.365534 C738.515419,379.460877 721.760794,383.312932 700.825618,383.312932 L700.80738,383.312932 C663.455996,383.312932 639.008996,377.676767 617.417253,372.68937 C599.341387,368.512932 582.264558,364.579781 560.672815,364.579781 L560.654577,364.579781 C522.644599,364.579781 497.838919,370.317315 475.947263,375.365534 C458.209813,379.460877 441.451135,383.312932 420.520013,383.312932 L420.499748,383.312932 C383.15039,383.312932 358.701363,377.676767 337.111647,372.68937 C319.035782,368.512932 301.956926,364.579781 280.36721,364.579781 L280.346945,364.579781 C242.338993,364.579781 217.52926,370.317315 195.63963,375.365534 C177.904207,379.460877 161.145529,383.312932 140.21238,383.312932 L140.194142,383.312932 C102.844784,383.312932 78.3957577,377.676767 56.8060413,372.68937 C38.7281495,368.512932 21.6492938,364.579781 0.0595774038,364.579781 L0.0393129808,364.579781 L0.0595774038,370.661973 C10.5241255,370.661973 19.9531615,371.635123 28.962724,373.115123 C37.9884981,374.595123 46.6191159,376.581973 55.484801,378.629644 C77.3764572,383.677863 102.184164,389.395123 140.194142,389.395123 L140.21238,389.395123 C150.997106,389.395123 160.667289,388.421973 169.893681,386.901425 C179.120073,385.401151 187.908753,383.373753 196.958844,381.285534 C218.548561,376.318411 242.997587,370.661973 280.346945,370.661973 L280.36721,370.661973 C290.833784,370.661973 300.260794,371.635123 309.26833,373.115123 C318.298157,374.595123 326.924722,376.581973 335.792433,378.629644 C357.682063,383.677863 382.491796,389.395123 420.499748,389.395123 L420.520013,389.395123 C431.306765,389.395123 440.972895,388.421973 450.203339,386.901425 C459.427705,385.401151 468.216385,383.373753 477.26445,381.285534 C498.854166,376.318411 523.303193,370.661973 560.654577,370.661973 L560.672815,370.661973 C571.13939,370.661973 580.5664,371.635123 589.573936,373.115123 C598.603763,374.595123 607.230327,376.581973 616.100065,378.629644 C637.991722,383.677863 662.797402,389.395123 700.80738,389.395123 L700.825618,389.395123 C711.614397,389.395123 721.2785,388.421973 730.506919,386.901425 C739.735337,385.401151 748.524017,383.373753 757.570056,381.285534 C779.161799,376.318411 803.608799,370.661973 840.960183,370.661973 L840.980448,370.661973 L840.980448,364.579781 L840.960183,364.579781 C802.950205,364.579781 778.144525,370.317315 756.252868,375.365534" id="Shape"></path>
                <path d="M756.252868,394.909847 C738.515419,399.005189 721.760794,402.877518 700.825618,402.877518 L700.80738,402.877518 C663.455996,402.877518 639.008996,397.221079 617.417253,392.253956 C599.341387,388.077518 582.264558,384.144367 560.672815,384.144367 L560.654577,384.144367 C522.644599,384.144367 497.838919,389.861627 475.947263,394.909847 C458.209813,399.005189 441.451135,402.877518 420.520013,402.877518 L420.499748,402.877518 C383.15039,402.877518 358.701363,397.221079 337.111647,392.253956 C319.035782,388.077518 301.956926,384.144367 280.36721,384.144367 L280.346945,384.144367 C242.338993,384.144367 217.52926,389.861627 195.63963,394.909847 C177.904207,399.005189 161.145529,402.877518 140.21238,402.877518 L140.194142,402.877518 C102.844784,402.877518 78.3957577,397.221079 56.8060413,392.253956 C38.7281495,388.077518 21.6492938,384.144367 0.0595774038,384.144367 L0.0393129808,384.144367 L0.0393129808,390.226559 L0.0595774038,390.226559 C10.5241255,390.226559 19.9531615,391.179436 28.962724,392.659436 C37.9884981,394.139436 46.6191159,396.126285 55.484801,398.173956 C77.3764572,403.222175 102.184164,408.95971 140.194142,408.95971 L140.21238,408.95971 C150.997106,408.95971 160.667289,407.966285 169.893681,406.466011 C179.120073,404.965737 187.908753,402.93834 196.958844,400.850121 C218.548561,395.862723 242.997587,390.226559 280.346945,390.226559 L280.36721,390.226559 C290.833784,390.226559 300.260794,391.179436 309.26833,392.659436 C318.298157,394.139436 326.924722,396.126285 335.792433,398.173956 C357.682063,403.222175 382.491796,408.95971 420.499748,408.95971 L420.520013,408.95971 C431.306765,408.95971 440.972895,407.966285 450.203339,406.466011 C459.427705,404.965737 468.216385,402.93834 477.26445,400.850121 C498.854166,395.862723 523.303193,390.226559 560.654577,390.226559 L560.672815,390.226559 C571.13939,390.226559 580.5664,391.179436 589.573936,392.659436 C598.603763,394.139436 607.230327,396.126285 616.100065,398.173956 C637.991722,403.222175 662.797402,408.95971 700.80738,408.95971 L700.825618,408.95971 C711.614397,408.95971 721.2785,407.966285 730.506919,406.466011 C739.735337,404.965737 748.524017,402.93834 757.570056,400.850121 C779.161799,395.862723 803.608799,390.226559 840.960183,390.226559 L840.980448,390.226559 L840.980448,384.144367 L840.960183,384.144367 C802.950205,384.144367 778.144525,389.861627 756.252868,394.909847" id="Shape"></path>
                <path d="M560.673423,428.5024 L560.673423,428.524701 L420.52062,428.524701 C442.110337,428.524701 459.189193,424.571277 477.265058,420.392811 C498.854774,415.427715 523.303801,409.771277 560.653159,409.771277 L560.673423,409.771277 C581.606572,409.771277 598.363224,413.643605 616.100673,417.736921 C637.972065,422.787167 662.777745,428.5024 700.765433,428.5024 L560.673423,428.5024 Z M280.367818,428.5024 L280.367818,428.524701 L140.212988,428.524701 C161.804731,428.524701 178.88156,424.571277 196.959452,420.392811 C218.549169,415.427715 242.996169,409.771277 280.347553,409.771277 L280.367818,409.771277 C301.29894,409.771277 318.055592,413.643605 335.791015,417.736921 C357.662406,422.787167 382.47214,428.5024 420.459827,428.5024 L280.367818,428.5024 Z M756.253476,414.472811 C738.516027,418.570181 721.759375,422.44251 700.826226,422.44251 L700.805962,422.44251 C663.456604,422.44251 639.007577,416.786071 617.417861,411.798674 C599.341995,407.64251 582.26314,403.689085 560.673423,403.689085 L560.653159,403.689085 C522.643181,403.689085 497.8375,409.426619 475.945844,414.472811 C458.210421,418.570181 441.451743,422.44251 420.52062,422.44251 L420.500356,422.44251 C383.148971,422.44251 358.701971,416.786071 337.112255,411.798674 C319.03639,407.64251 301.957534,403.689085 280.367818,403.689085 L280.347553,403.689085 C242.337575,403.689085 217.529868,409.426619 195.638212,414.472811 C177.902789,418.570181 161.146137,422.44251 140.212988,422.44251 L140.19475,422.44251 C102.843366,422.44251 78.3963656,416.786071 56.8066493,411.798674 C38.7287575,407.64251 21.6499017,403.689085 0.0601853365,403.689085 L0.0399209135,403.689085 L0.0399209135,409.771277 L0.0601853365,409.771277 C20.9933344,409.771277 37.7499858,413.643605 55.4854089,417.736921 C77.3568007,422.787167 102.164507,428.5024 140.152195,428.5024 L0.0601853365,428.5024 L0.0520795673,440.808701 L840.979029,440.808701 L840.979029,428.524701 L700.826226,428.524701 C722.417969,428.524701 739.494798,424.571277 757.570664,420.392811 C779.16038,415.427715 803.609406,409.771277 840.958765,409.771277 L840.979029,409.771277 L840.979029,403.689085 L840.958765,403.689085 C802.950813,403.689085 778.143106,409.426619 756.253476,414.472811 L756.253476,414.472811 Z" id="Shape"></path>
            </g>
        </g>
    </g>
</svg>