<?xml version="1.0" encoding="UTF-8"?>
<svg width="18px" height="17px" viewBox="0 0 18 17" version="1.1" xmlns="http://www.w3.org/2000/svg" xmlns:xlink="http://www.w3.org/1999/xlink">
    <!-- Generator: Sketch 45.2 (43514) - http://www.bohemiancoding.com/sketch -->
    <title>Icon / Thumbs Up</title>
    <desc>Created with Sketch.</desc>
    <defs>
        <path d="M18,15.1823899 C18,15.6457045 17.7657669,15.8773585 17.2972973,15.8773585 L15.8918919,15.8773585 L15.8918919,15.8238994 C15.5315304,15.8238994 15.3153142,15.6278845 15.2432432,15.2358491 L15.2432432,7.69811321 C15.2432432,7.2347997 15.459456,7.00314465 15.8918919,7.00314465 L17.2432432,7.00314465 L17.2972973,7.00314465 C17.7297332,7.00314465 17.9459459,7.2347997 17.9459459,7.69811321 L17.9459459,15.0754717 C17.9459459,15.1111112 17.9549544,15.1289308 17.9729712,15.1289308 C17.9909916,15.1289308 18,15.1467504 18,15.1823899 Z M13.8378378,16.3050314 L13.8378378,16.3584906 C13.8378378,16.7861657 13.6036048,17 13.1351351,17 L13.0810811,17 L3.08108108,17 C2.93693613,17 2.84684696,16.9821805 2.81081081,16.9465409 L0.108108108,14.2735849 C0.036035667,14.2023059 0,14.1132082 0,14.0062893 L0,6.3081761 C0,5.84486259 0.234231905,5.61320755 0.702702703,5.61320755 L4.48648649,5.61320755 L4.48648649,2.51257862 L4.48648649,2.4591195 L4.48648649,1.55031447 C4.48648649,1.12263809 4.63963676,0.757340377 4.94594768,0.454400805 C5.25225514,0.151464654 5.62161816,0 6.05405405,0 C6.70270616,0 7.17116886,0.267292176 7.45945946,0.801886792 L10.2162162,5.45283019 C10.2522534,5.48847074 10.2702703,5.50628931 10.2702703,5.50628931 C10.2702703,5.57756699 10.2882871,5.61320755 10.3243243,5.61320755 L13.0810811,5.61320755 L13.1351351,5.61320755 C13.6036048,5.61320755 13.8378378,5.84486259 13.8378378,6.3081761 L13.8378378,14.0062893 L13.8378378,16.3050314 Z" id="path-1"></path>
    </defs>
    <g id="Symbols" stroke="none" stroke-width="1" fill="none" fill-rule="evenodd">
        <g id="Icon-/-Thumbs-Up">
            <g transform="translate(9.000000, 8.500000) scale(-1, 1) translate(-9.000000, -8.500000) ">
                <mask id="mask-2" fill="white">
                    <use xlink:href="#path-1"></use>
                </mask>
                <use id="Mask" fill="#000000" xlink:href="#path-1"></use>
                <g id="Color-/-Dark-Red" mask="url(#mask-2)" fill="#11214e">
                    <g transform="translate(-17.000000, -9.000000)" id="Color">
                        <rect x="0" y="0" width="52" height="35"></rect>
                    </g>
                </g>
            </g>
        </g>
    </g>
</svg>
