<svg xmlns="http://www.w3.org/2000/svg" width="480" height="997" viewBox="0 0 480 997">
  <path fill-rule="evenodd" d="M1506.63411,3677.76 L1546.79822,3710.02902 L1546.79822,3695.85243 L1581.43577,3709.25391 L1574.63562,3692.39761 L1605.06341,3692.39761 C1605.06341,3692.39761 1589.07153,3676.78032 1616.2145,3662.51729 C1589.07153,3648.25426 1605.06341,3632.63697 1605.06341,3632.63697 L1574.63562,3632.63697 L1581.43577,3615.78066 L1546.79822,3629.17926 L1546.79822,3615.00268 L1506.63411,3647.27458 C1504.53068,3615.20438 1539.19416,3593.56204 1584.40363,3605.54874 C1626.70287,3616.76035 1630.22108,3657.35955 1630.47753,3662.51729 C1630.22108,3667.64622 1626.70287,3708.24542 1584.40363,3719.48007 C1539.19416,3731.46966 1504.53068,3709.7985 1506.63411,3677.76 L1506.63411,3677.76 Z M1515.48007,3788.40363 C1504.24254,3830.70575 1463.64333,3834.22108 1458.51441,3834.48041 C1453.35667,3834.22108 1412.75746,3830.70575 1401.54874,3788.40363 C1389.56204,3743.19704 1411.2015,3708.55949 1443.2717,3710.66581 L1411.00268,3750.80399 L1425.15045,3750.80399 L1411.77778,3785.43577 L1428.60527,3778.6385 L1428.60527,3809.06341 C1428.60527,3809.06341 1444.25138,3793.07441 1458.51441,3820.24332 C1472.77743,3793.07441 1488.39473,3809.06341 1488.39473,3809.06341 L1488.39473,3778.6385 L1505.25103,3785.43577 L1491.85243,3750.80399 L1506.02902,3750.80399 L1473.75712,3710.66581 C1505.7985,3708.55949 1527.46678,3743.19704 1515.48007,3788.40363 L1515.48007,3788.40363 Z M1332.62518,3719.48007 C1290.32594,3708.24542 1286.81061,3667.64622 1286.52247,3662.51729 C1286.81061,3657.35955 1290.32594,3616.76035 1332.62518,3605.54874 C1377.80584,3593.56204 1412.46932,3615.20438 1410.36589,3647.27458 L1370.1989,3615.00268 L1370.1989,3629.17926 L1335.56423,3615.78066 L1342.36438,3632.63697 L1311.93659,3632.63697 C1311.93659,3632.63697 1327.92847,3648.25426 1300.78838,3662.51729 C1327.92847,3676.78032 1311.93659,3692.39761 1311.93659,3692.39761 L1342.36438,3692.39761 L1335.56423,3709.25391 L1370.1989,3695.85243 L1370.1989,3710.02902 L1410.36589,3677.76 C1412.46932,3709.7985 1377.80584,3731.46966 1332.62518,3719.48007 L1332.62518,3719.48007 Z M1401.54874,3536.62807 C1412.75746,3494.32883 1453.35667,3490.81061 1458.51441,3490.52535 C1463.64333,3490.81061 1504.24254,3494.32883 1515.48007,3536.62807 C1527.46678,3581.83754 1505.7985,3616.46932 1473.75712,3614.36877 L1506.02902,3574.22771 L1491.85243,3574.22771 L1505.25103,3539.56711 L1488.39473,3546.39608 L1488.39473,3515.93947 C1488.39473,3515.93947 1472.77743,3531.95728 1458.51441,3504.78838 C1444.25138,3531.95728 1428.60527,3515.93947 1428.60527,3515.93947 L1428.60527,3546.39608 L1411.77778,3539.56711 L1425.15045,3574.22771 L1411.00268,3574.22771 L1443.2717,3614.36877 C1411.2015,3616.46932 1389.56204,3581.83754 1401.54874,3536.62807 L1401.54874,3536.62807 Z M1923.7196,4084.27068 L1945.47432,4077.47053 L1901.33097,4055.07902 L1935.2741,4044.19013 C1935.2741,4044.19013 1923.7196,4034.01872 1897.9309,4035.3701 C1872.11338,4036.72725 1849.03321,4028.57284 1849.03321,4028.57284 C1877.55926,4009.55259 1893.17656,4022.46423 1900.63943,4024.51003 C1908.10231,4026.55584 1944.78566,4012.95554 1921.70261,3988.5211 C1898.59362,3964.05497 1875.51345,4004.80112 1875.51345,4004.80112 C1823.90723,4036.06453 1784.48941,3984.42949 1790.62971,3975.60946 C1796.73544,3966.76639 1817.10708,3993.93529 1817.10708,3993.93529 L1821.16988,3981.72095 L1846.29586,3990.5381 L1844.94159,3978.32088 L1866.6675,3976.96661 L1862.60469,3966.10078 L1895.19355,3949.79482 L1860.55889,3936.88606 L1866.00765,3921.96031 L1845.63313,3928.73165 L1843.58444,3913.11435 L1816.41554,3929.42319 L1817.7698,3915.8517 C1817.7698,3915.8517 1762.10078,3976.96661 1780.42661,3936.88606 C1798.75243,3896.83145 1843.58444,3896.83145 1843.58444,3896.83145 L1827.97003,3883.92557 C1851.74174,3864.21666 1877.55926,3879.16835 1877.55926,3879.16835 C1883.66787,3917.86869 1917.61099,3919.25178 1932.56556,3894.78564 C1947.49132,3870.32527 1921.70261,3841.79922 1898.59362,3855.39664 C1875.51345,3868.96812 1859.20462,3854.04525 1859.20462,3854.04525 C1859.20462,3854.04525 1862.60469,3843.84502 1886.37641,3841.79922 C1910.14812,3839.77934 1921.70261,3822.81066 1921.70261,3822.81066 L1904.03951,3818.71905 L1939.3369,3792.90153 L1921.01395,3789.53027 L1948.18286,3763.71275 L1927.81122,3766.42128 L1947.49132,3733.14088 L1932.56556,3734.49227 L1939.3369,3700.55203 L1908.79385,3722.96659 L1901.9937,3708.0149 L1887.73067,3744.00384 L1878.91353,3724.32374 L1868.05058,3759.62113 L1857.15881,3741.98684 L1852.40447,3788.83872 L1839.52452,3777.28423 C1836.78717,3784.0815 1836.12445,3791.54726 1840.87879,3807.16455 C1845.63313,3822.81066 1838.83298,3836.38215 1838.83298,3836.38215 C1838.83298,3836.38215 1808.26112,3811.25617 1823.21569,3794.94733 C1838.17314,3778.6385 1810.30981,3730.42947 1783.13514,3760.30979 C1755.99217,3790.19299 1785.87249,3809.20748 1797.39817,3811.25617 C1808.95266,3813.30198 1815.06127,3820.76485 1815.06127,3820.76485 C1836.12445,3840.44495 1813.707,3873.72535 1813.707,3873.72535 L1800.79824,3856.7509 C1802.84405,3864.21666 1787.22676,3913.80589 1751.90055,3921.96031 C1716.57435,3930.11473 1717.26589,3899.54287 1717.26589,3899.54287 L1758.7007,3901.58867 L1752.59209,3890.03418 L1776.3638,3881.21416 L1768.20939,3875.77115 L1787.22676,3862.19967 C1787.22676,3862.19967 1779.73507,3861.50813 1777.02653,3854.70798 C1774.318,3847.93664 1789.93529,3826.87346 1789.93529,3826.87346 C1757.34644,3836.38215 1753.94636,3819.41059 1753.94636,3819.41059 L1737.63752,3832.97919 L1731.52892,3822.81066 L1713.86581,3851.30502 L1709.80301,3836.38215 L1698.94006,3858.10805 C1698.24852,3883.23403 1681.93968,3872.37108 1681.93968,3872.37108 L1596.3644,3782.73011 C1576.68431,3763.0212 1588.23592,3739.24949 1609.27028,3741.2953 C1630.33346,3743.34111 1629.63904,3784.77592 1629.63904,3784.77592 C1629.63904,3784.77592 1645.28803,3754.20118 1652.7509,3760.30979 C1660.21378,3766.42128 1666.32239,3788.83872 1666.32239,3788.83872 C1645.95075,3794.28173 1663.61386,3851.30502 1691.45125,3823.47051 C1719.31458,3795.63887 1679.23115,3781.37585 1679.23115,3781.37585 C1667.67954,3767.11282 1666.32239,3756.24987 1666.32239,3756.24987 C1677.18246,3756.24987 1699.60567,3763.71275 1704.35713,3771.17562 C1709.11147,3778.6385 1720.66596,3794.28173 1733.57472,3794.94733 C1746.48348,3795.63887 1755.99217,3783.39284 1758.00916,3775.92708 C1760.05497,3768.46421 1757.34644,3752.15537 1740.34606,3747.40391 C1723.37738,3742.64957 1728.82038,3750.80399 1700.95417,3751.49553 C1673.12254,3752.15537 1676.52261,3729.74081 1676.52261,3729.74081 C1676.52261,3729.74081 1631.68773,3724.32374 1651.39664,3703.26056 C1671.07673,3682.19738 1683.98549,3710.06071 1690.0941,3714.81217 C1696.20271,3719.5694 1724.72588,3733.14088 1724.72588,3733.14088 L1717.26589,3708.0149 L1761.40924,3719.5694 L1751.24071,3697.14907 L1793.99809,3701.90629 L1781.11815,3680.84024 L1820.50715,3662.51729 L1781.11815,3644.19146 L1793.99809,3623.12828 L1751.24071,3627.87974 L1761.40924,3605.46518 L1717.26589,3617.01967 L1724.72588,3591.89081 C1724.72588,3591.89081 1696.20271,3605.46518 1690.0941,3610.21952 C1683.98549,3614.97386 1671.07673,3642.8055 1651.39664,3621.77113 C1631.68773,3600.71084 1676.52261,3595.26207 1676.52261,3595.26207 C1676.52261,3595.26207 1673.12254,3572.87632 1700.95417,3573.53905 C1728.82038,3574.22771 1723.37738,3582.38213 1740.34606,3577.63067 C1757.34644,3572.87632 1760.05497,3556.56461 1758.00916,3549.10461 C1755.99217,3541.61292 1746.48348,3529.3957 1733.57472,3530.08724 C1720.66596,3530.74709 1709.11147,3546.36438 1704.35713,3553.85895 C1699.60567,3561.32183 1677.18246,3568.78471 1666.32239,3568.78471 C1666.32239,3568.78471 1667.67954,3557.92176 1679.23115,3543.65873 C1679.23115,3543.65873 1719.31458,3529.3957 1691.45125,3501.56119 C1663.61386,3473.69786 1645.95075,3530.74709 1666.32239,3536.19297 C1666.32239,3536.19297 1660.21378,3558.61042 1652.7509,3564.72191 C1645.28803,3570.83052 1629.63904,3540.25577 1629.63904,3540.25577 C1629.63904,3540.25577 1630.33346,3581.69347 1609.27028,3583.73639 C1588.23592,3585.78508 1576.68431,3562.01337 1596.3644,3542.30446 L1681.93968,3452.6635 C1681.93968,3452.6635 1698.24852,3441.79766 1698.94006,3466.92653 L1709.80301,3488.64955 L1713.86581,3473.69786 L1731.52892,3502.22392 L1737.63752,3492.0525 L1753.94636,3505.62399 C1753.94636,3505.62399 1757.34644,3488.64955 1789.93529,3498.16111 C1789.93529,3498.16111 1774.318,3477.09506 1777.02653,3470.3266 C1779.73507,3463.52357 1787.22676,3462.83491 1787.22676,3462.83491 L1768.20939,3449.26054 L1776.3638,3443.81754 L1752.59209,3435.0004 L1758.7007,3423.4459 L1717.26589,3425.48883 C1717.26589,3425.48883 1716.57435,3394.91985 1751.90055,3403.07427 C1787.22676,3411.22868 1802.84405,3460.81792 1800.79824,3468.28079 L1813.707,3451.30923 C1813.707,3451.30923 1836.12445,3484.58963 1815.06127,3504.26972 C1815.06127,3504.26972 1808.95266,3511.7326 1797.39817,3513.77841 C1785.87249,3515.82422 1755.99217,3534.8387 1783.13514,3564.72191 C1810.30981,3594.60223 1838.17314,3546.36438 1823.21569,3530.08724 C1808.26112,3513.77841 1838.83298,3488.64955 1838.83298,3488.64955 C1838.83298,3488.64955 1845.63313,3502.22392 1840.87879,3517.84121 C1836.12445,3533.48732 1836.78717,3540.9502 1839.52452,3547.75035 L1852.40447,3536.19297 L1857.15881,3583.04774 L1868.05058,3565.38463 L1878.91353,3600.71084 L1887.73067,3581.03074 L1901.9937,3617.01967 L1908.79385,3602.06222 L1939.3369,3624.48255 L1932.56556,3590.51061 L1947.49132,3591.89081 L1927.81122,3558.61042 L1948.18286,3561.32183 L1921.01395,3535.50431 L1939.3369,3532.10136 L1904.03951,3506.31553 L1921.70261,3502.22392 C1921.70261,3502.22392 1910.14812,3485.24947 1886.37641,3483.20366 C1862.60469,3481.18667 1859.20462,3470.98933 1859.20462,3470.98933 C1859.20462,3470.98933 1875.51345,3456.06357 1898.59362,3469.63506 C1921.70261,3483.20366 1947.49132,3454.68049 1932.56556,3430.24605 C1917.61099,3405.77992 1883.66787,3407.16588 1877.55926,3445.86335 C1877.55926,3445.86335 1851.74174,3460.81792 1827.97003,3441.10612 L1843.58444,3428.20025 C1843.58444,3428.20025 1798.75243,3428.20025 1780.42661,3388.14851 C1762.10078,3348.06797 1817.7698,3409.18288 1817.7698,3409.18288 L1816.41554,3395.61139 L1843.58444,3411.92022 L1845.63313,3396.27412 L1866.00765,3403.07427 L1860.55889,3388.14851 L1895.19355,3375.23975 L1862.60469,3358.93092 L1866.6675,3348.06797 L1844.94159,3346.71082 L1846.29586,3334.4936 L1821.16988,3343.31362 L1817.10708,3331.09352 C1817.10708,3331.09352 1796.73544,3358.2365 1790.62971,3349.42223 C1784.48941,3340.60509 1823.90723,3288.96717 1875.51345,3320.23345 C1875.51345,3320.23345 1898.59362,3360.97673 1921.70261,3336.51059 C1944.78566,3312.07904 1908.10231,3298.47585 1900.63943,3300.52454 C1893.17656,3302.57035 1877.55926,3315.47911 1849.03321,3296.46174 C1849.03321,3296.46174 1872.11338,3288.30732 1897.9309,3289.66159 C1923.7196,3291.01298 1935.2741,3280.81563 1935.2741,3280.81563 L1901.33097,3269.95268 L1945.47432,3247.56117 L1923.7196,3240.7639 L1957,3214.28077 L1935.2741,3211.54342 L1950.22866,3170.80303 L1909.45658,3185.7576 L1906.74804,3164 L1880.2678,3197.28328 L1873.47053,3175.55737 L1851.0502,3219.69784 L1840.18725,3185.7576 C1840.18725,3185.7576 1830.01584,3197.28328 1831.3701,3223.1008 C1832.72437,3248.91832 1824.56995,3271.99849 1824.56995,3271.99849 C1805.55259,3243.46955 1818.46423,3227.85226 1820.50715,3220.39226 C1822.52415,3212.90057 1808.95266,3176.24603 1784.48941,3199.32909 C1760.05497,3222.40926 1800.79824,3245.51824 1800.79824,3245.51824 C1832.03283,3297.12159 1780.42661,3336.51059 1771.60946,3330.40198 C1762.76639,3324.29625 1789.93529,3303.92462 1789.93529,3303.92462 L1777.71807,3299.833 L1786.5381,3274.70414 L1774.318,3276.06129 L1772.96373,3254.33539 L1762.10078,3258.427 L1745.79194,3225.80645 L1732.88318,3260.444 L1717.95743,3255.02693 L1724.72588,3275.39568 L1709.11147,3277.44149 L1725.42031,3304.58734 L1711.82001,3303.23308 C1711.82001,3303.23308 1772.96373,3358.93092 1732.88318,3340.60509 C1692.80264,3322.24757 1692.80264,3277.44149 1692.80264,3277.44149 L1679.92557,3293.06167 C1660.21378,3269.28995 1675.16835,3243.46955 1675.16835,3243.46955 C1713.86581,3237.36382 1715.22296,3203.38901 1690.78564,3188.46325 C1666.32239,3173.51157 1637.79634,3199.32909 1651.39664,3222.40926 C1664.96812,3245.51824 1650.04237,3261.79826 1650.04237,3261.79826 C1650.04237,3261.79826 1639.84214,3258.427 1637.79634,3234.65529 C1635.77934,3210.88358 1618.77897,3199.32909 1618.77897,3199.32909 L1614.71616,3216.99219 L1588.89864,3181.66598 L1585.49857,3200.01775 L1559.70986,3172.84884 L1562.4184,3193.22048 L1529.14088,3173.51157 L1530.49227,3188.46325 L1496.54915,3181.66598 L1518.93778,3212.23496 L1504.01202,3219.038 L1540.00095,3233.30102 L1520.32086,3242.11817 L1555.61825,3252.98112 L1537.95515,3263.84407 L1584.83872,3268.59841 L1573.28135,3281.50429 C1580.0815,3284.21571 1587.54438,3284.90725 1603.16167,3280.15291 C1618.77897,3275.39568 1632.38215,3282.19871 1632.38215,3282.19871 C1632.38215,3282.19871 1607.25329,3312.73888 1590.94445,3297.81601 C1574.63562,3282.85856 1526.42947,3310.72189 1556.30979,3337.86774 C1586.19011,3365.03953 1605.20748,3335.15921 1607.25329,3323.60471 C1609.27028,3312.07904 1616.76485,3305.97043 1616.76485,3305.97043 C1636.44207,3284.90725 1669.72246,3307.32181 1669.72246,3307.32181 L1652.7509,3320.23345 C1660.21378,3318.18764 1709.80301,3333.80494 1717.95743,3369.13114 C1726.08303,3404.42853 1695.54287,3403.76581 1695.54287,3403.76581 L1697.55698,3362.32811 L1686.0313,3368.43672 L1677.18246,3344.66501 L1671.77115,3352.81943 L1658.16797,3333.80494 C1658.16797,3333.80494 1657.50525,3341.26782 1650.7051,3343.97635 C1643.90783,3346.71082 1622.87058,3331.09352 1622.87058,3331.09352 C1632.38215,3363.68526 1615.37889,3367.08534 1615.37889,3367.08534 L1628.97919,3383.39417 L1618.77897,3389.50278 L1647.30502,3407.16588 L1632.38215,3411.22868 L1654.10517,3422.09164 C1679.23115,3422.78318 1668.3682,3439.0632 1668.3682,3439.0632 L1578.72723,3524.63848 C1559.01832,3544.34739 1535.24661,3532.7929 1537.2953,3511.7326 C1539.33823,3490.69824 1580.74711,3491.36096 1580.74711,3491.36096 C1580.74711,3491.36096 1550.20118,3475.74367 1556.30979,3468.28079 C1562.4184,3460.81792 1584.83872,3454.68049 1584.83872,3454.68049 C1590.25291,3475.08094 1647.30502,3457.41496 1619.47051,3429.55163 C1591.63599,3401.71712 1577.37297,3441.79766 1577.37297,3441.79766 C1563.10994,3453.32334 1552.21817,3454.68049 1552.21817,3454.68049 C1552.21817,3443.81754 1559.70986,3421.39721 1567.17274,3416.67457 C1574.63562,3411.92022 1590.25291,3400.36285 1590.94445,3387.45697 C1591.63599,3374.54821 1579.38996,3365.03953 1571.92708,3362.99372 C1564.46421,3360.97673 1548.15537,3363.68526 1543.40103,3380.65682 C1538.64669,3397.6572 1546.79822,3392.20843 1547.46383,3420.04583 C1548.15537,3447.90627 1525.73793,3444.50908 1525.73793,3444.50908 C1525.73793,3444.50908 1520.32086,3489.34109 1499.2548,3469.63506 C1478.1945,3449.92615 1506.05783,3437.0462 1510.81217,3430.90878 C1515.56652,3424.80017 1529.14088,3396.27412 1529.14088,3396.27412 L1504.01202,3403.76581 L1515.56652,3359.62246 L1493.14907,3369.79099 L1497.90629,3327.00479 L1476.84024,3339.91355 L1458.51441,3300.52454 L1440.15976,3339.91355 L1419.1254,3327.00479 L1423.87974,3369.79099 L1401.4623,3359.62246 L1413.01679,3403.76581 L1387.862,3396.27412 C1387.862,3396.27412 1401.4623,3424.80017 1406.21664,3430.90878 C1410.97098,3437.0462 1438.8055,3449.92615 1417.77113,3469.63506 C1396.70796,3489.34109 1391.26207,3444.50908 1391.26207,3444.50908 C1391.26207,3444.50908 1368.84463,3447.90627 1369.53617,3420.04583 C1370.22771,3392.20843 1378.35331,3397.6572 1373.59897,3380.65682 C1368.84463,3363.68526 1352.56461,3360.97673 1345.07292,3362.99372 C1337.61004,3365.03953 1325.39282,3374.54821 1326.08436,3387.45697 C1326.74709,3400.36285 1342.36438,3411.92022 1349.82726,3416.67457 C1357.31895,3421.39721 1364.78183,3443.81754 1364.78183,3454.68049 C1364.78183,3454.68049 1353.91888,3453.32334 1339.65585,3441.79766 C1339.65585,3441.79766 1325.39282,3401.71712 1297.55543,3429.55163 C1269.69498,3457.41496 1326.74709,3475.08094 1332.19297,3454.68049 C1332.19297,3454.68049 1354.5816,3460.81792 1360.71903,3468.28079 C1366.82764,3475.74367 1336.25577,3491.36096 1336.25577,3491.36096 C1336.25577,3491.36096 1377.69059,3490.69824 1379.73639,3511.7326 C1381.75339,3532.7929 1357.98168,3544.34739 1338.30158,3524.63848 L1248.6635,3439.0632 C1248.6635,3439.0632 1237.76597,3422.78318 1262.89483,3422.09164 L1284.64955,3411.22868 L1269.69498,3407.16588 L1298.22103,3389.50278 L1288.0525,3383.39417 L1301.62111,3367.08534 C1301.62111,3367.08534 1284.64955,3363.68526 1294.15823,3331.09352 C1294.15823,3331.09352 1273.09506,3346.71082 1266.2949,3343.97635 C1259.52357,3341.26782 1258.83203,3333.80494 1258.83203,3333.80494 L1245.26054,3352.81943 L1239.81466,3344.66501 L1230.99751,3368.43672 L1219.44302,3362.32811 L1221.48883,3403.76581 C1221.48883,3403.76581 1190.91697,3404.42853 1199.07139,3369.13114 C1207.2258,3333.80494 1256.78622,3318.18764 1264.28079,3320.23345 L1247.27754,3307.32181 C1247.27754,3307.32181 1280.55793,3284.90725 1300.26684,3305.97043 C1300.26684,3305.97043 1307.7326,3312.07904 1309.77553,3323.60471 C1311.82422,3335.15921 1330.8387,3365.03953 1360.71903,3337.86774 C1390.59935,3310.72189 1342.36438,3282.85856 1326.08436,3297.81601 C1309.77553,3312.73888 1284.64955,3282.19871 1284.64955,3282.19871 C1284.64955,3282.19871 1298.22103,3275.39568 1313.83833,3280.15291 C1329.45562,3284.90725 1336.94731,3284.21571 1343.71865,3281.50429 L1332.19297,3268.59841 L1379.04774,3263.84407 L1361.38175,3252.98112 L1396.70796,3242.11817 L1376.99905,3233.30102 L1413.01679,3219.038 L1398.06222,3212.23496 L1420.47967,3181.66598 L1386.51061,3188.46325 L1387.862,3173.51157 L1354.5816,3193.22048 L1357.31895,3172.84884 L1331.50431,3200.01775 L1328.10136,3181.66598 L1302.31265,3216.99219 L1298.22103,3199.32909 C1298.22103,3199.32909 1281.24947,3210.88358 1279.20366,3234.65529 C1277.15786,3258.427 1266.98645,3261.79826 1266.98645,3261.79826 C1266.98645,3261.79826 1252.03476,3245.51824 1265.63218,3222.40926 C1279.20366,3199.32909 1250.67761,3173.51157 1226.24029,3188.46325 C1201.77992,3203.38901 1203.13419,3237.36382 1241.86047,3243.46955 C1241.86047,3243.46955 1256.78622,3269.28995 1237.10612,3293.06167 L1224.19736,3277.44149 C1224.19736,3277.44149 1224.19736,3322.24757 1184.11682,3340.60509 C1144.06508,3358.93092 1205.17999,3303.23308 1205.17999,3303.23308 L1191.60851,3304.58734 L1207.88853,3277.44149 L1192.27123,3275.39568 L1199.07139,3255.02693 L1184.11682,3260.444 L1171.23687,3225.80645 L1154.92516,3258.427 L1144.06508,3254.33539 L1142.71082,3276.06129 L1130.46478,3274.70414 L1139.31074,3299.833 L1127.06471,3303.92462 C1127.06471,3303.92462 1154.2365,3324.29625 1145.42223,3330.40198 C1136.57339,3336.51059 1084.96717,3297.12159 1116.20176,3245.51824 C1116.20176,3245.51824 1156.97384,3222.40926 1132.51059,3199.32909 C1108.04734,3176.24603 1094.47585,3212.90057 1096.52166,3220.39226 C1098.56747,3227.85226 1111.44741,3243.46955 1092.43005,3271.99849 C1092.43005,3271.99849 1084.30444,3248.91832 1085.65871,3223.1008 C1087.01298,3197.28328 1076.81275,3185.7576 1076.81275,3185.7576 L1065.95268,3219.69784 L1043.53235,3175.55737 L1036.76102,3197.28328 L1010.25196,3164 L1007.54342,3185.7576 L966.80015,3170.80303 L981.725904,3211.54342 L960,3214.28077 L993.280397,3240.7639 L971.554493,3247.56117 L1015.69784,3269.95268 L981.725904,3280.81563 C981.725904,3280.81563 993.280397,3291.01298 1019.09792,3289.66159 C1044.88662,3288.30732 1067.99561,3296.46174 1067.99561,3296.46174 C1039.46955,3315.47911 1023.85226,3302.57035 1016.36057,3300.52454 C1008.89769,3298.47585 972.217219,3312.07904 995.326204,3336.51059 C1018.40926,3360.97673 1041.51536,3320.23345 1041.51536,3320.23345 C1093.12159,3288.96717 1132.51059,3340.60509 1126.40198,3349.42223 C1120.29337,3358.2365 1099.92174,3331.09352 1099.92174,3331.09352 L1095.83012,3343.31362 L1070.70414,3334.4936 L1072.05841,3346.71082 L1050.33539,3348.06797 L1054.39531,3358.93092 L1021.80645,3375.23975 L1056.44111,3388.14851 L1051.02405,3403.07427 L1071.39568,3396.27412 L1073.41268,3411.92022 L1100.58446,3395.61139 L1099.2302,3409.18288 C1099.2302,3409.18288 1154.92516,3348.06797 1136.57339,3388.14851 C1118.24757,3428.20025 1073.41268,3428.20025 1073.41268,3428.20025 L1089.05878,3441.10612 C1065.28707,3460.81792 1039.46955,3445.86335 1039.46955,3445.86335 C1033.36094,3407.16588 999.389006,3405.77992 984.463253,3430.24605 C969.508685,3454.68049 995.326204,3483.20366 1018.40926,3469.63506 C1041.51536,3456.06357 1057.79538,3470.98933 1057.79538,3470.98933 C1057.79538,3470.98933 1054.39531,3481.18667 1030.62359,3483.20366 C1006.88358,3485.24947 995.326204,3502.22392 995.326204,3502.22392 L1012.98931,3506.31553 L977.663102,3532.10136 L995.988931,3535.50431 L968.845958,3561.32183 L989.217595,3558.61042 L969.508685,3591.89081 L984.463253,3590.51061 L977.663102,3624.48255 L1008.23496,3602.06222 L1015.0063,3617.01967 L1029.26933,3581.03074 L1038.11529,3600.71084 L1048.97824,3565.38463 L1059.83831,3583.04774 L1064.59553,3536.19297 L1077.50429,3547.75035 C1080.21283,3540.9502 1080.90437,3533.48732 1076.15002,3517.84121 C1071.39568,3502.22392 1078.16702,3488.64955 1078.16702,3488.64955 C1078.16702,3488.64955 1108.73888,3513.77841 1093.81313,3530.08724 C1078.85856,3546.36438 1106.69307,3594.60223 1133.86486,3564.72191 C1161.03953,3534.8387 1131.15344,3515.82422 1119.60183,3513.77841 C1108.04734,3511.7326 1101.93873,3504.26972 1101.93873,3504.26972 C1080.90437,3484.58963 1103.293,3451.30923 1103.293,3451.30923 L1116.20176,3468.28079 C1114.18476,3460.81792 1129.80494,3411.22868 1165.10233,3403.07427 C1200.42565,3394.91985 1199.73411,3425.48883 1199.73411,3425.48883 L1158.32811,3423.4459 L1164.43672,3435.0004 L1140.66501,3443.81754 L1148.81943,3449.26054 L1129.80494,3462.83491 C1129.80494,3462.83491 1137.26782,3463.52357 1139.97347,3470.3266 C1142.71082,3477.09506 1127.06471,3498.16111 1127.06471,3498.16111 C1159.68238,3488.64955 1163.08245,3505.62399 1163.08245,3505.62399 L1179.36248,3492.0525 L1185.47108,3502.22392 L1203.13419,3473.69786 L1207.2258,3488.64955 L1218.08875,3466.92653 C1218.75148,3441.79766 1235.06032,3452.6635 1235.06032,3452.6635 L1320.63848,3542.30446 C1340.31857,3562.01337 1328.7929,3585.78508 1307.7326,3583.73639 C1286.66654,3581.69347 1287.35808,3540.25577 1287.35808,3540.25577 C1287.35808,3540.25577 1271.74079,3570.83052 1264.28079,3564.72191 C1256.78622,3558.61042 1250.67761,3536.19297 1250.67761,3536.19297 C1271.04925,3530.74709 1253.41496,3473.69786 1225.55163,3501.56119 C1197.71712,3529.3957 1237.76597,3543.65873 1237.76597,3543.65873 C1249.32334,3557.92176 1250.67761,3568.78471 1250.67761,3568.78471 C1239.81466,3568.78471 1217.39721,3561.32183 1212.64575,3553.85895 C1207.88853,3546.36438 1196.36285,3530.74709 1183.45409,3530.08724 C1170.54533,3529.3957 1161.03953,3541.61292 1158.99084,3549.10461 C1156.97384,3556.56461 1159.68238,3572.87632 1176.65394,3577.63067 C1193.6255,3582.38213 1188.20843,3574.22771 1216.04295,3573.53905 C1243.90627,3572.87632 1240.50908,3595.26207 1240.50908,3595.26207 C1240.50908,3595.26207 1285.30939,3600.71084 1265.63218,3621.77113 C1245.92327,3642.8055 1233.01451,3614.97386 1226.9059,3610.21952 C1220.79729,3605.46518 1192.27123,3591.89081 1192.27123,3591.89081 L1199.73411,3617.01967 L1155.59076,3605.46518 L1165.79099,3627.87974 L1123.00191,3623.12828 L1135.91067,3644.19146 L1096.52166,3662.51729 L1135.91067,3680.84024 L1123.00191,3701.90629 L1165.79099,3697.14907 L1155.59076,3719.5694 L1199.73411,3708.0149 L1192.27123,3733.14088 C1192.27123,3733.14088 1220.79729,3719.5694 1226.9059,3714.81217 C1233.01451,3710.06071 1245.92327,3682.19738 1265.63218,3703.26056 C1285.30939,3724.32374 1240.50908,3729.74081 1240.50908,3729.74081 C1240.50908,3729.74081 1243.90627,3752.15537 1216.04295,3751.49553 C1188.20843,3750.80399 1193.6255,3742.64957 1176.65394,3747.40391 C1159.68238,3752.15537 1156.97384,3768.46421 1158.99084,3775.92708 C1161.03953,3783.39284 1170.54533,3795.63887 1183.45409,3794.94733 C1196.36285,3794.28173 1207.88853,3778.6385 1212.64575,3771.17562 C1217.39721,3763.71275 1239.81466,3756.24987 1250.67761,3756.24987 C1250.67761,3756.24987 1249.32334,3767.11282 1237.76597,3781.37585 C1237.76597,3781.37585 1197.71712,3795.63887 1225.55163,3823.47051 C1253.41496,3851.30502 1271.04925,3794.28173 1250.67761,3788.83872 C1250.67761,3788.83872 1256.78622,3766.42128 1264.28079,3760.30979 C1271.74079,3754.20118 1287.35808,3784.77592 1287.35808,3784.77592 C1287.35808,3784.77592 1286.66654,3743.34111 1307.7326,3741.2953 C1328.7929,3739.24949 1340.31857,3763.0212 1320.63848,3782.73011 L1235.06032,3872.37108 C1235.06032,3872.37108 1218.75148,3883.23403 1218.08875,3858.10805 L1207.2258,3836.38215 L1203.13419,3851.30502 L1185.47108,3822.81066 L1179.36248,3832.97919 L1163.08245,3819.41059 C1163.08245,3819.41059 1159.68238,3836.38215 1127.06471,3826.87346 C1127.06471,3826.87346 1142.71082,3847.93664 1139.97347,3854.70798 C1137.26782,3861.50813 1129.80494,3862.19967 1129.80494,3862.19967 L1148.81943,3875.77115 L1140.66501,3881.21416 L1164.43672,3890.03418 L1158.32811,3901.58867 L1199.73411,3899.54287 C1199.73411,3899.54287 1200.42565,3930.11473 1165.10233,3921.96031 C1129.80494,3913.80589 1114.18476,3864.21666 1116.20176,3856.7509 L1103.293,3873.72535 C1103.293,3873.72535 1080.90437,3840.44495 1101.93873,3820.76485 C1101.93873,3820.76485 1108.04734,3813.30198 1119.60183,3811.25617 C1131.15344,3809.20748 1161.03953,3790.19299 1133.86486,3760.30979 C1106.69307,3730.42947 1078.85856,3778.6385 1093.81313,3794.94733 C1108.73888,3811.25617 1078.16702,3836.38215 1078.16702,3836.38215 C1078.16702,3836.38215 1071.39568,3822.81066 1076.15002,3807.16455 C1080.90437,3791.54726 1080.21283,3784.0815 1077.50429,3777.28423 L1064.59553,3788.83872 L1059.83831,3741.98684 L1048.97824,3759.62113 L1038.11529,3724.32374 L1029.26933,3744.00384 L1015.0063,3708.0149 L1008.23496,3722.96659 L977.663102,3700.55203 L984.463253,3734.49227 L969.508685,3733.14088 L989.217595,3766.42128 L968.845958,3763.71275 L995.988931,3789.53027 L977.663102,3792.90153 L1012.98931,3818.71905 L995.326204,3822.81066 C995.326204,3822.81066 1006.88358,3839.77934 1030.62359,3841.79922 C1054.39531,3843.84502 1057.79538,3854.04525 1057.79538,3854.04525 C1057.79538,3854.04525 1041.51536,3868.96812 1018.40926,3855.39664 C995.326204,3841.79922 969.508685,3870.32527 984.463253,3894.78564 C999.389006,3919.25178 1033.36094,3917.86869 1039.46955,3879.16835 C1039.46955,3879.16835 1065.28707,3864.21666 1089.05878,3883.92557 L1073.41268,3896.83145 C1073.41268,3896.83145 1118.24757,3896.83145 1136.57339,3936.88606 C1154.92516,3976.96661 1099.2302,3915.8517 1099.2302,3915.8517 L1100.58446,3929.42319 L1073.41268,3913.11435 L1071.39568,3928.73165 L1051.02405,3921.96031 L1056.44111,3936.88606 L1021.80645,3949.79482 L1054.39531,3966.10078 L1050.33539,3976.96661 L1072.05841,3978.32088 L1070.70414,3990.5381 L1095.83012,3981.72095 L1099.92174,3993.93529 C1099.92174,3993.93529 1120.29337,3966.76639 1126.40198,3975.60946 C1132.51059,3984.42949 1093.12159,4036.06453 1041.51536,4004.80112 C1041.51536,4004.80112 1018.40926,3964.05497 995.326204,3988.5211 C972.217219,4012.95554 1008.89769,4026.55584 1016.36057,4024.51003 C1023.85226,4022.46423 1039.46955,4009.55259 1067.99561,4028.57284 C1067.99561,4028.57284 1044.88662,4036.72725 1019.09792,4035.3701 C993.280397,4034.01872 981.725904,4044.19013 981.725904,4044.19013 L1015.69784,4055.07902 L971.554493,4077.47053 L993.280397,4084.27068 L960,4110.75092 L981.725904,4113.48827 L966.80015,4154.22866 L1007.54342,4139.27698 L1010.25196,4161.0317 L1036.76102,4127.7513 L1043.53235,4149.4772 L1065.95268,4105.33385 L1076.81275,4139.27698 C1076.81275,4139.27698 1087.01298,4127.7513 1085.65871,4101.93378 C1084.30444,4076.11626 1092.43005,4053.03609 1092.43005,4053.03609 C1111.44741,4081.56214 1098.56747,4097.17944 1096.52166,4104.63943 C1094.47585,4112.10519 1108.04734,4148.78566 1132.51059,4125.70549 C1156.97384,4102.59362 1116.20176,4079.51633 1116.20176,4079.51633 C1084.96717,4027.91011 1136.57339,3988.5211 1145.42223,3994.62971 C1154.2365,4000.73832 1127.06471,4021.10996 1127.06471,4021.10996 L1139.31074,4025.16988 L1130.46478,4050.32755 L1142.71082,4048.94159 L1144.06508,4070.69631 L1154.92516,4066.60469 L1171.23687,4099.22524 L1184.11682,4064.59058 L1199.07139,4070.00765 L1192.27123,4049.63601 L1207.88853,4047.59021 L1191.60851,4020.41842 L1205.17999,4021.79862 C1205.17999,4021.79862 1144.06508,3966.10078 1184.11682,3984.42949 C1224.19736,4002.78413 1224.19736,4047.59021 1224.19736,4047.59021 L1237.10612,4031.97291 C1256.78622,4055.74462 1241.86047,4081.56214 1241.86047,4081.56214 C1203.13419,4087.67075 1201.77992,4121.61388 1226.24029,4136.56556 C1250.67761,4151.52301 1279.20366,4125.70549 1265.63218,4102.59362 C1252.03476,4079.51633 1266.98645,4063.2075 1266.98645,4063.2075 C1266.98645,4063.2075 1277.15786,4066.60469 1279.20366,4090.37641 C1281.24947,4114.14812 1298.22103,4125.70549 1298.22103,4125.70549 L1302.31265,4108.04239 L1328.10136,4143.36859 L1331.50431,4125.01395 L1357.31895,4152.18286 L1354.5816,4131.8141 L1387.862,4151.52301 L1386.51061,4136.56556 L1420.47967,4143.36859 L1398.06222,4112.79385 L1413.01679,4105.9937 L1376.99905,4091.73355 L1396.70796,4082.91353 L1361.38175,4072.05346 L1379.04774,4061.18762 L1332.19297,4056.43616 L1343.71865,4043.52452 C1336.94731,4040.81887 1329.45562,4040.12733 1313.83833,4044.88167 C1298.22103,4049.63601 1284.64955,4042.83298 1284.64955,4042.83298 C1284.64955,4042.83298 1309.77553,4012.29282 1326.08436,4027.21569 C1342.36438,4042.17314 1390.59935,4014.30981 1360.71903,3987.16684 C1330.8387,3959.99217 1311.82422,3989.87249 1309.77553,4001.42986 C1307.7326,4012.95554 1300.26684,4019.06127 1300.26684,4019.06127 C1280.55793,4040.12733 1247.27754,4017.707 1247.27754,4017.707 L1264.28079,4004.80112 C1256.78622,4006.84693 1207.2258,3991.22964 1199.07139,3955.90055 C1190.91697,3920.60316 1221.48883,3921.26877 1221.48883,3921.26877 L1219.44302,3962.70358 L1230.99751,3956.59497 L1239.81466,3980.36669 L1245.26054,3972.20939 L1258.83203,3991.22964 C1258.83203,3991.22964 1259.52357,3983.76388 1266.2949,3981.02941 C1273.09506,3978.32088 1294.15823,3993.93529 1294.15823,3993.93529 C1284.64955,3961.34932 1301.62111,3957.94924 1301.62111,3957.94924 L1288.0525,3941.64041 L1298.22103,3935.5318 L1269.69498,3917.86869 L1284.64955,3913.80589 L1262.89483,3902.94006 C1237.76597,3902.2514 1248.6635,3885.97138 1248.6635,3885.97138 L1338.30158,3800.39322 C1357.98168,3780.68431 1381.75339,3792.23592 1379.73639,3813.30198 C1377.69059,3834.33634 1336.25577,3833.67073 1336.25577,3833.67073 C1336.25577,3833.67073 1366.82764,3849.28803 1360.71903,3856.7509 C1354.5816,3864.21666 1332.19297,3870.32527 1332.19297,3870.32527 C1326.74709,3849.95363 1269.69498,3867.61674 1297.55543,3895.48006 C1325.39282,3923.31458 1339.65585,3883.23403 1339.65585,3883.23403 C1353.91888,3871.70835 1364.78183,3870.32527 1364.78183,3870.32527 C1364.78183,3881.21416 1357.31895,3903.60567 1349.82726,3908.35713 C1342.36438,3913.11435 1326.74709,3924.66596 1326.08436,3937.5776 C1325.39282,3950.48348 1337.61004,3959.99217 1345.07292,3962.00916 C1352.56461,3964.05497 1368.84463,3961.34932 1373.59897,3944.37487 C1378.35331,3927.37738 1370.22771,3932.82326 1369.53617,3904.98587 C1368.84463,3877.12254 1391.26207,3880.52261 1391.26207,3880.52261 C1391.26207,3880.52261 1396.70796,3835.69061 1417.77113,3855.39664 C1438.8055,3875.07673 1410.97098,3887.98837 1406.21664,3894.09698 C1401.4623,3900.23441 1387.862,3928.73165 1387.862,3928.73165 L1413.01679,3921.26877 L1401.4623,3965.41212 L1423.87974,3955.24071 L1419.1254,3998.02691 L1440.15976,3985.12103 L1458.51441,4024.51003 L1476.84024,3985.12103 L1497.90629,3998.02691 L1493.14907,3955.24071 L1515.56652,3965.41212 L1504.01202,3921.26877 L1529.14088,3928.73165 C1529.14088,3928.73165 1515.56652,3900.23441 1510.81217,3894.09698 C1506.05783,3887.98837 1478.1945,3875.07673 1499.2548,3855.39664 C1520.32086,3835.69061 1525.73793,3880.52261 1525.73793,3880.52261 C1525.73793,3880.52261 1548.15537,3877.12254 1547.46383,3904.98587 C1546.79822,3932.82326 1538.64669,3927.37738 1543.40103,3944.37487 C1548.15537,3961.34932 1564.46421,3964.05497 1571.92708,3962.00916 C1579.38996,3959.99217 1591.63599,3950.48348 1590.94445,3937.5776 C1590.25291,3924.66596 1574.63562,3913.11435 1567.17274,3908.35713 C1559.70986,3903.60567 1552.21817,3881.21416 1552.21817,3870.32527 C1552.21817,3870.32527 1563.10994,3871.70835 1577.37297,3883.23403 C1577.37297,3883.23403 1591.63599,3923.31458 1619.47051,3895.48006 C1647.30502,3867.61674 1590.25291,3849.95363 1584.83872,3870.32527 C1584.83872,3870.32527 1562.4184,3864.21666 1556.30979,3856.7509 C1550.20118,3849.28803 1580.74711,3833.67073 1580.74711,3833.67073 C1580.74711,3833.67073 1539.33823,3834.33634 1537.2953,3813.30198 C1535.24661,3792.23592 1559.01832,3780.68431 1578.72723,3800.39322 L1668.3682,3885.97138 C1668.3682,3885.97138 1679.23115,3902.2514 1654.10517,3902.94006 L1632.38215,3913.80589 L1647.30502,3917.86869 L1618.77897,3935.5318 L1628.97919,3941.64041 L1615.37889,3957.94924 C1615.37889,3957.94924 1632.38215,3961.34932 1622.87058,3993.93529 C1622.87058,3993.93529 1643.90783,3978.32088 1650.7051,3981.02941 C1657.50525,3983.76388 1658.16797,3991.22964 1658.16797,3991.22964 L1671.77115,3972.20939 L1677.18246,3980.36669 L1686.0313,3956.59497 L1697.55698,3962.70358 L1695.54287,3921.26877 C1695.54287,3921.26877 1726.08303,3920.60316 1717.95743,3955.90055 C1709.80301,3991.22964 1660.21378,4006.84693 1652.7509,4004.80112 L1669.72246,4017.707 C1669.72246,4017.707 1636.44207,4040.12733 1616.76485,4019.06127 C1616.76485,4019.06127 1609.27028,4012.95554 1607.25329,4001.42986 C1605.20748,3989.87249 1586.19011,3959.99217 1556.30979,3987.16684 C1526.42947,4014.30981 1574.63562,4042.17314 1590.94445,4027.21569 C1607.25329,4012.29282 1632.38215,4042.83298 1632.38215,4042.83298 C1632.38215,4042.83298 1618.77897,4049.63601 1603.16167,4044.88167 C1587.54438,4040.12733 1580.0815,4040.81887 1573.28135,4043.52452 L1584.83872,4056.43616 L1537.95515,4061.18762 L1555.61825,4072.05346 L1520.32086,4082.91353 L1540.00095,4091.73355 L1504.01202,4105.9937 L1518.93778,4112.79385 L1496.54915,4143.36859 L1530.49227,4136.56556 L1529.14088,4151.52301 L1562.4184,4131.8141 L1559.70986,4152.18286 L1585.49857,4125.01395 L1588.89864,4143.36859 L1614.71616,4108.04239 L1618.77897,4125.70549 C1618.77897,4125.70549 1635.77934,4114.14812 1637.79634,4090.37641 C1639.84214,4066.60469 1650.04237,4063.2075 1650.04237,4063.2075 C1650.04237,4063.2075 1664.96812,4079.51633 1651.39664,4102.59362 C1637.79634,4125.70549 1666.32239,4151.52301 1690.78564,4136.56556 C1715.22296,4121.61388 1713.86581,4087.67075 1675.16835,4081.56214 C1675.16835,4081.56214 1660.21378,4055.74462 1679.92557,4031.97291 L1692.80264,4047.59021 C1692.80264,4047.59021 1692.80264,4002.78413 1732.88318,3984.42949 C1772.96373,3966.10078 1711.82001,4021.79862 1711.82001,4021.79862 L1725.42031,4020.41842 L1709.11147,4047.59021 L1724.72588,4049.63601 L1717.95743,4070.00765 L1732.88318,4064.59058 L1745.79194,4099.22524 L1762.10078,4066.60469 L1772.96373,4070.69631 L1774.318,4048.94159 L1786.5381,4050.32755 L1777.71807,4025.16988 L1789.93529,4021.10996 C1789.93529,4021.10996 1762.76639,4000.73832 1771.60946,3994.62971 C1780.42661,3988.5211 1832.03283,4027.91011 1800.79824,4079.51633 C1800.79824,4079.51633 1760.05497,4102.59362 1784.48941,4125.70549 C1808.95266,4148.78566 1822.52415,4112.10519 1820.50715,4104.63943 C1818.46423,4097.17944 1805.55259,4081.56214 1824.56995,4053.03609 C1824.56995,4053.03609 1832.72437,4076.11626 1831.3701,4101.93378 C1830.01584,4127.7513 1840.18725,4139.27698 1840.18725,4139.27698 L1851.0502,4105.33385 L1873.47053,4149.4772 L1880.2678,4127.7513 L1906.74804,4161.0317 L1909.45658,4139.27698 L1950.22866,4154.22866 L1935.2741,4113.48827 L1957,4110.75092 L1923.7196,4084.27068 Z" opacity=".3" style="mix-blend-mode:multiply" transform="translate(-960 -3164)"/>
</svg>
