<svg xmlns="http://www.w3.org/2000/svg" xmlns:xlink="http://www.w3.org/1999/xlink" width="103" height="116" viewBox="0 0 103 116">
  <defs>
    <path id="ulu-icon-a" d="M56.6419807,1.84560834 L97.6485266,25.5207486 L97.6485266,25.5207486 C100.7149,27.2911199 102.603863,30.5629009 102.603863,34.1036435 L102.603863,81.453924 L102.603863,81.453924 C102.603863,84.9946666 100.7149,88.2664476 97.6485266,90.0368189 L56.6419807,113.711959 L56.6419807,113.711959 C53.5756077,115.48233 49.7976804,115.48233 46.7313074,113.711959 L5.72476159,90.0368189 L5.72476159,90.0368189 C2.6583886,88.2664476 0.769424932,84.9946666 0.769424932,81.453924 L0.769424932,34.1036435 L0.769424932,34.1036435 C0.769424932,30.5629009 2.6583886,27.2911199 5.72476159,25.5207486 L46.7313074,1.84560834 L46.7313074,1.84560834 C49.7976804,0.0752370681 53.5756077,0.0752370681 56.6419807,1.84560834 Z"/>
  </defs>
  <g fill="none" fill-rule="evenodd" transform="translate(.146)">
    <mask id="ulu-icon-b" fill="#fff">
      <use xlink:href="#ulu-icon-a"/>
    </mask>
    <path fill="#FFF" d="M-14.9381829,100.069908 C-14.8323586,100.050273 -14.7265342,100.030638 -14.6207099,100.011003 C-14.6543342,99.8189016 -14.6879585,99.6270296 -14.7214676,99.434928 C-14.8209585,99.4626008 -15.0062374,99.490618 -15.0061223,99.5180611 C-15.0054314,99.7021249 -14.9653586,99.8859591 -14.9381829,100.069908 L-14.9381829,100.069908 Z M-8.30441545,110.082156 C-8.27228816,110.671895 -8.02344559,111.01258 -7.47336649,111.205255 C-7.57020897,110.75698 -7.33576035,110.168044 -8.10128806,110.293433 C-8.14665779,110.300897 -8.21310025,110.18056 -8.30441545,110.082156 L-8.30441545,110.082156 Z M-17.4602328,101.237215 L-17.3955176,101.297728 C-16.9205173,100.943724 -16.4454019,100.589604 -15.9778865,100.241227 C-16.1164138,100.177728 -16.3546624,100.06876 -16.576905,99.9670253 C-16.6151353,100.079209 -16.6518687,100.186685 -16.672596,100.247083 C-16.8856264,100.116986 -17.0603113,100.020993 -17.2225599,99.9074313 C-17.3203236,99.8389959 -17.398857,99.7431173 -17.4860267,99.6596398 C-17.5269055,99.7776795 -17.5799904,99.8931931 -17.6067056,100.014563 C-17.6982511,100.430802 -17.4612691,100.550564 -17.0645719,100.52404 C-17.2105841,100.787332 -17.3354085,101.012274 -17.4602328,101.237215 L-17.4602328,101.237215 Z M52.5716191,69.7865225 C51.533067,68.8636771 48.9490656,68.0116784 48.0219802,68.3159637 C49.5385265,68.80615 51.0550728,69.2962214 52.5716191,69.7865225 L52.5716191,69.7865225 Z M39.7952058,68.1421192 C41.8802555,68.1327036 42.1083708,67.5887793 43.3490139,65.7405623 C43.1000562,65.8548128 42.8669894,65.9958174 42.6590256,66.1670209 C42.096395,66.629879 41.5675038,67.1372889 40.9794247,67.5640921 C40.629479,67.8181989 40.1929394,67.9534623 39.7952058,68.1421192 L39.7952058,68.1421192 Z M-6.07715358,64.7688015 C-10.0151073,62.6606215 -13.439485,59.9000081 -16.5683838,56.7163807 C-16.5413232,56.8059439 -16.5355656,56.9075637 -16.4855898,56.978066 C-15.7532257,58.0119469 -15.0920254,59.109785 -14.2544128,60.0512321 C-13.5601639,60.8314654 -12.7118422,61.5116864 -11.8310478,62.0809869 C-10.8056229,62.7436397 -9.68681018,63.2714885 -8.57790045,63.7929071 C-7.77011212,64.1727469 -6.9125783,64.4474074 -6.07715358,64.7688015 L-6.07715358,64.7688015 Z M36.3353614,51.6542225 C36.2572886,51.6558301 36.1792159,51.6576673 36.1011431,51.6593897 C36.0499007,52.0460041 36.0242218,52.4381302 35.94304,52.8183145 C35.6013852,54.4185104 35.5578579,56.0290405 35.7688156,57.6454267 C35.8185611,58.0273334 35.9037733,58.4302529 36.0837552,58.7640481 C36.4689373,59.4786017 36.9608648,60.1359727 37.347659,60.8498373 C38.2366292,62.4913701 39.2475449,64.0779018 39.7357876,65.9100434 C39.8353937,66.2837976 39.9918847,66.6423948 40.133406,67.0393435 C40.4111516,66.8667621 40.6452548,66.7420626 40.8555216,66.5857863 C41.1386793,66.3749683 41.1915339,66.0933035 41.0422974,65.772828 C40.7248245,65.0901956 40.4459274,64.3864356 40.0830848,63.728835 C39.5994481,62.8518045 39.1507024,61.925744 38.5083869,61.17215 C37.3979802,59.8694647 36.8248708,58.4086659 36.7257253,56.7316524 C36.6688404,55.7680442 36.6344101,54.8027136 36.5631312,53.8402536 C36.50901,53.1098542 36.4127433,52.3826699 36.3353614,51.6542225 L36.3353614,51.6542225 Z M57.8776888,72.1395086 C57.8706646,72.0978273 57.8637555,72.0560311 57.8567312,72.0144646 C57.4877856,71.9768022 57.0975369,72.0021784 56.7546154,71.8873538 C56.1902575,71.6982376 55.6693118,71.3822403 55.1071418,71.1842826 C53.9302926,70.7696509 52.7547101,70.3422737 51.4750306,70.3392883 C50.9173515,70.3379104 50.2889693,70.4073793 49.81466,70.1855381 C47.8935862,69.2871503 45.9766578,68.3478849 44.6921419,66.5442198 C44.6763662,66.5221735 44.6206328,66.528374 44.5832085,66.5220586 C43.4822443,67.679376 42.2109708,68.5495169 40.6039154,68.8996172 C40.9750489,69.1332853 41.3271824,69.4659322 41.7433402,69.5979805 C43.4489655,70.1392638 45.1568937,70.6913405 46.8961432,71.104824 C49.4072537,71.7017972 51.5656549,72.8850649 53.3842438,74.6854001 C53.661644,74.9598309 53.8322986,74.9071264 54.1215594,74.8022915 C54.4489353,74.6836777 54.8167295,74.5427879 55.1430691,74.5869954 C55.5450632,74.6415371 55.6438633,74.4347379 55.8458392,74.1906208 C56.343294,73.5896287 56.4050152,72.6353213 57.3203552,72.3707654 C57.512428,72.3151903 57.6921796,72.2177042 57.8776888,72.1395086 L57.8776888,72.1395086 Z M-24.3507882,85.497401 C-24.1513457,85.4551455 -23.9772365,85.4622647 -23.8562122,85.3859063 C-21.6280291,83.9786158 -19.42944,82.5230989 -17.173275,81.1620827 C-15.9971168,80.4525814 -14.8321282,79.7535291 -13.8706126,78.7628223 C-13.4952184,78.376093 -13.1696849,77.8946333 -13.4126547,77.3859603 C-13.5776669,77.040453 -14.0001581,76.6598094 -14.3588553,76.5998709 C-14.9447465,76.5019255 -15.6415287,76.497677 -16.1677714,76.7313451 C-17.2178387,77.1977627 -18.2720514,77.7423759 -19.1651671,78.4537144 C-20.668471,79.6511055 -22.2126537,80.7289642 -24.080182,81.2530238 C-24.8084006,81.4574116 -25.5651768,81.5596055 -26.3079045,81.7128964 C-26.6168562,81.7766241 -27.0500564,81.7583669 -27.193305,81.9504685 C-27.3213535,82.1222462 -27.231305,82.6255225 -27.055814,82.8170499 C-26.7080562,83.1966601 -26.7723108,83.5014046 -27.0626079,83.882852 C-26.2195832,83.7758355 -26.5029712,83.1639351 -26.41465,82.6498653 C-26.3457893,83.1081303 -26.1585529,83.3606297 -25.6847041,83.2823193 C-25.8104496,83.3739493 -25.9363103,83.4655794 -26.0538801,83.5512385 C-25.958074,84.0657676 -25.7060072,84.3488103 -25.3196736,84.2497167 C-25.3984373,84.6489619 -25.481001,85.068531 -25.5719707,85.5307001 C-25.3014797,85.5042905 -25.1799947,85.4924635 -25.0691038,85.48167 C-25.0991583,85.7752766 -25.1248371,86.0265128 -25.1505159,86.2779788 C-25.0657644,86.2921022 -24.9810128,86.3063404 -24.8963764,86.3204639 C-24.760843,85.8177617 -24.6254247,85.3149447 -24.4900065,84.8121277 C-24.4436004,84.8224619 -24.3973094,84.8326813 -24.3507882,84.8429007 L-24.3507882,85.497401 Z M79.2495919,36.3083716 C79.228404,36.2826509 79.2071009,36.2569301 79.185913,36.2312094 C78.7219673,36.6322918 78.2383307,37.0130503 77.7977607,37.4380162 C76.0882204,39.0871273 74.4597467,40.8193715 72.531188,42.2348146 C71.5906299,42.9251402 70.5671627,43.3738748 69.4413257,43.6031796 C68.2159977,43.8528083 66.9851425,44.0785535 65.7514084,44.281219 C65.2091596,44.370208 64.6532078,44.3762937 63.9892438,44.4291131 C67.7559671,37.8487438 71.4226238,31.4430228 75.0892804,25.0374166 C70.4926596,31.8846383 65.8883237,38.7186551 61.1490301,45.5013454 C60.9987572,44.8878374 60.9996785,44.3078583 60.925636,43.7374096 C60.635454,41.4978702 60.2750296,39.2663686 60.0380476,37.0216621 C59.9360233,36.0541499 59.8867384,35.0118868 60.1371931,34.091223 C60.6691934,32.1357597 61.3971817,30.2320824 62.0769215,28.318645 C62.4302065,27.3242638 62.8518916,26.3539957 63.2424858,25.3728194 C62.1794064,26.7837843 61.4105393,28.3348352 60.8170481,29.9925582 C60.2138841,31.677265 59.7571929,33.3752915 59.545314,35.1615033 C59.312132,37.1279897 59.1324956,39.0719705 59.3334351,41.059355 C59.522514,42.930537 59.6461868,44.8097567 59.3980351,46.7059704 C59.2664169,47.7106858 59.1488471,48.5946058 58.43698,49.4251322 C57.1026035,50.9824985 55.9113604,52.6615789 54.5605172,54.420118 C54.4784142,54.0984942 54.4134687,53.9190233 54.3884808,53.7342705 C54.2182867,52.4749889 54.1421715,51.1958427 53.8701835,49.9594112 C53.5467227,48.4900005 53.0347588,47.0628453 52.6473889,45.6060654 C52.3470735,44.4771098 52.0262612,43.3421832 51.8720733,42.1889996 C51.6995762,40.8986005 51.5969761,39.5793805 51.6589277,38.2820919 C51.7418368,36.5436472 52.0122127,34.8141588 52.2115401,32.9955665 C52.0977704,33.155632 52.0106006,33.2474917 51.9585521,33.3561158 C51.0053273,35.3482081 50.5735089,37.4556992 50.6691999,39.6530979 C50.7546423,41.6157951 51.1932547,43.5228024 51.7642914,45.3991514 C52.1487825,46.6624519 52.5698919,47.9157626 52.9153466,49.1895121 C53.3956438,50.9604522 53.0962497,52.7463195 52.9029102,54.5218526 C52.8356617,55.1408721 52.763692,55.7875643 52.5270555,56.3519273 C52.3007826,56.8912586 51.8974066,57.3752443 51.5019761,57.8219121 C50.4198967,59.0444498 49.3030415,60.2364442 48.1928651,61.4338353 C48.1027014,61.5313214 47.9589923,61.5794329 47.8082588,61.6693406 C47.4341314,60.4610411 47.1042221,59.3197993 46.7250279,58.1952069 C46.4431369,57.3595134 46.1368337,56.5271497 45.7688092,55.7263628 C45.4133363,54.9525597 44.915536,54.2430584 44.56916,53.4659254 C44.0492507,52.2989628 44.2625114,51.0252133 44.3067296,49.8223106 C44.3828448,47.75053 44.6252389,45.6875909 44.2338386,43.6247666 C44.0867901,42.8498153 43.8233232,42.1232051 43.3548866,41.5400108 C43.3548866,42.5385257 43.3655957,43.5541495 43.3524684,44.5694288 C43.3275957,46.4991713 43.2806139,48.428799 43.2616138,50.3585416 C43.256432,50.8888016 43.2345532,51.4411081 43.3651351,51.9461067 C43.7339656,53.3701616 44.2017113,54.7684959 44.5865479,56.1888764 C45.1094513,58.1185041 45.6316637,60.0504283 46.0657851,62.0009541 C46.1903791,62.5608389 46.1057427,63.2179802 45.9324396,63.7732721 C45.8313365,64.097422 45.3648575,64.3081252 45.1733604,64.4739319 C45.5387363,65.3421209 45.8442335,66.0676976 46.2017791,66.917285 C46.519943,66.5766003 46.7215734,66.3584336 46.9255068,66.1425633 C47.8112528,65.205824 48.4734895,64.0805428 49.686266,63.4270759 C50.8703697,62.7891103 52.1300128,62.4687496 53.4115348,62.3232668 C54.7219597,62.1743393 56.0654332,62.2364594 57.389331,62.3048949 C58.9262591,62.3843535 60.4585812,62.5612982 61.9909033,62.7149336 C63.0950918,62.8256245 64.1539106,62.6065391 65.1986808,62.305469 C66.2344693,62.0071546 67.2504517,61.6385676 68.2898099,61.3542619 C69.3239862,61.071334 70.3773929,60.8592529 71.420551,60.608476 C72.2635758,60.4058105 73.1041823,60.1934998 73.9451343,59.9822225 C74.3060194,59.8916259 74.6649468,59.7931063 75.0247955,59.6981464 C75.0133955,59.6262662 75.0021107,59.554386 74.9908258,59.4826206 C74.2689405,59.4826206 73.5332371,59.3935167 72.8286246,59.5030594 C71.7100421,59.6769038 70.6047021,59.9552387 69.5074227,60.2410372 C68.0550158,60.6192695 66.6254089,61.087065 65.168396,61.444514 C63.2074797,61.925744 61.2677513,62.4415362 59.1999744,61.7705011 C57.2698036,61.1441328 55.2309297,61.0680041 53.2046074,61.0580143 C52.6433586,61.0552585 52.0821098,61.057555 51.3806063,61.057555 C51.7033762,60.558068 51.8994794,60.1716831 52.1711219,59.8486815 C53.369159,58.4235931 54.6820021,57.0841639 55.7747906,55.5843248 C56.8619367,54.0921789 58.4071558,53.444568 60.0340173,53.0217838 C61.7033698,52.5876319 63.4544799,52.6728317 65.1665536,52.9609267 C66.7358393,53.225253 68.2974099,53.5351646 69.8628956,53.8225706 C71.2143146,54.0707066 72.5484608,53.8606924 73.8015403,53.4189621 C75.0060258,52.9942258 76.144184,52.3668241 77.2792332,51.7677841 C77.8701911,51.4558056 78.3917126,51.0130419 78.9445553,50.6294128 C76.645554,51.6402139 74.3673951,52.6360879 71.9018847,53.0786219 C71.0742902,53.227205 70.1932655,53.218708 69.3550771,53.1225998 C68.7377495,53.051753 68.1545068,52.7092311 67.5488095,52.5095511 C65.1245232,51.7101421 62.6139885,51.4855452 60.0815749,51.4081534 C59.8828233,51.4020677 59.685108,51.3574009 59.4072473,51.3197384 C59.5312655,51.0946822 59.6001262,50.9431137 59.6920171,50.8070465 C60.2765265,49.9413837 60.9582239,49.1258993 61.4297696,48.2035131 C61.9860669,47.115435 62.9450493,46.6549883 63.9762317,46.3373834 C66.0220146,45.7073407 68.0986583,45.176162 70.1651685,44.6132918 C71.3762177,44.2834006 72.4973335,43.7966591 73.3907946,42.881392 C74.2919709,41.9584318 75.2359835,41.0734784 76.0893719,40.108722 C77.1804331,38.8750463 78.1995246,37.5781022 79.2495919,36.3083716 L79.2495919,36.3083716 Z M5.03013344,45.2045864 C3.80150201,43.9031305 2.38471451,42.8596418 0.715132738,42.1521535 C0.155284492,41.9150016 -0.317989283,41.4625197 -0.812733527,41.0848548 C-2.10777218,40.0958371 -3.44702153,39.2292054 -5.02671705,38.7032918 C-6.30709576,38.2770189 -7.22905616,37.3018562 -7.78521056,36.045552 C-8.14582209,35.2311075 -8.52490284,34.4136611 -8.4982379,33.3857339 C-8.11442442,33.4434631 -7.78878897,33.51193 -7.45992142,33.5384855 C-6.09573862,33.6487484 -4.71504895,33.6534822 -3.370836,33.8785109 C-2.3388683,34.0512368 -1.3089784,34.4014225 -0.355735753,34.8412041 C1.14211803,35.5322233 2.56794185,36.3779571 4.03682204,37.1339795 C5.27264376,37.770156 6.50407904,38.4234203 7.77972501,38.9706937 C8.63704314,39.3385446 9.55438623,39.7429958 10.5128233,39.5115015 C10.9667044,39.4018159 11.3926508,39.0383524 11.7382561,38.6959024 C11.8508029,38.5843695 11.7577642,38.1051012 11.6066629,37.9143637 C10.8752818,36.9906955 9.72511109,36.8847045 8.70145454,36.579894 C7.4043381,36.1936852 6.06809,35.9406002 4.75539015,35.6036922 C3.25626661,35.2189844 1.80320069,34.7114287 0.472839652,33.8953678 C-1.0188962,32.9805899 -2.43340763,31.9728679 -3.28137571,30.3868141 C-3.80844109,29.4013756 -4.2319634,28.3613251 -4.72462986,27.356836 C-5.21995127,26.3469202 -5.74736295,25.3529378 -6.24984118,24.3466012 C-6.32117854,24.2038945 -6.33202921,24.0310531 -6.37081457,23.8721822 C-6.196165,23.8497832 -6.00420054,23.7689622 -5.84952082,23.8146838 C-4.87030584,24.1040229 -3.87573831,24.3627654 -2.93103769,24.7433167 C-1.58001421,25.2875882 -0.283474927,25.9616351 0.79605101,26.9675098 C1.59207441,27.7093308 2.30371657,28.5476752 3.13598581,29.2436592 C4.36649763,30.2723947 5.71105688,31.1463003 7.23742252,31.6953056 C8.076156,31.9969987 8.90750179,32.3307893 9.76597424,32.5622837 C10.2741087,32.6994484 10.8310711,32.7204618 11.3611377,32.6939064 C11.9623109,32.6635408 12.1962928,32.2402698 11.8475708,31.7561522 C11.4063873,31.1432984 10.9243407,30.5042354 10.3186657,30.076577 C8.90450054,29.0780917 7.39060162,28.2257768 5.73114216,27.6801198 C4.72422334,27.3491002 3.65589437,27.1558227 2.70992398,26.7027634 C1.76303014,26.2493578 0.890705765,25.6040601 0.0616686306,24.9469856 C-2.02743107,23.2917721 -3.08294702,20.9998049 -3.90425017,18.5251823 C-4.30053038,17.3313411 -5.0453017,16.2533049 -5.63193032,15.122735 C-5.7213906,14.9503554 -5.8094657,14.7772831 -5.89811796,14.6046726 C-5.86533509,14.5580273 -5.83255222,14.5114975 -5.79965393,14.4648523 C-5.2971757,14.5867765 -4.78557829,14.6798361 -4.29383529,14.8355896 C-2.10223142,15.5298417 -0.133874241,16.651175 1.63363016,18.1039896 C2.12006325,18.5039379 2.47074758,19.0799605 2.84555732,19.6025258 C3.79268204,20.9232559 4.99537459,21.9641145 6.34281966,22.8466795 C6.91548092,23.2219197 7.4913743,23.6100913 8.11309444,23.8860372 C8.49356038,24.0550685 8.96498723,24.0669607 9.39312685,24.0556458 C9.54168864,24.0516047 9.79656389,23.7705787 9.80429787,23.606743 C9.82149733,23.2368139 9.78698298,22.831439 9.6473095,22.4925682 C8.74716587,20.3127112 7.23430584,18.6550732 5.12742951,17.6179092 C4.30497204,17.2131116 3.35646213,17.0496223 2.45250922,16.8288656 C0.7595743,16.4152932 -0.66925077,15.6008487 -1.86674885,14.3145253 C-3.57099618,12.4838149 -4.49053249,10.2514243 -5.27755215,7.94410105 C-5.55655281,7.12630831 -5.75625126,6.28103643 -5.98099858,5.44534761 C-6.0104339,5.33612384 -5.97418806,5.20923492 -5.968301,5.09054356 C-5.82874295,5.09804836 -5.67487125,5.06964556 -5.55193551,5.11871544 C-4.63724736,5.48448805 -3.72556046,5.85857368 -2.81883717,6.24397424 C-1.80303004,6.67567367 -0.760557979,7.06049694 0.209422395,7.57959848 C1.18736762,8.10297199 2.17904933,8.66652506 3.00058334,9.39703116 C3.76520907,10.0769664 4.33833207,10.9818149 4.95035586,11.820852 C5.62909972,12.7511014 6.22530924,13.7423128 6.91559636,14.6633255 C7.47417484,15.4086103 8.23695365,15.6227859 9.14125286,15.2837996 C9.7615878,15.0511507 9.97005913,14.5438259 9.60863957,13.9598367 C8.64627775,12.4046103 7.4103406,11.0909232 5.99294336,9.94442003 C4.7198369,8.91452997 3.38070299,7.95726332 2.18020365,6.8493233 C1.0592374,5.8148149 0.316659306,4.49847223 0.0642081484,2.95386805 L7.6827616,2.95386805 C8.50614254,5.50423146 9.38989474,8.03716063 10.1352432,10.6102694 C10.8386897,13.0387086 11.5193959,15.4850438 11.6243241,18.0400256 C11.6297495,18.1707246 11.6730367,18.3018855 11.7113603,18.4290054 C11.932991,19.1650535 11.7472599,19.4057845 10.9998336,19.1727892 C10.1352432,18.9030781 9.23429156,18.6247076 8.48236342,18.1423218 C6.51146672,16.878051 4.61306172,15.5006307 2.68510597,14.1693939 C2.64481998,14.1415684 2.59680001,14.1250578 2.5058391,14.1623509 C2.9689548,14.55745 3.41590994,14.9733316 3.89795659,15.3438381 C5.85292358,16.8465308 7.79750163,18.3648104 9.79333177,19.8117367 C10.4133204,20.2612167 11.1919135,20.4876309 11.8791994,20.8516716 C12.056273,20.9455394 12.2409652,21.1544039 12.2882926,21.3438713 C12.7092754,23.0279494 13.088587,24.7224187 13.5047216,26.4077669 C13.7026886,27.2098573 13.9535237,27.9990163 14.1804642,28.7940637 C14.1344066,28.8535248 14.0882336,28.912986 14.0421759,28.9725626 C12.6497122,28.4082013 11.2310452,27.8999529 9.87228769,27.2636609 C8.52172594,26.6312946 7.23142003,25.8703074 5.86469771,25.2349391 C6.53386065,25.6970042 7.17832102,26.2012116 7.87749645,26.6124748 C9.35168654,27.4799147 10.8453847,28.3154881 12.3508571,29.1275079 C12.8148962,29.377822 13.3296103,29.5958077 13.8444399,29.6738577 C14.4885539,29.7713047 14.6838659,30.1702139 14.8345055,30.6920864 C15.3028157,32.3149715 15.7741271,33.9369329 16.2612528,35.554045 C16.4102763,36.0489003 16.2948437,36.2925177 15.7782827,36.2010746 C14.5624308,35.9859754 13.3390758,35.7624476 12.1587772,35.4086827 C10.7417262,34.9837953 9.34025871,34.4809735 7.97965432,33.9002171 C6.44324604,33.2445281 4.94920154,32.4853883 3.45665766,31.7319059 C2.31272031,31.1544978 1.19948805,30.5160122 0.0726347302,29.9046593 C0.0392747007,29.9474944 0.00603010383,29.990445 -0.0272144931,30.0333955 C0.357984187,30.3261984 0.720673504,30.6566407 1.13253712,30.9051074 C2.4782507,31.7168963 3.79372093,32.6017705 5.21111817,33.2653106 C6.88558387,34.0490431 8.64870183,34.6458482 10.3840005,35.295187 C11.2764102,35.629093 12.1852113,35.9239741 13.0989759,36.194378 C13.9560632,36.4480404 14.8286184,36.649631 15.6959792,36.8677321 C16.2614837,37.0100925 16.6711541,37.1816639 16.8810106,37.8844599 C17.5175061,40.0173253 18.2900967,42.1097802 19.0205543,44.2141273 C19.3322224,45.1120483 19.649893,46.0088146 20.0040403,46.8903405 C20.2871966,47.5954457 20.5955171,48.2953553 20.9594762,48.9610892 C21.1657543,49.3385231 21.051476,49.4522497 20.7085257,49.4870028 C20.5208322,49.5060534 20.3137461,49.4999341 20.1375959,49.4397802 C18.6893781,48.9457332 17.2020287,48.5334308 15.8152211,47.9014108 C14.6528146,47.3714562 13.5850627,46.6161265 12.520543,45.8939334 C11.3790298,45.1195531 10.3148564,44.2305224 9.17161164,43.4585667 C7.81978013,42.5457516 6.43412686,41.6805054 5.03566057,40.8400828 C3.84843599,40.1263181 2.62450384,39.4736311 1.41176865,38.8029325 C1.18632873,38.6782373 0.936994249,38.5966081 0.661918297,38.5530802 C0.916100944,38.7288081 1.15839403,38.9256649 1.42642859,39.0768001 C4.21239507,40.6481907 6.82082617,42.486175 9.36126745,44.4184889 C10.2876143,45.1231323 11.0731333,46.0129711 11.9982104,46.7198082 C13.0119397,47.4941886 14.0949287,48.1830142 15.1796491,48.8577538 C16.8178689,49.8766753 18.6067284,50.5725438 20.4316028,51.1760456 C20.6474618,51.2475144 20.8910246,51.3313373 21.1042287,51.2979698 C21.8255672,51.1848204 22.1742892,51.5599452 22.4678343,52.1497073 C23.0503074,53.3198795 23.6842634,54.4643044 24.2940939,55.6208525 C24.3174113,55.6651885 24.311986,55.7248806 24.3393435,55.9066123 C24.1515347,55.7916156 24.0319464,55.7381583 23.9363682,55.6566446 C22.865846,54.7435986 21.9144503,53.6921178 20.5993264,53.0764929 C19.6509319,52.6325549 18.6758725,52.4645627 17.6475987,52.3659611 C16.676464,52.2727861 15.7087922,52.0532994 14.7632836,51.8010226 C13.8363088,51.5536843 12.9598502,51.1935981 12.1232124,50.7517779 C12.7794533,51.7599338 13.3400784,52.8294952 13.8376214,53.9387732 C14.3887368,55.1673966 15.4383435,55.8657599 16.5702835,56.3906232 C18.0937389,57.0969095 19.6910065,57.6442784 21.2513104,58.2722543 C23.0396145,58.9920898 24.8570519,59.6534796 26.5912347,60.4861877 C27.35112,60.8509856 27.9533627,61.5594534 28.5914176,62.1503409 C28.8313935,62.3724117 28.9704966,62.7031067 29.1555452,62.9841973 C28.7908602,63.0027989 28.4255994,63.0437913 28.0614901,63.036098 C26.3276527,62.99878 24.5935851,62.8938303 22.8611295,62.9204697 C21.5526621,62.9406788 20.2469583,63.1268095 18.9390667,63.2281996 C18.7747454,63.24106 18.5919998,63.2210805 18.4396543,63.1607976 C15.9022892,62.1560822 13.5650576,60.7706083 11.3896139,59.1576669 C10.2105769,58.2835071 9.19804904,57.1555849 8.22720606,56.0408675 C7.08018117,54.7237143 6.02758057,53.3202129 4.99501635,51.9098221 C4.3249493,50.9943255 3.76600353,49.9983367 3.1522456,49.0415032 C3.03260311,48.8549132 2.8899303,48.6830207 2.68714837,48.5384565 C2.72215445,48.6593668 2.73908173,48.7892335 2.79469994,48.8998096 C3.73122775,50.7593943 4.4376827,52.7504532 5.79175013,54.3747622 C6.68486579,55.4460759 7.59939964,56.5108446 8.60444264,57.4749121 C9.68548568,58.5116636 10.8669409,59.4477139 12.0352688,60.3897351 C13.1275967,61.2704399 14.2610337,62.1001626 15.3739738,62.9552615 C15.5501557,63.0906397 15.7137861,63.2418638 15.9588286,63.4498111 C15.7127497,63.5944902 15.5545314,63.7455994 15.371901,63.7854435 C13.928476,64.100063 12.4750327,64.3703601 11.0359834,64.7026626 C10.2661951,64.8805259 9.52427346,65.1760845 8.75747909,65.3703677 C8.54387291,65.4244501 8.27361215,65.3421209 8.05113929,65.2620881 C6.11198668,64.5647582 4.29984625,63.6093025 2.48931795,62.6314561 C1.63224474,62.1687129 0.934886767,61.5821887 0.247086377,60.9341186 C-0.774999053,59.9710845 -1.86870876,59.0791269 -2.84070326,58.0695888 C-3.66426736,57.2143751 -4.37855261,56.2507669 -5.10320151,55.3061047 C-5.6302503,54.619109 -6.09557783,53.8848056 -6.64980239,53.203666 C-6.23065064,53.9734502 -5.85398982,54.7702182 -5.38175318,55.5061292 C-4.75498313,56.4828274 -4.10195852,57.4510286 -3.36982477,58.3496461 C-2.72140622,59.1454955 -1.96877549,59.8610825 -1.22789022,60.577014 C0.275298514,62.0296603 2.03688739,63.148052 3.76807626,64.2972168 C4.5106888,64.7901589 5.337362,65.1569088 6.12522911,65.582334 C6.25442918,65.6521473 6.38005956,65.7286205 6.66471426,65.8927049 C5.98405327,66.1770107 5.43489538,66.4285914 4.86961627,66.6361943 C4.30065232,66.8451751 3.691155,66.9575884 3.14476075,67.2098581 C2.59525741,67.4637353 2.08432984,67.4234319 1.53759014,67.2788677 C0.604401731,67.0319948 -0.333392741,66.8025752 -1.29064783,66.6234488 L1.37718399,67.654459 C0.531050174,68.2157218 -0.286871503,68.5305709 -1.09201135,68.8749299 C-2.58829099,69.5149623 -4.06545547,70.2017284 -5.57785633,70.8006536 C-5.92998986,70.9400507 -6.39289921,70.8236185 -6.80260854,70.79319 C-8.82501575,70.6429994 -10.7825926,70.1557985 -12.745121,69.6751427 C-15.6229893,68.9701195 -18.1507968,67.5190808 -20.6073255,65.9656185 C-22.1920415,64.9635441 -23.6462908,63.745829 -25.100425,62.5537198 C-25.760589,62.0124366 -26.2787711,61.2985719 -26.9915594,60.5209796 C-26.9519473,60.855923 -26.9847655,61.0677744 -26.9003593,61.2106163 C-26.4881167,61.9070276 -26.1131831,62.6421348 -25.5977647,63.2574799 C-24.523055,64.540645 -23.276424,65.6478988 -21.8020231,66.4762436 C-20.7236286,67.0821731 -19.6865734,67.7778955 -18.5630395,68.2832386 C-17.0523659,68.9624263 -15.4971286,69.5603181 -13.9225459,70.0761102 C-12.1695934,70.6502333 -10.4152591,71.2617893 -8.54588831,71.3901632 C-8.30395484,71.4066979 -8.06950623,71.5312826 -7.83137276,71.6058038 C-8.18960932,71.9878253 -8.55913075,72.1881943 -8.95122188,72.3231132 C-11.850969,73.3212836 -14.823607,74.0167763 -17.87213,74.3626281 C-19.2517611,74.519134 -20.6379558,74.6215576 -22.0228838,74.7251294 C-24.0122426,74.8740569 -26.0030982,75.0017419 -27.8828326,75.1308048 C-27.1830565,75.5147783 -24.3211942,75.7137694 -18.5023546,75.4548398 C-15.3442073,75.3142945 -12.3215935,74.2892551 -9.28343419,73.4448349 C-9.72273747,74.2891403 -10.2302105,74.9856665 -10.6797623,75.7177882 C-11.3423444,76.7970248 -12.0658418,77.8563967 -12.5796482,79.005906 C-13.4353396,80.9204917 -14.4715887,82.6963692 -15.8740198,84.2601657 C-16.6739778,85.1522382 -17.4256873,86.0882885 -18.2457969,86.9610704 C-19.361846,88.1488163 -20.5224588,89.2948808 -21.6410412,90.494798 C-21.2951259,90.260441 -20.9223802,90.0570866 -20.6075558,89.786445 C-18.8397487,88.2674301 -17.0023901,86.8152431 -15.3558376,85.1737104 C-14.2241279,84.045214 -13.3209941,82.6758156 -12.3998966,81.3555622 C-11.9380236,80.6934834 -11.692175,79.8856922 -11.2992778,79.1705645 C-10.651435,77.991086 -10.0099255,76.8035698 -9.27871297,75.6755328 C-8.67048233,74.7374156 -7.98890012,73.8331718 -7.23776636,73.0063197 C-6.84866917,72.577909 -6.26842035,72.2781019 -5.72098974,72.0456969 C-4.36093442,71.4683587 -2.96829121,70.9676086 -1.59246012,70.4267846 C-1.04341739,70.2110292 -0.503932232,69.9709309 0.0398135315,69.7419706 C0.667159342,69.477874 1.28437181,69.1856453 1.92484491,68.9587519 C2.41366336,68.7855963 2.93207578,68.6951145 3.47582154,68.5581288 C2.64523319,70.3102376 1.72655388,71.7345222 0.945941319,73.2304573 C0.282553063,74.5020252 -0.21018055,75.8614338 -0.802635432,77.1711234 C-1.23825386,78.1342723 -1.71463595,79.0791641 -2.1699453,80.0335863 C-2.92476391,81.6156399 -3.9911827,82.9951429 -5.0696924,84.3567332 C-5.9729414,85.4969417 -6.97015409,86.5630883 -7.92268796,87.6647157 C-8.05062137,87.812495 -8.16070628,87.9756607 -8.27896695,88.1315926 C-7.56329988,87.7383183 -6.91626315,87.28545 -6.36157798,86.7392292 C-5.3098986,85.7033964 -4.23772223,84.6728454 -3.31489746,83.527355 C-2.64460011,82.695221 -2.13908468,81.7112888 -1.67041774,80.7419394 C-0.936096114,79.2233838 -0.320150309,77.6483345 0.392753126,76.1189854 C1.03610501,74.7386787 1.64825081,73.3297806 2.44602096,72.0390371 C3.30505175,70.6488554 3.96867031,69.0975748 5.24754376,68.0052482 C5.65115005,67.6604299 6.18004126,67.4373257 6.68325367,67.2382198 C7.54032688,66.8994872 8.41121829,66.5846381 9.2970794,66.3314498 C10.4394982,66.0047737 11.6012625,65.7453849 12.7565783,65.4645239 C13.1102088,65.3785203 13.4698272,65.3170891 13.8267971,65.2444051 C13.7869547,65.5617804 13.6705364,65.7437774 13.5285545,65.9031539 C12.175178,67.4221688 10.7859893,68.9112145 9.47637041,70.4667436 C8.95600041,71.0847297 8.57530929,71.8300563 8.19104846,72.5492029 C7.55322386,73.7429196 6.97435686,74.9677538 6.35138681,76.1696231 C5.62362882,77.5732392 4.84209505,78.9501012 4.14727041,80.3695632 C3.64682164,81.3917319 3.20740321,82.4395066 2.44820884,83.3104513 C2.39351184,83.3732604 2.38533608,83.4766025 2.45949369,83.6270228 C3.18471835,82.6357418 3.95669454,81.6746598 4.6238828,80.6458312 C5.56996819,79.1870993 6.47759295,77.7000056 7.32729646,76.1836317 C7.91641194,75.1324123 8.3101152,73.9710761 8.914661,72.9303058 C10.1505829,70.8021463 11.6452504,68.867007 13.5572273,67.2811642 C14.1425428,66.7956857 14.7492764,66.3292681 15.2870343,65.7949892 C16.1309802,64.9567694 17.160896,64.751463 18.2847754,64.7679978 C19.4316852,64.7846473 20.5805525,64.7572043 21.7251592,64.8165686 C22.6316324,64.8637615 23.5326935,65.0129187 24.6162699,65.1375034 C24.3657001,65.4017148 24.2499727,65.5550057 24.1049969,65.6722416 C21.8817653,67.4684431 19.5752792,69.1722108 17.455684,71.0826628 C15.9627438,72.4282926 14.6898582,74.025503 13.3796635,75.562086 C12.2160568,76.926547 11.2687048,78.4550923 10.5233286,80.0806644 C10.0446435,81.1247647 9.74640086,82.2518831 9.38344308,83.3470804 C9.27877029,83.6631925 9.22983087,83.9975618 9.12884294,84.4399811 C9.61224927,83.3002319 9.99593434,82.2495867 10.495577,81.256813 C11.0564804,80.1424401 11.6749595,79.0502283 12.3526266,78.0024537 C13.5033363,76.223361 14.7887734,74.530272 16.3624349,73.1041503 C17.8391388,71.766099 19.3634003,70.4644471 20.9756375,69.2961066 C22.1177109,68.4684508 23.4363117,67.8807784 24.685476,67.2030835 C25.3480582,66.8435676 26.0768526,66.5873939 26.6930287,66.1647244 C27.4910291,65.6172406 28.2864962,65.7715649 29.0873755,66.0009845 C29.9223396,66.2401642 30.7296673,66.5738445 31.5564557,66.843912 C31.8821043,66.9502396 31.9908074,67.1201801 31.8717407,67.4393925 C31.8253346,67.5634031 31.8086376,67.7003889 31.7506012,67.8177396 C30.9879523,69.360638 30.8435522,71.0487896 30.5686854,72.709498 C30.4021762,73.7155914 30.13537,74.7054944 29.9726608,75.7121618 C29.8821517,76.2712429 29.9198063,76.8504183 29.8854911,77.4196039 C29.8713274,77.6547647 29.8202001,77.8875142 29.7826607,78.1441472 C30.8405583,78.7656929 31.5018738,78.3895275 31.7021224,77.4297085 C31.9176862,76.396861 32.130256,75.3601095 32.2678621,74.3149759 C32.4228562,73.1388273 32.4887229,71.9511963 32.6037593,70.7695361 C32.6198805,70.6040738 32.6645593,70.4247178 32.7525351,70.2881913 C32.8203594,70.1831268 32.9823777,70.0719766 33.0926929,70.0810477 C33.1852748,70.0887409 33.3316324,70.2625854 33.33739,70.3691427 C33.3746991,71.0582052 33.3961173,71.7489901 33.3918567,72.4389712 C33.3855234,73.4489686 33.3590385,74.4589659 33.3301355,75.4687336 C33.3090627,76.2053336 33.26899,76.9413594 33.2402021,77.6777296 C33.2337536,77.8408954 33.2391657,78.0045205 33.3475234,78.182269 C33.4477052,77.5973524 33.6203175,77.014273 33.6348266,76.4272895 C33.6798508,74.6124864 33.6307962,72.7951572 33.686069,70.9809282 C33.7161236,69.9934365 33.883554,69.0103081 33.9953662,67.9640262 C34.2747239,68.0402697 34.4620755,68.0913667 34.7198999,68.1617542 C34.3472694,66.760779 34.7907181,65.2767857 34.0037722,63.8713323 C34.1475965,63.7879696 34.3891846,63.6482281 34.5942695,63.5293846 C33.9814328,62.3972139 33.2282263,61.3179773 32.7905352,60.1238012 C32.1468378,58.3672142 31.786874,56.5107298 32.390844,54.6501117 C32.6335836,53.9021441 33.0922323,53.2264012 33.4150022,52.5010541 C33.9964025,51.1940055 34.0545541,49.807613 33.9763661,48.4061786 C33.9691116,48.273671 33.9589783,48.1408189 33.9623176,48.0084261 C33.9647358,47.9172553 33.9883419,47.8267735 34.0075722,47.7027629 C34.8591182,47.6223857 35.4565246,48.1483973 35.9695248,48.6118295 C37.3892287,49.8944204 38.2553989,51.5574254 38.8389871,53.3586792 C39.283357,54.7309482 39.7056179,56.1121735 40.0742181,57.5060296 C40.3724607,58.633837 40.5634972,59.7893171 40.8271943,60.926655 C40.9417701,61.4208601 41.0791459,61.9178211 41.27974,62.3819422 C41.472734,62.8283803 41.8680494,63.1142936 42.3711467,63.065608 C43.0842804,62.9965984 43.7799111,62.8261986 44.1366507,62.0956844 C44.5256327,61.2989164 44.5190691,60.42579 44.2179477,59.659106 C43.5406261,57.9351292 42.7608196,56.2485852 41.9671949,54.5730644 C40.8372125,52.1874681 39.9645938,49.7201167 39.5468239,47.1142868 C39.2751813,45.4200495 39.515042,43.7457918 40.1362848,42.1531743 C40.6654063,40.7972104 41.2869945,39.4764976 41.88371,38.1474027 C41.9956374,37.8982332 42.1832193,37.6829371 42.3968255,37.3597058 C42.7490742,37.7836383 43.0485834,38.1176631 43.318729,38.4739639 C44.4940812,40.024211 45.5239969,41.6562134 46.1569852,43.5123533 C46.6626158,44.9947391 46.770628,46.4997454 46.6321006,48.0615899 C46.4781429,49.8012977 46.4578763,51.5566216 47.21281,53.2066514 C47.3739071,53.558474 47.4940102,53.9663311 47.7548285,54.2273274 C48.286944,54.7596544 48.9473383,54.8917027 49.6321447,54.4727076 C50.2285148,54.1080246 50.5043028,53.5433172 50.5788059,52.8650482 C50.7113453,51.6589304 50.3157997,50.5427202 49.8289388,49.4993089 C48.9681807,47.6541921 47.9635983,45.8761329 47.0457251,44.0567368 C46.6117188,43.1961263 46.097567,42.3380419 45.881082,41.4176078 C45.6875122,40.5947746 45.7933365,39.682493 45.8730214,38.8193563 C46.0416033,36.9920373 46.883131,35.4227293 47.9313559,33.9579116 C48.1584348,33.6404216 48.4384834,33.298359 48.7757624,33.1327819 C49.9150722,32.5731267 50.7063938,31.6559077 51.4458973,30.6867879 C52.1227583,29.7998825 52.7709465,28.8879454 53.3783711,27.9526989 C53.9629957,27.0529332 54.4784142,26.1086155 55.0279175,25.1861145 C55.0544024,25.1415626 55.1161236,25.1179087 55.2989843,24.9832194 C55.3923722,25.6776787 55.5328572,26.2879716 55.5454087,26.9007906 C55.5789178,28.550361 55.6427118,30.2069358 55.5283663,31.8491575 C55.4516753,32.9512442 55.195463,34.0692915 54.8338871,35.1163772 C54.284614,36.7075019 54.1048624,38.3416859 54.1095836,39.984941 C54.1134988,41.3418235 54.2758625,42.7207524 55.1249903,43.8879446 C55.5039541,44.4087891 56.0715363,44.4465664 56.3382273,43.8688838 C56.6596154,43.1725873 56.9763974,42.3967173 56.9857247,41.6512759 C57.0033429,40.2555827 56.790773,38.8574781 56.6879427,37.4593735 C56.6004275,36.270135 56.3893546,35.0664285 56.495985,33.8929209 C56.6042275,32.7001227 56.9317186,31.4983683 57.3524824,30.3707905 C57.7665675,29.2612402 58.3773315,28.2158769 58.9815319,27.1887707 C59.3229563,26.6081026 59.7956535,26.0942624 60.2592538,25.5966125 C61.7572607,23.9889531 63.086916,22.2637132 64.1845409,20.3560169 C64.557632,19.7076023 65.0510565,19.1279677 65.6010205,18.3612837 C65.8474449,19.0106169 66.0825844,19.5005735 66.2201905,20.0163657 C66.7495423,22.0005351 67.2019729,23.9957277 67.0407607,26.0780722 C66.9465667,27.2930315 66.404433,28.3100331 65.8073721,29.338632 C64.6794624,31.2818091 63.7613588,33.3168458 63.4973162,35.5845172 C63.4190132,36.2584229 63.2915404,36.9318692 63.286704,37.6061194 C63.2847464,37.8999556 63.4714071,38.3633878 63.6876618,38.4447984 C63.9162377,38.5308021 64.4296986,38.340997 64.5618926,38.1193855 C65.0617656,37.2815102 65.618869,36.4228517 65.8558509,35.4961022 C66.2519724,33.9464292 66.4290755,32.3401476 66.6789544,30.7546492 C66.9337849,29.1375741 67.5268155,27.6358978 68.3141069,26.2220622 C69.2509801,24.5398816 70.4242596,23.0178813 71.8061937,21.6674289 C72.4995214,20.9898488 73.2576794,20.4579812 74.2323223,20.1626523 C75.0282501,19.9215206 75.7836444,19.4417833 76.4602751,18.938507 C77.5287666,18.1434614 78.5169975,17.2410547 79.5373557,16.3819369 C79.7227497,16.2258902 79.8991619,16.0591649 80.1978651,15.7916235 C80.2825015,16.4694333 80.3872895,17.0193284 80.4133137,17.5730127 C80.475841,18.9081933 80.6015866,20.2514117 80.5174108,21.5798177 C80.4047925,23.357877 80.1268166,25.1260613 79.9029619,26.8963124 C79.7429012,28.1608759 79.2119373,29.2967211 78.585743,30.386177 C78.1761488,31.098549 77.5560576,31.4997462 76.7609359,31.8203365 C75.5945655,32.2906582 74.4778255,32.94091 73.4415764,33.6600566 C72.1485393,34.557411 71.008769,35.6589235 70.0697079,36.9330175 C69.7500471,37.3664804 69.5041984,37.8694123 69.3074044,38.3729182 C69.1545982,38.7640109 69.4759863,39.0724298 69.8764835,38.9285545 C70.3320232,38.7650443 70.8078295,38.5789136 71.1828782,38.2856515 C72.3512061,37.371992 73.4973098,36.4271002 74.6133589,35.450402 C76.8586996,33.4854083 79.4090768,32.489764 82.42743,32.8750006 C82.7487029,32.9158782 83.0750425,32.9165672 83.398273,32.9463067 C83.5163034,33.1469053 83.49857,33.2526588 83.4359276,33.3038706 C82.0565268,34.4348931 81.3218597,36.0195876 80.4599501,37.5117336 C79.5590042,39.0712815 78.687537,40.6475939 77.793385,42.2110459 C77.5319909,42.6680479 77.2332877,43.1035777 76.9577299,43.5526568 C76.1561598,44.8592461 74.9992319,45.7262868 73.537728,46.1289767 C71.9680968,46.5615211 70.372902,46.9022057 68.7865738,47.2733189 C67.5831246,47.554754 66.3748391,47.8162097 65.1711596,48.0970707 C64.7396866,48.1976571 64.3320501,48.422943 64.3283652,48.8963649 C64.3242197,49.4347775 64.6967351,49.7790217 65.1938445,49.9908731 C66.4823907,50.5404237 67.8114702,50.4293883 69.063283,50.0126898 C70.3460716,49.5855422 71.5468723,48.9161147 72.789473,48.3662196 C75.5435534,47.1474711 78.3607368,46.6017097 81.3052779,47.6458099 C81.8015812,47.8218361 82.2768118,48.0598675 82.7546908,48.2846941 C83.1983699,48.4935601 83.2976305,48.7659241 83.0392304,49.2446279 C82.2137087,50.7743215 81.0794656,52.0364737 79.7826285,53.1707113 C78.1649791,54.5854654 76.4516388,55.8983701 74.4188679,56.6193539 C72.5900305,57.2679982 70.6824294,57.5760726 68.742701,56.8525627 C68.1124764,56.6175167 67.4049851,56.5513777 66.7254757,56.4916689 C64.9980868,56.3399856 63.2673585,56.1625815 61.5360545,56.137435 C60.3107266,56.1195223 59.069738,56.286018 57.955301,56.8965405 C57.741119,57.0137764 57.5290098,57.166608 57.3719431,57.3507867 C56.7257124,58.108744 57.0443368,59.0372159 58.0326828,59.1833876 C59.609914,59.4164816 61.1805816,59.3478165 62.7437643,58.9877265 C63.5375041,58.8048108 64.3587652,58.7446427 65.1617172,58.5976672 C65.9819419,58.4475915 66.7928393,58.2486004 67.6114519,58.0897979 C69.2877135,57.7644998 70.9556841,57.4362162 72.6907881,57.656335 C73.5068674,57.7599068 74.3501224,57.6411782 75.1810562,57.6403744 C75.654905,57.6399151 76.1309416,57.6518569 76.6021419,57.6974422 C77.6250334,57.7967655 78.6459673,57.9167572 79.6662103,58.0396196 C79.846768,58.0613214 80.0205317,58.1384836 80.2655743,58.2100193 C80.1313075,58.4258896 80.0520832,58.596519 79.9348589,58.735342 C78.4566581,60.486647 76.6724995,61.8562751 74.622571,62.8727026 C73.2801339,63.5383409 71.9464483,64.2465792 70.5441324,64.7589266 C69.3771862,65.1852704 68.1173128,65.3615262 66.8955545,65.6350385 C65.6642387,65.9107324 64.4888865,65.5798078 63.2908495,65.33615 C61.2979211,64.9308191 59.3033805,64.4476371 57.2487309,64.5308849 C56.4042092,64.5651027 55.527445,64.6695931 54.9309599,65.4052744 C54.4975293,65.9400127 54.5556809,66.6024359 55.1345479,66.9327863 C55.6199118,67.2097433 56.1711424,67.4300917 56.7196094,67.5256258 C57.5819795,67.6761609 58.4668043,67.7634276 59.341726,67.7594087 C60.0942416,67.7561936 60.8479087,67.6000322 61.5978909,67.4908339 C63.7629709,67.1756404 65.9178025,66.7252982 68.0937067,66.574878 C69.4366045,66.4819849 70.8246416,66.7654868 72.1667333,67.0169527 C73.5044492,67.2673852 74.8125712,67.6794908 76.126681,68.0457813 C76.3197902,68.0994044 76.4743236,68.2910467 76.6467055,68.4189613 C76.4898691,68.5467611 76.3417841,68.6875361 76.1746992,68.8001791 C75.231032,69.4363075 74.3083224,70.1089501 73.3286127,70.6849104 C72.354891,71.2571963 71.5996118,72.0277843 70.8525083,72.8989587 C71.8853028,73.3641132 72.8462428,73.7801228 73.7904857,74.2308094 C74.1450374,74.4000609 74.5533649,74.5812542 74.7749166,74.8776165 C75.215832,75.4674706 75.8867051,75.6516492 76.4539418,76.0157581 C77.0009118,76.4892948 77.3157362,77.0514762 77.790391,77.2701022 C78.378355,77.5410883 78.9045977,77.9063455 79.0181372,78.4433802 C79.1779676,79.19973 79.6700103,79.4610708 80.2093803,79.8437812 C80.7748897,80.2449785 81.1706657,80.8527452 81.2647445,81.6065688 C81.2892718,81.8028041 81.4877931,81.9968577 81.6447447,82.1535933 C82.0872723,82.5950939 82.2993815,83.0984851 82.3038724,83.7378285 C82.3057148,84.0165079 82.506424,84.3319311 82.6983817,84.5634175 C83.0954243,85.0415473 83.6710671,85.3918772 83.7133277,86.1011488 C83.7210429,86.2315896 83.763649,86.3705274 83.7329035,86.4910932 C83.5985216,87.0177938 83.5850489,87.5014351 84.0348309,87.9103255 C84.1369704,88.002989 84.2411826,88.209214 84.2057159,88.318527 C83.9283157,89.1745446 84.4754009,89.9296313 84.4736736,90.7464936 C84.4734433,90.9182712 84.5132858,91.1218553 84.4372857,91.2557408 C84.1879825,91.694945 84.3185644,92.0414857 84.5248009,92.4677146 C84.8745163,93.1904208 84.4158675,93.8479066 84.1824553,94.5135449 C84.116128,94.702661 84.0062733,94.8994704 84.0156006,95.0878976 C84.0544067,95.8734128 83.7645702,96.5215978 83.2939457,97.1279866 C83.1580668,97.3030942 83.1650911,97.582118 83.0524728,97.7834055 C82.8204424,98.1976928 82.5499513,98.5906226 82.2991512,98.9946904 C82.1693753,99.2035564 81.9887025,99.4032364 81.9342358,99.6317374 C81.825763,100.085524 81.6678902,100.462494 81.2990597,100.795255 C80.3583864,101.644154 79.488992,102.571707 78.5464763,103.418309 C78.0785003,103.838567 77.5072333,104.142967 76.9920451,104.512243 C76.4390872,104.908618 75.9126142,105.343573 75.3439957,105.715031 C75.0345834,105.917237 74.6572317,106.013805 74.3192618,106.176281 C74.1769344,106.244602 74.064201,106.372402 73.9256737,106.451746 C73.4428431,106.728243 72.9750974,107.045848 72.4632486,107.253566 C71.820127,107.514562 71.1428054,107.695526 70.4730838,107.88579 C70.0929685,107.993725 69.6991501,108.11521 69.3103983,108.119458 C68.1928522,108.131056 67.0505486,108.222801 65.9625964,108.031158 C64.3557713,107.748001 62.7005825,107.54258 61.2593453,106.644536 C61.0364118,106.505598 60.7180177,106.524544 60.4481024,106.453698 C59.6264959,106.238057 58.9065682,105.870274 58.2679375,105.276401 C57.4656765,104.530041 56.5649608,103.890008 55.7235482,103.183952 C55.0755902,102.640372 54.4339656,102.086114 53.8271168,101.498097 C53.4204014,101.104248 53.0708012,100.650002 52.7104919,100.210568 C52.0672552,99.4260865 51.3173881,98.6979836 50.8292606,97.8255462 C50.2552299,96.7998179 49.9127691,95.6453711 49.4689749,94.5469588 C49.4003446,94.3766739 49.300393,94.2140823 49.2612415,94.0375968 C49.1436717,93.508485 49.0373868,92.9763877 48.9503322,92.4415346 C48.9054231,92.1645777 49.0051444,91.8214817 48.8745625,91.609171 C48.5071138,91.0119681 48.6561199,90.4056941 48.679726,89.7846078 C48.6959624,89.3589529 48.6950412,88.8898944 48.5357865,88.5094804 C48.2323621,87.784937 48.2225742,87.0861144 48.3689319,86.3358504 C48.4718774,85.8094943 48.448041,85.2598289 48.510338,84.7240572 C48.5636532,84.2653328 48.6570411,83.8112015 48.7360351,83.355807 C48.8489988,82.7025698 48.9589686,82.0488732 49.0839081,81.3980473 C49.114999,81.2362594 49.2050475,81.0866429 49.2564051,80.9277256 C49.3558961,80.6195364 49.4280961,80.3014722 49.5463568,80.0009761 C49.7089508,79.5881816 49.9165691,79.1930701 50.0795086,78.7803905 C50.1665632,78.5601568 50.2810239,78.3047869 50.243139,78.0898352 C50.1190056,77.3850417 50.0516419,76.720322 50.4157512,76.0415936 C50.6657453,75.5755205 50.4272664,74.9915225 49.9845086,74.7216847 C48.8022473,74.0016195 47.5491678,73.4502317 46.1422458,73.4355341 C45.2098634,73.4256592 44.2767902,73.5594299 43.3429109,73.5848061 C42.5432983,73.606508 41.7412675,73.577687 40.9416549,73.5404838 C40.8055458,73.5340536 40.6242972,73.3986754 40.5625759,73.2740907 C40.5214668,73.190728 40.6204972,72.9842734 40.7158427,72.8966622 C41.3708249,72.2939477 42.0412374,71.7078829 42.8012378,71.0325993 C41.621625,70.6165897 40.6897033,70.2733789 39.7440785,69.9733422 C39.6270845,69.936139 39.4267208,70.1152654 39.282551,70.2184928 C38.9373265,70.4659398 38.6025809,70.7277399 38.1717988,71.0531529 C37.7525319,68.7875484 37.2738468,66.6984293 35.8657733,64.7458366 C35.724252,65.2230477 35.5652276,65.544327 35.5409307,65.8757109 C35.3981427,67.8235957 35.3009548,69.7748104 35.1587426,71.7228101 C35.0886153,72.6826291 34.9150818,73.6357882 34.8644151,74.5959517 C34.8306757,75.2358693 34.8826091,75.8909438 34.988894,76.5237422 C35.0608637,76.9526122 35.2297911,77.337045 35.7538459,77.5509633 C36.2371371,77.748232 36.6167919,78.1961628 37.0448103,78.5304173 C37.2092468,78.658906 37.3699984,78.7979586 37.551247,78.8982005 C38.5503021,79.4506218 39.2181812,80.3242075 39.9715029,81.1535857 C41.1936066,82.4991006 41.8451342,84.1563643 42.8015833,85.6410466 C42.9110924,85.810987 42.9393046,86.0339764 43.0003349,86.2338861 C43.2641472,87.0989748 43.5216261,87.9661303 43.7902747,88.8297263 C44.0791901,89.7585426 44.5131964,90.6673794 44.6315722,91.6162901 C44.7352086,92.4467017 44.4848691,93.3201726 44.4002327,94.1755012 C44.3815781,94.3639284 44.4067963,94.5562596 44.4029963,94.7466388 C44.3981599,94.9850148 44.3985054,95.2249982 44.3710993,95.4611925 C44.3077659,96.0053463 44.2405174,96.5495002 44.1513901,97.08975 C44.1095901,97.3432828 44.0203476,97.5899261 43.9406627,97.8358804 C43.8252808,98.1926405 43.6520928,98.5376885 43.5877231,98.9024863 C43.4688867,99.5769661 43.0404077,100.077601 42.7539105,100.654251 C42.3420133,101.48294 41.7101766,102.141689 41.2960915,102.895053 C40.8022064,103.793556 40.2221879,104.404193 39.4069147,104.961552 C38.6259567,105.495371 38.0650533,106.381129 37.2501256,106.825155 C36.249228,107.370228 35.2203487,108.051367 33.9559843,107.884068 C33.8112388,107.864892 33.6278023,107.868911 33.5119598,107.941251 C32.8359049,108.363576 32.1418863,108.295025 31.412401,108.114062 C31.0049948,108.013016 30.5699521,108.025876 30.148267,107.979602 C29.7749456,107.938495 29.3920666,107.926438 29.0325633,107.83033 C28.4168478,107.665557 27.7739566,107.524322 27.2190411,107.229682 C26.4013497,106.795645 25.3500158,106.814477 24.7428215,105.959952 C24.6500093,105.829281 24.4125668,105.731336 24.2453667,105.735929 C23.7241906,105.750627 23.3904813,105.49606 23.1037539,105.104623 C23.0071417,104.972575 22.8494992,104.880945 22.710281,104.784722 C21.7606259,104.127351 20.7788435,103.511776 19.867649,102.805375 C19.2610305,102.335053 18.6342605,101.812487 18.2307693,101.177736 C17.6318659,100.235485 16.8051928,99.4227566 16.5557744,98.2514307 C16.3979016,97.5098933 15.9310771,96.8343801 15.7683679,96.0930723 C15.61418,95.3911494 15.2072343,94.7090912 15.4460586,93.9334509 C15.4863617,93.802436 15.3950465,93.5670455 15.2850767,93.4657702 C14.8956341,93.1070581 14.9983493,92.674399 15.0254099,92.2404767 C15.0403796,92.0016415 15.0206887,91.7602802 15.0112463,91.5202967 C15.0971494,90.2844393 15.3404646,89.3396624 15.1240948,88.3708871 C16.0094953,87.0314579 16.0317196,85.4063451 17.1240475,84.256032 C17.6020417,83.7526409 17.7637145,82.9618438 18.1313935,82.3380016 C18.3245027,82.0102922 18.6592483,81.7674381 18.9168424,81.4747501 C19.2275214,81.1217793 19.4962852,80.7279308 19.8331036,80.4032068 C20.4284372,79.8291985 21.0053467,79.2077677 21.6922258,78.7635112 C22.62219,78.1624044 23.6483057,77.7090768 24.6340033,77.1939735 C25.5966705,77.2235983 26.125792,76.7989768 26.7149075,76.5437217 C27.0578289,76.3951387 27.4278109,76.2917965 27.7958354,76.2212942 C28.7306359,76.0420529 28.9724542,75.8252641 29.1539331,74.9470854 C29.3256241,74.1164441 29.52,73.2900513 29.6821334,72.4575728 C29.8145577,71.7776963 29.9140487,71.0912747 30.0235578,70.4347075 C28.5907267,71.0738213 27.1739017,71.7442823 25.7255251,72.3380404 C24.7119609,72.7535907 23.6484209,73.0459342 22.6196567,73.4270371 C21.7164077,73.7615212 20.8190314,74.1172479 19.9414612,74.5130483 C19.4282306,74.7443051 18.9272061,75.0301036 18.4765028,75.3659656 C17.6257629,75.9997975 17.2842233,76.9848779 16.8998474,77.911857 C16.1477924,79.7262008 15.4414526,81.55995 14.3521186,83.2104391 C13.592694,84.3609817 12.8982148,85.5684774 12.0226022,86.6250936 C11.0697228,87.7748325 9.94641916,88.7950492 8.49723652,89.3301319 C8.10387872,89.4753851 7.6615815,89.4892789 7.22918731,89.5657521 C6.67116275,87.1640803 6.54276874,84.8335999 7.31059948,82.5612207 C7.79435127,81.1295873 8.4485274,79.7449173 9.13494597,78.3943501 C9.99961919,76.6926492 10.9143833,75.0093203 11.9232263,73.3898339 C12.6624995,72.2030066 13.5290151,71.0861076 14.7818643,70.3349249 C15.1260524,70.1284703 15.3496768,69.7221059 15.6748648,69.3555858 C14.9517129,68.9766645 14.4683066,69.3530596 13.9966457,69.5528545 C12.6310631,70.1309964 11.7218262,71.1933538 10.9840501,72.4505685 C9.71830388,74.6074342 8.99066104,76.9907339 8.0294908,79.2751697 C7.29701159,81.0163703 6.48956871,82.6885612 5.00998605,83.9576029 C3.6875853,85.0918404 2.29494209,86.1164205 0.791868504,86.9981588 C0.403692526,87.225856 0.062728696,87.5327822 -0.376344281,87.8603768 C-0.446356442,87.6490995 -0.543659527,87.4881154 -0.547344378,87.3248348 C-0.586380764,85.5875383 -0.447047351,83.8834262 0.0742438541,82.1983749 C0.559838069,80.6286075 1.37718399,79.2704619 2.32027543,77.9587055 C3.25956688,76.6521161 4.23513107,75.366999 5.09393155,74.0091979 C5.54129544,73.3019931 5.80107741,72.4683663 6.07985939,71.6690722 C6.15793216,71.4456235 6.0881503,71.0111271 5.931429,70.9085887 C5.75812587,70.7953716 5.36050746,70.8739117 5.14160431,71.0042376 C3.75598534,71.8283339 2.92090608,73.1081691 2.38349365,74.5776946 C1.54645681,76.8667234 0.786226077,79.1836545 -0.0513865203,81.4723388 C-0.627605029,83.0466992 -1.47109036,84.4883222 -2.50043034,85.8132835 C-3.73117043,87.3975188 -5.21570461,88.7312067 -6.78130549,89.9714274 C-7.64309992,90.6541746 -8.53345194,91.3130383 -9.4698646,91.8868169 C-10.3672409,92.436712 -11.3410778,92.8625965 -12.433636,93.2699943 C-12.2964904,92.7213622 -12.1592298,92.1726154 -11.9982479,91.5281048 C-11.9319205,91.5441802 -11.7419204,91.5897656 -11.499987,91.6479817 C-12.2416783,91.3554086 -12.2100116,91.0195466 -12.203448,90.4871048 C-12.179151,88.5288858 -11.5974052,86.7340621 -10.7113138,85.0355764 C-10.3476651,84.3384761 -9.80771933,83.7132561 -9.26512509,83.1321287 C-7.8602758,81.6274669 -6.39900225,80.1752799 -4.98068023,78.6827895 C-4.15423734,77.8128782 -3.30844898,76.9497416 -2.58748493,75.9962379 C-2.23166655,75.5256866 -2.09233313,74.868775 -1.9437876,74.2742131 C-1.83692693,73.8458025 -2.15497559,73.5802131 -2.55627885,73.6967601 C-3.23947318,73.8954067 -3.9619342,74.0900344 -4.54667392,74.4712522 C-6.34361434,75.6425781 -7.85820308,77.1457472 -9.27617964,78.7470913 C-10.0664649,79.6396231 -10.4062773,80.7557184 -10.8590533,81.8173868 C-11.4531203,83.2103242 -12.0294539,84.6111846 -12.6513876,85.9918358 C-13.3983759,87.6501329 -14.4659462,89.1204622 -15.594662,90.5260303 C-16.3641049,91.484127 -17.3291903,92.2859473 -18.2508635,93.2015588 C-18.1298392,93.628936 -17.6595602,94.1814721 -18.397106,94.7108136 C-18.0275846,94.8770796 -17.7425844,95.0053387 -17.457354,95.1338275 C-17.7713723,95.2579529 -18.2909363,95.1863023 -18.1062331,95.7963655 C-17.6075116,95.8246124 -17.3726024,95.6238989 -17.4737055,95.1185558 C-17.4381237,95.4679671 -17.4025418,95.8172636 -17.3617782,96.2201832 C-17.6654329,96.5249277 -17.7159844,96.8104965 -17.7368269,97.0983619 C-17.7482269,97.2562457 -17.7431602,97.4311236 -17.6855844,97.5745396 C-17.5939238,97.8031554 -17.4522873,98.0117917 -17.3347175,98.2235283 C-17.1927357,97.9679287 -17.0282992,97.6721405 -16.8972567,97.4362907 C-16.6405838,97.7223188 -16.4343473,97.9408301 -16.2429654,98.1717424 C-16.5167959,98.9268291 -15.967638,99.2841633 -15.8932501,99.7090144 C-15.906838,99.4922255 -15.9204258,99.2753218 -15.9386198,98.9850452 C-15.332577,99.2753218 -14.8139343,99.2757811 -14.3879886,98.5313731 C-14.2555643,99.2687768 -14.1183036,99.8209684 -14.079843,100.37982 C-14.0685581,100.544019 -14.3378977,100.727509 -14.5077462,100.938212 C-14.2663885,101.105626 -13.9900247,101.380172 -13.8341095,100.65804 C-13.3935396,101.310588 -13.4709214,101.8792 -13.7598367,102.485474 C-13.4636669,102.373864 -13.1676122,102.262369 -12.844612,102.140655 C-12.7781695,102.310481 -12.7171392,102.466528 -12.656224,102.622345 C-12.7973998,102.680101 -12.9230302,102.731658 -13.1458485,102.822943 C-12.9292484,102.97899 -12.788418,103.08061 -12.6284725,103.195894 C-12.4144057,102.934553 -12.2064419,102.680905 -11.9747569,102.398092 C-11.9399812,102.862558 -11.9103872,103.259506 -11.8777993,103.694807 C-11.7329386,103.682635 -11.5952173,103.671038 -11.4572657,103.659441 C-11.535684,103.945584 -11.4938839,104.139982 -11.3949687,104.299473 C-11.157411,104.682872 -10.893023,105.049737 -10.6333562,105.432333 C-10.191865,105.258833 -10.1882953,105.260785 -10.0246649,105.809072 C-10.1303741,105.794375 -10.2122468,105.729843 -10.4171015,105.568285 C-10.3908469,106.012886 -10.3709257,106.350241 -10.3417924,106.842035 C-10.205568,106.582186 -10.1411983,106.459439 -10.0767134,106.336577 C-9.8163557,106.751323 -9.74737991,107.17893 -9.65698592,107.739733 C-9.55887677,107.437859 -9.50118583,107.260226 -9.44337973,107.082592 C-9.30404632,107.272971 -9.27802206,107.474948 -9.24681599,107.71562 C-9.09389469,107.740422 -8.93279763,107.766488 -8.73542782,107.798524 C-8.66564596,108.17067 -8.83583999,108.709198 -8.16473658,108.796924 C-8.10485776,108.64857 -8.0493547,108.510551 -7.96771223,108.308 C-7.76746363,109.210752 -7.6193787,109.316161 -7.15716025,108.995341 C-7.11927538,109.253581 -7.07920263,109.526634 -7.03222079,109.846765 C-7.18157239,109.827245 -7.33080884,109.807725 -7.47993013,109.788205 C-7.26194819,110.075725 -6.98443288,110.27242 -6.65014784,110.509074 C-6.70004686,110.540459 -6.78951964,111.295507 -6.91856618,112.774219 C-6.71256,112.152099 -6.61709934,111.541806 -6.50125685,110.801302 C-6.26266278,111.220412 -6.09258389,111.519186 -5.92238986,111.817959 C-6.37205678,112.26279 -6.55491749,112.782716 -6.7377782,113.302642 C-6.80686915,113.402654 -6.70150545,113.517708 -6.63252965,113.593033 C-6.2243173,113.442613 -5.87794134,113.314928 -5.53168054,113.187243 C-5.82105646,113.136146 -6.07300812,113.203548 -6.41489317,113.295063 C-6.28189309,112.66571 -5.97328685,112.639759 -5.57290481,112.736097 C-5.12865001,112.842884 -4.67679521,112.917979 -4.0494494,113.042334 L-4.0494494,114.223765 C-3.95283722,114.134776 -3.87269172,114.061173 -3.73854013,113.937737 C-3.48324908,114.242826 -3.24453985,114.527935 -2.96460636,114.862534 C-2.42500605,114.624388 -2.31353932,115.2906 -2.22890291,115.610617 C-2.14610892,115.923284 -1.9694664,116.256964 -2.0205937,116.615102 C-2.04189674,116.7638 -2.02681188,116.917665 -2.02830886,117.069119 L-7.55558472,117.069119 C-7.66463327,116.882299 -7.77368182,116.695594 -7.9252213,116.43632 C-8.01285165,116.634737 -8.05845167,116.73762 -8.10393655,116.840733 C-8.29888817,116.546208 -8.34748214,116.249271 -8.40667005,115.88631 C-8.03093045,116.132494 -7.77955455,116.297038 -7.45286951,116.511186 C-7.70194238,115.977252 -7.9290213,115.49051 -8.12374262,115.072893 C-8.23970026,115.267635 -8.35991851,115.469382 -8.49165192,115.690649 C-8.77999148,115.001931 -9.02019768,114.427808 -9.26051902,113.85357 C-9.3050443,113.869186 -9.37190899,114.169606 -9.46111308,114.754829 C-9.62554953,114.411503 -9.68496775,114.0668 -9.74438597,113.722096 C-9.93680426,113.89284 -9.98908307,114.041653 -10.0870771,114.320677 C-10.1961256,113.984585 -10.2219196,113.627825 -10.3375318,113.596019 C-10.9205442,113.435723 -10.795029,112.878135 -10.998617,112.521031 C-11.1789444,112.204918 -11.6173264,112.077348 -11.8640963,112.321121 C-12.1135146,111.81417 -12.369842,111.292981 -12.6160361,110.79269 C-12.7681513,110.806929 -12.9057575,110.819789 -13.0431333,110.832649 C-12.8261877,110.621257 -12.5839088,110.502873 -12.2552662,110.342348 C-12.4671451,110.254852 -12.5911633,110.203755 -12.7186361,110.15128 L-12.7186361,108.997178 C-12.9594181,109.219363 -13.0484303,109.466696 -13.1754425,109.692785 C-13.5097275,109.862611 -13.5802003,109.738486 -13.6424973,109.673724 C-13.3982608,109.482541 -13.3663638,109.357957 -13.3931941,109.267016 C-13.4499638,109.074914 -13.5484184,108.894984 -13.681073,108.593225 L-13.681073,108.961353 C-13.9120671,108.861914 -14.131546,108.767414 -14.4059522,108.649374 C-14.3121037,108.392282 -14.20294,108.093393 -14.1145036,107.850654 C-14.2780188,107.754775 -14.5264008,107.695296 -14.5665887,107.569678 C-14.6986676,107.157228 -14.7549767,106.72078 -14.864601,106.172837 C-15.1500618,106.558188 -15.4113407,106.910929 -15.6706621,107.260915 C-15.9207713,107.111528 -16.183432,106.954563 -16.4410261,106.800698 L-16.4410261,105.820095 C-16.065632,106.12151 -15.8478803,106.434292 -15.620456,106.760968 C-15.5765832,106.545902 -15.5325953,106.330261 -15.5155529,106.246439 C-15.7071651,106.034817 -15.8813895,105.898176 -15.979038,105.719509 C-16.0883168,105.519485 -16.1281593,105.281683 -16.2078442,105.029528 C-16.4543837,105.191775 -16.701499,105.354252 -17.1089053,105.622367 C-17.0519053,105.153309 -17.0098749,104.807802 -16.9699173,104.478485 C-17.1084447,104.439559 -17.4015055,104.428306 -17.5930025,104.283627 C-17.7811602,104.141359 -17.8664875,103.863484 -18.0031725,103.634753 C-17.9051785,103.353433 -17.7849602,103.008041 -17.6467783,102.611666 C-17.5894328,102.598576 -17.4474509,102.561258 -17.3033963,102.535882 C-17.1723538,102.512687 -17.0390083,102.502468 -16.9066991,102.486507 C-17.7854208,102.222755 -17.9250997,102.28143 -18.1858029,102.944313 C-18.5336758,102.915377 -18.7400274,102.793893 -18.7225244,102.378227 C-18.7166517,102.240323 -18.9577791,102.092199 -19.0860579,101.948783 C-19.0912398,102.208287 -18.9733245,102.315533 -18.7916153,102.480536 C-19.420343,102.385232 -19.5334218,102.217243 -19.5356097,101.553787 C-19.3725551,101.461468 -19.2233186,101.377072 -19.1738034,101.349054 C-19.6485734,100.890445 -20.0640403,100.489133 -20.5015012,100.066578 C-20.3301556,99.9666808 -20.2059071,99.8942265 -20.1495979,99.8613867 C-20.1920889,99.3957728 -20.2291677,98.9905568 -20.2678586,98.5663946 C-20.4250405,98.4961219 -20.6304709,98.4043771 -20.8356711,98.3126322 C-21.1209015,98.4704012 -21.4990593,98.5871779 -21.6684473,98.4491587 C-22.2229021,97.997209 -21.7186534,97.593256 -21.4421744,97.1337278 C-21.7462898,97.1090406 -21.9957081,97.0887166 -22.2794416,97.0656368 C-22.3389749,96.4275564 -22.3973568,95.8004992 -22.4557386,95.1735568 C-22.4793063,95.1750112 -22.5145811,95.4001823 -22.5615629,95.84907 C-23.0613208,95.1510512 -22.9396056,94.8497514 -22.1588779,94.6892265 C-21.9885687,94.654205 -21.8207928,94.6062083 -21.6517503,94.5641825 L-23.7531515,94.4635962 C-23.6887818,94.6645392 -23.6485939,94.7900426 -23.608406,94.915431 C-24.3321336,94.7601882 -24.3237276,94.7586954 -24.6204732,94.8806392 C-24.7295217,94.9254208 -24.8586067,94.9382811 -24.9783643,94.9374774 C-25.3591706,94.935066 -25.7445829,94.87685 -26.1197468,94.9176127 C-26.8969048,95.0020088 -27.6684204,95.1362388 -28.5685603,95.2686316 C-28.3922632,94.344523 -28.1773904,93.6081528 -28.1344388,92.8620224 C-28.1034631,92.3268248 -27.7661841,91.7308851 -28.2981844,91.2253123 C-28.1448025,91.2169301 -28.0333357,91.2109592 -27.9216387,91.2048735 C-28.2130874,91.1032537 -28.4610087,91.1886832 -28.702021,91.2720459 C-28.7462392,90.8787716 -28.7931059,90.46081 -28.8343301,90.0939453 C-28.711118,89.5218891 -28.5918209,88.9678603 -28.4664208,88.3854698 C-28.5922815,88.3178381 -28.7167604,88.2508953 -28.7781362,88.2178259 C-28.8582817,88.7150165 -28.9353181,89.1945241 -29.0008393,89.6019218 C-29.1695364,89.4326703 -29.3019607,89.2997034 -29.434385,89.1667365 L-29.434385,70.2206744 C-29.0559969,70.2488065 -28.6588391,70.2133257 -28.3027904,70.3174716 C-27.3830748,70.5860464 -26.4911106,70.9487773 -25.5709343,71.2150556 C-23.4655029,71.8242002 -21.3597259,72.4381675 -19.2312641,72.9574044 C-18.7184941,73.0824484 -18.0852756,72.9345543 -17.5655965,72.7495718 C-17.0975053,72.5830761 -16.7841778,72.1197588 -16.7940809,71.5822648 C-16.803293,71.0813998 -17.212772,70.8880351 -17.6315783,70.7701102 C-18.051421,70.6520705 -18.4769061,70.5109511 -18.9071124,70.4806374 C-19.7201977,70.4232251 -20.548483,70.5139365 -21.3527017,70.4085275 C-23.8848849,70.076914 -25.8794254,68.7067118 -27.6236264,66.952651 C-28.2978389,66.2746116 -28.8349059,65.4609643 -29.434385,64.7090927 L-29.434385,55.293474 C-27.6830446,55.8266047 -26.0736861,56.6368072 -24.624849,57.7561176 C-23.8116485,58.3844379 -22.9445571,58.9601686 -22.2143809,59.6739184 C-21.6373564,60.2382814 -21.2814228,61.0211556 -20.7394043,61.6292668 C-19.7045371,62.7903734 -18.6352395,63.9247258 -17.5280571,65.017282 C-16.1889593,66.3387986 -14.6032069,67.314004 -12.8287211,67.9348607 C-11.8176902,68.2885206 -10.7597926,68.4820001 -9.79056175,67.7325398 C-9.09873105,67.1978015 -9.07477952,66.7451629 -9.69003442,66.1424485 C-10.4849258,65.3637079 -11.4745385,64.9636589 -12.5252966,64.7257423 C-14.8253343,64.2051275 -16.84279,63.2334816 -18.1785483,61.2119942 C-19.0022276,59.9653433 -19.4954218,58.5688463 -19.7816886,57.0984022 C-20.1189676,55.3658135 -20.4456526,53.6294356 -20.8610044,51.9148744 C-20.9948105,51.3622235 -21.3943865,50.87353 -21.6724776,50.3554413 C-21.7310897,50.2463579 -21.7899322,50.1372745 -21.7778413,49.9022285 C-21.0451318,50.133026 -20.2946889,50.3195012 -19.5839734,50.6048404 C-18.5781243,51.0087934 -17.5901238,51.4620061 -16.6154808,51.9370356 C-15.1250739,52.6637606 -14.0784612,53.9115597 -13.0000666,55.1109029 C-12.2787571,55.9131825 -11.616981,56.7696593 -10.8800109,57.5567821 C-9.5174222,59.0121841 -8.19006993,60.5124826 -6.71325091,61.8454816 C-5.52811084,62.9153025 -4.13834642,63.7585745 -2.39932725,63.5787592 C-2.10212102,63.548101 -1.79409054,63.4929852 -1.52302372,63.3756344 C-1.23088416,63.2489829 -1.11170227,62.9805229 -1.41673881,62.7501847 C-2.18779379,62.1680239 -2.96656393,61.593786 -3.76836439,61.0549141 C-5.0623227,60.1851176 -6.41074771,59.3927129 -7.67349994,58.4813499 C-8.89353094,57.6008747 -9.71341019,56.4567622 -9.91976182,54.8747086 C-10.1251922,53.2996593 -10.529144,51.7504456 -10.8359078,50.1879122 C-11.0408776,49.1439267 -11.1848171,48.0858179 -11.4379203,47.0541187 C-11.6191688,46.3152223 -11.9358357,45.6091657 -12.2139268,44.8270952 C-12.0938237,44.8699248 -11.9599024,44.897253 -11.8467084,44.9610955 C-10.4301136,45.7598156 -9.02595525,46.5810412 -7.59842111,47.3594373 C-6.80099641,47.7942782 -5.95578381,48.141393 -5.14972275,48.5616511 C-3.56846125,49.3860919 -2.46438789,50.6852176 -1.57944799,52.1971133 C-0.524774668,53.9991709 0.271498512,55.9099674 0.872935217,57.9052748 C0.925674641,58.0801527 1.01503227,58.2442371 1.10082019,58.4444912 C1.24729301,58.2195498 1.36175368,58.0439829 1.4760992,57.8683013 C1.64963263,58.4377165 0.978414065,58.9096457 1.45882646,59.4389872 C1.54162045,59.5303876 1.71285085,59.5422145 1.71929933,59.6531351 C1.94234795,60.0055319 2.10931774,60.4147668 2.39926942,60.6993022 C3.14913651,61.435328 4.04754914,61.9135726 5.12939824,61.9635213 C5.76595618,61.9929164 6.40332018,62.0382721 7.0391872,62.0248376 C7.23747823,62.0207039 7.43219955,61.8474336 7.62853299,61.751555 C7.53146021,61.5746103 7.46996927,61.361381 7.33167222,61.2262324 C6.01433814,59.9392781 4.66844646,58.6810299 3.36216693,57.3831672 C2.26995419,56.2980746 1.10093535,55.2852066 0.350607647,53.889743 C-0.489883739,52.3272096 -0.713853563,50.6477848 -0.673205055,48.9320753 C-0.631750486,47.1834112 -0.454301901,45.4381918 -0.349168508,43.6907908 C-0.331320013,43.3945433 -0.40110187,43.0937028 -0.389126106,42.7965366 C-0.372774582,42.3869572 -0.156750217,42.2955568 0.177074216,42.5252061 C0.752601815,42.9212362 1.28080212,43.4087815 1.90031762,43.713526 C2.93546607,44.2227065 3.97061453,44.7487864 5.03013344,45.2045864 Z M19.3982922,2.95386805 C19.405868,4.09412576 19.5027457,5.24265535 19.400014,6.37291785 C19.2542383,7.97571232 18.7400057,9.45293484 17.6298145,10.7053227 C16.7992372,11.6423445 16.2056889,12.7138995 15.9250419,13.9954688 C15.7271542,14.8999775 15.7781183,15.7294647 15.9858774,16.5771041 C16.2180855,17.5237765 16.6411795,17.8032976 17.6236161,17.7735418 C18.2325455,17.7551598 18.7965943,17.2960696 18.8614473,16.5025422 C18.945584,15.4742997 18.890832,14.4290539 18.8232242,13.3959862 C18.759519,12.4231195 18.5897534,11.4186587 19.2027002,10.5877928 C19.6676904,9.95740553 20.2637639,9.40089084 20.8808429,8.91170018 C21.6489777,8.30279682 22.4937883,7.78936492 23.3152977,7.24973868 C23.7329968,6.97550239 23.9538413,7.09590442 24.2168116,7.56269203 C25.3128844,9.50739148 26.0007852,11.5782373 26.2489483,13.7855694 C26.3856561,15.0025719 26.3824421,16.2370373 25.6191282,17.2990567 C25.4307676,17.5613447 25.1448406,17.7742311 24.8651118,17.9470218 C22.7546924,19.2507643 21.2561868,21.1146979 20.0221435,23.2192058 C19.5720753,23.9865389 19.1857122,24.7813301 19.1769886,25.709046 C19.1728564,26.1386101 19.2257718,26.5345122 19.647144,26.7287868 C20.0906696,26.9334013 20.6085752,27.0094568 21.0001036,26.6984566 C21.5766638,26.2405153 22.1559789,25.7440867 22.5899773,25.1573566 C23.5390118,23.8739492 24.2864855,22.4401541 24.6296898,20.8889441 C24.9782889,19.3131482 25.9972269,18.4984814 27.3376749,17.9428858 C28.5743582,17.430373 29.8418036,16.9918477 31.0994923,16.531264 C31.2120955,16.4900194 31.3525912,16.5257494 31.53659,16.5257494 C31.4623247,16.8357157 31.4274304,17.1123646 31.3297491,17.3647723 C30.9259389,18.4077204 31.0942123,19.4332055 31.4370722,20.4373216 C32.30197,22.9695554 31.0618432,25.0459158 28.8910474,26.3104817 C27.1664171,27.3151723 25.2281738,28.0138027 23.8756734,29.5921261 C23.7161236,29.7782438 23.5518676,29.9725184 23.4454628,30.1902301 C22.9578602,31.188372 23.4505133,32.1197644 24.5453235,32.3526412 C25.5422229,32.5646085 26.4285853,32.3651639 27.2189882,31.7276536 C28.5978889,30.6154284 29.6373732,29.2744624 30.0966242,27.5258758 C30.5271791,25.8867769 31.5252264,24.6478309 32.9936586,23.8600478 C33.9856223,23.3278893 35.070102,22.964845 36.124623,22.5553862 C36.6017802,22.3700728 36.9212242,22.5830741 37.0715913,23.0704265 C37.5383032,24.5832642 37.6308192,26.1108074 37.4744833,27.6936114 C37.2158749,30.3151127 35.5517358,31.9504203 33.6243969,33.3818028 C32.582043,34.1560291 31.4037848,34.7486185 30.2767203,35.4060043 C29.3452478,35.949307 29.1310608,36.7529445 29.7303483,37.6742268 C30.244466,38.4646523 30.8812879,39.1647762 31.9129669,39.0757385 C32.7763724,39.0012914 33.4052742,38.3738912 33.9017152,37.7345427 C34.853734,36.5082343 35.7262075,35.2186229 36.6030429,33.9356751 C37.3411042,32.8555035 38.280956,32.0242929 39.4910094,31.5392382 C39.8638279,31.3897697 40.3047135,31.4102197 40.7587991,31.3466869 C40.293809,33.3258526 40.2744105,35.1757699 40.3747317,37.0374058 C40.4185792,37.8519576 40.4416508,38.6739772 40.3821927,39.4858866 C40.2942681,40.6834731 39.5070791,41.5268617 38.7004917,42.293046 C37.2358473,43.6841029 35.691428,44.9800331 33.9900989,46.0911094 C32.8240078,46.8526981 31.739643,47.740663 30.6299108,48.5868089 C29.8218312,49.2029502 28.9588847,49.7710685 28.2519298,50.4901489 C27.3218347,51.4357873 27.0429095,52.7456188 26.6485115,53.9734208 C26.5872168,54.1643637 26.5392371,54.3595574 26.4507386,54.6751532 C26.2459639,54.4392893 26.0775757,54.3102707 25.995046,54.1396629 C25.4001203,52.9103674 24.8069163,51.6795784 24.2572156,50.4299479 C24.1788181,50.2517575 24.2736297,49.9260516 24.3970225,49.7416573 C25.330102,48.3484175 26.7274829,47.4545933 28.0532386,46.5133207 C29.7793611,45.2880463 31.5916863,44.1848972 33.3614267,43.0208578 C34.0243045,42.5849749 34.7535276,42.2089484 35.3095415,41.6603609 C36.6330015,40.3545504 37.208873,38.6462893 37.597417,36.8662235 C37.2982898,37.4569747 37.0051314,38.0507129 36.6990023,38.6377876 C35.9751741,40.0258575 34.9263923,41.195871 33.7539881,42.1567895 C31.9957262,43.5980522 29.9544067,44.6066489 27.8107,45.4313109 C26.6808806,45.86593 25.6889169,46.6624445 24.642316,47.307997 C24.3028996,47.5173219 23.9622206,47.7375611 23.6681438,48.0036403 C23.2610048,48.3721992 23.0205323,48.1963066 22.8446831,47.8013236 C22.4823099,46.9870015 22.1492066,46.159812 21.7902769,45.3439964 C21.4700294,44.6158399 21.181118,43.8670037 20.7849983,43.1814704 C20.4710639,42.6383976 20.5915871,42.2130843 20.9214765,41.7923666 C22.1950054,40.1677435 23.7754669,38.8983523 25.553357,37.8707992 C26.207626,37.4925898 26.9552145,37.2458116 27.5417609,36.7872958 C28.4060848,36.1119876 29.2111801,35.3439651 29.9544067,34.5351576 C30.681908,33.7433535 31.3574121,32.8892804 31.9521082,31.993618 C32.7013037,30.8649639 33.3458161,29.6666881 34.0317655,28.496215 C34.04267,28.4777181 34.0076609,28.4322227 33.9795388,28.3639796 C33.4265092,29.1205133 32.9270839,29.8972671 32.3335356,30.5937147 C31.3816315,31.7107652 30.5698788,32.925355 29.4797747,33.9552059 C28.0370541,35.3182303 26.3651097,36.2385935 24.6855896,37.2091625 C23.1310693,38.1074673 21.5771229,39.0297835 20.2998061,40.3303092 C20.1703297,40.462085 20.0006789,40.5542248 19.8070382,40.6962256 C19.6233837,40.3706347 19.4373188,40.0897349 19.2993484,39.7871214 C18.8602994,38.8243648 18.4874809,37.8282908 17.99896,36.892303 C17.4110361,35.7658317 17.7467794,34.8016965 18.4830043,33.9743921 C19.9231997,32.3563176 21.395305,30.7609908 22.9386913,29.2420642 C24.3208059,27.8819119 26.9143514,24.1074004 27.610287,22.6694694 C27.2929091,23.0790431 26.9503936,23.4716134 26.6624004,23.9009477 C25.2207128,26.0510659 23.3536356,27.8087286 21.4731286,29.5522602 C20.5014817,30.4529776 19.4820846,31.3024553 18.5115855,32.2043215 C17.9863337,32.6923633 17.5182444,33.2420997 16.9405363,33.8524966 C16.7587184,33.397887 16.5770152,32.9948619 16.4349126,32.5782801 C16.0614053,31.4837476 15.6497897,30.3970275 15.3712089,29.2777941 C15.2698546,28.8709778 15.3954283,28.3239987 15.6005474,27.9385514 C16.624995,26.0136126 17.6774499,24.1016561 18.7877559,22.2254295 C19.344229,21.2848462 20.1558669,20.4868381 20.6516192,19.5213242 C21.2253098,18.404044 21.6395655,17.1922114 22.0084814,15.986353 C22.3124295,14.9931512 22.4490225,13.9489394 22.5841233,12.9111612 C22.2176179,14.0297052 21.832747,15.1425048 21.4887392,16.2678272 C20.9380054,18.0696067 20.2263443,19.7363934 18.9274481,21.1938553 C17.494025,22.8023942 16.3117493,24.6349635 15.0179036,26.3681552 C14.9424905,26.4691413 14.8460719,26.5543877 14.6649427,26.7478581 C14.4490339,26.0298117 14.2465548,25.4098792 14.0765597,24.7811003 C13.6468082,23.1918625 13.2017905,21.6056119 12.8309232,20.0023578 C12.7354229,19.5895673 12.800735,19.0854413 12.9480029,18.6797738 C13.658631,16.7222069 14.4839282,14.8043911 15.143133,12.8306252 C15.5001114,11.7617126 15.6322278,10.6130681 15.8174892,9.49245612 C15.9597067,8.63160464 16.0261666,7.75823043 16.0830995,6.88152448 C15.4428341,10.6022687 14.0412062,14.0611844 12.5133158,17.4769024 C12.4742892,17.564102 12.3551434,17.6154567 12.177802,17.7629721 C10.9934603,12.6956324 9.89532133,7.695387 7.91988795,2.95386805 L12.1668975,2.95386805 C12.0740372,3.86113406 11.9757821,4.76805539 11.8899236,5.67601072 C11.788225,6.75135703 11.6586338,7.82612889 11.6153602,8.90411761 C11.5866642,9.62021094 11.7913241,10.2970128 12.3868238,10.7868927 C13.0301883,11.3161791 13.3684569,11.2026703 13.4995403,10.3631879 C13.5873501,9.80219262 13.6294758,9.22924903 13.6349854,8.6611307 C13.6540396,6.68012682 13.759067,4.7214111 14.8069305,2.95386805 L19.3982922,2.95386805 Z" mask="url(#ulu-icon-b)"/>
    <path stroke="#FFF" stroke-width="1.487" d="M56.2703305,2.48932546 C53.4339355,0.851732029 49.9393527,0.851732029 47.1029577,2.48932546 L6.09641184,26.1644657 C3.26001682,27.8020592 1.51272543,30.8284566 1.51272543,34.1036435 L1.51272543,81.453924 C1.51272543,84.7291109 3.26001682,87.7555083 6.09641184,89.3931018 L47.1029577,113.068242 C49.9393527,114.705835 53.4339355,114.705835 56.2703305,113.068242 L97.2768763,89.3931018 C100.113271,87.7555083 101.860563,84.7291109 101.860563,81.453924 L101.860563,34.1036435 C101.860563,30.8284566 100.113271,27.8020592 97.2768763,26.1644657 L56.2703305,2.48932546 Z"/>
  </g>
</svg>
