<svg xmlns="http://www.w3.org/2000/svg" xmlns:xlink="http://www.w3.org/1999/xlink" width="32" height="32" viewBox="0 0 32 32">
  <defs>
    <path id="-user-a" d="M16,-1.48292683 C13.8146242,-1.48292683 11.746349,-1.06666833 9.79512445,-0.234146341 C7.84389495,0.598375649 6.13984406,1.74308277 4.68292683,3.2 C3.2260091,4.65691723 2.08130498,6.36096812 1.24878049,8.31219762 C0.416256,10.2634221 0,12.3316973 0,14.5170732 C0,16.702449 0.416256,18.7707242 1.24878049,20.7219487 C2.08130498,22.6731782 3.2260091,24.3772291 4.68292683,25.8341463 C6.13984406,27.2910641 7.84389495,28.4357682 9.79512445,29.2682927 C11.746349,30.1008172 13.8146242,30.5170732 16,30.5170732 C18.1853758,30.5170732 20.253651,30.1008172 22.2048756,29.2682927 C24.1561051,28.4357682 25.8601559,27.2910641 27.3170732,25.8341463 C28.7739904,24.3772291 29.9186975,22.6731782 30.7512195,20.7219487 C31.5837415,18.7707242 32,16.702449 32,14.5170732 C32,12.3316973 31.5837415,10.2634221 30.7512195,8.31219762 C29.9186975,6.36096812 28.7739904,4.65691723 27.3170732,3.2 C25.8601559,1.74308277 24.1561051,0.598375649 22.2048756,-0.234146341 C20.253651,-1.06666833 18.1853758,-1.48292683 16,-1.48292683 Z M16,-0.156097561 C18.0292783,-0.156097561 19.9284486,0.234141346 21.697561,1.01463415 C23.4666733,1.79512695 25.027634,2.8357657 26.3804878,4.13658537 C27.6813075,5.48943922 28.7219462,7.05039984 29.502439,8.8195122 C30.2829318,10.5886245 30.6731707,12.4877949 30.6731707,14.5170732 C30.6731707,15.4016293 30.595122,16.2731682 30.4390244,17.1317048 C30.2829268,17.9902464 30.0487805,18.8097511 29.7365854,19.5902439 C29.4764194,20.3707367 29.1252074,21.1251999 28.6829293,21.8536585 C28.2406462,22.5821172 27.7593513,23.2585316 27.2390244,23.8829268 C26.8747951,23.7268293 26.4065074,23.5447171 25.8341463,23.3365854 C25.2617853,23.1284536 24.6374,22.8943123 23.9609756,22.6341463 C23.3365804,22.4260146 22.6861805,22.2178878 22.0097561,22.0097561 C21.3333317,21.8016244 20.734961,21.6195122 20.2146341,21.4634146 C20.1105708,21.4113804 20.0455293,21.346344 20.0195097,21.2682952 C19.9934951,21.1902414 19.9804878,20.9691074 19.9804878,20.604878 C19.9804878,20.2926829 20.032522,19.9804878 20.1365854,19.6682927 C20.2406487,19.3560976 20.3707317,19.069922 20.5268293,18.8097561 C20.6308926,18.5495902 20.7609756,18.1853659 20.9170732,17.7170732 C21.0731707,17.2487805 21.1772341,16.8065074 21.2292683,16.3902439 C21.3853659,16.1821122 21.567478,15.8829293 21.7756098,15.4926854 C21.9837415,15.1024365 22.1398391,14.5691074 22.2439024,13.8926829 C22.4,13.2682877 22.4650415,12.8130073 22.4390269,12.5268318 C22.4130073,12.2406512 22.3479658,11.967483 22.2439024,11.7073171 C22.2439024,11.7073171 22.2308951,11.6943098 22.2048756,11.6682902 C22.178861,11.6422756 22.1658537,11.6292683 22.1658537,11.6292683 C22.1658537,11.4731707 22.178861,11.0829318 22.2048756,10.4585366 C22.2308951,9.83414135 22.2959366,9.20976109 22.4,8.58536585 C22.5040634,8.22113655 22.4780488,7.66179278 22.3219512,6.90731957 C22.1658537,6.15284137 21.8276439,5.41138544 21.3073171,4.68292683 C21.0991853,4.47479508 20.865044,4.24065374 20.604878,3.9804878 C20.3447121,3.72032187 20.032522,3.51219512 19.6682927,3.35609756 C19.3040634,3.14796581 18.8878049,2.96585366 18.4195122,2.8097561 C17.9512195,2.65365854 17.404883,2.54959516 16.7804878,2.49756098 L15.4536585,2.49756098 C14.8292633,2.54959516 14.2829268,2.65365854 13.8146341,2.8097561 C13.3463415,2.96585366 12.930083,3.14796581 12.5658537,3.35609756 C12.2016244,3.51219512 11.8894342,3.72032187 11.6292683,3.9804878 C11.3691024,4.24065374 11.1609756,4.47479508 11.004878,4.68292683 C10.432517,5.41138544 10.0813,6.15284137 9.95122201,6.90731957 C9.82113904,7.66179278 9.78211216,8.22113655 9.83414634,8.58536585 C9.93820972,9.20976109 10.0162585,9.83414135 10.0682927,10.4585366 C10.1203269,11.0829318 10.1203269,11.4731707 10.0682927,11.6292683 C10.0682927,11.6292683 10.0682927,11.6422756 10.0682927,11.6682902 C10.0682927,11.6943098 10.0422781,11.7073171 9.9902439,11.7073171 C9.93820972,11.967483 9.89918782,12.2406512 9.87316823,12.5268318 C9.84715364,12.8130073 9.88618053,13.2682877 9.9902439,13.8926829 C10.1463415,14.5691074 10.3154463,15.1024365 10.4975585,15.4926854 C10.6796756,15.8829293 10.8487805,16.1821122 11.004878,16.3902439 C11.0569122,16.8065074 11.1609756,17.2487805 11.3170732,17.7170732 C11.4731707,18.1853659 11.6032537,18.5495902 11.7073171,18.8097561 C11.8113804,19.0178878 11.8894292,19.2780488 11.9414634,19.5902439 C11.9934976,19.902439 12.0195122,20.2406487 12.0195122,20.604878 C12.0195122,21.0211415 12.0065049,21.2552829 11.9804903,21.3073171 C11.9544707,21.3593513 11.9154488,21.4113804 11.8634146,21.4634146 C11.2910536,21.6195122 10.6666683,21.8146316 9.9902439,22.048783 C9.31381947,22.2829293 8.63740004,22.5040634 7.96097561,22.7121951 C7.33658037,22.9723611 6.73821471,23.2065024 6.16585366,23.4146341 C5.5934926,23.6227659 5.15121951,23.804878 4.83902439,23.9609756 C4.26666384,23.3365804 3.77235956,22.6601659 3.35609756,21.9317073 C2.93983507,21.2032487 2.57561125,20.4227659 2.26341463,19.5902439 C1.95121801,18.8097511 1.71707417,17.9902464 1.56097561,17.1317048 C1.40487705,16.2731682 1.32682927,15.4016293 1.32682927,14.5170732 C1.32682927,12.4877949 1.71706917,10.5886245 2.49756098,8.8195122 C3.27805278,7.05039984 4.31869253,5.48943922 5.6195122,4.13658537 C6.97236605,2.8357657 8.53332667,1.79512695 10.302439,1.01463415 C12.0715514,0.234141346 13.9707217,-0.156097561 16,-0.156097561 Z"/>
  </defs>
  <g fill="none" fill-rule="evenodd">
    <mask id="-user-b" fill="#fff">
      <use xlink:href="#-user-a"/>
    </mask>
    <use fill="#000" xlink:href="#-user-a"/>
    <g fill="#B1B1B1" mask="url(#-user-b)">
      <rect width="44" height="44" transform="translate(-2 -4)"/>
    </g>
  </g>
</svg>
